G75*
%MOIN*%
%OFA0B0*%
%FSLAX25Y25*%
%IPPOS*%
%LPD*%
%AMOC8*
5,1,8,0,0,1.08239X$1,22.5*
%
%ADD10C,0.06000*%
%ADD11R,0.04724X0.04724*%
%ADD12R,0.05118X0.05906*%
%ADD13R,0.05906X0.05118*%
%ADD14C,0.05600*%
%ADD15R,0.05118X0.06299*%
%ADD16R,0.06299X0.05118*%
%ADD17R,0.01400X0.05800*%
%ADD18R,0.07800X0.02200*%
%ADD19R,0.02200X0.08600*%
%ADD20R,0.05200X0.01700*%
%ADD21R,0.05800X0.01400*%
%ADD22R,0.01700X0.05500*%
%ADD23OC8,0.19000*%
%ADD24C,0.01000*%
%ADD25C,0.01600*%
%ADD26C,0.03000*%
%ADD27C,0.04000*%
%ADD28OC8,0.08268*%
%ADD29OC8,0.04000*%
%ADD30C,0.03200*%
%ADD31C,0.02000*%
%ADD32C,0.04000*%
%ADD33C,0.02400*%
%ADD34C,0.03962*%
%ADD35OC8,0.03962*%
%ADD36C,0.01200*%
%ADD37C,0.01800*%
%ADD38R,0.04000X0.04000*%
D10*
X0182064Y0012500D02*
X0182064Y0018500D01*
X0192064Y0018500D02*
X0192064Y0012500D01*
X0202064Y0012500D02*
X0202064Y0018500D01*
X0212064Y0018500D02*
X0212064Y0012500D01*
X0222064Y0012500D02*
X0222064Y0018500D01*
X0232064Y0018500D02*
X0232064Y0012500D01*
X0242064Y0012500D02*
X0242064Y0018500D01*
X0252064Y0018500D02*
X0252064Y0012500D01*
X0272064Y0012500D02*
X0272064Y0018500D01*
X0282064Y0018500D02*
X0282064Y0012500D01*
X0292064Y0012500D02*
X0292064Y0018500D01*
X0302064Y0018500D02*
X0302064Y0012500D01*
X0312064Y0012500D02*
X0312064Y0018500D01*
X0322064Y0018500D02*
X0322064Y0012500D01*
X0367064Y0082500D02*
X0367064Y0088500D01*
X0377064Y0088500D02*
X0377064Y0082500D01*
X0322064Y0202500D02*
X0322064Y0208500D01*
X0312064Y0208500D02*
X0312064Y0202500D01*
X0302064Y0202500D02*
X0302064Y0208500D01*
X0292064Y0208500D02*
X0292064Y0202500D01*
X0282064Y0202500D02*
X0282064Y0208500D01*
X0272064Y0208500D02*
X0272064Y0202500D01*
X0262064Y0202500D02*
X0262064Y0208500D01*
X0252064Y0208500D02*
X0252064Y0202500D01*
X0236070Y0202462D02*
X0236070Y0208462D01*
X0226070Y0208462D02*
X0226070Y0202462D01*
X0216070Y0202462D02*
X0216070Y0208462D01*
X0206070Y0208462D02*
X0206070Y0202462D01*
X0196070Y0202462D02*
X0196070Y0208462D01*
X0186070Y0208462D02*
X0186070Y0202462D01*
X0176070Y0202462D02*
X0176070Y0208462D01*
X0166070Y0208462D02*
X0166070Y0202462D01*
X0156070Y0202462D02*
X0156070Y0208462D01*
X0146070Y0208462D02*
X0146070Y0202462D01*
D11*
X0116198Y0130500D03*
X0107931Y0130500D03*
X0107931Y0115500D03*
X0116198Y0115500D03*
D12*
X0158324Y0115500D03*
X0165805Y0115500D03*
X0165805Y0130500D03*
X0158324Y0130500D03*
X0120805Y0155500D03*
X0113324Y0155500D03*
X0113324Y0165500D03*
X0120805Y0165500D03*
X0120805Y0175500D03*
X0113324Y0175500D03*
X0090805Y0160500D03*
X0083324Y0160500D03*
X0083324Y0150500D03*
X0090805Y0150500D03*
X0158324Y0075500D03*
X0165805Y0075500D03*
X0165805Y0065500D03*
X0158324Y0065500D03*
X0238324Y0065500D03*
X0245805Y0065500D03*
X0245805Y0050500D03*
X0238324Y0050500D03*
X0303324Y0075500D03*
X0310805Y0075500D03*
X0310805Y0090500D03*
X0303324Y0090500D03*
X0250805Y0110500D03*
X0243324Y0110500D03*
X0273324Y0145500D03*
X0280805Y0145500D03*
X0280805Y0160500D03*
X0273324Y0160500D03*
X0348324Y0190500D03*
X0355805Y0190500D03*
X0355805Y0200500D03*
X0348324Y0200500D03*
X0368324Y0110500D03*
X0375805Y0110500D03*
X0375805Y0100500D03*
X0368324Y0100500D03*
D13*
X0337064Y0034240D03*
X0327064Y0034240D03*
X0327064Y0026760D03*
X0337064Y0026760D03*
X0157064Y0086760D03*
X0157064Y0094240D03*
X0182064Y0181760D03*
X0182064Y0189240D03*
X0197064Y0189240D03*
X0197064Y0181760D03*
D14*
X0217064Y0163300D02*
X0217064Y0157700D01*
X0227064Y0157700D02*
X0227064Y0163300D01*
X0237064Y0163300D02*
X0237064Y0157700D01*
X0237064Y0138300D02*
X0237064Y0132700D01*
X0227064Y0132700D02*
X0227064Y0138300D01*
X0217064Y0138300D02*
X0217064Y0132700D01*
X0114864Y0100500D02*
X0109264Y0100500D01*
X0109264Y0090500D02*
X0114864Y0090500D01*
X0114864Y0080500D02*
X0109264Y0080500D01*
X0269264Y0060500D02*
X0274864Y0060500D01*
X0274864Y0050500D02*
X0269264Y0050500D01*
X0269264Y0040500D02*
X0274864Y0040500D01*
X0294264Y0040500D02*
X0299864Y0040500D01*
X0299864Y0050500D02*
X0294264Y0050500D01*
X0294264Y0060500D02*
X0299864Y0060500D01*
D15*
X0280805Y0075500D03*
X0273324Y0075500D03*
X0338324Y0105500D03*
X0345805Y0105500D03*
X0345805Y0125500D03*
X0338324Y0125500D03*
X0338324Y0140500D03*
X0345805Y0140500D03*
X0320805Y0140500D03*
X0313324Y0140500D03*
X0250805Y0120500D03*
X0243324Y0120500D03*
X0200805Y0160500D03*
X0193324Y0160500D03*
X0145805Y0175500D03*
X0138324Y0175500D03*
X0120805Y0140500D03*
X0113324Y0140500D03*
X0133324Y0115500D03*
X0140805Y0115500D03*
X0328324Y0190500D03*
X0335805Y0190500D03*
X0348324Y0030500D03*
X0355805Y0030500D03*
D16*
X0347064Y0076760D03*
X0347064Y0084240D03*
X0332064Y0084240D03*
X0332064Y0076760D03*
X0277064Y0096760D03*
X0267064Y0096760D03*
X0267064Y0104240D03*
X0277064Y0104240D03*
X0252064Y0099240D03*
X0252064Y0091760D03*
X0237064Y0091760D03*
X0237064Y0099240D03*
X0187064Y0059240D03*
X0177064Y0059240D03*
X0177064Y0051760D03*
X0187064Y0051760D03*
X0252064Y0151760D03*
X0252064Y0159240D03*
X0235564Y0181520D03*
X0235564Y0189000D03*
X0282064Y0189240D03*
X0292064Y0189240D03*
X0292064Y0181760D03*
X0282064Y0181760D03*
X0302064Y0181760D03*
X0302064Y0189240D03*
X0122664Y0197860D03*
X0122664Y0205340D03*
D17*
X0304364Y0126600D03*
X0306964Y0126600D03*
X0309464Y0126600D03*
X0312064Y0126600D03*
X0314664Y0126600D03*
X0317164Y0126600D03*
X0319764Y0126600D03*
X0319764Y0104400D03*
X0317164Y0104400D03*
X0314664Y0104400D03*
X0312064Y0104400D03*
X0309464Y0104400D03*
X0306964Y0104400D03*
X0304364Y0104400D03*
X0359364Y0119400D03*
X0361964Y0119400D03*
X0364464Y0119400D03*
X0367064Y0119400D03*
X0369664Y0119400D03*
X0372164Y0119400D03*
X0374764Y0119400D03*
X0374764Y0141600D03*
X0372164Y0141600D03*
X0369664Y0141600D03*
X0367064Y0141600D03*
X0364464Y0141600D03*
X0361964Y0141600D03*
X0359364Y0141600D03*
D18*
X0286764Y0133000D03*
X0286764Y0128000D03*
X0286764Y0123000D03*
X0286764Y0118000D03*
X0267364Y0118000D03*
X0267364Y0123000D03*
X0267364Y0128000D03*
X0267364Y0133000D03*
X0221764Y0068000D03*
X0221764Y0063000D03*
X0221764Y0058000D03*
X0221764Y0053000D03*
X0202364Y0053000D03*
X0202364Y0058000D03*
X0202364Y0063000D03*
X0202364Y0068000D03*
X0146764Y0088000D03*
X0146764Y0093000D03*
X0146764Y0098000D03*
X0146764Y0103000D03*
X0127364Y0103000D03*
X0127364Y0098000D03*
X0127364Y0093000D03*
X0127364Y0088000D03*
X0101764Y0178000D03*
X0101764Y0183000D03*
X0101764Y0188000D03*
X0101764Y0193000D03*
X0082364Y0193000D03*
X0082364Y0188000D03*
X0082364Y0183000D03*
X0082364Y0178000D03*
D19*
X0324564Y0174800D03*
X0329564Y0174800D03*
X0334564Y0174800D03*
X0339564Y0174800D03*
X0344564Y0174800D03*
X0349564Y0174800D03*
X0354564Y0174800D03*
X0359564Y0174800D03*
X0359564Y0156200D03*
X0354564Y0156200D03*
X0349564Y0156200D03*
X0344564Y0156200D03*
X0339564Y0156200D03*
X0334564Y0156200D03*
X0329564Y0156200D03*
X0324564Y0156200D03*
X0324564Y0064800D03*
X0329564Y0064800D03*
X0334564Y0064800D03*
X0339564Y0064800D03*
X0344564Y0064800D03*
X0349564Y0064800D03*
X0354564Y0064800D03*
X0359564Y0064800D03*
X0359564Y0046200D03*
X0354564Y0046200D03*
X0349564Y0046200D03*
X0344564Y0046200D03*
X0339564Y0046200D03*
X0334564Y0046200D03*
X0329564Y0046200D03*
X0324564Y0046200D03*
D20*
X0197064Y0141700D03*
X0197064Y0144200D03*
X0197064Y0146800D03*
X0197064Y0149300D03*
X0187064Y0149300D03*
X0187064Y0146800D03*
X0187064Y0144200D03*
X0187064Y0141700D03*
D21*
X0200964Y0119500D03*
X0200964Y0116900D03*
X0200964Y0114300D03*
X0200964Y0111800D03*
X0200964Y0109200D03*
X0200964Y0106700D03*
X0200964Y0104100D03*
X0200964Y0101500D03*
X0223164Y0101500D03*
X0223164Y0104100D03*
X0223164Y0106700D03*
X0223164Y0109200D03*
X0223164Y0111800D03*
X0223164Y0114300D03*
X0223164Y0116900D03*
X0223164Y0119500D03*
D22*
X0160864Y0146600D03*
X0158364Y0146600D03*
X0155764Y0146600D03*
X0153264Y0146600D03*
X0153264Y0164400D03*
X0155764Y0164400D03*
X0158364Y0164400D03*
X0160864Y0164400D03*
D23*
X0117064Y0042700D03*
X0093464Y0042700D03*
X0105264Y0023000D03*
D24*
X0202114Y0057700D02*
X0202364Y0058000D01*
X0202564Y0062650D02*
X0202364Y0063000D01*
X0202564Y0067600D02*
X0202364Y0068000D01*
X0202564Y0067600D02*
X0208414Y0067600D01*
X0215614Y0060400D01*
X0248914Y0060400D01*
X0255439Y0066925D01*
X0252064Y0070300D01*
X0252064Y0091760D01*
X0252064Y0099240D02*
X0252064Y0099600D01*
X0237214Y0099600D01*
X0237064Y0099240D01*
X0236764Y0099600D01*
X0236764Y0101350D01*
X0226414Y0111700D01*
X0223264Y0111700D01*
X0223164Y0111800D01*
X0223164Y0114300D02*
X0239564Y0114300D01*
X0243064Y0110800D01*
X0243324Y0110500D01*
X0250714Y0110800D02*
X0250714Y0120410D01*
X0250805Y0120500D01*
X0243324Y0120500D02*
X0237064Y0120500D01*
X0232064Y0125500D01*
X0257064Y0125500D01*
X0259564Y0123000D01*
X0267364Y0123000D01*
X0269614Y0127900D02*
X0272764Y0124750D01*
X0272764Y0104500D01*
X0267364Y0104500D01*
X0267064Y0104240D01*
X0272764Y0104500D02*
X0276814Y0104500D01*
X0277064Y0104240D01*
X0284464Y0118000D02*
X0269614Y0132850D01*
X0267364Y0132850D01*
X0267364Y0133000D01*
X0266914Y0132850D01*
X0265114Y0132850D01*
X0260614Y0128350D01*
X0235414Y0128350D01*
X0232714Y0131050D01*
X0232714Y0138700D01*
X0227314Y0144100D01*
X0227314Y0160300D01*
X0227064Y0160500D01*
X0217064Y0160500D02*
X0216964Y0160300D01*
X0216964Y0158500D01*
X0217064Y0158400D01*
X0217064Y0145500D01*
X0213414Y0141850D01*
X0197164Y0141850D01*
X0197064Y0141700D01*
X0189964Y0146800D02*
X0193114Y0149950D01*
X0193114Y0160300D01*
X0193324Y0160500D01*
X0192064Y0165500D02*
X0199364Y0172800D01*
X0199364Y0173000D01*
X0212664Y0173000D01*
X0215164Y0170500D01*
X0215164Y0167500D01*
X0308764Y0167500D01*
X0303564Y0173000D02*
X0301064Y0170500D01*
X0292064Y0170500D01*
X0288564Y0174000D01*
X0292064Y0189240D02*
X0292114Y0189550D01*
X0292114Y0205300D01*
X0292064Y0205500D01*
X0282214Y0205300D02*
X0282064Y0205500D01*
X0282214Y0205300D02*
X0282214Y0189550D01*
X0282064Y0189240D01*
X0302064Y0189240D02*
X0302464Y0189100D01*
X0316864Y0174700D01*
X0316864Y0172450D01*
X0325414Y0163900D01*
X0361864Y0163900D01*
X0366364Y0163900D01*
X0365264Y0162100D02*
X0372164Y0155200D01*
X0377164Y0156250D02*
X0364564Y0168850D01*
X0358264Y0168850D01*
X0354664Y0172450D01*
X0354664Y0174700D01*
X0354564Y0174800D01*
X0349564Y0174800D02*
X0349264Y0174700D01*
X0344764Y0174700D01*
X0344564Y0174800D01*
X0351964Y0179650D02*
X0351964Y0169750D01*
X0351064Y0168850D01*
X0333064Y0168850D01*
X0329914Y0172000D01*
X0329914Y0174700D01*
X0329564Y0174800D01*
X0329464Y0172000D01*
X0326314Y0168850D01*
X0323164Y0168850D01*
X0320464Y0171550D01*
X0320464Y0173800D01*
X0324064Y0175600D02*
X0319964Y0179700D01*
X0319964Y0185900D01*
X0320064Y0186000D01*
X0328564Y0185500D02*
X0328564Y0190450D01*
X0328324Y0190500D01*
X0324064Y0194050D02*
X0324064Y0175600D01*
X0324514Y0175150D01*
X0324564Y0174800D01*
X0334414Y0175150D02*
X0334564Y0174800D01*
X0334414Y0175150D02*
X0334414Y0179650D01*
X0328564Y0185500D01*
X0324064Y0194050D02*
X0334864Y0204850D01*
X0359164Y0204850D01*
X0360064Y0203950D01*
X0360064Y0184600D01*
X0381664Y0163000D01*
X0381664Y0155800D01*
X0383464Y0154000D01*
X0383464Y0077500D01*
X0359164Y0053200D01*
X0358714Y0053200D01*
X0358264Y0053650D01*
X0359164Y0053200D02*
X0359164Y0050950D01*
X0359614Y0050500D01*
X0359614Y0046450D01*
X0359564Y0046200D01*
X0354664Y0046450D02*
X0354564Y0046200D01*
X0354664Y0046450D02*
X0354664Y0056350D01*
X0357364Y0059050D01*
X0361414Y0059050D01*
X0381664Y0079300D01*
X0381664Y0152650D01*
X0378964Y0155350D01*
X0378964Y0163000D01*
X0361414Y0180550D01*
X0352864Y0180550D01*
X0351964Y0179650D01*
X0365264Y0162100D02*
X0323164Y0162100D01*
X0317764Y0156700D01*
X0320914Y0152200D02*
X0324514Y0155800D01*
X0324564Y0156200D01*
X0320914Y0152200D02*
X0320914Y0140500D01*
X0320805Y0140500D01*
X0317164Y0129000D02*
X0317164Y0126600D01*
X0317064Y0126500D01*
X0317064Y0122500D01*
X0319364Y0120200D01*
X0319714Y0120200D01*
X0317064Y0125500D02*
X0317164Y0125600D01*
X0317164Y0126600D01*
X0317314Y0126550D01*
X0319764Y0126600D02*
X0320014Y0126550D01*
X0329464Y0126550D01*
X0335314Y0120700D01*
X0352414Y0120700D01*
X0369064Y0137350D01*
X0373564Y0137350D01*
X0374464Y0138250D01*
X0374464Y0141400D01*
X0374764Y0141600D01*
X0374464Y0141850D01*
X0377164Y0138250D02*
X0377164Y0156250D01*
X0366814Y0145000D02*
X0361414Y0150400D01*
X0357814Y0150400D01*
X0354664Y0153550D01*
X0354664Y0155800D01*
X0354564Y0156200D01*
X0357814Y0145900D02*
X0349714Y0137800D01*
X0349714Y0129250D01*
X0346114Y0125650D01*
X0345805Y0125500D01*
X0356464Y0121900D02*
X0356464Y0115500D01*
X0357439Y0114525D01*
X0357439Y0112475D01*
X0356064Y0111100D01*
X0331564Y0111100D01*
X0331564Y0111200D01*
X0328764Y0114000D01*
X0323264Y0114000D01*
X0320264Y0111000D01*
X0318564Y0111000D01*
X0312464Y0117100D01*
X0306964Y0123400D02*
X0305614Y0122050D01*
X0288064Y0122050D01*
X0287164Y0122950D01*
X0286764Y0123000D01*
X0286714Y0123400D01*
X0286714Y0127900D01*
X0286764Y0128000D01*
X0286764Y0118000D02*
X0284464Y0118000D01*
X0269614Y0127900D02*
X0267364Y0127900D01*
X0267364Y0128000D01*
X0250714Y0110800D02*
X0250805Y0110500D01*
X0232264Y0103150D02*
X0232264Y0096450D01*
X0236764Y0091950D01*
X0237064Y0091760D01*
X0232264Y0103150D02*
X0226414Y0109000D01*
X0223264Y0109000D01*
X0223164Y0109200D01*
X0223164Y0119500D02*
X0222814Y0119800D01*
X0210664Y0119800D01*
X0227064Y0130500D02*
X0232064Y0125500D01*
X0227064Y0130500D02*
X0227064Y0135500D01*
X0237064Y0135500D02*
X0237214Y0135550D01*
X0252064Y0150400D01*
X0252064Y0151760D01*
X0252064Y0159240D02*
X0252064Y0159400D01*
X0238114Y0159400D01*
X0237214Y0160300D01*
X0237064Y0160500D01*
X0215164Y0167500D02*
X0212014Y0164350D01*
X0204814Y0164350D01*
X0204814Y0156700D01*
X0203914Y0155800D01*
X0203464Y0155800D01*
X0197164Y0149500D01*
X0197064Y0149300D01*
X0189964Y0146800D02*
X0187064Y0146800D01*
X0187064Y0149300D02*
X0186814Y0149500D01*
X0177564Y0149500D01*
X0171564Y0154500D01*
X0178264Y0158500D02*
X0153514Y0158500D01*
X0153514Y0158050D01*
X0153514Y0158500D02*
X0150814Y0161200D01*
X0150814Y0167500D01*
X0152164Y0168850D01*
X0152164Y0169300D01*
X0151264Y0170200D01*
X0152164Y0168850D02*
X0154414Y0168850D01*
X0155764Y0167500D01*
X0155764Y0164400D01*
X0153514Y0164350D02*
X0153264Y0164400D01*
X0153514Y0164350D02*
X0153514Y0161200D01*
X0154414Y0160300D01*
X0174864Y0160300D01*
X0189064Y0174500D01*
X0191564Y0174500D01*
X0194064Y0177000D01*
X0221064Y0177000D01*
X0232714Y0188650D01*
X0235414Y0188650D01*
X0235564Y0189000D01*
X0235864Y0189100D01*
X0235864Y0205300D02*
X0236070Y0205462D01*
X0302064Y0205500D02*
X0302464Y0205300D01*
X0302464Y0189550D01*
X0302064Y0189240D01*
X0357814Y0145900D02*
X0363214Y0145900D01*
X0364114Y0145000D01*
X0364114Y0141850D01*
X0364464Y0141600D01*
X0366814Y0141850D02*
X0366814Y0145000D01*
X0366814Y0141850D02*
X0367064Y0141600D01*
X0361964Y0141600D02*
X0361864Y0141400D01*
X0361864Y0135100D01*
X0369964Y0135550D02*
X0374464Y0135550D01*
X0377164Y0138250D01*
X0369964Y0135550D02*
X0356564Y0122150D01*
X0356564Y0122000D01*
X0356464Y0121900D01*
X0364564Y0119800D02*
X0364464Y0119400D01*
X0364564Y0119800D02*
X0364564Y0125200D01*
X0366814Y0119350D02*
X0367064Y0119400D01*
X0367064Y0115000D02*
X0364564Y0115000D01*
X0363064Y0113500D01*
X0363064Y0112450D01*
X0356114Y0105500D01*
X0345805Y0105500D01*
X0338324Y0105500D02*
X0326564Y0105500D01*
X0328614Y0099500D02*
X0324064Y0099500D01*
X0319764Y0103800D01*
X0319764Y0104400D01*
X0320014Y0104050D01*
X0328614Y0099500D02*
X0330214Y0097900D01*
X0330314Y0098000D01*
X0343064Y0098000D01*
X0344439Y0099375D01*
X0353039Y0099375D01*
X0357814Y0094600D01*
X0377614Y0094600D01*
X0379864Y0096850D01*
X0379864Y0114400D01*
X0374914Y0119350D01*
X0374764Y0119400D01*
X0312364Y0126550D02*
X0312064Y0126600D01*
X0306964Y0126600D02*
X0306964Y0123400D01*
X0309464Y0104400D02*
X0309664Y0104050D01*
X0332064Y0076760D02*
X0332164Y0076600D01*
X0339364Y0076600D01*
X0345214Y0070750D01*
X0351064Y0070750D01*
X0354214Y0067600D01*
X0354214Y0064900D01*
X0354564Y0064800D01*
X0359164Y0064900D02*
X0359164Y0067600D01*
X0350164Y0076600D01*
X0347464Y0076600D01*
X0347064Y0076760D01*
X0359164Y0064900D02*
X0359564Y0064800D01*
X0329564Y0064800D02*
X0329464Y0064450D01*
X0329464Y0062200D01*
X0334864Y0046450D02*
X0334564Y0046200D01*
X0334864Y0046450D02*
X0339364Y0046450D01*
X0339564Y0046200D01*
X0329564Y0046200D02*
X0329464Y0046000D01*
X0329464Y0043750D01*
X0349564Y0046200D02*
X0349714Y0046000D01*
X0349714Y0039250D01*
X0355564Y0033400D01*
X0355564Y0030700D01*
X0355805Y0030500D01*
X0297064Y0040500D02*
X0297064Y0040600D01*
X0274114Y0040600D02*
X0272314Y0040600D01*
X0272064Y0040500D01*
X0272064Y0050500D02*
X0271864Y0050500D01*
X0255439Y0066925D01*
X0272064Y0060500D02*
X0272314Y0060850D01*
X0297064Y0060850D02*
X0297064Y0060500D01*
X0282664Y0075250D02*
X0280864Y0075250D01*
X0280805Y0075500D01*
X0273324Y0075500D02*
X0273214Y0075250D01*
X0217464Y0055500D02*
X0217464Y0055450D01*
X0217414Y0055450D01*
X0146764Y0098000D02*
X0146764Y0098200D01*
X0153264Y0109700D02*
X0158764Y0104200D01*
X0200464Y0104200D01*
X0200764Y0104500D01*
X0200964Y0104100D01*
X0200764Y0101800D02*
X0200964Y0101500D01*
X0200764Y0101800D02*
X0167014Y0101800D01*
X0153264Y0109700D02*
X0153264Y0122800D01*
X0143264Y0132800D01*
X0143264Y0143650D01*
X0155764Y0143650D02*
X0164414Y0135000D01*
X0169564Y0135000D01*
X0170564Y0134000D01*
X0182564Y0134000D01*
X0187564Y0129000D01*
X0188564Y0129000D01*
X0188764Y0134800D02*
X0189264Y0134800D01*
X0189564Y0134800D02*
X0200064Y0134800D01*
X0188764Y0134800D02*
X0187064Y0136500D01*
X0171064Y0136500D01*
X0170564Y0137000D01*
X0170064Y0137500D02*
X0170064Y0139900D01*
X0169964Y0140000D01*
X0164314Y0149500D02*
X0158914Y0154900D01*
X0164314Y0149500D02*
X0177564Y0149500D01*
X0155764Y0146600D02*
X0155764Y0143650D01*
X0121114Y0140500D02*
X0120805Y0140500D01*
X0121114Y0140500D02*
X0116614Y0136000D01*
X0116614Y0130600D01*
X0116198Y0130500D01*
X0132064Y0115500D02*
X0132814Y0115750D01*
X0133264Y0115750D01*
X0133324Y0115500D01*
X0158364Y0164400D02*
X0158014Y0164800D01*
X0158014Y0168400D01*
X0157339Y0169075D01*
X0158464Y0170200D01*
X0156364Y0170200D01*
X0152564Y0174000D01*
X0151564Y0174000D01*
X0151464Y0173900D01*
X0151264Y0173900D01*
X0150864Y0174300D01*
X0150764Y0174300D01*
X0150564Y0174500D01*
X0146514Y0174500D01*
X0145864Y0175150D01*
X0145805Y0175500D01*
X0190264Y0165500D02*
X0192064Y0165500D01*
X0146070Y0205462D02*
X0145864Y0205300D01*
D25*
X0073896Y0060500D02*
X0073865Y0007300D01*
X0362106Y0007300D01*
X0363174Y0053957D01*
X0362031Y0052814D01*
X0361699Y0052011D01*
X0362464Y0051246D01*
X0362464Y0041154D01*
X0361410Y0040100D01*
X0357719Y0040100D01*
X0357064Y0040754D01*
X0356410Y0040100D01*
X0352719Y0040100D01*
X0352064Y0040754D01*
X0352014Y0040704D01*
X0352014Y0040203D01*
X0356768Y0035450D01*
X0359109Y0035450D01*
X0360164Y0034395D01*
X0360164Y0026605D01*
X0359109Y0025550D01*
X0352500Y0025550D01*
X0352064Y0025986D01*
X0351629Y0025550D01*
X0345020Y0025550D01*
X0343965Y0026605D01*
X0343965Y0027400D01*
X0341408Y0027400D01*
X0340195Y0027902D01*
X0338216Y0029881D01*
X0333366Y0029881D01*
X0332747Y0030500D01*
X0331382Y0030500D01*
X0330763Y0029881D01*
X0323366Y0029881D01*
X0322312Y0030936D01*
X0322312Y0035900D01*
X0317064Y0035900D01*
X0317064Y0030500D01*
X0312064Y0025500D01*
X0229664Y0025500D01*
X0229664Y0009983D01*
X0229269Y0009027D01*
X0228537Y0008296D01*
X0227582Y0007900D01*
X0223502Y0007900D01*
X0223019Y0007700D01*
X0221110Y0007700D01*
X0220627Y0007900D01*
X0216547Y0007900D01*
X0215592Y0008296D01*
X0215120Y0008767D01*
X0214783Y0008431D01*
X0213019Y0007700D01*
X0211110Y0007700D01*
X0209345Y0008431D01*
X0207995Y0009781D01*
X0207264Y0011545D01*
X0207264Y0019455D01*
X0207995Y0021219D01*
X0209345Y0022569D01*
X0210740Y0023147D01*
X0208387Y0025500D01*
X0117064Y0025500D01*
X0102064Y0040500D01*
X0102064Y0050500D01*
X0092064Y0060500D01*
X0073896Y0060500D01*
X0073896Y0059849D02*
X0092715Y0059849D01*
X0094314Y0058251D02*
X0073895Y0058251D01*
X0073894Y0056652D02*
X0095912Y0056652D01*
X0097511Y0055054D02*
X0073893Y0055054D01*
X0073892Y0053455D02*
X0099109Y0053455D01*
X0100708Y0051857D02*
X0073891Y0051857D01*
X0073890Y0050258D02*
X0102064Y0050258D01*
X0102064Y0048660D02*
X0073890Y0048660D01*
X0073889Y0047061D02*
X0102064Y0047061D01*
X0102064Y0045463D02*
X0073888Y0045463D01*
X0073887Y0043864D02*
X0102064Y0043864D01*
X0102064Y0042266D02*
X0073886Y0042266D01*
X0073885Y0040667D02*
X0102064Y0040667D01*
X0103496Y0039069D02*
X0073884Y0039069D01*
X0073883Y0037470D02*
X0105094Y0037470D01*
X0106693Y0035872D02*
X0073882Y0035872D01*
X0073881Y0034273D02*
X0108291Y0034273D01*
X0109890Y0032675D02*
X0073880Y0032675D01*
X0073879Y0031076D02*
X0111488Y0031076D01*
X0113087Y0029478D02*
X0073878Y0029478D01*
X0073877Y0027879D02*
X0114685Y0027879D01*
X0116284Y0026281D02*
X0073877Y0026281D01*
X0073876Y0024682D02*
X0209205Y0024682D01*
X0210587Y0023084D02*
X0203542Y0023084D01*
X0203019Y0023300D02*
X0201110Y0023300D01*
X0199345Y0022569D01*
X0197995Y0021219D01*
X0197264Y0019455D01*
X0197264Y0011545D01*
X0197995Y0009781D01*
X0199345Y0008431D01*
X0201110Y0007700D01*
X0203019Y0007700D01*
X0204783Y0008431D01*
X0206134Y0009781D01*
X0206864Y0011545D01*
X0206864Y0019455D01*
X0206134Y0021219D01*
X0204783Y0022569D01*
X0203019Y0023300D01*
X0200587Y0023084D02*
X0193542Y0023084D01*
X0193019Y0023300D02*
X0191110Y0023300D01*
X0189345Y0022569D01*
X0187995Y0021219D01*
X0187264Y0019455D01*
X0187264Y0011545D01*
X0187995Y0009781D01*
X0189345Y0008431D01*
X0191110Y0007700D01*
X0193019Y0007700D01*
X0194783Y0008431D01*
X0196134Y0009781D01*
X0196864Y0011545D01*
X0196864Y0019455D01*
X0196134Y0021219D01*
X0194783Y0022569D01*
X0193019Y0023300D01*
X0190587Y0023084D02*
X0183542Y0023084D01*
X0183019Y0023300D02*
X0181110Y0023300D01*
X0179345Y0022569D01*
X0177995Y0021219D01*
X0177264Y0019455D01*
X0177264Y0011545D01*
X0177995Y0009781D01*
X0179345Y0008431D01*
X0181110Y0007700D01*
X0183019Y0007700D01*
X0184783Y0008431D01*
X0186134Y0009781D01*
X0186864Y0011545D01*
X0186864Y0019455D01*
X0186134Y0021219D01*
X0184783Y0022569D01*
X0183019Y0023300D01*
X0180587Y0023084D02*
X0073875Y0023084D01*
X0073874Y0021485D02*
X0178261Y0021485D01*
X0177443Y0019887D02*
X0073873Y0019887D01*
X0073872Y0018288D02*
X0177264Y0018288D01*
X0177264Y0016690D02*
X0073871Y0016690D01*
X0073870Y0015091D02*
X0177264Y0015091D01*
X0177264Y0013493D02*
X0073869Y0013493D01*
X0073868Y0011894D02*
X0177264Y0011894D01*
X0177782Y0010296D02*
X0073867Y0010296D01*
X0073866Y0008697D02*
X0179079Y0008697D01*
X0185050Y0008697D02*
X0189079Y0008697D01*
X0187782Y0010296D02*
X0186347Y0010296D01*
X0186864Y0011894D02*
X0187264Y0011894D01*
X0187264Y0013493D02*
X0186864Y0013493D01*
X0186864Y0015091D02*
X0187264Y0015091D01*
X0187264Y0016690D02*
X0186864Y0016690D01*
X0186864Y0018288D02*
X0187264Y0018288D01*
X0187443Y0019887D02*
X0186686Y0019887D01*
X0185868Y0021485D02*
X0188261Y0021485D01*
X0195868Y0021485D02*
X0198261Y0021485D01*
X0197443Y0019887D02*
X0196686Y0019887D01*
X0196864Y0018288D02*
X0197264Y0018288D01*
X0197264Y0016690D02*
X0196864Y0016690D01*
X0196864Y0015091D02*
X0197264Y0015091D01*
X0197264Y0013493D02*
X0196864Y0013493D01*
X0196864Y0011894D02*
X0197264Y0011894D01*
X0197782Y0010296D02*
X0196347Y0010296D01*
X0195050Y0008697D02*
X0199079Y0008697D01*
X0205050Y0008697D02*
X0209079Y0008697D01*
X0207782Y0010296D02*
X0206347Y0010296D01*
X0206864Y0011894D02*
X0207264Y0011894D01*
X0207264Y0013493D02*
X0206864Y0013493D01*
X0206864Y0015091D02*
X0207264Y0015091D01*
X0207264Y0016690D02*
X0206864Y0016690D01*
X0206864Y0018288D02*
X0207264Y0018288D01*
X0207443Y0019887D02*
X0206686Y0019887D01*
X0205868Y0021485D02*
X0208261Y0021485D01*
X0212882Y0024682D02*
X0227064Y0024682D01*
X0227064Y0023084D02*
X0214481Y0023084D01*
X0216079Y0021485D02*
X0227064Y0021485D01*
X0227064Y0019887D02*
X0217064Y0019887D01*
X0217064Y0020500D02*
X0207064Y0030500D01*
X0147064Y0030500D01*
X0102764Y0075500D01*
X0102564Y0083000D01*
X0116764Y0082700D01*
X0119064Y0071300D01*
X0157064Y0035500D01*
X0222064Y0035500D01*
X0227064Y0030500D01*
X0227064Y0010500D01*
X0217064Y0010500D01*
X0217064Y0020500D01*
X0217064Y0018288D02*
X0227064Y0018288D01*
X0227064Y0016690D02*
X0217064Y0016690D01*
X0217064Y0015091D02*
X0227064Y0015091D01*
X0227064Y0013493D02*
X0217064Y0013493D01*
X0217064Y0011894D02*
X0227064Y0011894D01*
X0229664Y0011894D02*
X0247264Y0011894D01*
X0247264Y0011545D02*
X0247995Y0009781D01*
X0249345Y0008431D01*
X0251110Y0007700D01*
X0253019Y0007700D01*
X0254783Y0008431D01*
X0256134Y0009781D01*
X0256864Y0011545D01*
X0256864Y0019455D01*
X0256134Y0021219D01*
X0254783Y0022569D01*
X0253019Y0023300D01*
X0251110Y0023300D01*
X0249345Y0022569D01*
X0247995Y0021219D01*
X0247264Y0019455D01*
X0247264Y0011545D01*
X0247782Y0010296D02*
X0229664Y0010296D01*
X0228938Y0008697D02*
X0249079Y0008697D01*
X0255050Y0008697D02*
X0269079Y0008697D01*
X0269345Y0008431D02*
X0267995Y0009781D01*
X0267264Y0011545D01*
X0267264Y0019455D01*
X0267995Y0021219D01*
X0269345Y0022569D01*
X0271110Y0023300D01*
X0273019Y0023300D01*
X0274783Y0022569D01*
X0276134Y0021219D01*
X0276864Y0019455D01*
X0276864Y0011545D01*
X0276134Y0009781D01*
X0274783Y0008431D01*
X0273019Y0007700D01*
X0271110Y0007700D01*
X0269345Y0008431D01*
X0267782Y0010296D02*
X0256347Y0010296D01*
X0256864Y0011894D02*
X0267264Y0011894D01*
X0267264Y0013493D02*
X0256864Y0013493D01*
X0256864Y0015091D02*
X0267264Y0015091D01*
X0267264Y0016690D02*
X0256864Y0016690D01*
X0256864Y0018288D02*
X0267264Y0018288D01*
X0267443Y0019887D02*
X0256686Y0019887D01*
X0255868Y0021485D02*
X0268261Y0021485D01*
X0270587Y0023084D02*
X0253542Y0023084D01*
X0250587Y0023084D02*
X0229664Y0023084D01*
X0229664Y0024682D02*
X0362504Y0024682D01*
X0362467Y0023084D02*
X0323542Y0023084D01*
X0323019Y0023300D02*
X0321110Y0023300D01*
X0319345Y0022569D01*
X0317995Y0021219D01*
X0317264Y0019455D01*
X0317264Y0011545D01*
X0317995Y0009781D01*
X0319345Y0008431D01*
X0321110Y0007700D01*
X0323019Y0007700D01*
X0324783Y0008431D01*
X0326134Y0009781D01*
X0326864Y0011545D01*
X0326864Y0019455D01*
X0326134Y0021219D01*
X0324783Y0022569D01*
X0323019Y0023300D01*
X0320587Y0023084D02*
X0313542Y0023084D01*
X0313019Y0023300D02*
X0314783Y0022569D01*
X0316134Y0021219D01*
X0316864Y0019455D01*
X0316864Y0011545D01*
X0316134Y0009781D01*
X0314783Y0008431D01*
X0313019Y0007700D01*
X0311110Y0007700D01*
X0309345Y0008431D01*
X0307995Y0009781D01*
X0307264Y0011545D01*
X0307264Y0019455D01*
X0307995Y0021219D01*
X0309345Y0022569D01*
X0311110Y0023300D01*
X0313019Y0023300D01*
X0310587Y0023084D02*
X0303542Y0023084D01*
X0303019Y0023300D02*
X0301110Y0023300D01*
X0299345Y0022569D01*
X0297995Y0021219D01*
X0297264Y0019455D01*
X0297264Y0011545D01*
X0297995Y0009781D01*
X0299345Y0008431D01*
X0301110Y0007700D01*
X0303019Y0007700D01*
X0304783Y0008431D01*
X0306134Y0009781D01*
X0306864Y0011545D01*
X0306864Y0019455D01*
X0306134Y0021219D01*
X0304783Y0022569D01*
X0303019Y0023300D01*
X0300587Y0023084D02*
X0293542Y0023084D01*
X0293019Y0023300D02*
X0294783Y0022569D01*
X0296134Y0021219D01*
X0296864Y0019455D01*
X0296864Y0011545D01*
X0296134Y0009781D01*
X0294783Y0008431D01*
X0293019Y0007700D01*
X0291110Y0007700D01*
X0289345Y0008431D01*
X0287995Y0009781D01*
X0287264Y0011545D01*
X0287264Y0019455D01*
X0287995Y0021219D01*
X0289345Y0022569D01*
X0291110Y0023300D01*
X0293019Y0023300D01*
X0290587Y0023084D02*
X0283542Y0023084D01*
X0283019Y0023300D02*
X0281110Y0023300D01*
X0279345Y0022569D01*
X0277995Y0021219D01*
X0277264Y0019455D01*
X0277264Y0011545D01*
X0277995Y0009781D01*
X0279345Y0008431D01*
X0281110Y0007700D01*
X0283019Y0007700D01*
X0284783Y0008431D01*
X0286134Y0009781D01*
X0286864Y0011545D01*
X0286864Y0019455D01*
X0286134Y0021219D01*
X0284783Y0022569D01*
X0283019Y0023300D01*
X0280587Y0023084D02*
X0273542Y0023084D01*
X0275868Y0021485D02*
X0278261Y0021485D01*
X0277443Y0019887D02*
X0276686Y0019887D01*
X0276864Y0018288D02*
X0277264Y0018288D01*
X0277264Y0016690D02*
X0276864Y0016690D01*
X0276864Y0015091D02*
X0277264Y0015091D01*
X0277264Y0013493D02*
X0276864Y0013493D01*
X0276864Y0011894D02*
X0277264Y0011894D01*
X0277782Y0010296D02*
X0276347Y0010296D01*
X0275050Y0008697D02*
X0279079Y0008697D01*
X0285050Y0008697D02*
X0289079Y0008697D01*
X0287782Y0010296D02*
X0286347Y0010296D01*
X0286864Y0011894D02*
X0287264Y0011894D01*
X0287264Y0013493D02*
X0286864Y0013493D01*
X0286864Y0015091D02*
X0287264Y0015091D01*
X0287264Y0016690D02*
X0286864Y0016690D01*
X0286864Y0018288D02*
X0287264Y0018288D01*
X0287443Y0019887D02*
X0286686Y0019887D01*
X0285868Y0021485D02*
X0288261Y0021485D01*
X0295868Y0021485D02*
X0298261Y0021485D01*
X0297443Y0019887D02*
X0296686Y0019887D01*
X0296864Y0018288D02*
X0297264Y0018288D01*
X0297264Y0016690D02*
X0296864Y0016690D01*
X0296864Y0015091D02*
X0297264Y0015091D01*
X0297264Y0013493D02*
X0296864Y0013493D01*
X0296864Y0011894D02*
X0297264Y0011894D01*
X0297782Y0010296D02*
X0296347Y0010296D01*
X0295050Y0008697D02*
X0299079Y0008697D01*
X0305050Y0008697D02*
X0309079Y0008697D01*
X0307782Y0010296D02*
X0306347Y0010296D01*
X0306864Y0011894D02*
X0307264Y0011894D01*
X0307264Y0013493D02*
X0306864Y0013493D01*
X0306864Y0015091D02*
X0307264Y0015091D01*
X0307264Y0016690D02*
X0306864Y0016690D01*
X0306864Y0018288D02*
X0307264Y0018288D01*
X0307443Y0019887D02*
X0306686Y0019887D01*
X0305868Y0021485D02*
X0308261Y0021485D01*
X0312845Y0026281D02*
X0344289Y0026281D01*
X0340251Y0027879D02*
X0314444Y0027879D01*
X0316042Y0029478D02*
X0338620Y0029478D01*
X0329564Y0041000D02*
X0327064Y0038500D01*
X0307564Y0038500D01*
X0305464Y0040600D01*
X0297064Y0040600D01*
X0289564Y0045500D02*
X0288714Y0044650D01*
X0284064Y0040000D01*
X0272564Y0040000D01*
X0276814Y0046000D02*
X0264564Y0046000D01*
X0258564Y0052000D01*
X0258514Y0052000D02*
X0255064Y0055450D01*
X0228614Y0055450D01*
X0228564Y0055500D01*
X0223180Y0050300D02*
X0217202Y0050300D01*
X0216264Y0051237D01*
X0216264Y0053250D01*
X0215203Y0053250D01*
X0215153Y0053300D01*
X0213864Y0054589D01*
X0213864Y0055889D01*
X0209503Y0060250D01*
X0207377Y0060250D01*
X0207864Y0059763D01*
X0207864Y0056237D01*
X0207242Y0055614D01*
X0207370Y0055540D01*
X0207705Y0055205D01*
X0207942Y0054795D01*
X0208064Y0054337D01*
X0208064Y0053000D01*
X0202365Y0053000D01*
X0202365Y0053000D01*
X0208064Y0053000D01*
X0208064Y0051663D01*
X0207942Y0051205D01*
X0207705Y0050795D01*
X0207370Y0050460D01*
X0206959Y0050223D01*
X0206501Y0050100D01*
X0202364Y0050100D01*
X0202364Y0053000D01*
X0196664Y0053000D01*
X0196664Y0051663D01*
X0196787Y0051205D01*
X0197024Y0050795D01*
X0197359Y0050460D01*
X0197770Y0050223D01*
X0198227Y0050100D01*
X0202364Y0050100D01*
X0202364Y0053000D01*
X0202364Y0053000D01*
X0196664Y0053000D01*
X0196664Y0054337D01*
X0196787Y0054795D01*
X0197024Y0055205D01*
X0197102Y0055283D01*
X0191513Y0055283D01*
X0191814Y0054982D01*
X0191814Y0050000D01*
X0222880Y0050000D01*
X0223180Y0050300D01*
X0223139Y0050258D02*
X0207021Y0050258D01*
X0208064Y0051857D02*
X0216264Y0051857D01*
X0214998Y0053455D02*
X0208064Y0053455D01*
X0207792Y0055054D02*
X0213864Y0055054D01*
X0213101Y0056652D02*
X0207864Y0056652D01*
X0207864Y0058251D02*
X0211502Y0058251D01*
X0209904Y0059849D02*
X0207778Y0059849D01*
X0210214Y0062650D02*
X0202564Y0062650D01*
X0197602Y0060500D02*
X0197185Y0060083D01*
X0191814Y0060083D01*
X0191814Y0062462D01*
X0190877Y0063399D01*
X0183252Y0063399D01*
X0182315Y0062462D01*
X0182315Y0061640D01*
X0181814Y0061640D01*
X0181814Y0062462D01*
X0180877Y0063399D01*
X0173252Y0063399D01*
X0172315Y0062462D01*
X0172315Y0056018D01*
X0172692Y0055641D01*
X0172474Y0055424D01*
X0172238Y0055014D01*
X0172115Y0054556D01*
X0172115Y0052239D01*
X0176585Y0052239D01*
X0176585Y0051280D01*
X0177544Y0051280D01*
X0177544Y0047401D01*
X0180451Y0047401D01*
X0180909Y0047523D01*
X0181319Y0047760D01*
X0181654Y0048096D01*
X0181891Y0048506D01*
X0182014Y0048964D01*
X0182014Y0051280D01*
X0177544Y0051280D01*
X0177544Y0052239D01*
X0182014Y0052239D01*
X0182014Y0054556D01*
X0181891Y0055014D01*
X0181654Y0055424D01*
X0181437Y0055641D01*
X0181814Y0056018D01*
X0181814Y0056840D01*
X0182315Y0056840D01*
X0182315Y0056018D01*
X0182833Y0055500D01*
X0182315Y0054982D01*
X0182315Y0048538D01*
X0183252Y0047601D01*
X0183864Y0047601D01*
X0183864Y0047460D01*
X0182354Y0045949D01*
X0172957Y0045949D01*
X0161124Y0057782D01*
X0161124Y0060947D01*
X0161546Y0060947D01*
X0161923Y0061324D01*
X0162140Y0061107D01*
X0162551Y0060870D01*
X0163009Y0060747D01*
X0165325Y0060747D01*
X0165325Y0065020D01*
X0166284Y0065020D01*
X0166284Y0060747D01*
X0168601Y0060747D01*
X0169058Y0060870D01*
X0169469Y0061107D01*
X0169804Y0061442D01*
X0170041Y0061852D01*
X0170164Y0062310D01*
X0170164Y0065020D01*
X0166284Y0065020D01*
X0166284Y0065980D01*
X0165325Y0065980D01*
X0165325Y0070253D01*
X0163009Y0070253D01*
X0162551Y0070130D01*
X0162140Y0069893D01*
X0161923Y0069676D01*
X0161564Y0070034D01*
X0161564Y0070966D01*
X0161923Y0071324D01*
X0162140Y0071107D01*
X0162551Y0070870D01*
X0163009Y0070747D01*
X0165325Y0070747D01*
X0165325Y0075020D01*
X0166284Y0075020D01*
X0166284Y0070747D01*
X0168601Y0070747D01*
X0169058Y0070870D01*
X0169469Y0071107D01*
X0169804Y0071442D01*
X0170041Y0071852D01*
X0170164Y0072310D01*
X0170164Y0075020D01*
X0166284Y0075020D01*
X0166284Y0075980D01*
X0165325Y0075980D01*
X0165325Y0080253D01*
X0163009Y0080253D01*
X0162551Y0080130D01*
X0162140Y0079893D01*
X0161923Y0079676D01*
X0161546Y0080053D01*
X0161524Y0080053D01*
X0161524Y0083445D01*
X0161617Y0083538D01*
X0161617Y0089982D01*
X0161099Y0090500D01*
X0161617Y0091018D01*
X0161617Y0097462D01*
X0160680Y0098399D01*
X0156017Y0098399D01*
X0154216Y0100200D01*
X0151827Y0100200D01*
X0151642Y0100386D01*
X0151770Y0100460D01*
X0152105Y0100795D01*
X0152342Y0101205D01*
X0152464Y0101663D01*
X0152464Y0103000D01*
X0146765Y0103000D01*
X0152464Y0103000D01*
X0152464Y0103389D01*
X0154964Y0100889D01*
X0156253Y0099600D01*
X0167926Y0099600D01*
X0168026Y0099700D01*
X0196902Y0099700D01*
X0197402Y0099200D01*
X0204527Y0099200D01*
X0205464Y0100137D01*
X0205464Y0105171D01*
X0205542Y0105305D01*
X0205664Y0105763D01*
X0205664Y0106700D01*
X0205664Y0107637D01*
X0205581Y0107950D01*
X0205664Y0108263D01*
X0205664Y0109200D01*
X0205664Y0110137D01*
X0205567Y0110500D01*
X0205664Y0110863D01*
X0205664Y0111775D01*
X0207564Y0109875D01*
X0207564Y0101225D01*
X0204191Y0097852D01*
X0203225Y0097452D01*
X0202213Y0096439D01*
X0201664Y0095116D01*
X0201664Y0093684D01*
X0202213Y0092361D01*
X0203225Y0091348D01*
X0204548Y0090800D01*
X0205981Y0090800D01*
X0207304Y0091348D01*
X0208316Y0092361D01*
X0208716Y0093326D01*
X0213477Y0098087D01*
X0213964Y0099263D01*
X0213964Y0111837D01*
X0213477Y0113013D01*
X0212577Y0113913D01*
X0208277Y0118213D01*
X0207101Y0118700D01*
X0205964Y0118700D01*
X0205964Y0120977D01*
X0205603Y0121850D01*
X0208464Y0118989D01*
X0208464Y0118889D01*
X0209753Y0117600D01*
X0211576Y0117600D01*
X0211676Y0117700D01*
X0218664Y0117700D01*
X0218664Y0100137D01*
X0219602Y0099200D01*
X0226727Y0099200D01*
X0227664Y0100137D01*
X0227664Y0104780D01*
X0230164Y0102280D01*
X0230164Y0095580D01*
X0232315Y0093430D01*
X0232315Y0088538D01*
X0233252Y0087601D01*
X0240877Y0087601D01*
X0241814Y0088538D01*
X0241814Y0094982D01*
X0241296Y0095500D01*
X0241814Y0096018D01*
X0241814Y0097500D01*
X0247315Y0097500D01*
X0247315Y0096018D01*
X0247833Y0095500D01*
X0247315Y0094982D01*
X0247315Y0088538D01*
X0248252Y0087601D01*
X0249964Y0087601D01*
X0249964Y0069430D01*
X0252470Y0066925D01*
X0250164Y0064619D01*
X0250164Y0065020D01*
X0246284Y0065020D01*
X0246284Y0065980D01*
X0245325Y0065980D01*
X0245325Y0070253D01*
X0243009Y0070253D01*
X0242551Y0070130D01*
X0242140Y0069893D01*
X0241923Y0069676D01*
X0241546Y0070053D01*
X0235102Y0070053D01*
X0234165Y0069115D01*
X0234165Y0068900D01*
X0228714Y0068900D01*
X0228714Y0068925D01*
X0229990Y0070200D01*
X0230556Y0070200D01*
X0232664Y0072309D01*
X0232664Y0075291D01*
X0230556Y0077400D01*
X0227573Y0077400D01*
X0225464Y0075291D01*
X0225464Y0074725D01*
X0223702Y0072963D01*
X0222802Y0072063D01*
X0222395Y0071080D01*
X0221253Y0071119D01*
X0220136Y0070700D01*
X0217202Y0070700D01*
X0216264Y0069763D01*
X0216264Y0066237D01*
X0217002Y0065500D01*
X0216264Y0064763D01*
X0216264Y0062720D01*
X0209284Y0069700D01*
X0207864Y0069700D01*
X0207864Y0069763D01*
X0206927Y0070700D01*
X0197802Y0070700D01*
X0196864Y0069763D01*
X0196864Y0066237D01*
X0197602Y0065500D01*
X0196864Y0064763D01*
X0196864Y0061237D01*
X0197602Y0060500D01*
X0196864Y0061448D02*
X0191814Y0061448D01*
X0191230Y0063046D02*
X0196864Y0063046D01*
X0196864Y0064645D02*
X0170164Y0064645D01*
X0170164Y0065980D02*
X0170164Y0068690D01*
X0170041Y0069148D01*
X0169804Y0069558D01*
X0169469Y0069893D01*
X0169058Y0070130D01*
X0168601Y0070253D01*
X0166284Y0070253D01*
X0166284Y0065980D01*
X0170164Y0065980D01*
X0170164Y0066243D02*
X0196864Y0066243D01*
X0196864Y0067842D02*
X0170164Y0067842D01*
X0169872Y0069440D02*
X0196864Y0069440D01*
X0209544Y0069440D02*
X0216264Y0069440D01*
X0216264Y0067842D02*
X0211142Y0067842D01*
X0212741Y0066243D02*
X0216264Y0066243D01*
X0216264Y0064645D02*
X0214339Y0064645D01*
X0215938Y0063046D02*
X0216264Y0063046D01*
X0202097Y0057683D02*
X0189259Y0057683D01*
X0187064Y0059240D02*
X0177064Y0059240D01*
X0181814Y0056652D02*
X0182315Y0056652D01*
X0182387Y0055054D02*
X0181868Y0055054D01*
X0182014Y0053455D02*
X0182315Y0053455D01*
X0182315Y0051857D02*
X0177544Y0051857D01*
X0176585Y0051857D02*
X0167049Y0051857D01*
X0165451Y0053455D02*
X0172115Y0053455D01*
X0172261Y0055054D02*
X0163852Y0055054D01*
X0162254Y0056652D02*
X0172315Y0056652D01*
X0172315Y0058251D02*
X0161124Y0058251D01*
X0161124Y0059849D02*
X0172315Y0059849D01*
X0172315Y0061448D02*
X0169807Y0061448D01*
X0170164Y0063046D02*
X0172899Y0063046D01*
X0166284Y0063046D02*
X0165325Y0063046D01*
X0165325Y0061448D02*
X0166284Y0061448D01*
X0166284Y0064645D02*
X0165325Y0064645D01*
X0165325Y0066243D02*
X0166284Y0066243D01*
X0166284Y0067842D02*
X0165325Y0067842D01*
X0165325Y0069440D02*
X0166284Y0069440D01*
X0166284Y0071039D02*
X0165325Y0071039D01*
X0165325Y0072637D02*
X0166284Y0072637D01*
X0166284Y0074236D02*
X0165325Y0074236D01*
X0166284Y0075834D02*
X0226008Y0075834D01*
X0224975Y0074236D02*
X0170164Y0074236D01*
X0170164Y0072637D02*
X0223376Y0072637D01*
X0221040Y0071039D02*
X0169351Y0071039D01*
X0170164Y0075980D02*
X0166284Y0075980D01*
X0166284Y0080253D01*
X0168601Y0080253D01*
X0169058Y0080130D01*
X0169469Y0079893D01*
X0169804Y0079558D01*
X0170041Y0079148D01*
X0170164Y0078690D01*
X0170164Y0075980D01*
X0170164Y0077433D02*
X0249964Y0077433D01*
X0249964Y0075834D02*
X0232121Y0075834D01*
X0232664Y0074236D02*
X0249964Y0074236D01*
X0249964Y0072637D02*
X0232664Y0072637D01*
X0231395Y0071039D02*
X0249964Y0071039D01*
X0249469Y0069893D02*
X0249058Y0070130D01*
X0248601Y0070253D01*
X0246284Y0070253D01*
X0246284Y0065980D01*
X0250164Y0065980D01*
X0250164Y0068690D01*
X0250041Y0069148D01*
X0249804Y0069558D01*
X0249469Y0069893D01*
X0249872Y0069440D02*
X0249964Y0069440D01*
X0250164Y0067842D02*
X0251553Y0067842D01*
X0251788Y0066243D02*
X0250164Y0066243D01*
X0250164Y0064645D02*
X0250190Y0064645D01*
X0246284Y0066243D02*
X0245325Y0066243D01*
X0245325Y0067842D02*
X0246284Y0067842D01*
X0246284Y0069440D02*
X0245325Y0069440D01*
X0254164Y0071170D02*
X0256309Y0069025D01*
X0257539Y0067795D01*
X0262064Y0063270D01*
X0262064Y0070500D01*
X0270814Y0070500D01*
X0270814Y0070750D01*
X0270102Y0070750D01*
X0269165Y0071688D01*
X0269165Y0079312D01*
X0270102Y0080250D01*
X0276546Y0080250D01*
X0277064Y0079731D01*
X0277583Y0080250D01*
X0284026Y0080250D01*
X0284964Y0079312D01*
X0284964Y0076345D01*
X0290809Y0070500D01*
X0312064Y0070500D01*
X0312064Y0070947D01*
X0307583Y0070947D01*
X0307206Y0071324D01*
X0306989Y0071107D01*
X0306578Y0070870D01*
X0306120Y0070747D01*
X0303804Y0070747D01*
X0303804Y0075020D01*
X0302845Y0075020D01*
X0302845Y0070747D01*
X0300528Y0070747D01*
X0300070Y0070870D01*
X0299660Y0071107D01*
X0299325Y0071442D01*
X0299088Y0071852D01*
X0298965Y0072310D01*
X0298965Y0075020D01*
X0302845Y0075020D01*
X0302845Y0075980D01*
X0302845Y0080253D01*
X0300528Y0080253D01*
X0300070Y0080130D01*
X0299660Y0079893D01*
X0299325Y0079558D01*
X0299088Y0079148D01*
X0298965Y0078690D01*
X0298965Y0075980D01*
X0302845Y0075980D01*
X0303804Y0075980D01*
X0303804Y0080253D01*
X0306120Y0080253D01*
X0306578Y0080130D01*
X0306989Y0079893D01*
X0307206Y0079676D01*
X0307583Y0080053D01*
X0307914Y0080053D01*
X0307914Y0085947D01*
X0307583Y0085947D01*
X0307206Y0086324D01*
X0306989Y0086107D01*
X0306578Y0085870D01*
X0306120Y0085747D01*
X0303804Y0085747D01*
X0303804Y0090020D01*
X0302845Y0090020D01*
X0302845Y0085747D01*
X0300528Y0085747D01*
X0300070Y0085870D01*
X0299660Y0086107D01*
X0299325Y0086442D01*
X0299088Y0086852D01*
X0298965Y0087310D01*
X0298965Y0090020D01*
X0302845Y0090020D01*
X0302845Y0090980D01*
X0298965Y0090980D01*
X0298965Y0093690D01*
X0299088Y0094148D01*
X0299325Y0094558D01*
X0299660Y0094893D01*
X0300070Y0095130D01*
X0300528Y0095253D01*
X0301218Y0095253D01*
X0298470Y0098000D01*
X0298164Y0098000D01*
X0298164Y0097284D01*
X0297616Y0095961D01*
X0296604Y0094948D01*
X0295281Y0094400D01*
X0293848Y0094400D01*
X0292525Y0094948D01*
X0291513Y0095961D01*
X0290964Y0097284D01*
X0290964Y0098716D01*
X0291513Y0100039D01*
X0292525Y0101052D01*
X0293848Y0101600D01*
X0294770Y0101600D01*
X0295705Y0102535D01*
X0296587Y0102900D01*
X0297064Y0102900D01*
X0297064Y0107477D01*
X0297164Y0107719D01*
X0297164Y0108077D01*
X0297530Y0108959D01*
X0297888Y0109317D01*
X0295006Y0115200D01*
X0293925Y0115648D01*
X0292913Y0116661D01*
X0292364Y0117984D01*
X0292364Y0119416D01*
X0292586Y0119950D01*
X0292077Y0119950D01*
X0292264Y0119763D01*
X0292264Y0116237D01*
X0291327Y0115300D01*
X0282202Y0115300D01*
X0281264Y0116237D01*
X0281264Y0118230D01*
X0274864Y0124630D01*
X0274864Y0108399D01*
X0280877Y0108399D01*
X0281814Y0107462D01*
X0281814Y0101018D01*
X0281296Y0100500D01*
X0281814Y0099982D01*
X0281814Y0093538D01*
X0280877Y0092601D01*
X0279864Y0092601D01*
X0279864Y0087791D01*
X0280116Y0087539D01*
X0280664Y0086216D01*
X0280664Y0084784D01*
X0280116Y0083461D01*
X0279104Y0082448D01*
X0277781Y0081900D01*
X0276348Y0081900D01*
X0275025Y0082448D01*
X0274013Y0083461D01*
X0273464Y0084784D01*
X0273464Y0086216D01*
X0274013Y0087539D01*
X0274264Y0087791D01*
X0274264Y0092601D01*
X0273252Y0092601D01*
X0272315Y0093538D01*
X0272315Y0099982D01*
X0272833Y0100500D01*
X0272315Y0101018D01*
X0272315Y0102400D01*
X0271814Y0102400D01*
X0271814Y0101018D01*
X0271437Y0100641D01*
X0271654Y0100424D01*
X0271891Y0100014D01*
X0272014Y0099556D01*
X0272014Y0097239D01*
X0267544Y0097239D01*
X0267544Y0096280D01*
X0267544Y0092401D01*
X0270451Y0092401D01*
X0270909Y0092523D01*
X0271319Y0092760D01*
X0271654Y0093096D01*
X0271891Y0093506D01*
X0272014Y0093964D01*
X0272014Y0096280D01*
X0267544Y0096280D01*
X0266585Y0096280D01*
X0266585Y0092401D01*
X0263678Y0092401D01*
X0263220Y0092523D01*
X0262810Y0092760D01*
X0262474Y0093096D01*
X0262238Y0093506D01*
X0262115Y0093964D01*
X0262115Y0096280D01*
X0266585Y0096280D01*
X0266585Y0097239D01*
X0262115Y0097239D01*
X0262115Y0099556D01*
X0262238Y0100014D01*
X0262474Y0100424D01*
X0262692Y0100641D01*
X0262315Y0101018D01*
X0262315Y0107462D01*
X0263252Y0108399D01*
X0270664Y0108399D01*
X0270664Y0115100D01*
X0267364Y0115100D01*
X0267364Y0118000D01*
X0261664Y0118000D01*
X0261664Y0116663D01*
X0261787Y0116205D01*
X0262024Y0115795D01*
X0262359Y0115460D01*
X0262770Y0115223D01*
X0263227Y0115100D01*
X0267364Y0115100D01*
X0267364Y0118000D01*
X0267364Y0118000D01*
X0261664Y0118000D01*
X0261664Y0119337D01*
X0261787Y0119795D01*
X0262024Y0120205D01*
X0262359Y0120540D01*
X0262487Y0120614D01*
X0262202Y0120900D01*
X0258695Y0120900D01*
X0256195Y0123400D01*
X0254964Y0123400D01*
X0254964Y0116688D01*
X0254026Y0115750D01*
X0252814Y0115750D01*
X0252814Y0115053D01*
X0254026Y0115053D01*
X0254964Y0114115D01*
X0254964Y0106884D01*
X0254026Y0105947D01*
X0247583Y0105947D01*
X0247064Y0106466D01*
X0246546Y0105947D01*
X0240102Y0105947D01*
X0239165Y0106884D01*
X0239165Y0111729D01*
X0238695Y0112200D01*
X0228884Y0112200D01*
X0237634Y0103450D01*
X0237685Y0103399D01*
X0240877Y0103399D01*
X0241814Y0102462D01*
X0241814Y0101700D01*
X0247315Y0101700D01*
X0247315Y0102462D01*
X0248252Y0103399D01*
X0255877Y0103399D01*
X0256814Y0102462D01*
X0256814Y0096018D01*
X0256296Y0095500D01*
X0256814Y0094982D01*
X0256814Y0088538D01*
X0255877Y0087601D01*
X0254164Y0087601D01*
X0254164Y0071170D01*
X0254295Y0071039D02*
X0269814Y0071039D01*
X0269165Y0072637D02*
X0254164Y0072637D01*
X0254164Y0074236D02*
X0269165Y0074236D01*
X0269165Y0075834D02*
X0254164Y0075834D01*
X0254164Y0077433D02*
X0269165Y0077433D01*
X0269165Y0079032D02*
X0254164Y0079032D01*
X0254164Y0080630D02*
X0307914Y0080630D01*
X0307914Y0082229D02*
X0278574Y0082229D01*
X0280268Y0083827D02*
X0307914Y0083827D01*
X0307914Y0085426D02*
X0280664Y0085426D01*
X0280330Y0087024D02*
X0299042Y0087024D01*
X0298965Y0088623D02*
X0279864Y0088623D01*
X0279864Y0090221D02*
X0302845Y0090221D01*
X0302845Y0088623D02*
X0303804Y0088623D01*
X0303804Y0087024D02*
X0302845Y0087024D01*
X0298965Y0091820D02*
X0279864Y0091820D01*
X0281694Y0093418D02*
X0298965Y0093418D01*
X0299874Y0095017D02*
X0296672Y0095017D01*
X0297887Y0096615D02*
X0299855Y0096615D01*
X0299464Y0100400D02*
X0304064Y0095800D01*
X0307864Y0095800D01*
X0310805Y0092860D01*
X0310805Y0090500D01*
X0317064Y0085500D02*
X0320164Y0088600D01*
X0346851Y0088600D01*
X0348059Y0088100D01*
X0349570Y0088100D01*
X0350967Y0088679D01*
X0352036Y0089747D01*
X0352265Y0090300D01*
X0357064Y0085500D01*
X0357064Y0075500D01*
X0363564Y0071000D01*
X0363411Y0064299D01*
X0362464Y0063353D01*
X0362464Y0069846D01*
X0361410Y0070900D01*
X0359117Y0070900D01*
X0352014Y0078003D01*
X0352014Y0080064D01*
X0350960Y0081119D01*
X0343169Y0081119D01*
X0342115Y0080064D01*
X0342115Y0077102D01*
X0340317Y0078900D01*
X0337014Y0078900D01*
X0337014Y0080064D01*
X0335960Y0081119D01*
X0328169Y0081119D01*
X0327115Y0080064D01*
X0327115Y0073455D01*
X0328169Y0072401D01*
X0335960Y0072401D01*
X0337014Y0073455D01*
X0337014Y0074300D01*
X0338412Y0074300D01*
X0342914Y0069797D01*
X0344262Y0068450D01*
X0350112Y0068450D01*
X0351664Y0066897D01*
X0351664Y0059754D01*
X0352719Y0058700D01*
X0353762Y0058700D01*
X0352364Y0057303D01*
X0352364Y0051946D01*
X0352064Y0051646D01*
X0351410Y0052300D01*
X0347719Y0052300D01*
X0347614Y0052196D01*
X0347614Y0055737D01*
X0348114Y0056944D01*
X0348114Y0058456D01*
X0347536Y0059853D01*
X0346467Y0060921D01*
X0345070Y0061500D01*
X0343559Y0061500D01*
X0342464Y0061047D01*
X0342464Y0069846D01*
X0341410Y0070900D01*
X0337719Y0070900D01*
X0337064Y0070246D01*
X0336410Y0070900D01*
X0332719Y0070900D01*
X0332064Y0070246D01*
X0331410Y0070900D01*
X0327719Y0070900D01*
X0327064Y0070246D01*
X0326410Y0070900D01*
X0322719Y0070900D01*
X0321664Y0069846D01*
X0321664Y0059754D01*
X0322719Y0058700D01*
X0326410Y0058700D01*
X0326964Y0059254D01*
X0326964Y0057577D01*
X0326487Y0057100D01*
X0323547Y0057100D01*
X0322592Y0056704D01*
X0321860Y0055973D01*
X0317064Y0051177D01*
X0317064Y0085500D01*
X0317064Y0085426D02*
X0357064Y0085426D01*
X0357064Y0083827D02*
X0317064Y0083827D01*
X0317064Y0082229D02*
X0357064Y0082229D01*
X0357064Y0080630D02*
X0351448Y0080630D01*
X0352014Y0079032D02*
X0357064Y0079032D01*
X0357064Y0077433D02*
X0352584Y0077433D01*
X0354183Y0075834D02*
X0357064Y0075834D01*
X0355781Y0074236D02*
X0358890Y0074236D01*
X0357380Y0072637D02*
X0361199Y0072637D01*
X0358978Y0071039D02*
X0363508Y0071039D01*
X0363529Y0069440D02*
X0362464Y0069440D01*
X0362464Y0067842D02*
X0363492Y0067842D01*
X0363456Y0066243D02*
X0362464Y0066243D01*
X0362464Y0064645D02*
X0363419Y0064645D01*
X0351664Y0064645D02*
X0342464Y0064645D01*
X0342464Y0066243D02*
X0351664Y0066243D01*
X0350720Y0067842D02*
X0342464Y0067842D01*
X0342464Y0069440D02*
X0343271Y0069440D01*
X0341673Y0071039D02*
X0317064Y0071039D01*
X0317064Y0072637D02*
X0327933Y0072637D01*
X0327115Y0074236D02*
X0317064Y0074236D01*
X0317064Y0075834D02*
X0327115Y0075834D01*
X0327115Y0077433D02*
X0317064Y0077433D01*
X0317064Y0079032D02*
X0327115Y0079032D01*
X0327680Y0080630D02*
X0317064Y0080630D01*
X0318589Y0087024D02*
X0355540Y0087024D01*
X0353942Y0088623D02*
X0350832Y0088623D01*
X0352232Y0090221D02*
X0352343Y0090221D01*
X0346764Y0096000D02*
X0345764Y0095000D01*
X0323564Y0095000D01*
X0309564Y0098200D02*
X0309564Y0103950D01*
X0309664Y0104050D01*
X0314564Y0104500D02*
X0314564Y0108000D01*
X0313564Y0109000D01*
X0301564Y0109000D01*
X0300164Y0107600D01*
X0299564Y0107600D01*
X0299564Y0107100D01*
X0299464Y0107000D01*
X0299464Y0100400D01*
X0297164Y0100400D01*
X0297064Y0100500D01*
X0294564Y0098000D01*
X0291241Y0096615D02*
X0281814Y0096615D01*
X0281814Y0095017D02*
X0292457Y0095017D01*
X0290964Y0098214D02*
X0281814Y0098214D01*
X0281814Y0099812D02*
X0291418Y0099812D01*
X0293391Y0101411D02*
X0281814Y0101411D01*
X0281814Y0103009D02*
X0297064Y0103009D01*
X0297064Y0104608D02*
X0281814Y0104608D01*
X0281814Y0106206D02*
X0297064Y0106206D01*
X0297164Y0107805D02*
X0281471Y0107805D01*
X0274864Y0109403D02*
X0297846Y0109403D01*
X0297063Y0111002D02*
X0274864Y0111002D01*
X0274864Y0112600D02*
X0296280Y0112600D01*
X0295497Y0114199D02*
X0274864Y0114199D01*
X0274864Y0115797D02*
X0281704Y0115797D01*
X0281264Y0117396D02*
X0274864Y0117396D01*
X0274864Y0118994D02*
X0280500Y0118994D01*
X0278902Y0120593D02*
X0274864Y0120593D01*
X0274864Y0122191D02*
X0277303Y0122191D01*
X0275705Y0123790D02*
X0274864Y0123790D01*
X0278447Y0126987D02*
X0281264Y0126987D01*
X0281264Y0126237D02*
X0282002Y0125500D01*
X0281264Y0124763D01*
X0281264Y0124170D01*
X0272864Y0132570D01*
X0272864Y0134763D01*
X0271927Y0135700D01*
X0262802Y0135700D01*
X0261864Y0134763D01*
X0261864Y0132570D01*
X0259745Y0130450D01*
X0247014Y0130450D01*
X0247064Y0130500D01*
X0247064Y0142430D01*
X0252235Y0147601D01*
X0255877Y0147601D01*
X0256814Y0148538D01*
X0256814Y0154982D01*
X0256296Y0155500D01*
X0256814Y0156018D01*
X0256814Y0162462D01*
X0255877Y0163399D01*
X0248252Y0163399D01*
X0247315Y0162462D01*
X0247315Y0161500D01*
X0247064Y0161500D01*
X0247064Y0165400D01*
X0292064Y0165400D01*
X0292064Y0155500D01*
X0302064Y0145500D01*
X0310164Y0145500D01*
X0310164Y0145250D01*
X0310102Y0145250D01*
X0309165Y0144312D01*
X0309165Y0140510D01*
X0307976Y0141700D01*
X0302153Y0141700D01*
X0299653Y0139200D01*
X0298364Y0137911D01*
X0298364Y0132589D01*
X0301653Y0129300D01*
X0302064Y0129300D01*
X0302064Y0124150D01*
X0292264Y0124150D01*
X0292264Y0124763D01*
X0291527Y0125500D01*
X0292264Y0126237D01*
X0292264Y0128201D01*
X0292613Y0127361D01*
X0293625Y0126348D01*
X0294948Y0125800D01*
X0296381Y0125800D01*
X0297704Y0126348D01*
X0298716Y0127361D01*
X0299264Y0128684D01*
X0299264Y0130116D01*
X0298716Y0131439D01*
X0297704Y0132452D01*
X0296381Y0133000D01*
X0295859Y0133000D01*
X0295184Y0133675D01*
X0295084Y0133916D01*
X0294381Y0134619D01*
X0293462Y0135000D01*
X0292027Y0135000D01*
X0291327Y0135700D01*
X0289814Y0135700D01*
X0289814Y0139317D01*
X0289342Y0140456D01*
X0284964Y0144835D01*
X0284964Y0149115D01*
X0284026Y0150053D01*
X0283964Y0150053D01*
X0283964Y0155947D01*
X0284026Y0155947D01*
X0284964Y0156884D01*
X0284964Y0164115D01*
X0284026Y0165053D01*
X0277583Y0165053D01*
X0277206Y0164676D01*
X0276989Y0164893D01*
X0276578Y0165130D01*
X0276120Y0165253D01*
X0273804Y0165253D01*
X0273804Y0160980D01*
X0272845Y0160980D01*
X0272845Y0165253D01*
X0270528Y0165253D01*
X0270070Y0165130D01*
X0269660Y0164893D01*
X0269325Y0164558D01*
X0269088Y0164148D01*
X0268965Y0163690D01*
X0268965Y0160980D01*
X0272845Y0160980D01*
X0272845Y0160020D01*
X0273804Y0160020D01*
X0273804Y0155747D01*
X0276120Y0155747D01*
X0276578Y0155870D01*
X0276989Y0156107D01*
X0277206Y0156324D01*
X0277583Y0155947D01*
X0277764Y0155947D01*
X0277764Y0150053D01*
X0277583Y0150053D01*
X0277206Y0149676D01*
X0276989Y0149893D01*
X0276578Y0150130D01*
X0276120Y0150253D01*
X0273804Y0150253D01*
X0273804Y0145980D01*
X0272845Y0145980D01*
X0272845Y0150253D01*
X0270528Y0150253D01*
X0270070Y0150130D01*
X0269660Y0149893D01*
X0269325Y0149558D01*
X0269088Y0149148D01*
X0268965Y0148690D01*
X0268965Y0145980D01*
X0272845Y0145980D01*
X0272845Y0145020D01*
X0273804Y0145020D01*
X0273804Y0140747D01*
X0276120Y0140747D01*
X0276578Y0140870D01*
X0276989Y0141107D01*
X0277206Y0141324D01*
X0277583Y0140947D01*
X0280083Y0140947D01*
X0283614Y0137416D01*
X0283614Y0135700D01*
X0282202Y0135700D01*
X0281264Y0134763D01*
X0281264Y0131237D01*
X0282002Y0130500D01*
X0281264Y0129763D01*
X0281264Y0126237D01*
X0281890Y0125388D02*
X0280046Y0125388D01*
X0281264Y0128585D02*
X0276849Y0128585D01*
X0275250Y0130184D02*
X0281686Y0130184D01*
X0281264Y0131782D02*
X0273652Y0131782D01*
X0272864Y0133381D02*
X0281264Y0133381D01*
X0281481Y0134979D02*
X0272648Y0134979D01*
X0272845Y0140747D02*
X0272845Y0145020D01*
X0268965Y0145020D01*
X0268965Y0142310D01*
X0269088Y0141852D01*
X0269325Y0141442D01*
X0269660Y0141107D01*
X0270070Y0140870D01*
X0270528Y0140747D01*
X0272845Y0140747D01*
X0272845Y0141373D02*
X0273804Y0141373D01*
X0273804Y0142972D02*
X0272845Y0142972D01*
X0272845Y0144570D02*
X0273804Y0144570D01*
X0273804Y0146169D02*
X0272845Y0146169D01*
X0272845Y0147768D02*
X0273804Y0147768D01*
X0273804Y0149366D02*
X0272845Y0149366D01*
X0269214Y0149366D02*
X0256814Y0149366D01*
X0256814Y0150965D02*
X0277764Y0150965D01*
X0277764Y0152563D02*
X0256814Y0152563D01*
X0256814Y0154162D02*
X0277764Y0154162D01*
X0277764Y0155760D02*
X0276168Y0155760D01*
X0273804Y0155760D02*
X0272845Y0155760D01*
X0272845Y0155747D02*
X0272845Y0160020D01*
X0268965Y0160020D01*
X0268965Y0157310D01*
X0269088Y0156852D01*
X0269325Y0156442D01*
X0269660Y0156107D01*
X0270070Y0155870D01*
X0270528Y0155747D01*
X0272845Y0155747D01*
X0272845Y0157359D02*
X0273804Y0157359D01*
X0273804Y0158957D02*
X0272845Y0158957D01*
X0272845Y0160556D02*
X0256814Y0160556D01*
X0256814Y0162154D02*
X0268965Y0162154D01*
X0268982Y0163753D02*
X0247064Y0163753D01*
X0247064Y0165351D02*
X0292064Y0165351D01*
X0292064Y0163753D02*
X0284964Y0163753D01*
X0284964Y0162154D02*
X0292064Y0162154D01*
X0292064Y0160556D02*
X0284964Y0160556D01*
X0284964Y0158957D02*
X0292064Y0158957D01*
X0292064Y0157359D02*
X0284964Y0157359D01*
X0283964Y0155760D02*
X0292064Y0155760D01*
X0293403Y0154162D02*
X0283964Y0154162D01*
X0283964Y0152563D02*
X0295001Y0152563D01*
X0296600Y0150965D02*
X0283964Y0150965D01*
X0284713Y0149366D02*
X0298198Y0149366D01*
X0299797Y0147768D02*
X0284964Y0147768D01*
X0284964Y0146169D02*
X0301395Y0146169D01*
X0309423Y0144570D02*
X0285228Y0144570D01*
X0286827Y0142972D02*
X0309165Y0142972D01*
X0309165Y0141373D02*
X0308302Y0141373D01*
X0301827Y0141373D02*
X0288425Y0141373D01*
X0289625Y0139775D02*
X0300228Y0139775D01*
X0298630Y0138176D02*
X0289814Y0138176D01*
X0289814Y0136578D02*
X0298364Y0136578D01*
X0298364Y0134979D02*
X0293511Y0134979D01*
X0295478Y0133381D02*
X0298364Y0133381D01*
X0298373Y0131782D02*
X0299171Y0131782D01*
X0299236Y0130184D02*
X0300769Y0130184D01*
X0302064Y0128585D02*
X0299224Y0128585D01*
X0298342Y0126987D02*
X0302064Y0126987D01*
X0302064Y0125388D02*
X0291639Y0125388D01*
X0292264Y0126987D02*
X0292986Y0126987D01*
X0295664Y0129400D02*
X0295664Y0129800D01*
X0292964Y0132500D01*
X0287264Y0132500D02*
X0286764Y0133000D01*
X0283614Y0136578D02*
X0247064Y0136578D01*
X0247064Y0138176D02*
X0282854Y0138176D01*
X0281255Y0139775D02*
X0247064Y0139775D01*
X0247064Y0141373D02*
X0269393Y0141373D01*
X0268965Y0142972D02*
X0247606Y0142972D01*
X0249205Y0144570D02*
X0268965Y0144570D01*
X0268965Y0146169D02*
X0250803Y0146169D01*
X0256044Y0147768D02*
X0268965Y0147768D01*
X0270480Y0155760D02*
X0256556Y0155760D01*
X0256814Y0157359D02*
X0268965Y0157359D01*
X0268965Y0158957D02*
X0256814Y0158957D01*
X0247315Y0162154D02*
X0247064Y0162154D01*
X0252055Y0176200D02*
X0252022Y0178800D01*
X0277315Y0178800D01*
X0277315Y0178538D01*
X0278252Y0177601D01*
X0285877Y0177601D01*
X0286814Y0178538D01*
X0286814Y0178800D01*
X0287315Y0178800D01*
X0287315Y0178538D01*
X0288252Y0177601D01*
X0295877Y0177601D01*
X0296814Y0178538D01*
X0296814Y0178800D01*
X0297315Y0178800D01*
X0297315Y0178538D01*
X0298252Y0177601D01*
X0301480Y0177601D01*
X0302499Y0176581D01*
X0302081Y0176581D01*
X0299983Y0174483D01*
X0299983Y0174435D01*
X0290897Y0174637D01*
X0290764Y0174770D01*
X0290764Y0174911D01*
X0289476Y0176200D01*
X0252055Y0176200D01*
X0252051Y0176541D02*
X0302041Y0176541D01*
X0300442Y0174942D02*
X0290734Y0174942D01*
X0287714Y0178139D02*
X0286415Y0178139D01*
X0277714Y0178139D02*
X0252030Y0178139D01*
X0251941Y0185000D02*
X0251774Y0197900D01*
X0252979Y0197900D01*
X0254670Y0198600D01*
X0255964Y0199894D01*
X0256664Y0201585D01*
X0256664Y0209415D01*
X0255964Y0211106D01*
X0254670Y0212400D01*
X0252979Y0213100D01*
X0251576Y0213100D01*
X0251568Y0213726D01*
X0396386Y0213600D01*
X0396386Y0007100D01*
X0357553Y0007100D01*
X0357365Y0025750D01*
X0359026Y0025750D01*
X0359964Y0026688D01*
X0359964Y0034312D01*
X0359026Y0035250D01*
X0357269Y0035250D01*
X0357212Y0040890D01*
X0357802Y0040300D01*
X0361327Y0040300D01*
X0362264Y0041237D01*
X0362264Y0051163D01*
X0361463Y0051964D01*
X0361862Y0052927D01*
X0364434Y0055500D01*
X0377064Y0055500D01*
X0387064Y0065500D01*
X0387064Y0172500D01*
X0374863Y0172771D01*
X0362164Y0185470D01*
X0362164Y0204820D01*
X0361264Y0205720D01*
X0360034Y0206950D01*
X0333995Y0206950D01*
X0323195Y0196150D01*
X0321964Y0194920D01*
X0321964Y0189164D01*
X0321548Y0189581D01*
X0318581Y0189581D01*
X0316483Y0187483D01*
X0316483Y0184517D01*
X0317864Y0183136D01*
X0317864Y0178830D01*
X0319428Y0177267D01*
X0318425Y0176852D01*
X0318054Y0176480D01*
X0317734Y0176800D01*
X0306814Y0187720D01*
X0306814Y0192462D01*
X0305877Y0193399D01*
X0304564Y0193399D01*
X0304564Y0198557D01*
X0304670Y0198600D01*
X0305964Y0199894D01*
X0306664Y0201585D01*
X0306664Y0209415D01*
X0305964Y0211106D01*
X0304670Y0212400D01*
X0302979Y0213100D01*
X0301149Y0213100D01*
X0299459Y0212400D01*
X0298165Y0211106D01*
X0297464Y0209415D01*
X0297464Y0201585D01*
X0298165Y0199894D01*
X0299459Y0198600D01*
X0300364Y0198225D01*
X0300364Y0193399D01*
X0298252Y0193399D01*
X0297315Y0192462D01*
X0297315Y0186018D01*
X0297833Y0185500D01*
X0297333Y0185000D01*
X0296796Y0185000D01*
X0296296Y0185500D01*
X0296814Y0186018D01*
X0296814Y0192462D01*
X0295877Y0193399D01*
X0294214Y0193399D01*
X0294214Y0198412D01*
X0294670Y0198600D01*
X0295964Y0199894D01*
X0296664Y0201585D01*
X0296664Y0209415D01*
X0295964Y0211106D01*
X0294670Y0212400D01*
X0292979Y0213100D01*
X0291149Y0213100D01*
X0289459Y0212400D01*
X0288165Y0211106D01*
X0287464Y0209415D01*
X0287464Y0201585D01*
X0288165Y0199894D01*
X0289459Y0198600D01*
X0290014Y0198370D01*
X0290014Y0193399D01*
X0288252Y0193399D01*
X0287315Y0192462D01*
X0287315Y0186018D01*
X0287833Y0185500D01*
X0287333Y0185000D01*
X0286796Y0185000D01*
X0286296Y0185500D01*
X0286814Y0186018D01*
X0286814Y0192462D01*
X0285877Y0193399D01*
X0284314Y0193399D01*
X0284314Y0198453D01*
X0284670Y0198600D01*
X0285964Y0199894D01*
X0286664Y0201585D01*
X0286664Y0209415D01*
X0285964Y0211106D01*
X0284670Y0212400D01*
X0282979Y0213100D01*
X0281149Y0213100D01*
X0279459Y0212400D01*
X0278165Y0211106D01*
X0277464Y0209415D01*
X0277464Y0201585D01*
X0278165Y0199894D01*
X0279459Y0198600D01*
X0280114Y0198329D01*
X0280114Y0193399D01*
X0278252Y0193399D01*
X0277315Y0192462D01*
X0277315Y0186018D01*
X0277833Y0185500D01*
X0277333Y0185000D01*
X0251941Y0185000D01*
X0251926Y0186132D02*
X0277315Y0186132D01*
X0277315Y0187730D02*
X0251906Y0187730D01*
X0251885Y0189329D02*
X0277315Y0189329D01*
X0277315Y0190927D02*
X0251864Y0190927D01*
X0251843Y0192526D02*
X0277379Y0192526D01*
X0280114Y0194124D02*
X0251823Y0194124D01*
X0251802Y0195723D02*
X0280114Y0195723D01*
X0280114Y0197321D02*
X0251781Y0197321D01*
X0254990Y0198920D02*
X0259139Y0198920D01*
X0259459Y0198600D02*
X0258165Y0199894D01*
X0257464Y0201585D01*
X0257464Y0209415D01*
X0258165Y0211106D01*
X0259459Y0212400D01*
X0261149Y0213100D01*
X0262979Y0213100D01*
X0264670Y0212400D01*
X0265964Y0211106D01*
X0266664Y0209415D01*
X0266664Y0201585D01*
X0265964Y0199894D01*
X0264670Y0198600D01*
X0262979Y0197900D01*
X0261149Y0197900D01*
X0259459Y0198600D01*
X0257906Y0200518D02*
X0256223Y0200518D01*
X0256664Y0202117D02*
X0257464Y0202117D01*
X0257464Y0203715D02*
X0256664Y0203715D01*
X0256664Y0205314D02*
X0257464Y0205314D01*
X0257464Y0206912D02*
X0256664Y0206912D01*
X0256664Y0208511D02*
X0257464Y0208511D01*
X0257752Y0210109D02*
X0256377Y0210109D01*
X0255362Y0211708D02*
X0258767Y0211708D01*
X0265362Y0211708D02*
X0268767Y0211708D01*
X0268165Y0211106D02*
X0267464Y0209415D01*
X0267464Y0201585D01*
X0268165Y0199894D01*
X0269459Y0198600D01*
X0271149Y0197900D01*
X0272979Y0197900D01*
X0274670Y0198600D01*
X0275964Y0199894D01*
X0276664Y0201585D01*
X0276664Y0209415D01*
X0275964Y0211106D01*
X0274670Y0212400D01*
X0272979Y0213100D01*
X0271149Y0213100D01*
X0269459Y0212400D01*
X0268165Y0211106D01*
X0267752Y0210109D02*
X0266377Y0210109D01*
X0266664Y0208511D02*
X0267464Y0208511D01*
X0267464Y0206912D02*
X0266664Y0206912D01*
X0266664Y0205314D02*
X0267464Y0205314D01*
X0267464Y0203715D02*
X0266664Y0203715D01*
X0266664Y0202117D02*
X0267464Y0202117D01*
X0267906Y0200518D02*
X0266223Y0200518D01*
X0264990Y0198920D02*
X0269139Y0198920D01*
X0274990Y0198920D02*
X0279139Y0198920D01*
X0277906Y0200518D02*
X0276223Y0200518D01*
X0276664Y0202117D02*
X0277464Y0202117D01*
X0277464Y0203715D02*
X0276664Y0203715D01*
X0276664Y0205314D02*
X0277464Y0205314D01*
X0277464Y0206912D02*
X0276664Y0206912D01*
X0276664Y0208511D02*
X0277464Y0208511D01*
X0277752Y0210109D02*
X0276377Y0210109D01*
X0275362Y0211708D02*
X0278767Y0211708D01*
X0285362Y0211708D02*
X0288767Y0211708D01*
X0287752Y0210109D02*
X0286377Y0210109D01*
X0286664Y0208511D02*
X0287464Y0208511D01*
X0287464Y0206912D02*
X0286664Y0206912D01*
X0286664Y0205314D02*
X0287464Y0205314D01*
X0287464Y0203715D02*
X0286664Y0203715D01*
X0286664Y0202117D02*
X0287464Y0202117D01*
X0287906Y0200518D02*
X0286223Y0200518D01*
X0284990Y0198920D02*
X0289139Y0198920D01*
X0290014Y0197321D02*
X0284314Y0197321D01*
X0284314Y0195723D02*
X0290014Y0195723D01*
X0290014Y0194124D02*
X0284314Y0194124D01*
X0286750Y0192526D02*
X0287379Y0192526D01*
X0287315Y0190927D02*
X0286814Y0190927D01*
X0286814Y0189329D02*
X0287315Y0189329D01*
X0287315Y0187730D02*
X0286814Y0187730D01*
X0286814Y0186132D02*
X0287315Y0186132D01*
X0296814Y0186132D02*
X0297315Y0186132D01*
X0297315Y0187730D02*
X0296814Y0187730D01*
X0296814Y0189329D02*
X0297315Y0189329D01*
X0297315Y0190927D02*
X0296814Y0190927D01*
X0296750Y0192526D02*
X0297379Y0192526D01*
X0300364Y0194124D02*
X0294214Y0194124D01*
X0294214Y0195723D02*
X0300364Y0195723D01*
X0300364Y0197321D02*
X0294214Y0197321D01*
X0294990Y0198920D02*
X0299139Y0198920D01*
X0297906Y0200518D02*
X0296223Y0200518D01*
X0296664Y0202117D02*
X0297464Y0202117D01*
X0297464Y0203715D02*
X0296664Y0203715D01*
X0296664Y0205314D02*
X0297464Y0205314D01*
X0297464Y0206912D02*
X0296664Y0206912D01*
X0296664Y0208511D02*
X0297464Y0208511D01*
X0297752Y0210109D02*
X0296377Y0210109D01*
X0295362Y0211708D02*
X0298767Y0211708D01*
X0305362Y0211708D02*
X0308767Y0211708D01*
X0308165Y0211106D02*
X0307464Y0209415D01*
X0307464Y0201585D01*
X0308165Y0199894D01*
X0309459Y0198600D01*
X0311149Y0197900D01*
X0312979Y0197900D01*
X0314670Y0198600D01*
X0315964Y0199894D01*
X0316664Y0201585D01*
X0316664Y0209415D01*
X0315964Y0211106D01*
X0314670Y0212400D01*
X0312979Y0213100D01*
X0311149Y0213100D01*
X0309459Y0212400D01*
X0308165Y0211106D01*
X0307752Y0210109D02*
X0306377Y0210109D01*
X0306664Y0208511D02*
X0307464Y0208511D01*
X0307464Y0206912D02*
X0306664Y0206912D01*
X0306664Y0205314D02*
X0307464Y0205314D01*
X0307464Y0203715D02*
X0306664Y0203715D01*
X0306664Y0202117D02*
X0307464Y0202117D01*
X0307906Y0200518D02*
X0306223Y0200518D01*
X0304990Y0198920D02*
X0309139Y0198920D01*
X0304564Y0197321D02*
X0324366Y0197321D01*
X0324670Y0198600D02*
X0325964Y0199894D01*
X0326664Y0201585D01*
X0326664Y0209415D01*
X0325964Y0211106D01*
X0324670Y0212400D01*
X0322979Y0213100D01*
X0321149Y0213100D01*
X0319459Y0212400D01*
X0318165Y0211106D01*
X0317464Y0209415D01*
X0317464Y0201585D01*
X0318165Y0199894D01*
X0319459Y0198600D01*
X0321149Y0197900D01*
X0322979Y0197900D01*
X0324670Y0198600D01*
X0324990Y0198920D02*
X0325964Y0198920D01*
X0326223Y0200518D02*
X0327563Y0200518D01*
X0326664Y0202117D02*
X0329161Y0202117D01*
X0330760Y0203715D02*
X0326664Y0203715D01*
X0326664Y0205314D02*
X0332359Y0205314D01*
X0333957Y0206912D02*
X0326664Y0206912D01*
X0326664Y0208511D02*
X0396386Y0208511D01*
X0396386Y0210109D02*
X0326377Y0210109D01*
X0325362Y0211708D02*
X0396386Y0211708D01*
X0396386Y0213306D02*
X0251573Y0213306D01*
X0235339Y0213062D02*
X0235155Y0213062D01*
X0233465Y0212362D01*
X0232171Y0211068D01*
X0231470Y0209377D01*
X0231470Y0201547D01*
X0232171Y0199856D01*
X0233464Y0198563D01*
X0233464Y0193159D01*
X0231752Y0193159D01*
X0230815Y0192222D01*
X0230815Y0189720D01*
X0230614Y0189520D01*
X0220195Y0179100D01*
X0201617Y0179100D01*
X0201617Y0184982D01*
X0201240Y0185359D01*
X0201458Y0185576D01*
X0201695Y0185986D01*
X0201817Y0186444D01*
X0201817Y0188761D01*
X0197544Y0188761D01*
X0197544Y0189720D01*
X0196585Y0189720D01*
X0196585Y0193599D01*
X0193875Y0193599D01*
X0193417Y0193477D01*
X0193006Y0193240D01*
X0192671Y0192904D01*
X0192434Y0192494D01*
X0192312Y0192036D01*
X0192312Y0189720D01*
X0196585Y0189720D01*
X0196585Y0188761D01*
X0192312Y0188761D01*
X0192312Y0186444D01*
X0192434Y0185986D01*
X0192671Y0185576D01*
X0192889Y0185359D01*
X0192530Y0185000D01*
X0186599Y0185000D01*
X0186240Y0185359D01*
X0186458Y0185576D01*
X0186695Y0185986D01*
X0186817Y0186444D01*
X0186817Y0188761D01*
X0182544Y0188761D01*
X0182544Y0189720D01*
X0181585Y0189720D01*
X0181585Y0193599D01*
X0178875Y0193599D01*
X0178417Y0193477D01*
X0178006Y0193240D01*
X0177671Y0192904D01*
X0177434Y0192494D01*
X0177312Y0192036D01*
X0177312Y0189720D01*
X0181585Y0189720D01*
X0181585Y0188761D01*
X0177312Y0188761D01*
X0177312Y0186444D01*
X0177434Y0185986D01*
X0177671Y0185576D01*
X0177889Y0185359D01*
X0177530Y0185000D01*
X0138524Y0185000D01*
X0135414Y0188110D01*
X0135414Y0196607D01*
X0134988Y0197636D01*
X0133917Y0198707D01*
X0133517Y0199672D01*
X0132617Y0200573D01*
X0131441Y0201060D01*
X0127414Y0201060D01*
X0127414Y0201082D01*
X0126896Y0201600D01*
X0127414Y0202118D01*
X0127414Y0202900D01*
X0141470Y0202900D01*
X0141470Y0201547D01*
X0142171Y0199856D01*
X0143465Y0198562D01*
X0145155Y0197862D01*
X0146985Y0197862D01*
X0148676Y0198562D01*
X0149970Y0199856D01*
X0150670Y0201547D01*
X0150670Y0209377D01*
X0149970Y0211068D01*
X0148676Y0212362D01*
X0146985Y0213062D01*
X0145155Y0213062D01*
X0143465Y0212362D01*
X0142171Y0211068D01*
X0141470Y0209377D01*
X0141470Y0207700D01*
X0127414Y0207700D01*
X0127414Y0208562D01*
X0126477Y0209499D01*
X0118852Y0209499D01*
X0117915Y0208562D01*
X0117915Y0202118D01*
X0118433Y0201600D01*
X0117915Y0201082D01*
X0117915Y0194638D01*
X0118852Y0193701D01*
X0126477Y0193701D01*
X0127414Y0194638D01*
X0127414Y0194660D01*
X0129814Y0194660D01*
X0129814Y0186393D01*
X0130241Y0185364D01*
X0131028Y0184576D01*
X0131505Y0184100D01*
X0116898Y0184100D01*
X0115758Y0183628D01*
X0114886Y0182756D01*
X0112264Y0180134D01*
X0111381Y0180500D01*
X0106527Y0180500D01*
X0107264Y0181237D01*
X0107264Y0184763D01*
X0106527Y0185500D01*
X0107264Y0186237D01*
X0107264Y0189763D01*
X0106642Y0190386D01*
X0106770Y0190460D01*
X0107105Y0190795D01*
X0107342Y0191205D01*
X0107464Y0191663D01*
X0107464Y0193000D01*
X0101765Y0193000D01*
X0107464Y0193000D01*
X0107464Y0194337D01*
X0107342Y0194795D01*
X0107105Y0195205D01*
X0106770Y0195540D01*
X0106359Y0195777D01*
X0105901Y0195900D01*
X0101764Y0195900D01*
X0097627Y0195900D01*
X0097170Y0195777D01*
X0096759Y0195540D01*
X0096424Y0195205D01*
X0096187Y0194795D01*
X0096064Y0194337D01*
X0096064Y0193000D01*
X0096064Y0191663D01*
X0096187Y0191205D01*
X0096424Y0190795D01*
X0096714Y0190505D01*
X0096408Y0190378D01*
X0095536Y0189506D01*
X0092836Y0186806D01*
X0092364Y0185667D01*
X0092364Y0174983D01*
X0092814Y0173897D01*
X0092814Y0165253D01*
X0091284Y0165253D01*
X0091284Y0160980D01*
X0090325Y0160980D01*
X0090325Y0165253D01*
X0090264Y0165253D01*
X0090264Y0206137D01*
X0089777Y0207313D01*
X0084777Y0212313D01*
X0083895Y0213195D01*
X0083944Y0213872D01*
X0233691Y0213741D01*
X0235339Y0213062D01*
X0234746Y0213306D02*
X0083903Y0213306D01*
X0085382Y0211708D02*
X0142811Y0211708D01*
X0141774Y0210109D02*
X0086980Y0210109D01*
X0088579Y0208511D02*
X0117915Y0208511D01*
X0117915Y0206912D02*
X0089943Y0206912D01*
X0090264Y0205314D02*
X0117915Y0205314D01*
X0117915Y0203715D02*
X0090264Y0203715D01*
X0090264Y0202117D02*
X0117916Y0202117D01*
X0117915Y0200518D02*
X0090264Y0200518D01*
X0090264Y0198920D02*
X0117915Y0198920D01*
X0117915Y0197321D02*
X0090264Y0197321D01*
X0090264Y0195723D02*
X0097075Y0195723D01*
X0096064Y0194124D02*
X0090264Y0194124D01*
X0090264Y0192526D02*
X0096064Y0192526D01*
X0096064Y0193000D02*
X0101764Y0193000D01*
X0101764Y0193000D01*
X0096064Y0193000D01*
X0096348Y0190927D02*
X0090264Y0190927D01*
X0090264Y0189329D02*
X0095359Y0189329D01*
X0093761Y0187730D02*
X0090264Y0187730D01*
X0090264Y0186132D02*
X0092557Y0186132D01*
X0092364Y0184533D02*
X0090264Y0184533D01*
X0090264Y0182935D02*
X0092364Y0182935D01*
X0092364Y0181336D02*
X0090264Y0181336D01*
X0090264Y0179738D02*
X0092364Y0179738D01*
X0092364Y0178139D02*
X0090264Y0178139D01*
X0090264Y0176541D02*
X0092364Y0176541D01*
X0092381Y0174942D02*
X0090264Y0174942D01*
X0090264Y0173344D02*
X0092814Y0173344D01*
X0092814Y0171745D02*
X0090264Y0171745D01*
X0090264Y0170147D02*
X0092814Y0170147D01*
X0092814Y0168548D02*
X0090264Y0168548D01*
X0090264Y0166950D02*
X0092814Y0166950D01*
X0092814Y0165351D02*
X0090264Y0165351D01*
X0090325Y0163753D02*
X0091284Y0163753D01*
X0091284Y0162154D02*
X0090325Y0162154D01*
X0090325Y0160020D02*
X0091284Y0160020D01*
X0091284Y0155747D01*
X0092814Y0155747D01*
X0092814Y0155253D01*
X0091284Y0155253D01*
X0091284Y0150980D01*
X0090325Y0150980D01*
X0090325Y0155253D01*
X0090264Y0155253D01*
X0090264Y0155747D01*
X0090325Y0155747D01*
X0090325Y0160020D01*
X0090325Y0158957D02*
X0091284Y0158957D01*
X0091284Y0157359D02*
X0090325Y0157359D01*
X0090325Y0155760D02*
X0091284Y0155760D01*
X0091284Y0154162D02*
X0090325Y0154162D01*
X0090325Y0152563D02*
X0091284Y0152563D01*
X0086917Y0155500D02*
X0086886Y0155487D01*
X0086211Y0154812D01*
X0085846Y0153930D01*
X0085846Y0147070D01*
X0086211Y0146188D01*
X0086886Y0145513D01*
X0087064Y0145439D01*
X0087064Y0115500D01*
X0087136Y0115428D01*
X0085099Y0113391D01*
X0085099Y0113391D01*
X0083973Y0112266D01*
X0083903Y0112095D01*
X0079686Y0107878D01*
X0077064Y0110500D01*
X0077064Y0184906D01*
X0077105Y0184865D01*
X0077987Y0184500D01*
X0086742Y0184500D01*
X0087064Y0184634D01*
X0087064Y0165561D01*
X0086886Y0165487D01*
X0086211Y0164812D01*
X0085846Y0163930D01*
X0085846Y0157070D01*
X0086211Y0156188D01*
X0086886Y0155513D01*
X0086917Y0155500D01*
X0086639Y0155760D02*
X0077064Y0155760D01*
X0077064Y0154162D02*
X0085941Y0154162D01*
X0085846Y0152563D02*
X0077064Y0152563D01*
X0077064Y0150965D02*
X0085846Y0150965D01*
X0085846Y0149366D02*
X0077064Y0149366D01*
X0077064Y0147768D02*
X0085846Y0147768D01*
X0086230Y0146169D02*
X0077064Y0146169D01*
X0077064Y0144570D02*
X0087064Y0144570D01*
X0087064Y0142972D02*
X0077064Y0142972D01*
X0077064Y0141373D02*
X0087064Y0141373D01*
X0087064Y0139775D02*
X0077064Y0139775D01*
X0077064Y0138176D02*
X0087064Y0138176D01*
X0087064Y0136578D02*
X0077064Y0136578D01*
X0077064Y0134979D02*
X0087064Y0134979D01*
X0087064Y0133381D02*
X0077064Y0133381D01*
X0077064Y0131782D02*
X0087064Y0131782D01*
X0087064Y0130184D02*
X0077064Y0130184D01*
X0077064Y0128585D02*
X0087064Y0128585D01*
X0087064Y0126987D02*
X0077064Y0126987D01*
X0077064Y0125388D02*
X0087064Y0125388D01*
X0087064Y0123790D02*
X0077064Y0123790D01*
X0077064Y0122191D02*
X0087064Y0122191D01*
X0087064Y0120593D02*
X0077064Y0120593D01*
X0077064Y0118994D02*
X0087064Y0118994D01*
X0087064Y0117396D02*
X0077064Y0117396D01*
X0077064Y0115797D02*
X0087064Y0115797D01*
X0085906Y0114199D02*
X0077064Y0114199D01*
X0077064Y0112600D02*
X0084308Y0112600D01*
X0082809Y0111002D02*
X0077064Y0111002D01*
X0078161Y0109403D02*
X0081211Y0109403D01*
X0087729Y0104608D02*
X0106018Y0104608D01*
X0106319Y0104908D02*
X0104856Y0103446D01*
X0104064Y0101534D01*
X0104064Y0099466D01*
X0104856Y0097554D01*
X0106319Y0096092D01*
X0108230Y0095300D01*
X0115899Y0095300D01*
X0117810Y0096092D01*
X0119273Y0097554D01*
X0120064Y0099466D01*
X0120064Y0101534D01*
X0119273Y0103446D01*
X0117810Y0104908D01*
X0115899Y0105700D01*
X0108230Y0105700D01*
X0106319Y0104908D01*
X0104675Y0103009D02*
X0086130Y0103009D01*
X0085596Y0102475D02*
X0089630Y0106509D01*
X0089630Y0106509D01*
X0090755Y0107634D01*
X0090826Y0107805D01*
X0093521Y0110500D01*
X0117064Y0110500D01*
X0122064Y0105500D01*
X0132064Y0105500D01*
X0132064Y0101366D01*
X0131742Y0101500D01*
X0122987Y0101500D01*
X0122105Y0101135D01*
X0121430Y0100459D01*
X0121064Y0099577D01*
X0121064Y0096423D01*
X0121430Y0095541D01*
X0122105Y0094865D01*
X0122987Y0094500D01*
X0131742Y0094500D01*
X0132064Y0094634D01*
X0132064Y0085500D01*
X0122552Y0085500D01*
X0119549Y0088503D01*
X0107064Y0088503D01*
X0107064Y0095500D01*
X0092571Y0095500D01*
X0085596Y0102475D01*
X0086661Y0101411D02*
X0104064Y0101411D01*
X0104064Y0099812D02*
X0088259Y0099812D01*
X0089858Y0098214D02*
X0104583Y0098214D01*
X0105795Y0096615D02*
X0091456Y0096615D01*
X0107064Y0095017D02*
X0121954Y0095017D01*
X0121064Y0096615D02*
X0118334Y0096615D01*
X0119546Y0098214D02*
X0121064Y0098214D01*
X0121162Y0099812D02*
X0120064Y0099812D01*
X0120064Y0101411D02*
X0122771Y0101411D01*
X0119454Y0103009D02*
X0132064Y0103009D01*
X0132064Y0101411D02*
X0131957Y0101411D01*
X0132064Y0104608D02*
X0118111Y0104608D01*
X0119760Y0107805D02*
X0090826Y0107805D01*
X0089327Y0106206D02*
X0121358Y0106206D01*
X0118161Y0109403D02*
X0092425Y0109403D01*
X0090264Y0120500D02*
X0090264Y0145747D01*
X0090325Y0145747D01*
X0090325Y0150020D01*
X0091284Y0150020D01*
X0091284Y0145747D01*
X0092814Y0145747D01*
X0092814Y0133583D01*
X0093286Y0132444D01*
X0094158Y0131572D01*
X0102708Y0123022D01*
X0103848Y0122550D01*
X0110480Y0122550D01*
X0108430Y0120500D01*
X0090264Y0120500D01*
X0090264Y0120593D02*
X0108523Y0120593D01*
X0110122Y0122191D02*
X0090264Y0122191D01*
X0090264Y0123790D02*
X0101941Y0123790D01*
X0100342Y0125388D02*
X0090264Y0125388D01*
X0090264Y0126987D02*
X0098744Y0126987D01*
X0097145Y0128585D02*
X0090264Y0128585D01*
X0090264Y0130184D02*
X0095546Y0130184D01*
X0093948Y0131782D02*
X0090264Y0131782D01*
X0090264Y0133381D02*
X0092898Y0133381D01*
X0092814Y0134979D02*
X0090264Y0134979D01*
X0090264Y0136578D02*
X0092814Y0136578D01*
X0092814Y0138176D02*
X0090264Y0138176D01*
X0090264Y0139775D02*
X0092814Y0139775D01*
X0092814Y0141373D02*
X0090264Y0141373D01*
X0090264Y0142972D02*
X0092814Y0142972D01*
X0092814Y0144570D02*
X0090264Y0144570D01*
X0090325Y0146169D02*
X0091284Y0146169D01*
X0091284Y0147768D02*
X0090325Y0147768D01*
X0090325Y0149366D02*
X0091284Y0149366D01*
X0099014Y0149366D02*
X0110364Y0149366D01*
X0110364Y0150947D02*
X0110364Y0145250D01*
X0110102Y0145250D01*
X0109165Y0144312D01*
X0109165Y0136688D01*
X0110102Y0135750D01*
X0114514Y0135750D01*
X0114514Y0134462D01*
X0113173Y0134462D01*
X0112236Y0133525D01*
X0112236Y0128750D01*
X0112093Y0128750D01*
X0112093Y0130119D01*
X0108312Y0130119D01*
X0108312Y0130881D01*
X0112093Y0130881D01*
X0112093Y0133099D01*
X0111970Y0133557D01*
X0111733Y0133967D01*
X0111398Y0134303D01*
X0110988Y0134540D01*
X0110530Y0134662D01*
X0108312Y0134662D01*
X0108312Y0130881D01*
X0107549Y0130881D01*
X0107549Y0130119D01*
X0104380Y0130119D01*
X0099014Y0135484D01*
X0099014Y0175300D01*
X0100182Y0175300D01*
X0100541Y0175151D01*
X0101329Y0174801D01*
X0101358Y0174772D01*
X0101891Y0174551D01*
X0102419Y0174317D01*
X0102460Y0174316D01*
X0102498Y0174300D01*
X0103075Y0174300D01*
X0103652Y0174285D01*
X0103690Y0174300D01*
X0109165Y0174300D01*
X0109165Y0171884D01*
X0110102Y0170947D01*
X0110364Y0170947D01*
X0110364Y0170053D01*
X0110102Y0170053D01*
X0109165Y0169115D01*
X0109165Y0161884D01*
X0110102Y0160947D01*
X0110364Y0160947D01*
X0110364Y0160053D01*
X0110102Y0160053D01*
X0109165Y0159115D01*
X0109165Y0151884D01*
X0110102Y0150947D01*
X0110364Y0150947D01*
X0110085Y0150965D02*
X0099014Y0150965D01*
X0099014Y0152563D02*
X0109165Y0152563D01*
X0109165Y0154162D02*
X0099014Y0154162D01*
X0099014Y0155760D02*
X0109165Y0155760D01*
X0109165Y0157359D02*
X0099014Y0157359D01*
X0099014Y0158957D02*
X0109165Y0158957D01*
X0110364Y0160556D02*
X0099014Y0160556D01*
X0099014Y0162154D02*
X0109165Y0162154D01*
X0109165Y0163753D02*
X0099014Y0163753D01*
X0099014Y0165351D02*
X0109165Y0165351D01*
X0109165Y0166950D02*
X0099014Y0166950D01*
X0099014Y0168548D02*
X0109165Y0168548D01*
X0110364Y0170147D02*
X0099014Y0170147D01*
X0099014Y0171745D02*
X0109305Y0171745D01*
X0109165Y0173344D02*
X0099014Y0173344D01*
X0099014Y0174942D02*
X0101012Y0174942D01*
X0107264Y0181336D02*
X0113467Y0181336D01*
X0115065Y0182935D02*
X0107264Y0182935D01*
X0107264Y0184533D02*
X0131071Y0184533D01*
X0129923Y0186132D02*
X0107159Y0186132D01*
X0107264Y0187730D02*
X0129814Y0187730D01*
X0129814Y0189329D02*
X0107264Y0189329D01*
X0107181Y0190927D02*
X0129814Y0190927D01*
X0129814Y0192526D02*
X0107464Y0192526D01*
X0107464Y0194124D02*
X0118429Y0194124D01*
X0117915Y0195723D02*
X0106454Y0195723D01*
X0101764Y0195723D02*
X0101764Y0195723D01*
X0101764Y0195900D02*
X0101764Y0193000D01*
X0101764Y0195900D01*
X0101764Y0194124D02*
X0101764Y0194124D01*
X0101764Y0193000D02*
X0101764Y0193000D01*
X0101765Y0193000D02*
X0101765Y0193000D01*
X0087064Y0192526D02*
X0077064Y0192526D01*
X0077987Y0191500D02*
X0077105Y0191135D01*
X0077064Y0191094D01*
X0077064Y0200500D01*
X0087064Y0200500D01*
X0087064Y0191366D01*
X0086742Y0191500D01*
X0077987Y0191500D01*
X0077064Y0194124D02*
X0087064Y0194124D01*
X0087064Y0195723D02*
X0077064Y0195723D01*
X0077064Y0197321D02*
X0087064Y0197321D01*
X0087064Y0198920D02*
X0077064Y0198920D01*
X0077064Y0184533D02*
X0077907Y0184533D01*
X0077064Y0182935D02*
X0087064Y0182935D01*
X0087064Y0184533D02*
X0086822Y0184533D01*
X0087064Y0181336D02*
X0077064Y0181336D01*
X0077064Y0179738D02*
X0087064Y0179738D01*
X0087064Y0178139D02*
X0077064Y0178139D01*
X0077064Y0176541D02*
X0087064Y0176541D01*
X0087064Y0174942D02*
X0077064Y0174942D01*
X0077064Y0173344D02*
X0087064Y0173344D01*
X0087064Y0171745D02*
X0077064Y0171745D01*
X0077064Y0170147D02*
X0087064Y0170147D01*
X0087064Y0168548D02*
X0077064Y0168548D01*
X0077064Y0166950D02*
X0087064Y0166950D01*
X0086750Y0165351D02*
X0077064Y0165351D01*
X0077064Y0163753D02*
X0085846Y0163753D01*
X0085846Y0162154D02*
X0077064Y0162154D01*
X0077064Y0160556D02*
X0085846Y0160556D01*
X0085846Y0158957D02*
X0077064Y0158957D01*
X0077064Y0157359D02*
X0085846Y0157359D01*
X0099014Y0147768D02*
X0110364Y0147768D01*
X0110364Y0146169D02*
X0099014Y0146169D01*
X0099014Y0144570D02*
X0109423Y0144570D01*
X0109165Y0142972D02*
X0099014Y0142972D01*
X0099014Y0141373D02*
X0109165Y0141373D01*
X0109165Y0139775D02*
X0099014Y0139775D01*
X0099014Y0138176D02*
X0109165Y0138176D01*
X0109275Y0136578D02*
X0099014Y0136578D01*
X0099519Y0134979D02*
X0114514Y0134979D01*
X0112236Y0133381D02*
X0112017Y0133381D01*
X0112093Y0131782D02*
X0112236Y0131782D01*
X0112236Y0130184D02*
X0108312Y0130184D01*
X0107549Y0130184D02*
X0104315Y0130184D01*
X0103768Y0130881D02*
X0103768Y0133099D01*
X0103891Y0133557D01*
X0104128Y0133967D01*
X0104463Y0134303D01*
X0104874Y0134540D01*
X0105331Y0134662D01*
X0107549Y0134662D01*
X0107549Y0130881D01*
X0103768Y0130881D01*
X0103768Y0131782D02*
X0102716Y0131782D01*
X0103844Y0133381D02*
X0101118Y0133381D01*
X0107549Y0133381D02*
X0108312Y0133381D01*
X0108312Y0131782D02*
X0107549Y0131782D01*
X0122748Y0124250D02*
X0128692Y0130194D01*
X0129164Y0131333D01*
X0129164Y0132567D01*
X0129164Y0145167D01*
X0128692Y0146306D01*
X0127820Y0147178D01*
X0124214Y0150784D01*
X0124214Y0151135D01*
X0124964Y0151884D01*
X0124964Y0159115D01*
X0124026Y0160053D01*
X0117583Y0160053D01*
X0117064Y0159534D01*
X0116564Y0160034D01*
X0116564Y0160966D01*
X0116923Y0161324D01*
X0117140Y0161107D01*
X0117551Y0160870D01*
X0118009Y0160747D01*
X0120325Y0160747D01*
X0120325Y0165020D01*
X0121284Y0165020D01*
X0121284Y0160747D01*
X0123601Y0160747D01*
X0124058Y0160870D01*
X0124469Y0161107D01*
X0124804Y0161442D01*
X0125041Y0161852D01*
X0125164Y0162310D01*
X0125164Y0165020D01*
X0121284Y0165020D01*
X0121284Y0165980D01*
X0120325Y0165980D01*
X0120325Y0170253D01*
X0118009Y0170253D01*
X0117551Y0170130D01*
X0117140Y0169893D01*
X0116923Y0169676D01*
X0116564Y0170034D01*
X0116564Y0170966D01*
X0116923Y0171324D01*
X0117140Y0171107D01*
X0117551Y0170870D01*
X0118009Y0170747D01*
X0120325Y0170747D01*
X0120325Y0175020D01*
X0121284Y0175020D01*
X0121284Y0170747D01*
X0123601Y0170747D01*
X0124058Y0170870D01*
X0124469Y0171107D01*
X0124804Y0171442D01*
X0125041Y0171852D01*
X0125164Y0172310D01*
X0125164Y0175020D01*
X0121284Y0175020D01*
X0121284Y0175980D01*
X0125164Y0175980D01*
X0125164Y0177900D01*
X0134165Y0177900D01*
X0134165Y0171688D01*
X0135102Y0170750D01*
X0141546Y0170750D01*
X0142064Y0171269D01*
X0142583Y0170750D01*
X0147664Y0170750D01*
X0147664Y0169484D01*
X0148213Y0168161D01*
X0148714Y0167659D01*
X0148714Y0160330D01*
X0148795Y0160250D01*
X0148703Y0160250D01*
X0147414Y0158961D01*
X0134864Y0146411D01*
X0134864Y0133489D01*
X0144103Y0124250D01*
X0143314Y0124250D01*
X0142064Y0125500D01*
X0127064Y0125500D01*
X0125814Y0124250D01*
X0122748Y0124250D01*
X0123887Y0125388D02*
X0126953Y0125388D01*
X0125485Y0126987D02*
X0141366Y0126987D01*
X0142176Y0125388D02*
X0142965Y0125388D01*
X0139768Y0128585D02*
X0127084Y0128585D01*
X0128682Y0130184D02*
X0138169Y0130184D01*
X0136571Y0131782D02*
X0129164Y0131782D01*
X0129164Y0133381D02*
X0134972Y0133381D01*
X0134864Y0134979D02*
X0129164Y0134979D01*
X0129164Y0136578D02*
X0134864Y0136578D01*
X0134864Y0138176D02*
X0129164Y0138176D01*
X0129164Y0139775D02*
X0134864Y0139775D01*
X0134864Y0141373D02*
X0129164Y0141373D01*
X0129164Y0142972D02*
X0134864Y0142972D01*
X0134864Y0144570D02*
X0129164Y0144570D01*
X0128749Y0146169D02*
X0134864Y0146169D01*
X0136221Y0147768D02*
X0127231Y0147768D01*
X0125632Y0149366D02*
X0137819Y0149366D01*
X0139418Y0150965D02*
X0124214Y0150965D01*
X0124964Y0152563D02*
X0141016Y0152563D01*
X0142615Y0154162D02*
X0124964Y0154162D01*
X0124964Y0155760D02*
X0144213Y0155760D01*
X0145812Y0157359D02*
X0124964Y0157359D01*
X0124964Y0158957D02*
X0147410Y0158957D01*
X0147414Y0158961D02*
X0147414Y0158961D01*
X0148714Y0160556D02*
X0116564Y0160556D01*
X0120325Y0162154D02*
X0121284Y0162154D01*
X0121284Y0163753D02*
X0120325Y0163753D01*
X0121284Y0165351D02*
X0148714Y0165351D01*
X0148714Y0163753D02*
X0125164Y0163753D01*
X0125122Y0162154D02*
X0148714Y0162154D01*
X0148714Y0166950D02*
X0125164Y0166950D01*
X0125164Y0165980D02*
X0125164Y0168690D01*
X0125041Y0169148D01*
X0124804Y0169558D01*
X0124469Y0169893D01*
X0124058Y0170130D01*
X0123601Y0170253D01*
X0121284Y0170253D01*
X0121284Y0165980D01*
X0125164Y0165980D01*
X0125164Y0168548D02*
X0148052Y0168548D01*
X0147664Y0170147D02*
X0123997Y0170147D01*
X0124979Y0171745D02*
X0134165Y0171745D01*
X0134165Y0173344D02*
X0125164Y0173344D01*
X0125164Y0174942D02*
X0134165Y0174942D01*
X0134165Y0176541D02*
X0125164Y0176541D01*
X0121284Y0174942D02*
X0120325Y0174942D01*
X0120325Y0173344D02*
X0121284Y0173344D01*
X0121284Y0171745D02*
X0120325Y0171745D01*
X0120325Y0170147D02*
X0121284Y0170147D01*
X0121284Y0168548D02*
X0120325Y0168548D01*
X0120325Y0166950D02*
X0121284Y0166950D01*
X0117613Y0170147D02*
X0116564Y0170147D01*
X0136564Y0183000D02*
X0137114Y0183000D01*
X0138214Y0181900D01*
X0137392Y0186132D02*
X0177395Y0186132D01*
X0177312Y0187730D02*
X0135794Y0187730D01*
X0135414Y0189329D02*
X0181585Y0189329D01*
X0182544Y0189329D02*
X0196585Y0189329D01*
X0197544Y0189329D02*
X0230423Y0189329D01*
X0230815Y0190927D02*
X0201817Y0190927D01*
X0201817Y0192036D02*
X0201695Y0192494D01*
X0201458Y0192904D01*
X0201122Y0193240D01*
X0200712Y0193477D01*
X0200254Y0193599D01*
X0197544Y0193599D01*
X0197544Y0189720D01*
X0201817Y0189720D01*
X0201817Y0192036D01*
X0201676Y0192526D02*
X0231119Y0192526D01*
X0233464Y0194124D02*
X0135414Y0194124D01*
X0135414Y0192526D02*
X0177453Y0192526D01*
X0177312Y0190927D02*
X0135414Y0190927D01*
X0129814Y0194124D02*
X0126900Y0194124D01*
X0130805Y0197860D02*
X0132614Y0196050D01*
X0135119Y0197321D02*
X0233464Y0197321D01*
X0233464Y0195723D02*
X0135414Y0195723D01*
X0133829Y0198920D02*
X0143107Y0198920D01*
X0141896Y0200518D02*
X0132672Y0200518D01*
X0127413Y0202117D02*
X0141470Y0202117D01*
X0145864Y0205300D02*
X0122664Y0205300D01*
X0122664Y0205340D01*
X0127414Y0208511D02*
X0141470Y0208511D01*
X0149330Y0211708D02*
X0152811Y0211708D01*
X0152171Y0211068D02*
X0151470Y0209377D01*
X0151470Y0201547D01*
X0152171Y0199856D01*
X0153465Y0198562D01*
X0155155Y0197862D01*
X0156985Y0197862D01*
X0158676Y0198562D01*
X0159970Y0199856D01*
X0160670Y0201547D01*
X0160670Y0209377D01*
X0159970Y0211068D01*
X0158676Y0212362D01*
X0156985Y0213062D01*
X0155155Y0213062D01*
X0153465Y0212362D01*
X0152171Y0211068D01*
X0151774Y0210109D02*
X0150367Y0210109D01*
X0150670Y0208511D02*
X0151470Y0208511D01*
X0151470Y0206912D02*
X0150670Y0206912D01*
X0150670Y0205314D02*
X0151470Y0205314D01*
X0151470Y0203715D02*
X0150670Y0203715D01*
X0150670Y0202117D02*
X0151470Y0202117D01*
X0151896Y0200518D02*
X0150244Y0200518D01*
X0149033Y0198920D02*
X0153107Y0198920D01*
X0159033Y0198920D02*
X0163107Y0198920D01*
X0163465Y0198562D02*
X0162171Y0199856D01*
X0161470Y0201547D01*
X0161470Y0209377D01*
X0162171Y0211068D01*
X0163465Y0212362D01*
X0165155Y0213062D01*
X0166985Y0213062D01*
X0168676Y0212362D01*
X0169970Y0211068D01*
X0170670Y0209377D01*
X0170670Y0201547D01*
X0169970Y0199856D01*
X0168676Y0198562D01*
X0166985Y0197862D01*
X0165155Y0197862D01*
X0163465Y0198562D01*
X0161896Y0200518D02*
X0160244Y0200518D01*
X0160670Y0202117D02*
X0161470Y0202117D01*
X0161470Y0203715D02*
X0160670Y0203715D01*
X0160670Y0205314D02*
X0161470Y0205314D01*
X0161470Y0206912D02*
X0160670Y0206912D01*
X0160670Y0208511D02*
X0161470Y0208511D01*
X0161774Y0210109D02*
X0160367Y0210109D01*
X0159330Y0211708D02*
X0162811Y0211708D01*
X0169330Y0211708D02*
X0172528Y0211708D01*
X0172409Y0211589D02*
X0171965Y0210978D01*
X0171622Y0210305D01*
X0171389Y0209586D01*
X0171270Y0208840D01*
X0171270Y0205662D01*
X0175870Y0205662D01*
X0175870Y0205262D01*
X0171270Y0205262D01*
X0171270Y0202084D01*
X0171389Y0201338D01*
X0171622Y0200620D01*
X0171965Y0199946D01*
X0172409Y0199335D01*
X0172943Y0198801D01*
X0173555Y0198357D01*
X0174228Y0198014D01*
X0174946Y0197780D01*
X0175693Y0197662D01*
X0175870Y0197662D01*
X0175870Y0205262D01*
X0176270Y0205262D01*
X0176270Y0197662D01*
X0176448Y0197662D01*
X0177194Y0197780D01*
X0177913Y0198014D01*
X0178586Y0198357D01*
X0179197Y0198801D01*
X0179732Y0199335D01*
X0180176Y0199946D01*
X0180519Y0200620D01*
X0180752Y0201338D01*
X0180870Y0202084D01*
X0180870Y0205262D01*
X0176270Y0205262D01*
X0176270Y0205662D01*
X0175870Y0205662D01*
X0175870Y0213262D01*
X0175693Y0213262D01*
X0174946Y0213144D01*
X0174228Y0212910D01*
X0173555Y0212567D01*
X0172943Y0212123D01*
X0172409Y0211589D01*
X0171559Y0210109D02*
X0170367Y0210109D01*
X0170670Y0208511D02*
X0171270Y0208511D01*
X0171270Y0206912D02*
X0170670Y0206912D01*
X0170670Y0205314D02*
X0175870Y0205314D01*
X0176270Y0205314D02*
X0181470Y0205314D01*
X0180870Y0205662D02*
X0180870Y0208840D01*
X0180752Y0209586D01*
X0180519Y0210305D01*
X0180176Y0210978D01*
X0179732Y0211589D01*
X0179197Y0212123D01*
X0178586Y0212567D01*
X0177913Y0212910D01*
X0177194Y0213144D01*
X0176448Y0213262D01*
X0176270Y0213262D01*
X0176270Y0205662D01*
X0180870Y0205662D01*
X0180870Y0206912D02*
X0181470Y0206912D01*
X0181470Y0208511D02*
X0180870Y0208511D01*
X0181470Y0209377D02*
X0181470Y0201547D01*
X0182171Y0199856D01*
X0183465Y0198562D01*
X0185155Y0197862D01*
X0186985Y0197862D01*
X0188676Y0198562D01*
X0189970Y0199856D01*
X0190670Y0201547D01*
X0190670Y0209377D01*
X0189970Y0211068D01*
X0188676Y0212362D01*
X0186985Y0213062D01*
X0185155Y0213062D01*
X0183465Y0212362D01*
X0182171Y0211068D01*
X0181470Y0209377D01*
X0181774Y0210109D02*
X0180582Y0210109D01*
X0179613Y0211708D02*
X0182811Y0211708D01*
X0189330Y0211708D02*
X0192811Y0211708D01*
X0192171Y0211068D02*
X0191470Y0209377D01*
X0191470Y0201547D01*
X0192171Y0199856D01*
X0193465Y0198562D01*
X0195155Y0197862D01*
X0196985Y0197862D01*
X0198676Y0198562D01*
X0199970Y0199856D01*
X0200670Y0201547D01*
X0200670Y0209377D01*
X0199970Y0211068D01*
X0198676Y0212362D01*
X0196985Y0213062D01*
X0195155Y0213062D01*
X0193465Y0212362D01*
X0192171Y0211068D01*
X0191774Y0210109D02*
X0190367Y0210109D01*
X0190670Y0208511D02*
X0191470Y0208511D01*
X0191470Y0206912D02*
X0190670Y0206912D01*
X0190670Y0205314D02*
X0191470Y0205314D01*
X0191470Y0203715D02*
X0190670Y0203715D01*
X0190670Y0202117D02*
X0191470Y0202117D01*
X0191896Y0200518D02*
X0190244Y0200518D01*
X0189033Y0198920D02*
X0193107Y0198920D01*
X0199033Y0198920D02*
X0203107Y0198920D01*
X0203465Y0198562D02*
X0202171Y0199856D01*
X0201470Y0201547D01*
X0201470Y0209377D01*
X0202171Y0211068D01*
X0203465Y0212362D01*
X0205155Y0213062D01*
X0206985Y0213062D01*
X0208676Y0212362D01*
X0209970Y0211068D01*
X0210670Y0209377D01*
X0210670Y0201547D01*
X0209970Y0199856D01*
X0208676Y0198562D01*
X0206985Y0197862D01*
X0205155Y0197862D01*
X0203465Y0198562D01*
X0201896Y0200518D02*
X0200244Y0200518D01*
X0200670Y0202117D02*
X0201470Y0202117D01*
X0201470Y0203715D02*
X0200670Y0203715D01*
X0200670Y0205314D02*
X0201470Y0205314D01*
X0201470Y0206912D02*
X0200670Y0206912D01*
X0200670Y0208511D02*
X0201470Y0208511D01*
X0201774Y0210109D02*
X0200367Y0210109D01*
X0199330Y0211708D02*
X0202811Y0211708D01*
X0209330Y0211708D02*
X0212811Y0211708D01*
X0212171Y0211068D02*
X0211470Y0209377D01*
X0211470Y0201547D01*
X0212171Y0199856D01*
X0213465Y0198562D01*
X0215155Y0197862D01*
X0216985Y0197862D01*
X0218676Y0198562D01*
X0219970Y0199856D01*
X0220670Y0201547D01*
X0220670Y0209377D01*
X0219970Y0211068D01*
X0218676Y0212362D01*
X0216985Y0213062D01*
X0215155Y0213062D01*
X0213465Y0212362D01*
X0212171Y0211068D01*
X0211774Y0210109D02*
X0210367Y0210109D01*
X0210670Y0208511D02*
X0211470Y0208511D01*
X0211470Y0206912D02*
X0210670Y0206912D01*
X0210670Y0205314D02*
X0211470Y0205314D01*
X0211470Y0203715D02*
X0210670Y0203715D01*
X0210670Y0202117D02*
X0211470Y0202117D01*
X0211896Y0200518D02*
X0210244Y0200518D01*
X0209033Y0198920D02*
X0213107Y0198920D01*
X0219033Y0198920D02*
X0223107Y0198920D01*
X0223465Y0198562D02*
X0222171Y0199856D01*
X0221470Y0201547D01*
X0221470Y0209377D01*
X0222171Y0211068D01*
X0223465Y0212362D01*
X0225155Y0213062D01*
X0226985Y0213062D01*
X0228676Y0212362D01*
X0229970Y0211068D01*
X0230670Y0209377D01*
X0230670Y0201547D01*
X0229970Y0199856D01*
X0228676Y0198562D01*
X0226985Y0197862D01*
X0225155Y0197862D01*
X0223465Y0198562D01*
X0221896Y0200518D02*
X0220244Y0200518D01*
X0220670Y0202117D02*
X0221470Y0202117D01*
X0221470Y0203715D02*
X0220670Y0203715D01*
X0220670Y0205314D02*
X0221470Y0205314D01*
X0221470Y0206912D02*
X0220670Y0206912D01*
X0220670Y0208511D02*
X0221470Y0208511D01*
X0221774Y0210109D02*
X0220367Y0210109D01*
X0219330Y0211708D02*
X0222811Y0211708D01*
X0229330Y0211708D02*
X0232811Y0211708D01*
X0231774Y0210109D02*
X0230367Y0210109D01*
X0230670Y0208511D02*
X0231470Y0208511D01*
X0231470Y0206912D02*
X0230670Y0206912D01*
X0230670Y0205314D02*
X0231470Y0205314D01*
X0231470Y0203715D02*
X0230670Y0203715D01*
X0230670Y0202117D02*
X0231470Y0202117D01*
X0231896Y0200518D02*
X0230244Y0200518D01*
X0229033Y0198920D02*
X0233107Y0198920D01*
X0235864Y0205300D02*
X0235864Y0189100D01*
X0228825Y0187730D02*
X0201817Y0187730D01*
X0201733Y0186132D02*
X0227226Y0186132D01*
X0225628Y0184533D02*
X0201617Y0184533D01*
X0201617Y0182935D02*
X0224029Y0182935D01*
X0222431Y0181336D02*
X0201617Y0181336D01*
X0201617Y0179738D02*
X0220832Y0179738D01*
X0211795Y0170900D02*
X0212195Y0170500D01*
X0212064Y0170500D01*
X0212064Y0167370D01*
X0211145Y0166450D01*
X0203945Y0166450D01*
X0202944Y0165450D01*
X0201284Y0165450D01*
X0201284Y0160980D01*
X0200325Y0160980D01*
X0200325Y0165450D01*
X0198009Y0165450D01*
X0197551Y0165327D01*
X0197140Y0165090D01*
X0196923Y0164873D01*
X0196546Y0165250D01*
X0194784Y0165250D01*
X0200234Y0170700D01*
X0200434Y0170900D01*
X0211795Y0170900D01*
X0212064Y0170147D02*
X0199681Y0170147D01*
X0198082Y0168548D02*
X0212064Y0168548D01*
X0211644Y0166950D02*
X0196484Y0166950D01*
X0197641Y0165351D02*
X0194885Y0165351D01*
X0200325Y0165351D02*
X0201284Y0165351D01*
X0201284Y0163753D02*
X0200325Y0163753D01*
X0200325Y0162154D02*
X0201284Y0162154D01*
X0206914Y0162154D02*
X0212064Y0162154D01*
X0212064Y0162250D02*
X0212064Y0145500D01*
X0209739Y0143950D01*
X0201264Y0143950D01*
X0201264Y0145121D01*
X0201342Y0145255D01*
X0201464Y0145713D01*
X0201464Y0146800D01*
X0201464Y0147887D01*
X0201342Y0148345D01*
X0201264Y0148479D01*
X0201264Y0150630D01*
X0204334Y0153700D01*
X0204784Y0153700D01*
X0205684Y0154600D01*
X0206914Y0155830D01*
X0206914Y0162250D01*
X0212064Y0162250D01*
X0212064Y0160556D02*
X0206914Y0160556D01*
X0206914Y0158957D02*
X0212064Y0158957D01*
X0212064Y0157359D02*
X0206914Y0157359D01*
X0206844Y0155760D02*
X0212064Y0155760D01*
X0212064Y0154162D02*
X0205246Y0154162D01*
X0203197Y0152563D02*
X0212064Y0152563D01*
X0212064Y0150965D02*
X0201599Y0150965D01*
X0201264Y0149366D02*
X0212064Y0149366D01*
X0212064Y0147768D02*
X0201464Y0147768D01*
X0201464Y0146800D02*
X0197065Y0146800D01*
X0197065Y0146800D01*
X0201464Y0146800D01*
X0201464Y0146169D02*
X0212064Y0146169D01*
X0210670Y0144570D02*
X0201264Y0144570D01*
X0197064Y0144200D02*
X0193264Y0144200D01*
X0192064Y0143000D01*
X0192064Y0139500D01*
X0191564Y0139000D01*
X0182564Y0139000D01*
X0180464Y0141100D01*
X0178464Y0131900D02*
X0170164Y0131900D01*
X0170164Y0130980D01*
X0166284Y0130980D01*
X0166284Y0130020D01*
X0166284Y0125747D01*
X0168601Y0125747D01*
X0169058Y0125870D01*
X0169469Y0126107D01*
X0169804Y0126442D01*
X0170041Y0126852D01*
X0170164Y0127310D01*
X0170164Y0130020D01*
X0166284Y0130020D01*
X0165325Y0130020D01*
X0165325Y0125747D01*
X0163009Y0125747D01*
X0162551Y0125870D01*
X0162140Y0126107D01*
X0161923Y0126324D01*
X0161564Y0125966D01*
X0161564Y0120034D01*
X0161923Y0119676D01*
X0162140Y0119893D01*
X0162551Y0120130D01*
X0163009Y0120253D01*
X0165325Y0120253D01*
X0165325Y0115980D01*
X0166284Y0115980D01*
X0166284Y0120253D01*
X0168601Y0120253D01*
X0169058Y0120130D01*
X0169469Y0119893D01*
X0169804Y0119558D01*
X0170041Y0119148D01*
X0170164Y0118690D01*
X0170164Y0115980D01*
X0166284Y0115980D01*
X0166284Y0115020D01*
X0166284Y0110747D01*
X0168601Y0110747D01*
X0169058Y0110870D01*
X0169469Y0111107D01*
X0169804Y0111442D01*
X0170041Y0111852D01*
X0170164Y0112310D01*
X0170164Y0115020D01*
X0166284Y0115020D01*
X0165325Y0115020D01*
X0165325Y0110747D01*
X0163009Y0110747D01*
X0162551Y0110870D01*
X0162140Y0111107D01*
X0161923Y0111324D01*
X0161546Y0110947D01*
X0155364Y0110947D01*
X0155364Y0110570D01*
X0158034Y0107900D01*
X0171070Y0107900D01*
X0172064Y0108894D01*
X0172064Y0125500D01*
X0178464Y0131900D01*
X0178347Y0131782D02*
X0170164Y0131782D01*
X0170164Y0128585D02*
X0175150Y0128585D01*
X0173551Y0126987D02*
X0170077Y0126987D01*
X0172064Y0125388D02*
X0161564Y0125388D01*
X0161564Y0123790D02*
X0172064Y0123790D01*
X0172064Y0122191D02*
X0161564Y0122191D01*
X0161564Y0120593D02*
X0172064Y0120593D01*
X0172064Y0118994D02*
X0170082Y0118994D01*
X0170164Y0117396D02*
X0172064Y0117396D01*
X0172064Y0115797D02*
X0166284Y0115797D01*
X0166284Y0114199D02*
X0165325Y0114199D01*
X0165325Y0112600D02*
X0166284Y0112600D01*
X0166284Y0111002D02*
X0165325Y0111002D01*
X0162322Y0111002D02*
X0161601Y0111002D01*
X0156531Y0109403D02*
X0172064Y0109403D01*
X0172064Y0111002D02*
X0169287Y0111002D01*
X0170164Y0112600D02*
X0172064Y0112600D01*
X0172064Y0114199D02*
X0170164Y0114199D01*
X0166284Y0117396D02*
X0165325Y0117396D01*
X0165325Y0118994D02*
X0166284Y0118994D01*
X0178297Y0114199D02*
X0194564Y0114199D01*
X0194564Y0113323D02*
X0194930Y0112441D01*
X0195605Y0111765D01*
X0196264Y0111492D01*
X0196264Y0110863D01*
X0196362Y0110500D01*
X0196264Y0110137D01*
X0196264Y0109200D01*
X0196264Y0108263D01*
X0196348Y0107950D01*
X0196264Y0107637D01*
X0196264Y0106700D01*
X0196264Y0106300D01*
X0188956Y0106300D01*
X0190664Y0108009D01*
X0190664Y0110991D01*
X0188556Y0113100D01*
X0185573Y0113100D01*
X0183464Y0110991D01*
X0183464Y0108009D01*
X0185173Y0106300D01*
X0172864Y0106300D01*
X0177064Y0110500D01*
X0182064Y0125500D01*
X0201953Y0125500D01*
X0204915Y0122538D01*
X0204042Y0122900D01*
X0196487Y0122900D01*
X0195605Y0122535D01*
X0194930Y0121859D01*
X0194564Y0120977D01*
X0194564Y0113323D01*
X0194864Y0112600D02*
X0189055Y0112600D01*
X0190654Y0111002D02*
X0196264Y0111002D01*
X0196264Y0109403D02*
X0190664Y0109403D01*
X0190460Y0107805D02*
X0196309Y0107805D01*
X0196264Y0106700D02*
X0197827Y0106700D01*
X0197827Y0106700D01*
X0200469Y0106700D01*
X0200469Y0106700D01*
X0196264Y0106700D01*
X0196264Y0109200D02*
X0197827Y0109200D01*
X0197827Y0109200D01*
X0200964Y0109200D01*
X0200964Y0109200D01*
X0196264Y0109200D01*
X0196964Y0113800D02*
X0197102Y0113800D01*
X0197402Y0114100D01*
X0203564Y0114100D01*
X0203564Y0120500D01*
X0196964Y0120500D01*
X0196964Y0113800D01*
X0196964Y0114199D02*
X0203564Y0114199D01*
X0203564Y0115797D02*
X0196964Y0115797D01*
X0196964Y0117396D02*
X0203564Y0117396D01*
X0203564Y0118994D02*
X0196964Y0118994D01*
X0194564Y0118994D02*
X0179896Y0118994D01*
X0179363Y0117396D02*
X0194564Y0117396D01*
X0194564Y0115797D02*
X0178830Y0115797D01*
X0177765Y0112600D02*
X0185074Y0112600D01*
X0183475Y0111002D02*
X0177232Y0111002D01*
X0175968Y0109403D02*
X0183464Y0109403D01*
X0183669Y0107805D02*
X0174369Y0107805D01*
X0160865Y0098214D02*
X0204553Y0098214D01*
X0205139Y0099812D02*
X0206151Y0099812D01*
X0205464Y0101411D02*
X0207564Y0101411D01*
X0207564Y0103009D02*
X0205464Y0103009D01*
X0205464Y0104608D02*
X0207564Y0104608D01*
X0207564Y0106206D02*
X0205664Y0106206D01*
X0205664Y0106700D02*
X0200965Y0106700D01*
X0204101Y0106700D01*
X0204102Y0106700D01*
X0205664Y0106700D01*
X0205619Y0107805D02*
X0207564Y0107805D01*
X0207564Y0109403D02*
X0205664Y0109403D01*
X0205664Y0109200D02*
X0200965Y0109200D01*
X0200965Y0109200D01*
X0204101Y0109200D01*
X0204102Y0109200D01*
X0205664Y0109200D01*
X0205664Y0111002D02*
X0206437Y0111002D01*
X0200964Y0111002D02*
X0200964Y0111002D01*
X0200964Y0111500D02*
X0200964Y0109200D01*
X0200964Y0106700D01*
X0200964Y0106700D01*
X0200964Y0109200D01*
X0200964Y0109200D01*
X0200964Y0111500D01*
X0200964Y0111500D01*
X0200964Y0109403D02*
X0200964Y0109403D01*
X0200964Y0109200D02*
X0200964Y0109200D01*
X0200964Y0107805D02*
X0200964Y0107805D01*
X0200965Y0106700D02*
X0200965Y0106700D01*
X0213964Y0106206D02*
X0218664Y0106206D01*
X0218664Y0104608D02*
X0213964Y0104608D01*
X0213964Y0103009D02*
X0218664Y0103009D01*
X0218664Y0101411D02*
X0213964Y0101411D01*
X0213964Y0099812D02*
X0218990Y0099812D01*
X0213530Y0098214D02*
X0230164Y0098214D01*
X0230164Y0099812D02*
X0227339Y0099812D01*
X0227664Y0101411D02*
X0230164Y0101411D01*
X0229435Y0103009D02*
X0227664Y0103009D01*
X0227664Y0104608D02*
X0227837Y0104608D01*
X0231681Y0109403D02*
X0239165Y0109403D01*
X0239165Y0107805D02*
X0233280Y0107805D01*
X0234878Y0106206D02*
X0239844Y0106206D01*
X0236477Y0104608D02*
X0262315Y0104608D01*
X0262315Y0106206D02*
X0254285Y0106206D01*
X0254964Y0107805D02*
X0262658Y0107805D01*
X0262315Y0103009D02*
X0256267Y0103009D01*
X0256814Y0101411D02*
X0262315Y0101411D01*
X0262184Y0099812D02*
X0256814Y0099812D01*
X0256814Y0098214D02*
X0262115Y0098214D01*
X0266585Y0096615D02*
X0256814Y0096615D01*
X0256779Y0095017D02*
X0262115Y0095017D01*
X0262288Y0093418D02*
X0256814Y0093418D01*
X0256814Y0091820D02*
X0274264Y0091820D01*
X0274264Y0090221D02*
X0256814Y0090221D01*
X0256814Y0088623D02*
X0274264Y0088623D01*
X0273799Y0087024D02*
X0254164Y0087024D01*
X0254164Y0085426D02*
X0273464Y0085426D01*
X0273861Y0083827D02*
X0254164Y0083827D01*
X0254164Y0082229D02*
X0275555Y0082229D01*
X0284964Y0079032D02*
X0299057Y0079032D01*
X0298965Y0077433D02*
X0284964Y0077433D01*
X0285474Y0075834D02*
X0302845Y0075834D01*
X0302845Y0074236D02*
X0303804Y0074236D01*
X0303804Y0072637D02*
X0302845Y0072637D01*
X0302845Y0071039D02*
X0303804Y0071039D01*
X0306871Y0071039D02*
X0307491Y0071039D01*
X0299778Y0071039D02*
X0290270Y0071039D01*
X0288671Y0072637D02*
X0298965Y0072637D01*
X0298965Y0074236D02*
X0287073Y0074236D01*
X0282664Y0075250D02*
X0297064Y0060850D01*
X0297064Y0050500D02*
X0281314Y0050500D01*
X0276814Y0046000D01*
X0262064Y0045106D02*
X0262064Y0030500D01*
X0242064Y0030500D01*
X0232064Y0040500D01*
X0184435Y0040500D01*
X0185100Y0040775D01*
X0185887Y0041563D01*
X0188111Y0043787D01*
X0188142Y0043800D01*
X0224781Y0043800D01*
X0225920Y0044272D01*
X0226792Y0045144D01*
X0228548Y0046900D01*
X0230956Y0046900D01*
X0231456Y0047400D01*
X0234165Y0047400D01*
X0234165Y0046884D01*
X0235102Y0045947D01*
X0241546Y0045947D01*
X0241923Y0046324D01*
X0242140Y0046107D01*
X0242551Y0045870D01*
X0243009Y0045747D01*
X0245325Y0045747D01*
X0245325Y0050020D01*
X0246284Y0050020D01*
X0246284Y0045747D01*
X0248601Y0045747D01*
X0249058Y0045870D01*
X0249469Y0046107D01*
X0249804Y0046442D01*
X0250041Y0046852D01*
X0250164Y0047310D01*
X0250164Y0050020D01*
X0246284Y0050020D01*
X0246284Y0050980D01*
X0250164Y0050980D01*
X0250164Y0053050D01*
X0254070Y0053050D01*
X0257155Y0049965D01*
X0257240Y0049930D01*
X0262064Y0045106D01*
X0261708Y0045463D02*
X0227111Y0045463D01*
X0224936Y0043864D02*
X0262064Y0043864D01*
X0262064Y0042266D02*
X0186590Y0042266D01*
X0184838Y0040667D02*
X0262064Y0040667D01*
X0262064Y0039069D02*
X0233496Y0039069D01*
X0235094Y0037470D02*
X0262064Y0037470D01*
X0262064Y0035872D02*
X0236693Y0035872D01*
X0238291Y0034273D02*
X0262064Y0034273D01*
X0262064Y0032675D02*
X0239890Y0032675D01*
X0241488Y0031076D02*
X0262064Y0031076D01*
X0248261Y0021485D02*
X0229664Y0021485D01*
X0229664Y0019887D02*
X0247443Y0019887D01*
X0247264Y0018288D02*
X0229664Y0018288D01*
X0229664Y0016690D02*
X0247264Y0016690D01*
X0247264Y0015091D02*
X0229664Y0015091D01*
X0229664Y0013493D02*
X0247264Y0013493D01*
X0227064Y0026281D02*
X0211284Y0026281D01*
X0209685Y0027879D02*
X0227064Y0027879D01*
X0227064Y0029478D02*
X0208087Y0029478D01*
X0223291Y0034273D02*
X0143350Y0034273D01*
X0144924Y0032675D02*
X0224890Y0032675D01*
X0226488Y0031076D02*
X0146497Y0031076D01*
X0141776Y0035872D02*
X0156670Y0035872D01*
X0154973Y0037470D02*
X0140203Y0037470D01*
X0138629Y0039069D02*
X0153276Y0039069D01*
X0151580Y0040667D02*
X0137055Y0040667D01*
X0135482Y0042266D02*
X0149883Y0042266D01*
X0148186Y0043864D02*
X0133908Y0043864D01*
X0132334Y0045463D02*
X0146489Y0045463D01*
X0144793Y0047061D02*
X0130761Y0047061D01*
X0129187Y0048660D02*
X0143096Y0048660D01*
X0141399Y0050258D02*
X0127613Y0050258D01*
X0126040Y0051857D02*
X0139702Y0051857D01*
X0138006Y0053455D02*
X0124466Y0053455D01*
X0122893Y0055054D02*
X0136309Y0055054D01*
X0134612Y0056652D02*
X0121319Y0056652D01*
X0119745Y0058251D02*
X0132915Y0058251D01*
X0131219Y0059849D02*
X0118172Y0059849D01*
X0116598Y0061448D02*
X0129522Y0061448D01*
X0127825Y0063046D02*
X0115024Y0063046D01*
X0113451Y0064645D02*
X0126128Y0064645D01*
X0124432Y0066243D02*
X0111877Y0066243D01*
X0110303Y0067842D02*
X0122735Y0067842D01*
X0121038Y0069440D02*
X0108730Y0069440D01*
X0107156Y0071039D02*
X0119342Y0071039D01*
X0118795Y0072637D02*
X0105582Y0072637D01*
X0104009Y0074236D02*
X0118472Y0074236D01*
X0118150Y0075834D02*
X0102756Y0075834D01*
X0102713Y0077433D02*
X0117827Y0077433D01*
X0117505Y0079032D02*
X0102670Y0079032D01*
X0102628Y0080630D02*
X0117182Y0080630D01*
X0116860Y0082229D02*
X0102585Y0082229D01*
X0107064Y0088623D02*
X0132064Y0088623D01*
X0132064Y0090221D02*
X0107064Y0090221D01*
X0107064Y0091820D02*
X0132064Y0091820D01*
X0132064Y0093418D02*
X0107064Y0093418D01*
X0121027Y0087024D02*
X0132064Y0087024D01*
X0152397Y0101411D02*
X0154442Y0101411D01*
X0154604Y0099812D02*
X0156041Y0099812D01*
X0152844Y0103009D02*
X0152464Y0103009D01*
X0146765Y0103000D02*
X0146765Y0103000D01*
X0161617Y0096615D02*
X0202388Y0096615D01*
X0201664Y0095017D02*
X0161617Y0095017D01*
X0161617Y0093418D02*
X0201775Y0093418D01*
X0202754Y0091820D02*
X0161617Y0091820D01*
X0161378Y0090221D02*
X0232315Y0090221D01*
X0232315Y0088623D02*
X0161617Y0088623D01*
X0161617Y0087024D02*
X0249964Y0087024D01*
X0249964Y0085426D02*
X0161617Y0085426D01*
X0161617Y0083827D02*
X0249964Y0083827D01*
X0249964Y0082229D02*
X0161524Y0082229D01*
X0161524Y0080630D02*
X0249964Y0080630D01*
X0249964Y0079032D02*
X0170072Y0079032D01*
X0166284Y0079032D02*
X0165325Y0079032D01*
X0165325Y0077433D02*
X0166284Y0077433D01*
X0162258Y0071039D02*
X0161638Y0071039D01*
X0181230Y0063046D02*
X0182899Y0063046D01*
X0191742Y0055054D02*
X0196937Y0055054D01*
X0196664Y0053455D02*
X0191814Y0053455D01*
X0191814Y0051857D02*
X0196664Y0051857D01*
X0197708Y0050258D02*
X0191814Y0050258D01*
X0183466Y0047061D02*
X0171845Y0047061D01*
X0172810Y0047760D02*
X0172474Y0048096D01*
X0172238Y0048506D01*
X0172115Y0048964D01*
X0172115Y0051280D01*
X0176585Y0051280D01*
X0176585Y0047401D01*
X0173678Y0047401D01*
X0173220Y0047523D01*
X0172810Y0047760D01*
X0172196Y0048660D02*
X0170246Y0048660D01*
X0168648Y0050258D02*
X0172115Y0050258D01*
X0176585Y0050258D02*
X0177544Y0050258D01*
X0177544Y0048660D02*
X0176585Y0048660D01*
X0181933Y0048660D02*
X0182315Y0048660D01*
X0182315Y0050258D02*
X0182014Y0050258D01*
X0202364Y0050258D02*
X0202364Y0050258D01*
X0202364Y0051857D02*
X0202364Y0051857D01*
X0202364Y0053000D02*
X0202364Y0053000D01*
X0231117Y0047061D02*
X0234165Y0047061D01*
X0245325Y0047061D02*
X0246284Y0047061D01*
X0246284Y0048660D02*
X0245325Y0048660D01*
X0246284Y0050258D02*
X0256862Y0050258D01*
X0255263Y0051857D02*
X0250164Y0051857D01*
X0250164Y0048660D02*
X0258511Y0048660D01*
X0260109Y0047061D02*
X0250097Y0047061D01*
X0272314Y0060850D02*
X0273214Y0061750D01*
X0273214Y0075250D01*
X0262064Y0069440D02*
X0255894Y0069440D01*
X0257492Y0067842D02*
X0262064Y0067842D01*
X0262064Y0066243D02*
X0259091Y0066243D01*
X0260689Y0064645D02*
X0262064Y0064645D01*
X0234490Y0069440D02*
X0229230Y0069440D01*
X0241814Y0088623D02*
X0247315Y0088623D01*
X0247315Y0090221D02*
X0241814Y0090221D01*
X0241814Y0091820D02*
X0247315Y0091820D01*
X0247315Y0093418D02*
X0241814Y0093418D01*
X0241779Y0095017D02*
X0247350Y0095017D01*
X0247315Y0096615D02*
X0241814Y0096615D01*
X0241267Y0103009D02*
X0247862Y0103009D01*
X0247324Y0106206D02*
X0246805Y0106206D01*
X0254964Y0109403D02*
X0270664Y0109403D01*
X0270664Y0111002D02*
X0254964Y0111002D01*
X0254964Y0112600D02*
X0270664Y0112600D01*
X0270664Y0114199D02*
X0254880Y0114199D01*
X0254073Y0115797D02*
X0262023Y0115797D01*
X0261664Y0117396D02*
X0254964Y0117396D01*
X0254964Y0118994D02*
X0261664Y0118994D01*
X0262450Y0120593D02*
X0254964Y0120593D01*
X0254964Y0122191D02*
X0257403Y0122191D01*
X0267364Y0118000D02*
X0267364Y0118000D01*
X0267364Y0117396D02*
X0267364Y0117396D01*
X0267364Y0115797D02*
X0267364Y0115797D01*
X0291824Y0115797D02*
X0293776Y0115797D01*
X0292608Y0117396D02*
X0292264Y0117396D01*
X0292264Y0118994D02*
X0292364Y0118994D01*
X0295964Y0118700D02*
X0300764Y0108900D01*
X0300764Y0108800D01*
X0299564Y0107600D01*
X0302212Y0111400D02*
X0299300Y0117346D01*
X0299564Y0117984D01*
X0299564Y0119416D01*
X0299343Y0119950D01*
X0306484Y0119950D01*
X0307714Y0121180D01*
X0308634Y0122100D01*
X0313136Y0122100D01*
X0313270Y0122023D01*
X0313727Y0121900D01*
X0314664Y0121900D01*
X0314664Y0126600D01*
X0314664Y0126600D01*
X0314664Y0121900D01*
X0314964Y0121900D01*
X0314964Y0121630D01*
X0316114Y0120480D01*
X0316114Y0119484D01*
X0316663Y0118161D01*
X0317675Y0117148D01*
X0318998Y0116600D01*
X0320431Y0116600D01*
X0321754Y0117148D01*
X0322766Y0118161D01*
X0323314Y0119484D01*
X0323314Y0120916D01*
X0322766Y0122239D01*
X0322016Y0122989D01*
X0322064Y0123037D01*
X0322064Y0124450D01*
X0328595Y0124450D01*
X0333214Y0119830D01*
X0334445Y0118600D01*
X0353284Y0118600D01*
X0354364Y0119680D01*
X0354364Y0114630D01*
X0355339Y0113655D01*
X0355339Y0113345D01*
X0355195Y0113200D01*
X0332534Y0113200D01*
X0332434Y0113300D01*
X0329634Y0116100D01*
X0322395Y0116100D01*
X0321164Y0114870D01*
X0319414Y0113120D01*
X0316046Y0116489D01*
X0316046Y0117812D01*
X0315500Y0119129D01*
X0314493Y0120136D01*
X0313177Y0120681D01*
X0311752Y0120681D01*
X0310436Y0120136D01*
X0309429Y0119129D01*
X0308883Y0117812D01*
X0308883Y0116388D01*
X0309429Y0115071D01*
X0310436Y0114064D01*
X0311752Y0113519D01*
X0313076Y0113519D01*
X0316464Y0110130D01*
X0317495Y0109100D01*
X0317164Y0109100D01*
X0316707Y0109100D01*
X0316599Y0109359D01*
X0315599Y0110359D01*
X0314924Y0111035D01*
X0314042Y0111400D01*
X0302212Y0111400D01*
X0301624Y0112600D02*
X0313994Y0112600D01*
X0314957Y0111002D02*
X0315593Y0111002D01*
X0316555Y0109403D02*
X0317191Y0109403D01*
X0317164Y0109100D02*
X0317164Y0104400D01*
X0317164Y0104400D01*
X0317164Y0109100D01*
X0317164Y0107805D02*
X0317164Y0107805D01*
X0317164Y0106206D02*
X0317164Y0106206D01*
X0317164Y0104608D02*
X0317164Y0104608D01*
X0314664Y0104400D02*
X0314564Y0104500D01*
X0314664Y0104400D02*
X0314664Y0107500D01*
X0318336Y0114199D02*
X0320493Y0114199D01*
X0322092Y0115797D02*
X0316737Y0115797D01*
X0316046Y0117396D02*
X0317427Y0117396D01*
X0316317Y0118994D02*
X0315556Y0118994D01*
X0316002Y0120593D02*
X0313390Y0120593D01*
X0311539Y0120593D02*
X0307127Y0120593D01*
X0309373Y0118994D02*
X0299564Y0118994D01*
X0299321Y0117396D02*
X0308883Y0117396D01*
X0309128Y0115797D02*
X0300059Y0115797D01*
X0300842Y0114199D02*
X0310301Y0114199D01*
X0322001Y0117396D02*
X0354364Y0117396D01*
X0354364Y0118994D02*
X0353679Y0118994D01*
X0354364Y0115797D02*
X0329937Y0115797D01*
X0331536Y0114199D02*
X0354796Y0114199D01*
X0368324Y0110500D02*
X0369664Y0110500D01*
X0369664Y0119400D01*
X0372164Y0119400D02*
X0372164Y0119400D01*
X0372164Y0114907D01*
X0372164Y0114907D01*
X0372164Y0119400D01*
X0372164Y0124100D01*
X0371227Y0124100D01*
X0370770Y0123977D01*
X0370636Y0123900D01*
X0367923Y0123900D01*
X0368164Y0124484D01*
X0368164Y0125916D01*
X0367616Y0127239D01*
X0366604Y0128252D01*
X0365920Y0128535D01*
X0370834Y0133450D01*
X0375334Y0133450D01*
X0378034Y0136150D01*
X0379264Y0137380D01*
X0379264Y0145500D01*
X0379564Y0145500D01*
X0379564Y0117670D01*
X0377064Y0120170D01*
X0377064Y0122963D01*
X0376127Y0123900D01*
X0373693Y0123900D01*
X0373559Y0123977D01*
X0373101Y0124100D01*
X0372164Y0124100D01*
X0372164Y0119400D01*
X0372164Y0119400D01*
X0372164Y0115500D01*
X0372064Y0115500D01*
X0372295Y0128389D01*
X0369167Y0131782D02*
X0379564Y0131782D01*
X0379564Y0130184D02*
X0367568Y0130184D01*
X0365970Y0128585D02*
X0379564Y0128585D01*
X0379564Y0126987D02*
X0367721Y0126987D01*
X0368164Y0125388D02*
X0379564Y0125388D01*
X0379564Y0123790D02*
X0376237Y0123790D01*
X0377064Y0122191D02*
X0379564Y0122191D01*
X0379564Y0120593D02*
X0377064Y0120593D01*
X0378240Y0118994D02*
X0379564Y0118994D01*
X0376261Y0115034D02*
X0376284Y0115010D01*
X0376284Y0110980D01*
X0375325Y0110980D01*
X0375325Y0114900D01*
X0376127Y0114900D01*
X0376261Y0115034D01*
X0376284Y0114199D02*
X0375325Y0114199D01*
X0375325Y0112600D02*
X0376284Y0112600D01*
X0375805Y0111760D02*
X0375805Y0110500D01*
X0376284Y0110020D02*
X0376284Y0105747D01*
X0377764Y0105747D01*
X0377764Y0105253D01*
X0376284Y0105253D01*
X0376284Y0100980D01*
X0375325Y0100980D01*
X0375325Y0105253D01*
X0373009Y0105253D01*
X0372551Y0105130D01*
X0372140Y0104893D01*
X0371923Y0104676D01*
X0371714Y0104884D01*
X0371714Y0106116D01*
X0371923Y0106324D01*
X0372140Y0106107D01*
X0372551Y0105870D01*
X0373009Y0105747D01*
X0375325Y0105747D01*
X0375325Y0110020D01*
X0376284Y0110020D01*
X0376284Y0109403D02*
X0375325Y0109403D01*
X0375325Y0107805D02*
X0376284Y0107805D01*
X0376284Y0106206D02*
X0375325Y0106206D01*
X0375325Y0104608D02*
X0376284Y0104608D01*
X0376284Y0103009D02*
X0375325Y0103009D01*
X0375325Y0101411D02*
X0376284Y0101411D01*
X0372041Y0106206D02*
X0371805Y0106206D01*
X0375325Y0111002D02*
X0376284Y0111002D01*
X0375805Y0111760D02*
X0372064Y0115500D01*
X0372164Y0115797D02*
X0372164Y0115797D01*
X0372164Y0117396D02*
X0372164Y0117396D01*
X0372164Y0118994D02*
X0372164Y0118994D01*
X0372164Y0120593D02*
X0372164Y0120593D01*
X0372164Y0122191D02*
X0372164Y0122191D01*
X0372164Y0123790D02*
X0372164Y0123790D01*
X0370765Y0133381D02*
X0379564Y0133381D01*
X0379564Y0134979D02*
X0376864Y0134979D01*
X0378462Y0136578D02*
X0379564Y0136578D01*
X0379564Y0138176D02*
X0379264Y0138176D01*
X0379264Y0139775D02*
X0379564Y0139775D01*
X0379564Y0141373D02*
X0379264Y0141373D01*
X0379264Y0142972D02*
X0379564Y0142972D01*
X0379564Y0144570D02*
X0379264Y0144570D01*
X0387064Y0144570D02*
X0396386Y0144570D01*
X0396386Y0142972D02*
X0387064Y0142972D01*
X0387064Y0141373D02*
X0396386Y0141373D01*
X0396386Y0139775D02*
X0387064Y0139775D01*
X0387064Y0138176D02*
X0396386Y0138176D01*
X0396386Y0136578D02*
X0387064Y0136578D01*
X0387064Y0134979D02*
X0396386Y0134979D01*
X0396386Y0133381D02*
X0387064Y0133381D01*
X0387064Y0131782D02*
X0396386Y0131782D01*
X0396386Y0130184D02*
X0387064Y0130184D01*
X0387064Y0128585D02*
X0396386Y0128585D01*
X0396386Y0126987D02*
X0387064Y0126987D01*
X0387064Y0125388D02*
X0396386Y0125388D01*
X0396386Y0123790D02*
X0387064Y0123790D01*
X0387064Y0122191D02*
X0396386Y0122191D01*
X0396386Y0120593D02*
X0387064Y0120593D01*
X0387064Y0118994D02*
X0396386Y0118994D01*
X0396386Y0117396D02*
X0387064Y0117396D01*
X0387064Y0115797D02*
X0396386Y0115797D01*
X0396386Y0114199D02*
X0387064Y0114199D01*
X0387064Y0112600D02*
X0396386Y0112600D01*
X0396386Y0111002D02*
X0387064Y0111002D01*
X0387064Y0109403D02*
X0396386Y0109403D01*
X0396386Y0107805D02*
X0387064Y0107805D01*
X0387064Y0106206D02*
X0396386Y0106206D01*
X0396386Y0104608D02*
X0387064Y0104608D01*
X0387064Y0103009D02*
X0396386Y0103009D01*
X0396386Y0101411D02*
X0387064Y0101411D01*
X0387064Y0099812D02*
X0396386Y0099812D01*
X0396386Y0098214D02*
X0387064Y0098214D01*
X0387064Y0096615D02*
X0396386Y0096615D01*
X0396386Y0095017D02*
X0387064Y0095017D01*
X0387064Y0093418D02*
X0396386Y0093418D01*
X0396386Y0091820D02*
X0387064Y0091820D01*
X0387064Y0090221D02*
X0396386Y0090221D01*
X0396386Y0088623D02*
X0387064Y0088623D01*
X0387064Y0087024D02*
X0396386Y0087024D01*
X0396386Y0085426D02*
X0387064Y0085426D01*
X0387064Y0083827D02*
X0396386Y0083827D01*
X0396386Y0082229D02*
X0387064Y0082229D01*
X0387064Y0080630D02*
X0396386Y0080630D01*
X0396386Y0079032D02*
X0387064Y0079032D01*
X0387064Y0077433D02*
X0396386Y0077433D01*
X0396386Y0075834D02*
X0387064Y0075834D01*
X0387064Y0074236D02*
X0396386Y0074236D01*
X0396386Y0072637D02*
X0387064Y0072637D01*
X0387064Y0071039D02*
X0396386Y0071039D01*
X0396386Y0069440D02*
X0387064Y0069440D01*
X0387064Y0067842D02*
X0396386Y0067842D01*
X0396386Y0066243D02*
X0387064Y0066243D01*
X0386209Y0064645D02*
X0396386Y0064645D01*
X0396386Y0063046D02*
X0384611Y0063046D01*
X0383012Y0061448D02*
X0396386Y0061448D01*
X0396386Y0059849D02*
X0381414Y0059849D01*
X0379815Y0058251D02*
X0396386Y0058251D01*
X0396386Y0056652D02*
X0378217Y0056652D01*
X0363988Y0055054D02*
X0396386Y0055054D01*
X0396386Y0053455D02*
X0362390Y0053455D01*
X0362672Y0053455D02*
X0363163Y0053455D01*
X0363126Y0051857D02*
X0361853Y0051857D01*
X0361570Y0051857D02*
X0396386Y0051857D01*
X0396386Y0050258D02*
X0362264Y0050258D01*
X0362464Y0050258D02*
X0363089Y0050258D01*
X0363053Y0048660D02*
X0362464Y0048660D01*
X0362264Y0048660D02*
X0396386Y0048660D01*
X0396386Y0047061D02*
X0362264Y0047061D01*
X0362464Y0047061D02*
X0363016Y0047061D01*
X0362980Y0045463D02*
X0362464Y0045463D01*
X0362264Y0045463D02*
X0396386Y0045463D01*
X0396386Y0043864D02*
X0362264Y0043864D01*
X0362464Y0043864D02*
X0362943Y0043864D01*
X0362906Y0042266D02*
X0362464Y0042266D01*
X0362264Y0042266D02*
X0396386Y0042266D01*
X0396386Y0040667D02*
X0361694Y0040667D01*
X0361977Y0040667D02*
X0362870Y0040667D01*
X0362833Y0039069D02*
X0353148Y0039069D01*
X0352152Y0040667D02*
X0352014Y0040667D01*
X0356977Y0040667D02*
X0357152Y0040667D01*
X0357214Y0040667D02*
X0357434Y0040667D01*
X0357230Y0039069D02*
X0396386Y0039069D01*
X0396386Y0037470D02*
X0357247Y0037470D01*
X0357263Y0035872D02*
X0396386Y0035872D01*
X0396386Y0034273D02*
X0359964Y0034273D01*
X0360164Y0034273D02*
X0362723Y0034273D01*
X0362687Y0032675D02*
X0360164Y0032675D01*
X0359964Y0032675D02*
X0396386Y0032675D01*
X0396386Y0031076D02*
X0359964Y0031076D01*
X0360164Y0031076D02*
X0362650Y0031076D01*
X0362614Y0029478D02*
X0360164Y0029478D01*
X0359964Y0029478D02*
X0396386Y0029478D01*
X0396386Y0027879D02*
X0359964Y0027879D01*
X0360164Y0027879D02*
X0362577Y0027879D01*
X0362540Y0026281D02*
X0359839Y0026281D01*
X0359557Y0026281D02*
X0396386Y0026281D01*
X0396386Y0024682D02*
X0357376Y0024682D01*
X0357392Y0023084D02*
X0396386Y0023084D01*
X0396386Y0021485D02*
X0357408Y0021485D01*
X0357424Y0019887D02*
X0396386Y0019887D01*
X0396386Y0018288D02*
X0357440Y0018288D01*
X0357456Y0016690D02*
X0396386Y0016690D01*
X0396386Y0015091D02*
X0357473Y0015091D01*
X0357489Y0013493D02*
X0396386Y0013493D01*
X0396386Y0011894D02*
X0357505Y0011894D01*
X0357521Y0010296D02*
X0396386Y0010296D01*
X0396386Y0008697D02*
X0357537Y0008697D01*
X0362138Y0008697D02*
X0325050Y0008697D01*
X0326347Y0010296D02*
X0362174Y0010296D01*
X0362211Y0011894D02*
X0326864Y0011894D01*
X0326864Y0013493D02*
X0362247Y0013493D01*
X0362284Y0015091D02*
X0326864Y0015091D01*
X0326864Y0016690D02*
X0362321Y0016690D01*
X0362357Y0018288D02*
X0326864Y0018288D01*
X0326686Y0019887D02*
X0362394Y0019887D01*
X0362431Y0021485D02*
X0325868Y0021485D01*
X0318261Y0021485D02*
X0315868Y0021485D01*
X0316686Y0019887D02*
X0317443Y0019887D01*
X0317264Y0018288D02*
X0316864Y0018288D01*
X0316864Y0016690D02*
X0317264Y0016690D01*
X0317264Y0015091D02*
X0316864Y0015091D01*
X0316864Y0013493D02*
X0317264Y0013493D01*
X0317264Y0011894D02*
X0316864Y0011894D01*
X0316347Y0010296D02*
X0317782Y0010296D01*
X0319079Y0008697D02*
X0315050Y0008697D01*
X0317064Y0031076D02*
X0322312Y0031076D01*
X0322312Y0032675D02*
X0317064Y0032675D01*
X0317064Y0034273D02*
X0322312Y0034273D01*
X0322312Y0035872D02*
X0317064Y0035872D01*
X0315064Y0045500D02*
X0289564Y0045500D01*
X0315064Y0045500D02*
X0324064Y0054500D01*
X0327564Y0054500D01*
X0329564Y0056500D01*
X0329564Y0062100D01*
X0326964Y0058251D02*
X0317064Y0058251D01*
X0317064Y0059849D02*
X0321664Y0059849D01*
X0321664Y0061448D02*
X0317064Y0061448D01*
X0317064Y0063046D02*
X0321664Y0063046D01*
X0321664Y0064645D02*
X0317064Y0064645D01*
X0317064Y0066243D02*
X0321664Y0066243D01*
X0321664Y0067842D02*
X0317064Y0067842D01*
X0317064Y0069440D02*
X0321664Y0069440D01*
X0336196Y0072637D02*
X0340074Y0072637D01*
X0338476Y0074236D02*
X0337014Y0074236D01*
X0337014Y0079032D02*
X0342115Y0079032D01*
X0342115Y0077433D02*
X0341784Y0077433D01*
X0342680Y0080630D02*
X0336448Y0080630D01*
X0346764Y0096000D02*
X0352164Y0096000D01*
X0362664Y0085500D01*
X0367064Y0085500D01*
X0351664Y0063046D02*
X0342464Y0063046D01*
X0342464Y0061448D02*
X0343433Y0061448D01*
X0345196Y0061448D02*
X0351664Y0061448D01*
X0351664Y0059849D02*
X0347537Y0059849D01*
X0348114Y0058251D02*
X0353313Y0058251D01*
X0352364Y0056652D02*
X0347994Y0056652D01*
X0347614Y0055054D02*
X0352364Y0055054D01*
X0352364Y0053455D02*
X0347614Y0053455D01*
X0351853Y0051857D02*
X0352276Y0051857D01*
X0329564Y0043650D02*
X0329564Y0041000D01*
X0329564Y0043650D02*
X0329464Y0043750D01*
X0317744Y0051857D02*
X0317064Y0051857D01*
X0317064Y0053455D02*
X0319343Y0053455D01*
X0320941Y0055054D02*
X0317064Y0055054D01*
X0317064Y0056652D02*
X0322540Y0056652D01*
X0354747Y0037470D02*
X0362797Y0037470D01*
X0362760Y0035872D02*
X0356345Y0035872D01*
X0303804Y0077433D02*
X0302845Y0077433D01*
X0302845Y0079032D02*
X0303804Y0079032D01*
X0272435Y0093418D02*
X0271841Y0093418D01*
X0272014Y0095017D02*
X0272315Y0095017D01*
X0272315Y0096615D02*
X0267544Y0096615D01*
X0267544Y0095017D02*
X0266585Y0095017D01*
X0266585Y0093418D02*
X0267544Y0093418D01*
X0272014Y0098214D02*
X0272315Y0098214D01*
X0272315Y0099812D02*
X0271945Y0099812D01*
X0271814Y0101411D02*
X0272315Y0101411D01*
X0239165Y0111002D02*
X0230083Y0111002D01*
X0218664Y0111002D02*
X0213964Y0111002D01*
X0213964Y0109403D02*
X0218664Y0109403D01*
X0218664Y0107805D02*
X0213964Y0107805D01*
X0213648Y0112600D02*
X0218664Y0112600D01*
X0218664Y0114199D02*
X0212291Y0114199D01*
X0210693Y0115797D02*
X0218664Y0115797D01*
X0218664Y0117396D02*
X0209094Y0117396D01*
X0208459Y0118994D02*
X0205964Y0118994D01*
X0205964Y0120593D02*
X0206860Y0120593D01*
X0203663Y0123790D02*
X0181494Y0123790D01*
X0182027Y0125388D02*
X0202065Y0125388D01*
X0195262Y0122191D02*
X0180962Y0122191D01*
X0180429Y0120593D02*
X0194564Y0120593D01*
X0176748Y0130184D02*
X0166284Y0130184D01*
X0166284Y0128585D02*
X0165325Y0128585D01*
X0165325Y0126987D02*
X0166284Y0126987D01*
X0158464Y0146600D02*
X0158364Y0146600D01*
X0158464Y0146600D02*
X0158464Y0146800D01*
X0163514Y0162400D02*
X0163514Y0164400D01*
X0163514Y0167387D01*
X0163392Y0167845D01*
X0163155Y0168255D01*
X0162820Y0168590D01*
X0162409Y0168827D01*
X0161951Y0168950D01*
X0161843Y0168950D01*
X0162064Y0169484D01*
X0162064Y0170916D01*
X0161516Y0172239D01*
X0160504Y0173252D01*
X0159181Y0173800D01*
X0157748Y0173800D01*
X0156425Y0173252D01*
X0156354Y0173180D01*
X0154664Y0174870D01*
X0153434Y0176100D01*
X0152034Y0176100D01*
X0151734Y0176400D01*
X0151634Y0176400D01*
X0151434Y0176600D01*
X0149964Y0176600D01*
X0149964Y0178800D01*
X0160243Y0178800D01*
X0160363Y0178511D01*
X0161375Y0177498D01*
X0162698Y0176950D01*
X0164131Y0176950D01*
X0165454Y0177498D01*
X0166466Y0178511D01*
X0166586Y0178800D01*
X0177512Y0178800D01*
X0177512Y0178538D01*
X0178449Y0177601D01*
X0185680Y0177601D01*
X0186617Y0178538D01*
X0186617Y0178800D01*
X0192512Y0178800D01*
X0192512Y0178538D01*
X0192572Y0178478D01*
X0190695Y0176600D01*
X0188195Y0176600D01*
X0173995Y0162400D01*
X0163514Y0162400D01*
X0163514Y0163753D02*
X0175347Y0163753D01*
X0176946Y0165351D02*
X0163514Y0165351D01*
X0163514Y0164400D02*
X0160865Y0164400D01*
X0160865Y0164400D01*
X0163514Y0164400D01*
X0163514Y0166950D02*
X0178544Y0166950D01*
X0180143Y0168548D02*
X0162862Y0168548D01*
X0162064Y0170147D02*
X0181741Y0170147D01*
X0183340Y0171745D02*
X0161721Y0171745D01*
X0160282Y0173344D02*
X0184938Y0173344D01*
X0186537Y0174942D02*
X0154592Y0174942D01*
X0156191Y0173344D02*
X0156647Y0173344D01*
X0151494Y0176541D02*
X0188135Y0176541D01*
X0186218Y0178139D02*
X0192234Y0178139D01*
X0177911Y0178139D02*
X0166095Y0178139D01*
X0160734Y0178139D02*
X0149964Y0178139D01*
X0181585Y0190927D02*
X0182544Y0190927D01*
X0182544Y0189720D02*
X0182544Y0193599D01*
X0185254Y0193599D01*
X0185712Y0193477D01*
X0186122Y0193240D01*
X0186458Y0192904D01*
X0186695Y0192494D01*
X0186817Y0192036D01*
X0186817Y0189720D01*
X0182544Y0189720D01*
X0186817Y0190927D02*
X0192312Y0190927D01*
X0192453Y0192526D02*
X0186676Y0192526D01*
X0182544Y0192526D02*
X0181585Y0192526D01*
X0183107Y0198920D02*
X0179316Y0198920D01*
X0180467Y0200518D02*
X0181896Y0200518D01*
X0181470Y0202117D02*
X0180870Y0202117D01*
X0180870Y0203715D02*
X0181470Y0203715D01*
X0176270Y0203715D02*
X0175870Y0203715D01*
X0175870Y0202117D02*
X0176270Y0202117D01*
X0176270Y0200518D02*
X0175870Y0200518D01*
X0175870Y0198920D02*
X0176270Y0198920D01*
X0172824Y0198920D02*
X0169033Y0198920D01*
X0170244Y0200518D02*
X0171674Y0200518D01*
X0171270Y0202117D02*
X0170670Y0202117D01*
X0170670Y0203715D02*
X0171270Y0203715D01*
X0175870Y0206912D02*
X0176270Y0206912D01*
X0176270Y0208511D02*
X0175870Y0208511D01*
X0175870Y0210109D02*
X0176270Y0210109D01*
X0176270Y0211708D02*
X0175870Y0211708D01*
X0196585Y0192526D02*
X0197544Y0192526D01*
X0197544Y0190927D02*
X0196585Y0190927D01*
X0192312Y0187730D02*
X0186817Y0187730D01*
X0186733Y0186132D02*
X0192395Y0186132D01*
X0272845Y0163753D02*
X0273804Y0163753D01*
X0273804Y0162154D02*
X0272845Y0162154D01*
X0296415Y0178139D02*
X0297714Y0178139D01*
X0306814Y0181034D02*
X0306814Y0181781D01*
X0314482Y0174113D01*
X0313719Y0174130D01*
X0306814Y0181034D01*
X0306814Y0181336D02*
X0307258Y0181336D01*
X0308111Y0179738D02*
X0308857Y0179738D01*
X0309709Y0178139D02*
X0310455Y0178139D01*
X0311308Y0176541D02*
X0312054Y0176541D01*
X0312906Y0174942D02*
X0313652Y0174942D01*
X0316395Y0178139D02*
X0318555Y0178139D01*
X0318114Y0176541D02*
X0317994Y0176541D01*
X0317864Y0179738D02*
X0314797Y0179738D01*
X0313198Y0181336D02*
X0317864Y0181336D01*
X0317864Y0182935D02*
X0311600Y0182935D01*
X0310001Y0184533D02*
X0316483Y0184533D01*
X0316483Y0186132D02*
X0308402Y0186132D01*
X0306814Y0187730D02*
X0316730Y0187730D01*
X0318329Y0189329D02*
X0306814Y0189329D01*
X0306814Y0190927D02*
X0321964Y0190927D01*
X0321964Y0189329D02*
X0321800Y0189329D01*
X0326164Y0185750D02*
X0326464Y0185750D01*
X0326464Y0184630D01*
X0330395Y0180700D01*
X0327802Y0180700D01*
X0327064Y0179963D01*
X0326327Y0180700D01*
X0326164Y0180700D01*
X0326164Y0185750D01*
X0326164Y0184533D02*
X0326561Y0184533D01*
X0326164Y0182935D02*
X0328160Y0182935D01*
X0329758Y0181336D02*
X0326164Y0181336D01*
X0332501Y0184533D02*
X0336714Y0184533D01*
X0336714Y0185750D02*
X0332583Y0185750D01*
X0332064Y0186269D01*
X0331546Y0185750D01*
X0331284Y0185750D01*
X0335284Y0181750D01*
X0336514Y0180520D01*
X0336514Y0180513D01*
X0336714Y0180313D01*
X0336714Y0185750D01*
X0332201Y0186132D02*
X0331927Y0186132D01*
X0334100Y0182935D02*
X0336714Y0182935D01*
X0336714Y0181336D02*
X0335698Y0181336D01*
X0342914Y0185072D02*
X0342914Y0187350D01*
X0344165Y0187350D01*
X0344165Y0186884D01*
X0345102Y0185947D01*
X0351546Y0185947D01*
X0351923Y0186324D01*
X0352140Y0186107D01*
X0352551Y0185870D01*
X0353009Y0185747D01*
X0355325Y0185747D01*
X0355325Y0190020D01*
X0356284Y0190020D01*
X0356284Y0185747D01*
X0357964Y0185747D01*
X0357964Y0183730D01*
X0359045Y0182650D01*
X0351995Y0182650D01*
X0351095Y0181750D01*
X0350045Y0180700D01*
X0347802Y0180700D01*
X0347064Y0179963D01*
X0346327Y0180700D01*
X0344564Y0180700D01*
X0344764Y0181184D01*
X0344764Y0182616D01*
X0344216Y0183939D01*
X0343204Y0184952D01*
X0342914Y0185072D01*
X0343622Y0184533D02*
X0357964Y0184533D01*
X0358760Y0182935D02*
X0344632Y0182935D01*
X0344764Y0181336D02*
X0350681Y0181336D01*
X0351731Y0186132D02*
X0352115Y0186132D01*
X0355325Y0186132D02*
X0356284Y0186132D01*
X0356284Y0187730D02*
X0355325Y0187730D01*
X0355325Y0189329D02*
X0356284Y0189329D01*
X0356284Y0190980D02*
X0355325Y0190980D01*
X0355325Y0195253D01*
X0353009Y0195253D01*
X0352551Y0195130D01*
X0352140Y0194893D01*
X0351923Y0194676D01*
X0351546Y0195053D01*
X0351464Y0195053D01*
X0351464Y0195947D01*
X0351546Y0195947D01*
X0351923Y0196324D01*
X0352140Y0196107D01*
X0352551Y0195870D01*
X0353009Y0195747D01*
X0355325Y0195747D01*
X0355325Y0200020D01*
X0356284Y0200020D01*
X0356284Y0195747D01*
X0357964Y0195747D01*
X0357964Y0195253D01*
X0356284Y0195253D01*
X0356284Y0190980D01*
X0356284Y0192526D02*
X0355325Y0192526D01*
X0355325Y0194124D02*
X0356284Y0194124D01*
X0357964Y0195723D02*
X0351464Y0195723D01*
X0355325Y0197321D02*
X0356284Y0197321D01*
X0356284Y0198920D02*
X0355325Y0198920D01*
X0362164Y0198920D02*
X0396386Y0198920D01*
X0396386Y0200518D02*
X0362164Y0200518D01*
X0362164Y0202117D02*
X0396386Y0202117D01*
X0396386Y0203715D02*
X0362164Y0203715D01*
X0361670Y0205314D02*
X0396386Y0205314D01*
X0396386Y0206912D02*
X0360072Y0206912D01*
X0362164Y0197321D02*
X0396386Y0197321D01*
X0396386Y0195723D02*
X0362164Y0195723D01*
X0362164Y0194124D02*
X0396386Y0194124D01*
X0396386Y0192526D02*
X0362164Y0192526D01*
X0362164Y0190927D02*
X0396386Y0190927D01*
X0396386Y0189329D02*
X0362164Y0189329D01*
X0362164Y0187730D02*
X0396386Y0187730D01*
X0396386Y0186132D02*
X0362164Y0186132D01*
X0363101Y0184533D02*
X0396386Y0184533D01*
X0396386Y0182935D02*
X0364700Y0182935D01*
X0366298Y0181336D02*
X0396386Y0181336D01*
X0396386Y0179738D02*
X0367897Y0179738D01*
X0369495Y0178139D02*
X0396386Y0178139D01*
X0396386Y0176541D02*
X0371094Y0176541D01*
X0372692Y0174942D02*
X0396386Y0174942D01*
X0396386Y0173344D02*
X0374291Y0173344D01*
X0366027Y0172967D02*
X0362264Y0173051D01*
X0362264Y0176730D01*
X0366027Y0172967D01*
X0365651Y0173344D02*
X0362264Y0173344D01*
X0362264Y0174942D02*
X0364052Y0174942D01*
X0362454Y0176541D02*
X0362264Y0176541D01*
X0344918Y0186132D02*
X0342914Y0186132D01*
X0344165Y0193550D02*
X0339964Y0193550D01*
X0339964Y0194312D01*
X0339026Y0195250D01*
X0332583Y0195250D01*
X0332064Y0194731D01*
X0331546Y0195250D01*
X0328234Y0195250D01*
X0335734Y0202750D01*
X0344165Y0202750D01*
X0344165Y0196884D01*
X0345102Y0195947D01*
X0345264Y0195947D01*
X0345264Y0195053D01*
X0345102Y0195053D01*
X0344165Y0194115D01*
X0344165Y0193550D01*
X0344174Y0194124D02*
X0339964Y0194124D01*
X0345264Y0195723D02*
X0328707Y0195723D01*
X0330306Y0197321D02*
X0344165Y0197321D01*
X0344165Y0198920D02*
X0331904Y0198920D01*
X0333503Y0200518D02*
X0344165Y0200518D01*
X0344165Y0202117D02*
X0335101Y0202117D01*
X0322767Y0195723D02*
X0304564Y0195723D01*
X0304564Y0194124D02*
X0321964Y0194124D01*
X0321964Y0192526D02*
X0306750Y0192526D01*
X0314990Y0198920D02*
X0319139Y0198920D01*
X0317906Y0200518D02*
X0316223Y0200518D01*
X0316664Y0202117D02*
X0317464Y0202117D01*
X0317464Y0203715D02*
X0316664Y0203715D01*
X0316664Y0205314D02*
X0317464Y0205314D01*
X0317464Y0206912D02*
X0316664Y0206912D01*
X0316664Y0208511D02*
X0317464Y0208511D01*
X0317752Y0210109D02*
X0316377Y0210109D01*
X0315362Y0211708D02*
X0318767Y0211708D01*
X0387064Y0171745D02*
X0396386Y0171745D01*
X0396386Y0170147D02*
X0387064Y0170147D01*
X0387064Y0168548D02*
X0396386Y0168548D01*
X0396386Y0166950D02*
X0387064Y0166950D01*
X0387064Y0165351D02*
X0396386Y0165351D01*
X0396386Y0163753D02*
X0387064Y0163753D01*
X0387064Y0162154D02*
X0396386Y0162154D01*
X0396386Y0160556D02*
X0387064Y0160556D01*
X0387064Y0158957D02*
X0396386Y0158957D01*
X0396386Y0157359D02*
X0387064Y0157359D01*
X0387064Y0155760D02*
X0396386Y0155760D01*
X0396386Y0154162D02*
X0387064Y0154162D01*
X0387064Y0152563D02*
X0396386Y0152563D01*
X0396386Y0150965D02*
X0387064Y0150965D01*
X0387064Y0149366D02*
X0396386Y0149366D01*
X0396386Y0147768D02*
X0387064Y0147768D01*
X0387064Y0146169D02*
X0396386Y0146169D01*
X0369664Y0141600D02*
X0369664Y0153400D01*
X0369064Y0154000D01*
X0339564Y0156200D02*
X0336664Y0156200D01*
X0334565Y0156200D01*
X0339564Y0156200D01*
X0339564Y0156200D01*
X0335064Y0156500D02*
X0334764Y0156200D01*
X0334564Y0156200D01*
X0334565Y0156200D02*
X0334565Y0156200D01*
X0329255Y0123790D02*
X0322064Y0123790D01*
X0322786Y0122191D02*
X0330853Y0122191D01*
X0332452Y0120593D02*
X0323314Y0120593D01*
X0323112Y0118994D02*
X0334050Y0118994D01*
X0314664Y0122191D02*
X0314664Y0122191D01*
X0314664Y0123790D02*
X0314664Y0123790D01*
X0314664Y0125388D02*
X0314664Y0125388D01*
X0261864Y0133381D02*
X0247064Y0133381D01*
X0247064Y0134979D02*
X0262081Y0134979D01*
X0261077Y0131782D02*
X0247064Y0131782D01*
X0230164Y0096615D02*
X0212005Y0096615D01*
X0210407Y0095017D02*
X0230728Y0095017D01*
X0232315Y0093418D02*
X0208808Y0093418D01*
X0207775Y0091820D02*
X0232315Y0091820D01*
X0132064Y0115500D02*
X0116198Y0115500D01*
X0215050Y0008697D02*
X0215190Y0008697D01*
D26*
X0224164Y0046900D02*
X0187264Y0046900D01*
X0158324Y0065500D02*
X0158464Y0065800D01*
X0158464Y0075250D01*
X0158324Y0075500D01*
X0158464Y0076600D01*
X0165805Y0075500D02*
X0166114Y0075700D01*
X0170614Y0080200D01*
X0146764Y0088000D02*
X0146764Y0091000D01*
X0147664Y0091900D01*
X0146764Y0092800D01*
X0146764Y0093000D01*
X0145414Y0093700D01*
X0142714Y0093700D01*
X0140464Y0095950D01*
X0140464Y0115300D01*
X0140805Y0115500D01*
X0144514Y0121150D02*
X0146764Y0118900D01*
X0146764Y0103000D01*
X0158324Y0115500D02*
X0158464Y0115750D01*
X0158464Y0129250D01*
X0158324Y0130500D01*
X0158014Y0130600D01*
X0158014Y0136450D01*
X0163414Y0141400D02*
X0161164Y0143650D01*
X0161164Y0146350D01*
X0160864Y0146600D01*
X0126064Y0144550D02*
X0126064Y0131950D01*
X0119764Y0125650D01*
X0104464Y0125650D01*
X0095914Y0134200D01*
X0095914Y0175150D01*
X0095464Y0175600D01*
X0095464Y0185050D01*
X0098164Y0187750D01*
X0101764Y0187750D01*
X0101764Y0188000D01*
X0101764Y0183000D02*
X0101764Y0178000D01*
X0103114Y0177400D01*
X0110764Y0177400D01*
X0112114Y0176050D01*
X0113324Y0175500D01*
X0113464Y0176950D01*
X0117514Y0181000D01*
X0138214Y0181000D01*
X0138214Y0175600D01*
X0138324Y0175500D01*
X0138214Y0181000D02*
X0138214Y0181900D01*
X0163414Y0181900D01*
X0163414Y0180550D01*
X0163414Y0181900D02*
X0180964Y0181900D01*
X0182064Y0181760D01*
X0182314Y0181900D01*
X0196714Y0181900D01*
X0197064Y0181760D01*
X0229564Y0180550D02*
X0234514Y0180550D01*
X0235564Y0181520D01*
X0235864Y0181900D01*
X0281764Y0181900D01*
X0282064Y0181760D01*
X0283564Y0181900D01*
X0291664Y0181900D01*
X0292064Y0181760D01*
X0293464Y0181900D01*
X0302014Y0181900D01*
X0302064Y0181760D01*
X0302914Y0180550D01*
X0313264Y0170200D01*
X0313264Y0141850D01*
X0313324Y0140500D01*
X0313714Y0140500D01*
X0313714Y0138250D01*
X0286714Y0138700D02*
X0286714Y0133300D01*
X0286764Y0133000D01*
X0286714Y0138700D02*
X0281314Y0144100D01*
X0280805Y0145500D01*
X0280864Y0145900D01*
X0280864Y0160300D01*
X0280805Y0160500D01*
X0335805Y0190500D02*
X0336214Y0190450D01*
X0339814Y0190450D01*
X0339814Y0181900D01*
X0341164Y0181900D01*
X0339814Y0181900D02*
X0339814Y0175150D01*
X0339564Y0174800D01*
X0339814Y0190450D02*
X0347014Y0190450D01*
X0348324Y0190500D01*
X0348364Y0190900D01*
X0348364Y0200350D01*
X0348324Y0200500D01*
X0345805Y0140500D02*
X0345664Y0140500D01*
X0345664Y0138700D01*
X0341614Y0134650D01*
X0344314Y0131950D01*
X0368324Y0110500D02*
X0368614Y0110350D01*
X0368614Y0100900D01*
X0368324Y0100500D01*
X0366814Y0100450D01*
X0357364Y0100450D01*
X0348814Y0091900D02*
X0312364Y0091900D01*
X0310805Y0090500D01*
X0311014Y0090100D01*
X0311014Y0075700D01*
X0310805Y0075500D01*
X0344314Y0057700D02*
X0344314Y0047350D01*
X0344564Y0046200D01*
X0344314Y0046000D01*
X0344314Y0041050D01*
X0338914Y0035650D01*
X0337064Y0034240D01*
X0338464Y0034300D01*
X0342064Y0030700D01*
X0347914Y0030700D01*
X0348324Y0030500D01*
X0337064Y0034240D02*
X0336664Y0034300D01*
X0327214Y0034300D02*
X0327064Y0034240D01*
X0238324Y0050500D02*
X0229464Y0050500D01*
X0227764Y0050500D01*
X0224164Y0046900D01*
X0227314Y0065800D02*
X0225514Y0067600D01*
X0221914Y0067600D01*
X0221764Y0068000D01*
X0227314Y0065800D02*
X0238114Y0065800D01*
X0238324Y0065500D01*
X0144514Y0121150D02*
X0113464Y0121150D01*
X0108064Y0115750D01*
X0107931Y0115500D01*
X0113324Y0140500D02*
X0113464Y0140500D01*
X0113464Y0154000D01*
X0113324Y0155500D01*
X0113464Y0155800D01*
X0113464Y0165250D01*
X0113324Y0165500D01*
X0113464Y0166600D01*
X0113464Y0175150D01*
X0113324Y0175500D01*
X0120805Y0155500D02*
X0121114Y0155350D01*
X0121114Y0149500D01*
X0126064Y0144550D01*
X0093664Y0042850D02*
X0093464Y0042700D01*
D27*
X0170614Y0080200D03*
X0205264Y0094400D03*
X0177064Y0130500D03*
X0175364Y0141200D03*
X0163414Y0141400D03*
X0158014Y0136450D03*
X0143264Y0143650D03*
X0158914Y0154900D03*
X0137064Y0160500D03*
X0151264Y0170200D03*
X0158464Y0170200D03*
X0163414Y0180550D03*
X0206364Y0168800D03*
X0229564Y0180550D03*
X0222064Y0190500D03*
X0204764Y0151900D03*
X0262064Y0145500D03*
X0295664Y0129400D03*
X0295964Y0118700D03*
X0306864Y0114000D03*
X0319714Y0120200D03*
X0344314Y0131950D03*
X0361864Y0135100D03*
X0364564Y0125200D03*
X0330964Y0146100D03*
X0317764Y0156700D03*
X0308764Y0167500D03*
X0320464Y0173800D03*
X0341164Y0181900D03*
X0354964Y0184400D03*
X0351864Y0148500D03*
X0357364Y0100450D03*
X0348814Y0091900D03*
X0324064Y0099500D03*
X0322064Y0085500D03*
X0294564Y0098000D03*
X0287064Y0090500D03*
X0277064Y0085500D03*
X0344314Y0057700D03*
X0358264Y0053650D03*
X0377064Y0050500D03*
X0366464Y0071300D03*
X0080764Y0172400D03*
X0082064Y0205500D03*
D28*
X0372295Y0128389D03*
X0372064Y0028000D03*
X0387064Y0028500D03*
X0162064Y0020500D03*
X0147064Y0020500D03*
D29*
X0212064Y0042000D03*
X0211964Y0053300D03*
X0229464Y0050500D03*
X0246664Y0042500D03*
X0252964Y0042500D03*
X0257964Y0072800D03*
X0257864Y0078600D03*
X0247164Y0078000D03*
X0241864Y0077800D03*
X0229064Y0073800D03*
X0210864Y0074200D03*
X0203864Y0073600D03*
X0187064Y0109500D03*
X0187064Y0115500D03*
X0187064Y0120500D03*
X0104164Y0138400D03*
X0094464Y0124300D03*
X0081993Y0121594D03*
X0082204Y0115083D03*
X0093807Y0107386D03*
X0089639Y0103035D03*
X0349564Y0117000D03*
X0364064Y0153500D03*
D30*
X0351864Y0148500D02*
X0350864Y0147500D01*
X0332364Y0147500D01*
X0337064Y0152200D01*
X0337064Y0156500D01*
X0337064Y0158500D01*
X0332364Y0147500D02*
X0330964Y0146100D01*
X0349564Y0117000D02*
X0349064Y0116500D01*
X0349064Y0114800D01*
X0303324Y0090500D02*
X0287064Y0090500D01*
X0322064Y0085500D02*
X0332324Y0085500D01*
X0332824Y0085000D01*
X0353764Y0085000D01*
X0357064Y0081700D01*
X0357064Y0075500D01*
X0358064Y0075500D01*
X0361564Y0072000D01*
X0365764Y0072000D01*
X0366464Y0071300D01*
X0349364Y0063700D02*
X0345664Y0063700D01*
X0344564Y0064800D01*
X0372064Y0045500D02*
X0377064Y0050500D01*
X0372064Y0045500D02*
X0372064Y0028000D01*
X0332064Y0084240D02*
X0332824Y0085000D01*
X0229064Y0073800D02*
X0225514Y0070250D01*
X0225514Y0067600D01*
X0187064Y0051760D02*
X0187064Y0047100D01*
X0187264Y0046900D01*
X0158324Y0075500D02*
X0158324Y0085500D01*
X0157064Y0086760D01*
X0205264Y0094400D02*
X0210764Y0099900D01*
X0210764Y0111200D01*
X0206464Y0115500D01*
X0202064Y0115500D01*
X0177064Y0130500D02*
X0165805Y0130500D01*
X0175364Y0141200D02*
X0178564Y0141200D01*
X0178664Y0141100D01*
X0200664Y0160640D02*
X0200664Y0166400D01*
X0203064Y0168800D01*
X0206364Y0168800D01*
X0200664Y0160640D02*
X0200805Y0160500D01*
X0172064Y0165500D02*
X0172064Y0175500D01*
X0157064Y0175500D01*
X0157064Y0177600D01*
X0153664Y0177600D01*
X0167064Y0190500D02*
X0168324Y0189240D01*
X0182064Y0189240D01*
X0197064Y0189240D02*
X0198324Y0190500D01*
X0222064Y0190500D01*
X0172064Y0165500D02*
X0167064Y0165500D01*
X0167064Y0190500D02*
X0153664Y0190500D01*
X0137064Y0190500D01*
X0130805Y0197860D02*
X0122664Y0197860D01*
X0087064Y0197411D02*
X0077064Y0197411D01*
X0077233Y0196404D02*
X0077064Y0196292D01*
X0077064Y0210500D01*
X0082064Y0210500D01*
X0087064Y0205500D01*
X0087064Y0196583D01*
X0087023Y0196600D01*
X0086521Y0196700D01*
X0082364Y0196700D01*
X0082364Y0193000D01*
X0082364Y0193000D01*
X0082364Y0196700D01*
X0078208Y0196700D01*
X0077706Y0196600D01*
X0077233Y0196404D01*
X0082364Y0194212D02*
X0082364Y0194212D01*
X0087064Y0200609D02*
X0077064Y0200609D01*
X0077064Y0203808D02*
X0087064Y0203808D01*
X0085558Y0207006D02*
X0077064Y0207006D01*
X0077064Y0210205D02*
X0082360Y0210205D01*
X0094464Y0124300D02*
X0094464Y0122400D01*
X0092064Y0120000D01*
X0092064Y0115500D01*
X0092464Y0115100D01*
X0087364Y0110000D01*
X0087364Y0109900D01*
X0080164Y0102700D01*
X0080164Y0102250D02*
X0093214Y0089200D01*
X0093214Y0044200D01*
X0262064Y0145500D02*
X0273324Y0145500D01*
X0354964Y0184400D02*
X0354964Y0189660D01*
X0355805Y0190500D01*
D31*
X0337064Y0156500D02*
X0335064Y0156500D01*
X0364064Y0153500D02*
X0364564Y0154000D01*
X0369064Y0154000D01*
X0347464Y0084250D02*
X0347064Y0084240D01*
X0180464Y0141100D02*
X0178664Y0141100D01*
X0160864Y0146600D02*
X0159364Y0146800D01*
X0158464Y0146800D01*
X0091864Y0149500D02*
X0090964Y0150400D01*
X0090805Y0150500D01*
X0090964Y0160300D02*
X0091284Y0160980D01*
X0090805Y0160500D02*
X0090964Y0160300D01*
X0090805Y0160500D02*
X0090514Y0161200D01*
X0080164Y0102700D02*
X0080164Y0102250D01*
X0155824Y0088000D02*
X0157064Y0086760D01*
X0093214Y0044200D02*
X0093464Y0042700D01*
D32*
X0327214Y0034300D02*
X0336664Y0034300D01*
D33*
X0277064Y0085500D02*
X0277064Y0096760D01*
X0326264Y0105200D02*
X0326564Y0105500D01*
X0317314Y0134650D02*
X0341614Y0134650D01*
X0317314Y0134650D02*
X0313714Y0138250D01*
X0171797Y0043149D02*
X0158607Y0056340D01*
X0158435Y0056340D01*
X0158324Y0056451D01*
X0158324Y0065500D01*
X0183514Y0043149D02*
X0187264Y0046900D01*
X0183514Y0043149D02*
X0171797Y0043149D01*
X0155824Y0088000D02*
X0146764Y0088000D01*
X0136564Y0183000D02*
X0132614Y0186950D01*
X0132614Y0196050D01*
X0130964Y0197700D01*
X0130964Y0198200D01*
D34*
X0192064Y0170500D03*
X0312464Y0117100D03*
X0326264Y0105200D03*
D35*
X0326064Y0110500D03*
X0316564Y0098500D03*
X0304564Y0135500D03*
X0303564Y0173000D03*
X0320064Y0186000D03*
X0171564Y0154500D03*
D36*
X0178264Y0158500D02*
X0180564Y0158500D01*
X0187564Y0165500D01*
X0190264Y0165500D01*
X0192064Y0170500D02*
X0196564Y0175000D01*
X0214564Y0175000D01*
X0215564Y0174000D01*
X0288564Y0174000D01*
X0303064Y0139500D02*
X0300564Y0137000D01*
X0300564Y0133500D01*
X0302564Y0131500D01*
X0308064Y0131500D01*
X0309564Y0130000D01*
X0309564Y0129000D01*
X0309464Y0128900D01*
X0309464Y0126600D01*
X0312064Y0126600D02*
X0312064Y0131500D01*
X0312564Y0131500D01*
X0310564Y0133500D01*
X0306564Y0133500D01*
X0304564Y0135500D01*
X0308064Y0136000D02*
X0308064Y0138500D01*
X0307064Y0139500D01*
X0303064Y0139500D01*
X0308064Y0136000D02*
X0308564Y0135500D01*
X0311564Y0135500D01*
X0315564Y0131500D01*
X0332324Y0131500D01*
X0338324Y0125500D01*
X0326064Y0110500D02*
X0323064Y0110500D01*
X0320064Y0107500D01*
X0320064Y0104400D01*
X0319764Y0104400D01*
X0312064Y0104400D02*
X0312064Y0100500D01*
X0314564Y0098000D01*
X0316064Y0098000D01*
X0316564Y0098500D01*
X0312764Y0095000D02*
X0309564Y0098200D01*
X0312764Y0095000D02*
X0323564Y0095000D01*
X0367064Y0115000D02*
X0367064Y0119400D01*
X0372164Y0141600D02*
X0372164Y0155200D01*
X0374764Y0155500D02*
X0366364Y0163900D01*
X0374764Y0155500D02*
X0374764Y0142150D01*
X0374464Y0141850D01*
X0329464Y0062200D02*
X0329564Y0062100D01*
X0272564Y0040000D02*
X0272064Y0040500D01*
X0258564Y0052000D02*
X0258514Y0052000D01*
X0228564Y0055500D02*
X0217464Y0055500D01*
X0217414Y0055450D02*
X0216114Y0055450D01*
X0216064Y0055500D01*
X0216064Y0056800D01*
X0210214Y0062650D01*
X0202114Y0057700D02*
X0202097Y0057683D01*
X0189259Y0057683D02*
X0187702Y0059240D01*
X0187064Y0059240D01*
X0157064Y0094240D02*
X0153305Y0098000D01*
X0146764Y0098000D01*
X0150864Y0108100D02*
X0157164Y0101800D01*
X0167014Y0101800D01*
X0150864Y0108100D02*
X0150864Y0115250D01*
X0150814Y0115300D01*
X0150864Y0115350D01*
X0150864Y0120600D01*
X0137064Y0134400D01*
X0137064Y0145500D01*
X0149614Y0158050D01*
X0153514Y0158050D01*
X0169964Y0142500D02*
X0173964Y0146500D01*
X0179064Y0146500D01*
X0181364Y0144200D01*
X0187064Y0144200D01*
X0169964Y0142500D02*
X0169964Y0140800D01*
X0169964Y0140000D01*
X0169964Y0140800D02*
X0169864Y0140800D01*
X0170064Y0137500D02*
X0170564Y0137000D01*
X0188564Y0129000D02*
X0201564Y0129000D01*
X0210664Y0119900D01*
X0210664Y0119800D01*
X0212064Y0130500D02*
X0204064Y0130500D01*
X0204064Y0130800D01*
X0200064Y0134800D01*
X0189564Y0134800D02*
X0189264Y0134800D01*
X0212064Y0130500D02*
X0217064Y0135500D01*
D37*
X0287264Y0132500D02*
X0292964Y0132500D01*
X0327064Y0140500D02*
X0338324Y0140500D01*
X0327064Y0140500D02*
X0327064Y0148400D01*
X0329564Y0150900D01*
X0329564Y0156200D01*
D38*
X0167064Y0190500D03*
X0153664Y0190500D03*
X0137064Y0190500D03*
X0153664Y0177600D03*
M02*
