G75*
%MOIN*%
%OFA0B0*%
%FSLAX25Y25*%
%IPPOS*%
%LPD*%
%AMOC8*
5,1,8,0,0,1.08239X$1,22.5*
%
%ADD10C,0.07200*%
%ADD11R,0.06318X0.07106*%
%ADD12R,0.10649X0.10649*%
%ADD13C,0.06800*%
%ADD14OC8,0.20200*%
%ADD15C,0.05200*%
%ADD16OC8,0.09468*%
%ADD17OC8,0.05200*%
%ADD18C,0.05162*%
%ADD19OC8,0.05162*%
%ADD20R,0.05200X0.05200*%
D10*
X0182064Y0012500D02*
X0182064Y0018500D01*
X0192064Y0018500D02*
X0192064Y0012500D01*
X0202064Y0012500D02*
X0202064Y0018500D01*
X0212064Y0018500D02*
X0212064Y0012500D01*
X0222064Y0012500D02*
X0222064Y0018500D01*
X0232064Y0018500D02*
X0232064Y0012500D01*
X0242064Y0012500D02*
X0242064Y0018500D01*
X0252064Y0018500D02*
X0252064Y0012500D01*
X0272064Y0012500D02*
X0272064Y0018500D01*
X0282064Y0018500D02*
X0282064Y0012500D01*
X0292064Y0012500D02*
X0292064Y0018500D01*
X0302064Y0018500D02*
X0302064Y0012500D01*
X0312064Y0012500D02*
X0312064Y0018500D01*
X0322064Y0018500D02*
X0322064Y0012500D01*
X0367064Y0082500D02*
X0367064Y0088500D01*
X0377064Y0088500D02*
X0377064Y0082500D01*
X0322064Y0202500D02*
X0322064Y0208500D01*
X0312064Y0208500D02*
X0312064Y0202500D01*
X0302064Y0202500D02*
X0302064Y0208500D01*
X0292064Y0208500D02*
X0292064Y0202500D01*
X0282064Y0202500D02*
X0282064Y0208500D01*
X0272064Y0208500D02*
X0272064Y0202500D01*
X0262064Y0202500D02*
X0262064Y0208500D01*
X0252064Y0208500D02*
X0252064Y0202500D01*
X0236070Y0202462D02*
X0236070Y0208462D01*
X0226070Y0208462D02*
X0226070Y0202462D01*
X0216070Y0202462D02*
X0216070Y0208462D01*
X0206070Y0208462D02*
X0206070Y0202462D01*
X0196070Y0202462D02*
X0196070Y0208462D01*
X0186070Y0208462D02*
X0186070Y0202462D01*
X0176070Y0202462D02*
X0176070Y0208462D01*
X0166070Y0208462D02*
X0166070Y0202462D01*
X0156070Y0202462D02*
X0156070Y0208462D01*
X0146070Y0208462D02*
X0146070Y0202462D01*
D11*
X0183324Y0095500D03*
X0190805Y0095500D03*
X0190805Y0085500D03*
X0183324Y0085500D03*
X0150805Y0075500D03*
X0143324Y0075500D03*
X0143324Y0060500D03*
X0150805Y0060500D03*
D12*
X0087064Y0071839D03*
X0087064Y0089161D03*
D13*
X0109264Y0090500D02*
X0114864Y0090500D01*
X0114864Y0080500D02*
X0109264Y0080500D01*
X0109264Y0100500D02*
X0114864Y0100500D01*
X0217064Y0132700D02*
X0217064Y0138300D01*
X0227064Y0138300D02*
X0227064Y0132700D01*
X0237064Y0132700D02*
X0237064Y0138300D01*
X0237064Y0157700D02*
X0237064Y0163300D01*
X0227064Y0163300D02*
X0227064Y0157700D01*
X0217064Y0157700D02*
X0217064Y0163300D01*
X0269264Y0060500D02*
X0274864Y0060500D01*
X0274864Y0050500D02*
X0269264Y0050500D01*
X0269264Y0040500D02*
X0274864Y0040500D01*
X0294264Y0040500D02*
X0299864Y0040500D01*
X0299864Y0050500D02*
X0294264Y0050500D01*
X0294264Y0060500D02*
X0299864Y0060500D01*
D14*
X0093464Y0042700D03*
X0117064Y0042700D03*
X0105264Y0023000D03*
D15*
X0170614Y0080200D03*
X0205264Y0094400D03*
X0177064Y0130500D03*
X0175364Y0141200D03*
X0163414Y0141400D03*
X0158014Y0136450D03*
X0143264Y0143650D03*
X0158914Y0154900D03*
X0137064Y0160500D03*
X0151264Y0170200D03*
X0158464Y0170200D03*
X0163414Y0180550D03*
X0206364Y0168800D03*
X0229564Y0180550D03*
X0222064Y0190500D03*
X0204764Y0151900D03*
X0262064Y0145500D03*
X0295664Y0129400D03*
X0295964Y0118700D03*
X0306864Y0114000D03*
X0319714Y0120200D03*
X0344314Y0131950D03*
X0361864Y0135100D03*
X0364564Y0125200D03*
X0330964Y0146100D03*
X0317764Y0156700D03*
X0308764Y0167500D03*
X0320464Y0173800D03*
X0341164Y0183900D03*
X0354964Y0183900D03*
X0351864Y0148500D03*
X0357364Y0100450D03*
X0348814Y0091900D03*
X0324064Y0099500D03*
X0322064Y0085500D03*
X0294564Y0098000D03*
X0287064Y0090500D03*
X0277064Y0085500D03*
X0344314Y0057700D03*
X0358264Y0053650D03*
X0377064Y0050500D03*
X0366464Y0071300D03*
X0080764Y0172400D03*
X0082064Y0205500D03*
D16*
X0372295Y0128389D03*
X0372064Y0028000D03*
X0387064Y0028500D03*
X0162064Y0020500D03*
X0147064Y0020500D03*
D17*
X0212064Y0042000D03*
X0229464Y0050500D03*
X0211964Y0053300D03*
X0246664Y0042500D03*
X0252964Y0042500D03*
X0257964Y0072800D03*
X0257864Y0078600D03*
X0247164Y0078000D03*
X0241864Y0077800D03*
X0229064Y0073800D03*
X0210864Y0074200D03*
X0203864Y0073600D03*
X0187064Y0109500D03*
X0187064Y0115500D03*
X0187064Y0120500D03*
X0104164Y0138400D03*
X0094464Y0124300D03*
X0081993Y0121594D03*
X0082204Y0115083D03*
X0093807Y0107386D03*
X0089639Y0103035D03*
X0349564Y0117000D03*
X0364064Y0153500D03*
D18*
X0312464Y0117100D03*
X0326264Y0105200D03*
X0192064Y0170500D03*
D19*
X0171564Y0154500D03*
X0303564Y0173000D03*
X0320064Y0186000D03*
X0304564Y0135500D03*
X0326064Y0110500D03*
X0316564Y0098500D03*
D20*
X0153664Y0177600D03*
X0153664Y0190500D03*
X0167064Y0190500D03*
X0137064Y0190500D03*
M02*
