%
M48
M72
T01C0.02362
T02C0.02400
T03C0.03600
T04C0.04000
T05C0.05512
T06C0.13000
%
T01
X171564Y154500
X192064Y170500
X303564Y173000
X320064Y186000
X304564Y135500
X312464Y117100
X326064Y110500
X326264Y105200
X316564Y98500
T02
X324064Y99500
X306864Y114000
X295964Y118700
X295664Y129400
X319714Y120200
X344314Y131950
X361864Y135100
X364564Y125200
X349564Y117000
X357364Y100450
X348814Y91900
X322064Y85500
X294564Y98000
X287064Y90500
X277064Y85500
X257864Y78600
X257964Y72800
X247164Y78000
X241864Y77800
X229064Y73800
X210864Y74200
X203864Y73600
X170614Y80200
X205264Y94400
X187064Y109500
X187064Y115500
X187064Y120500
X177064Y130500
X175364Y141200
X163414Y141400
X158014Y136450
X143264Y143650
X158914Y154900
X137064Y160500
X151264Y170200
X158464Y170200
X153664Y177600
X163414Y180550
X167064Y190500
X153664Y190500
X137064Y190500
X82064Y205500
X80764Y172400
X104164Y138400
X94464Y124300
X81993Y121594
X82204Y115083
X93807Y107386
X89639Y103035
X204764Y151900
X206364Y168800
X229564Y180550
X222064Y190500
X262064Y145500
X308764Y167500
X320464Y173800
X341164Y181900
X354964Y184400
X317764Y156700
X330964Y146100
X351864Y148500
X364064Y153500
X366464Y71300
X344314Y57700
X358264Y53650
X377064Y50500
X252964Y42500
X246664Y42500
X229464Y50500
X211964Y53300
X212064Y42000
T03
X272064Y40500
X272064Y50500
X272064Y60500
X297064Y60500
X297064Y50500
X297064Y40500
X237064Y135500
X227064Y135500
X217064Y135500
X217064Y160500
X227064Y160500
X237064Y160500
X112064Y100500
X112064Y90500
X112064Y80500
T04
X182064Y15500
X192064Y15500
X202064Y15500
X212064Y15500
X222064Y15500
X232064Y15500
X242064Y15500
X252064Y15500
X272064Y15500
X282064Y15500
X292064Y15500
X302064Y15500
X312064Y15500
X322064Y15500
X367064Y85500
X377064Y85500
X322064Y205500
X312064Y205500
X302064Y205500
X292064Y205500
X282064Y205500
X272064Y205500
X262064Y205500
X252064Y205500
X236070Y205462
X226070Y205462
X216070Y205462
X206070Y205462
X196070Y205462
X186070Y205462
X176070Y205462
X166070Y205462
X156070Y205462
X146070Y205462
T05
X372295Y128389
X372064Y28000
X387064Y28500
X162064Y20500
X147064Y20500
T06
X93464Y42700
X117064Y42700
X105264Y23000
M30
