G75*
%MOIN*%
%OFA0B0*%
%FSLAX25Y25*%
%IPPOS*%
%LPD*%
%AMOC8*
5,1,8,0,0,1.08239X$1,22.5*
%
%ADD10C,0.00000*%
%ADD11C,0.00300*%
%ADD12C,0.00200*%
%ADD13C,0.00400*%
%ADD14C,0.00500*%
D10*
X0072064Y0005500D02*
X0072187Y0215482D01*
X0397986Y0215198D01*
X0397986Y0005500D01*
X0072064Y0005500D01*
D11*
X0106507Y0060650D02*
X0109643Y0065354D01*
X0111111Y0063786D02*
X0112679Y0065354D01*
X0112679Y0060650D01*
X0111111Y0060650D02*
X0114247Y0060650D01*
X0109643Y0060650D02*
X0106507Y0065354D01*
X0087914Y0076784D02*
X0087914Y0078635D01*
X0087297Y0079252D01*
X0084828Y0079252D01*
X0084211Y0078635D01*
X0084211Y0076784D01*
X0087914Y0076784D01*
X0087914Y0080467D02*
X0087914Y0082936D01*
X0087914Y0081701D02*
X0084211Y0081701D01*
X0085446Y0080467D01*
X0103482Y0106650D02*
X0103482Y0109119D01*
X0104716Y0110353D01*
X0105951Y0109119D01*
X0105951Y0106650D01*
X0107165Y0106650D02*
X0107165Y0110353D01*
X0109017Y0110353D01*
X0109634Y0109736D01*
X0109634Y0108502D01*
X0109017Y0107884D01*
X0107165Y0107884D01*
X0105951Y0108502D02*
X0103482Y0108502D01*
X0110848Y0110353D02*
X0110848Y0106650D01*
X0112083Y0107884D01*
X0113317Y0106650D01*
X0113317Y0110353D01*
X0114531Y0110353D02*
X0116383Y0110353D01*
X0117000Y0109736D01*
X0117000Y0108502D01*
X0116383Y0107884D01*
X0114531Y0107884D01*
X0114531Y0106650D02*
X0114531Y0110353D01*
X0115766Y0107884D02*
X0117000Y0106650D01*
X0117500Y0121650D02*
X0116266Y0122884D01*
X0116883Y0122884D02*
X0115031Y0122884D01*
X0115031Y0121650D02*
X0115031Y0125353D01*
X0116883Y0125353D01*
X0117500Y0124736D01*
X0117500Y0123502D01*
X0116883Y0122884D01*
X0113817Y0121650D02*
X0113817Y0125353D01*
X0111348Y0125353D02*
X0111348Y0121650D01*
X0112583Y0122884D01*
X0113817Y0121650D01*
X0110134Y0123502D02*
X0110134Y0124736D01*
X0109517Y0125353D01*
X0107665Y0125353D01*
X0107665Y0121650D01*
X0107665Y0122884D02*
X0109517Y0122884D01*
X0110134Y0123502D01*
X0106451Y0124736D02*
X0105833Y0125353D01*
X0103982Y0125353D01*
X0103982Y0121650D01*
X0105833Y0121650D01*
X0106451Y0122267D01*
X0106451Y0124736D01*
X0366214Y0199767D02*
X0366832Y0199150D01*
X0368066Y0199150D01*
X0368683Y0199767D01*
X0369898Y0199150D02*
X0371132Y0199150D01*
X0370515Y0199150D02*
X0370515Y0202853D01*
X0369898Y0202853D02*
X0371132Y0202853D01*
X0372353Y0202853D02*
X0373587Y0201619D01*
X0374822Y0202853D01*
X0374822Y0199150D01*
X0376036Y0199150D02*
X0377888Y0199150D01*
X0378505Y0199767D01*
X0378505Y0202236D01*
X0377888Y0202853D01*
X0376036Y0202853D01*
X0376036Y0199150D01*
X0372353Y0199150D02*
X0372353Y0202853D01*
X0368683Y0202236D02*
X0368066Y0202853D01*
X0366832Y0202853D01*
X0366214Y0202236D01*
X0366214Y0199767D01*
X0383402Y0201619D02*
X0384637Y0199150D01*
X0385871Y0201619D01*
X0387086Y0201619D02*
X0388320Y0202853D01*
X0388320Y0199150D01*
X0387086Y0199150D02*
X0389554Y0199150D01*
D12*
X0371057Y0191402D02*
X0369189Y0191402D01*
X0369189Y0190001D01*
X0370123Y0190468D01*
X0370590Y0190468D01*
X0371057Y0190001D01*
X0371057Y0189067D01*
X0370590Y0188600D01*
X0369656Y0188600D01*
X0369189Y0189067D01*
X0368295Y0188600D02*
X0366427Y0188600D01*
X0368295Y0190468D01*
X0368295Y0190935D01*
X0367828Y0191402D01*
X0366894Y0191402D01*
X0366427Y0190935D01*
X0365533Y0190935D02*
X0365066Y0191402D01*
X0364132Y0191402D01*
X0363664Y0190935D01*
X0363664Y0189067D01*
X0364132Y0188600D01*
X0365066Y0188600D01*
X0365533Y0189067D01*
X0343557Y0200567D02*
X0343557Y0202435D01*
X0341689Y0200567D01*
X0342156Y0200100D01*
X0343090Y0200100D01*
X0343557Y0200567D01*
X0341689Y0200567D02*
X0341689Y0202435D01*
X0342156Y0202902D01*
X0343090Y0202902D01*
X0343557Y0202435D01*
X0340795Y0202435D02*
X0340328Y0202902D01*
X0339394Y0202902D01*
X0338927Y0202435D01*
X0338033Y0202435D02*
X0337566Y0202902D01*
X0336632Y0202902D01*
X0336164Y0202435D01*
X0336164Y0200567D01*
X0336632Y0200100D01*
X0337566Y0200100D01*
X0338033Y0200567D01*
X0338927Y0200100D02*
X0340795Y0201968D01*
X0340795Y0202435D01*
X0340795Y0200100D02*
X0338927Y0200100D01*
X0334795Y0199402D02*
X0334795Y0198935D01*
X0332927Y0197067D01*
X0332927Y0196600D01*
X0332033Y0196600D02*
X0331099Y0197534D01*
X0331566Y0197534D02*
X0330164Y0197534D01*
X0330164Y0196600D02*
X0330164Y0199402D01*
X0331566Y0199402D01*
X0332033Y0198935D01*
X0332033Y0198001D01*
X0331566Y0197534D01*
X0332927Y0199402D02*
X0334795Y0199402D01*
X0310464Y0187239D02*
X0310464Y0186305D01*
X0309997Y0185838D01*
X0309063Y0185838D02*
X0308596Y0186772D01*
X0308596Y0187239D01*
X0309063Y0187706D01*
X0309997Y0187706D01*
X0310464Y0187239D01*
X0309063Y0185838D02*
X0307662Y0185838D01*
X0307662Y0187706D01*
X0308129Y0184944D02*
X0307662Y0184476D01*
X0307662Y0183542D01*
X0308129Y0183075D01*
X0308129Y0182181D02*
X0309063Y0182181D01*
X0309530Y0181714D01*
X0309530Y0180313D01*
X0309530Y0181247D02*
X0310464Y0182181D01*
X0310464Y0183075D02*
X0308596Y0184944D01*
X0308129Y0184944D01*
X0310464Y0184944D02*
X0310464Y0183075D01*
X0308129Y0182181D02*
X0307662Y0181714D01*
X0307662Y0180313D01*
X0310464Y0180313D01*
X0292964Y0175239D02*
X0292964Y0174305D01*
X0292497Y0173838D01*
X0292964Y0172944D02*
X0292964Y0171075D01*
X0291096Y0172944D01*
X0290629Y0172944D01*
X0290162Y0172476D01*
X0290162Y0171542D01*
X0290629Y0171075D01*
X0290629Y0170181D02*
X0291563Y0170181D01*
X0292030Y0169714D01*
X0292030Y0168313D01*
X0292030Y0169247D02*
X0292964Y0170181D01*
X0292964Y0168313D02*
X0290162Y0168313D01*
X0290162Y0169714D01*
X0290629Y0170181D01*
X0290629Y0173838D02*
X0290162Y0174305D01*
X0290162Y0175239D01*
X0290629Y0175706D01*
X0291096Y0175706D01*
X0291563Y0175239D01*
X0292030Y0175706D01*
X0292497Y0175706D01*
X0292964Y0175239D01*
X0291563Y0175239D02*
X0291563Y0174772D01*
X0283464Y0175706D02*
X0283464Y0173838D01*
X0281596Y0175706D01*
X0281129Y0175706D01*
X0280662Y0175239D01*
X0280662Y0174305D01*
X0281129Y0173838D01*
X0281129Y0172944D02*
X0280662Y0172476D01*
X0280662Y0171542D01*
X0281129Y0171075D01*
X0281129Y0170181D02*
X0282063Y0170181D01*
X0282530Y0169714D01*
X0282530Y0168313D01*
X0282530Y0169247D02*
X0283464Y0170181D01*
X0283464Y0171075D02*
X0281596Y0172944D01*
X0281129Y0172944D01*
X0283464Y0172944D02*
X0283464Y0171075D01*
X0281129Y0170181D02*
X0280662Y0169714D01*
X0280662Y0168313D01*
X0283464Y0168313D01*
X0280803Y0155402D02*
X0279869Y0155402D01*
X0279402Y0154935D01*
X0279402Y0154468D01*
X0279869Y0154001D01*
X0281270Y0154001D01*
X0281270Y0153067D02*
X0281270Y0154935D01*
X0280803Y0155402D01*
X0278508Y0154935D02*
X0278041Y0155402D01*
X0277107Y0155402D01*
X0276640Y0154935D01*
X0275746Y0154935D02*
X0275279Y0155402D01*
X0274344Y0155402D01*
X0273877Y0154935D01*
X0273877Y0153067D01*
X0274344Y0152600D01*
X0275279Y0152600D01*
X0275746Y0153067D01*
X0276640Y0152600D02*
X0278508Y0154468D01*
X0278508Y0154935D01*
X0279402Y0153067D02*
X0279869Y0152600D01*
X0280803Y0152600D01*
X0281270Y0153067D01*
X0278508Y0152600D02*
X0276640Y0152600D01*
X0277107Y0140402D02*
X0276640Y0139935D01*
X0277107Y0140402D02*
X0278041Y0140402D01*
X0278508Y0139935D01*
X0278508Y0139468D01*
X0276640Y0137600D01*
X0278508Y0137600D01*
X0279402Y0138067D02*
X0279402Y0138534D01*
X0279869Y0139001D01*
X0280803Y0139001D01*
X0281270Y0138534D01*
X0281270Y0138067D01*
X0280803Y0137600D01*
X0279869Y0137600D01*
X0279402Y0138067D01*
X0279869Y0139001D02*
X0279402Y0139468D01*
X0279402Y0139935D01*
X0279869Y0140402D01*
X0280803Y0140402D01*
X0281270Y0139935D01*
X0281270Y0139468D01*
X0280803Y0139001D01*
X0275746Y0138067D02*
X0275279Y0137600D01*
X0274344Y0137600D01*
X0273877Y0138067D01*
X0273877Y0139935D01*
X0274344Y0140402D01*
X0275279Y0140402D01*
X0275746Y0139935D01*
X0246964Y0150600D02*
X0244162Y0150600D01*
X0244162Y0152001D01*
X0244629Y0152468D01*
X0245563Y0152468D01*
X0246030Y0152001D01*
X0246030Y0150600D01*
X0246030Y0151534D02*
X0246964Y0152468D01*
X0246964Y0153362D02*
X0245096Y0155231D01*
X0244629Y0155231D01*
X0244162Y0154764D01*
X0244162Y0153829D01*
X0244629Y0153362D01*
X0246964Y0153362D02*
X0246964Y0155231D01*
X0244964Y0181073D02*
X0242162Y0181073D01*
X0242162Y0182474D01*
X0242629Y0182941D01*
X0243563Y0182941D01*
X0244030Y0182474D01*
X0244030Y0181073D01*
X0244030Y0182007D02*
X0244964Y0182941D01*
X0244964Y0183835D02*
X0243096Y0185703D01*
X0242629Y0185703D01*
X0242162Y0185236D01*
X0242162Y0184302D01*
X0242629Y0183835D01*
X0244964Y0183835D02*
X0244964Y0185703D01*
X0243563Y0186597D02*
X0243563Y0188466D01*
X0244964Y0187999D02*
X0242162Y0187999D01*
X0243563Y0186597D01*
X0190964Y0185862D02*
X0189096Y0187731D01*
X0188629Y0187731D01*
X0188162Y0187264D01*
X0188162Y0186329D01*
X0188629Y0185862D01*
X0188629Y0184968D02*
X0188162Y0184501D01*
X0188162Y0183567D01*
X0188629Y0183100D01*
X0190497Y0183100D01*
X0190964Y0183567D01*
X0190964Y0184501D01*
X0190497Y0184968D01*
X0190964Y0185862D02*
X0190964Y0187731D01*
X0190964Y0188625D02*
X0190497Y0188625D01*
X0188629Y0190493D01*
X0188162Y0190493D01*
X0188162Y0188625D01*
X0176964Y0188592D02*
X0176964Y0189526D01*
X0176497Y0189993D01*
X0176030Y0189993D01*
X0175563Y0189526D01*
X0175563Y0188125D01*
X0176497Y0188125D01*
X0176964Y0188592D01*
X0176964Y0187231D02*
X0176964Y0185362D01*
X0175096Y0187231D01*
X0174629Y0187231D01*
X0174162Y0186764D01*
X0174162Y0185829D01*
X0174629Y0185362D01*
X0174629Y0184468D02*
X0174162Y0184001D01*
X0174162Y0183067D01*
X0174629Y0182600D01*
X0176497Y0182600D01*
X0176964Y0183067D01*
X0176964Y0184001D01*
X0176497Y0184468D01*
X0175563Y0188125D02*
X0174629Y0189059D01*
X0174162Y0189993D01*
X0143770Y0169935D02*
X0143303Y0170402D01*
X0142369Y0170402D01*
X0141902Y0169935D01*
X0141902Y0169468D01*
X0142369Y0169001D01*
X0143303Y0169001D01*
X0143770Y0168534D01*
X0143770Y0168067D01*
X0143303Y0167600D01*
X0142369Y0167600D01*
X0141902Y0168067D01*
X0141902Y0168534D01*
X0142369Y0169001D01*
X0143303Y0169001D02*
X0143770Y0169468D01*
X0143770Y0169935D01*
X0141008Y0167600D02*
X0139140Y0167600D01*
X0138246Y0167600D02*
X0137311Y0168534D01*
X0137779Y0168534D02*
X0136377Y0168534D01*
X0136377Y0167600D02*
X0136377Y0170402D01*
X0137779Y0170402D01*
X0138246Y0169935D01*
X0138246Y0169001D01*
X0137779Y0168534D01*
X0139140Y0169468D02*
X0140074Y0170402D01*
X0140074Y0167600D01*
X0131295Y0167435D02*
X0131295Y0165567D01*
X0130828Y0165100D01*
X0129894Y0165100D01*
X0129427Y0165567D01*
X0128533Y0165567D02*
X0128066Y0165100D01*
X0127132Y0165100D01*
X0126664Y0165567D01*
X0126664Y0167435D01*
X0127132Y0167902D01*
X0128066Y0167902D01*
X0128533Y0167435D01*
X0129427Y0167435D02*
X0129427Y0166968D01*
X0129894Y0166501D01*
X0131295Y0166501D01*
X0131295Y0167435D02*
X0130828Y0167902D01*
X0129894Y0167902D01*
X0129427Y0167435D01*
X0129861Y0175600D02*
X0129861Y0178402D01*
X0128927Y0177468D01*
X0128033Y0177935D02*
X0127566Y0178402D01*
X0126632Y0178402D01*
X0126164Y0177935D01*
X0126164Y0176067D01*
X0126632Y0175600D01*
X0127566Y0175600D01*
X0128033Y0176067D01*
X0128927Y0175600D02*
X0130795Y0175600D01*
X0131689Y0175600D02*
X0133557Y0175600D01*
X0132623Y0175600D02*
X0132623Y0178402D01*
X0131689Y0177468D01*
X0100270Y0160935D02*
X0100270Y0160468D01*
X0099803Y0160001D01*
X0098869Y0160001D01*
X0098402Y0160468D01*
X0098402Y0160935D01*
X0098869Y0161402D01*
X0099803Y0161402D01*
X0100270Y0160935D01*
X0099803Y0160001D02*
X0100270Y0159534D01*
X0100270Y0159067D01*
X0099803Y0158600D01*
X0098869Y0158600D01*
X0098402Y0159067D01*
X0098402Y0159534D01*
X0098869Y0160001D01*
X0097508Y0159067D02*
X0097041Y0158600D01*
X0096107Y0158600D01*
X0095640Y0159067D01*
X0095640Y0160935D01*
X0096107Y0161402D01*
X0097041Y0161402D01*
X0097508Y0160935D01*
X0097132Y0153402D02*
X0096664Y0152935D01*
X0096664Y0151067D01*
X0097132Y0150600D01*
X0098066Y0150600D01*
X0098533Y0151067D01*
X0099427Y0150600D02*
X0101295Y0150600D01*
X0100361Y0150600D02*
X0100361Y0153402D01*
X0099427Y0152468D01*
X0098533Y0152935D02*
X0098066Y0153402D01*
X0097132Y0153402D01*
X0102189Y0152935D02*
X0102189Y0151067D01*
X0104057Y0152935D01*
X0104057Y0151067D01*
X0103590Y0150600D01*
X0102656Y0150600D01*
X0102189Y0151067D01*
X0102189Y0152935D02*
X0102656Y0153402D01*
X0103590Y0153402D01*
X0104057Y0152935D01*
X0124877Y0153567D02*
X0125344Y0153100D01*
X0126279Y0153100D01*
X0126746Y0153567D01*
X0127640Y0153100D02*
X0129508Y0153100D01*
X0130402Y0153100D02*
X0132270Y0154968D01*
X0132270Y0155435D01*
X0131803Y0155902D01*
X0130869Y0155902D01*
X0130402Y0155435D01*
X0128574Y0155902D02*
X0128574Y0153100D01*
X0130402Y0153100D02*
X0132270Y0153100D01*
X0128574Y0155902D02*
X0127640Y0154968D01*
X0126746Y0155435D02*
X0126279Y0155902D01*
X0125344Y0155902D01*
X0124877Y0155435D01*
X0124877Y0153567D01*
X0125640Y0141402D02*
X0127041Y0141402D01*
X0127508Y0140935D01*
X0127508Y0140001D01*
X0127041Y0139534D01*
X0125640Y0139534D01*
X0126574Y0139534D02*
X0127508Y0138600D01*
X0128402Y0139067D02*
X0128869Y0138600D01*
X0129803Y0138600D01*
X0130270Y0139067D01*
X0130270Y0139534D01*
X0129803Y0140001D01*
X0128402Y0140001D01*
X0128402Y0139067D01*
X0128402Y0140001D02*
X0129336Y0140935D01*
X0130270Y0141402D01*
X0125640Y0141402D02*
X0125640Y0138600D01*
X0148164Y0132435D02*
X0148164Y0130567D01*
X0148632Y0130100D01*
X0149566Y0130100D01*
X0150033Y0130567D01*
X0150927Y0130100D02*
X0152795Y0131968D01*
X0152795Y0132435D01*
X0152328Y0132902D01*
X0151394Y0132902D01*
X0150927Y0132435D01*
X0150033Y0132435D02*
X0149566Y0132902D01*
X0148632Y0132902D01*
X0148164Y0132435D01*
X0150927Y0130100D02*
X0152795Y0130100D01*
X0157632Y0123402D02*
X0157164Y0122935D01*
X0157164Y0121067D01*
X0157632Y0120600D01*
X0158566Y0120600D01*
X0159033Y0121067D01*
X0159927Y0120600D02*
X0161795Y0120600D01*
X0160861Y0120600D02*
X0160861Y0123402D01*
X0159927Y0122468D01*
X0159033Y0122935D02*
X0158566Y0123402D01*
X0157632Y0123402D01*
X0162689Y0123402D02*
X0162689Y0122001D01*
X0163623Y0122468D01*
X0164090Y0122468D01*
X0164557Y0122001D01*
X0164557Y0121067D01*
X0164090Y0120600D01*
X0163156Y0120600D01*
X0162689Y0121067D01*
X0162689Y0123402D02*
X0164557Y0123402D01*
X0142557Y0123435D02*
X0142090Y0123902D01*
X0141156Y0123902D01*
X0140689Y0123435D01*
X0140689Y0122968D01*
X0141156Y0122501D01*
X0142557Y0122501D01*
X0142557Y0121567D02*
X0142557Y0123435D01*
X0142557Y0121567D02*
X0142090Y0121100D01*
X0141156Y0121100D01*
X0140689Y0121567D01*
X0139795Y0121100D02*
X0137927Y0121100D01*
X0137033Y0121100D02*
X0136099Y0122034D01*
X0136566Y0122034D02*
X0135164Y0122034D01*
X0135164Y0121100D02*
X0135164Y0123902D01*
X0136566Y0123902D01*
X0137033Y0123435D01*
X0137033Y0122501D01*
X0136566Y0122034D01*
X0137927Y0122968D02*
X0138861Y0123902D01*
X0138861Y0121100D01*
X0162162Y0094239D02*
X0163563Y0092838D01*
X0163563Y0094706D01*
X0164964Y0094239D02*
X0162162Y0094239D01*
X0162162Y0091009D02*
X0164964Y0091009D01*
X0164964Y0090075D02*
X0164964Y0091944D01*
X0163096Y0090075D02*
X0162162Y0091009D01*
X0162629Y0089181D02*
X0162162Y0088714D01*
X0162162Y0087780D01*
X0162629Y0087313D01*
X0164497Y0087313D01*
X0164964Y0087780D01*
X0164964Y0088714D01*
X0164497Y0089181D01*
X0152795Y0077402D02*
X0150927Y0077402D01*
X0150927Y0076001D01*
X0151861Y0076468D01*
X0152328Y0076468D01*
X0152795Y0076001D01*
X0152795Y0075067D01*
X0152328Y0074600D01*
X0151394Y0074600D01*
X0150927Y0075067D01*
X0150033Y0075067D02*
X0149566Y0074600D01*
X0148632Y0074600D01*
X0148164Y0075067D01*
X0148164Y0076935D01*
X0148632Y0077402D01*
X0149566Y0077402D01*
X0150033Y0076935D01*
X0149566Y0067902D02*
X0148632Y0067902D01*
X0148164Y0067435D01*
X0148164Y0065567D01*
X0148632Y0065100D01*
X0149566Y0065100D01*
X0150033Y0065567D01*
X0150927Y0065567D02*
X0151394Y0065100D01*
X0152328Y0065100D01*
X0152795Y0065567D01*
X0152795Y0066034D01*
X0152328Y0066501D01*
X0150927Y0066501D01*
X0150927Y0065567D01*
X0150927Y0066501D02*
X0151861Y0067435D01*
X0152795Y0067902D01*
X0150033Y0067435D02*
X0149566Y0067902D01*
X0137770Y0060435D02*
X0137770Y0059968D01*
X0137303Y0059501D01*
X0137770Y0059034D01*
X0137770Y0058567D01*
X0137303Y0058100D01*
X0136369Y0058100D01*
X0135902Y0058567D01*
X0135008Y0058100D02*
X0133140Y0058100D01*
X0134074Y0058100D02*
X0134074Y0060902D01*
X0133140Y0059968D01*
X0132246Y0060435D02*
X0131779Y0060902D01*
X0130844Y0060902D01*
X0130377Y0060435D01*
X0130377Y0058567D01*
X0130844Y0058100D01*
X0131779Y0058100D01*
X0132246Y0058567D01*
X0135902Y0060435D02*
X0136369Y0060902D01*
X0137303Y0060902D01*
X0137770Y0060435D01*
X0137303Y0059501D02*
X0136836Y0059501D01*
X0134402Y0072100D02*
X0134402Y0072567D01*
X0136270Y0074435D01*
X0136270Y0074902D01*
X0134402Y0074902D01*
X0133508Y0074435D02*
X0133041Y0074902D01*
X0132107Y0074902D01*
X0131640Y0074435D01*
X0131640Y0072567D01*
X0132107Y0072100D01*
X0133041Y0072100D01*
X0133508Y0072567D01*
X0168162Y0059526D02*
X0169563Y0058125D01*
X0169563Y0059993D01*
X0170964Y0059526D02*
X0168162Y0059526D01*
X0168162Y0056296D02*
X0170964Y0056296D01*
X0170964Y0055362D02*
X0170964Y0057231D01*
X0169096Y0055362D02*
X0168162Y0056296D01*
X0168629Y0054468D02*
X0169563Y0054468D01*
X0170030Y0054001D01*
X0170030Y0052600D01*
X0170030Y0053534D02*
X0170964Y0054468D01*
X0170964Y0052600D02*
X0168162Y0052600D01*
X0168162Y0054001D01*
X0168629Y0054468D01*
X0192162Y0054009D02*
X0194964Y0054009D01*
X0194964Y0053075D02*
X0194964Y0054944D01*
X0194497Y0055838D02*
X0194964Y0056305D01*
X0194964Y0057239D01*
X0194497Y0057706D01*
X0194030Y0057706D01*
X0193563Y0057239D01*
X0193563Y0056772D01*
X0193563Y0057239D02*
X0193096Y0057706D01*
X0192629Y0057706D01*
X0192162Y0057239D01*
X0192162Y0056305D01*
X0192629Y0055838D01*
X0192162Y0054009D02*
X0193096Y0053075D01*
X0192629Y0052181D02*
X0193563Y0052181D01*
X0194030Y0051714D01*
X0194030Y0050313D01*
X0194030Y0051247D02*
X0194964Y0052181D01*
X0194964Y0050313D02*
X0192162Y0050313D01*
X0192162Y0051714D01*
X0192629Y0052181D01*
X0237164Y0056067D02*
X0237632Y0055600D01*
X0238566Y0055600D01*
X0239033Y0056067D01*
X0239927Y0055600D02*
X0241795Y0055600D01*
X0240861Y0055600D02*
X0240861Y0058402D01*
X0239927Y0057468D01*
X0239033Y0057935D02*
X0238566Y0058402D01*
X0237632Y0058402D01*
X0237164Y0057935D01*
X0237164Y0056067D01*
X0242689Y0056067D02*
X0243156Y0055600D01*
X0244090Y0055600D01*
X0244557Y0056067D01*
X0244557Y0056534D01*
X0244090Y0057001D01*
X0242689Y0057001D01*
X0242689Y0056067D01*
X0242689Y0057001D02*
X0243623Y0057935D01*
X0244557Y0058402D01*
X0244090Y0070600D02*
X0243156Y0070600D01*
X0242689Y0071067D01*
X0242689Y0071534D01*
X0243156Y0072001D01*
X0244090Y0072001D01*
X0244557Y0071534D01*
X0244557Y0071067D01*
X0244090Y0070600D01*
X0244090Y0072001D02*
X0244557Y0072468D01*
X0244557Y0072935D01*
X0244090Y0073402D01*
X0243156Y0073402D01*
X0242689Y0072935D01*
X0242689Y0072468D01*
X0243156Y0072001D01*
X0241795Y0070600D02*
X0239927Y0070600D01*
X0240861Y0070600D02*
X0240861Y0073402D01*
X0239927Y0072468D01*
X0239033Y0072935D02*
X0238566Y0073402D01*
X0237632Y0073402D01*
X0237164Y0072935D01*
X0237164Y0071067D01*
X0237632Y0070600D01*
X0238566Y0070600D01*
X0239033Y0071067D01*
X0236964Y0079600D02*
X0234162Y0079600D01*
X0234162Y0081001D01*
X0234629Y0081468D01*
X0235563Y0081468D01*
X0236030Y0081001D01*
X0236030Y0079600D01*
X0236030Y0080534D02*
X0236964Y0081468D01*
X0236964Y0082362D02*
X0236964Y0084231D01*
X0236964Y0083296D02*
X0234162Y0083296D01*
X0235096Y0082362D01*
X0235563Y0085125D02*
X0235096Y0086059D01*
X0235096Y0086526D01*
X0235563Y0086993D01*
X0236497Y0086993D01*
X0236964Y0086526D01*
X0236964Y0085592D01*
X0236497Y0085125D01*
X0235563Y0085125D02*
X0234162Y0085125D01*
X0234162Y0086993D01*
X0243662Y0092600D02*
X0243662Y0094001D01*
X0244129Y0094468D01*
X0245063Y0094468D01*
X0245530Y0094001D01*
X0245530Y0092600D01*
X0245530Y0093534D02*
X0246464Y0094468D01*
X0246464Y0095362D02*
X0246464Y0097231D01*
X0246464Y0096296D02*
X0243662Y0096296D01*
X0244596Y0095362D01*
X0245063Y0098125D02*
X0244129Y0099059D01*
X0243662Y0099993D01*
X0245063Y0099526D02*
X0245063Y0098125D01*
X0245997Y0098125D01*
X0246464Y0098592D01*
X0246464Y0099526D01*
X0245997Y0099993D01*
X0245530Y0099993D01*
X0245063Y0099526D01*
X0258662Y0100001D02*
X0258662Y0098600D01*
X0261464Y0098600D01*
X0260530Y0098600D02*
X0260530Y0100001D01*
X0260063Y0100468D01*
X0259129Y0100468D01*
X0258662Y0100001D01*
X0260530Y0099534D02*
X0261464Y0100468D01*
X0260063Y0101362D02*
X0260063Y0103231D01*
X0258662Y0102764D02*
X0260063Y0101362D01*
X0261464Y0102764D02*
X0258662Y0102764D01*
X0258927Y0110100D02*
X0260795Y0110100D01*
X0259861Y0110100D02*
X0259861Y0112902D01*
X0258927Y0111968D01*
X0258033Y0112435D02*
X0257566Y0112902D01*
X0256632Y0112902D01*
X0256164Y0112435D01*
X0256164Y0110567D01*
X0256632Y0110100D01*
X0257566Y0110100D01*
X0258033Y0110567D01*
X0258008Y0117600D02*
X0257074Y0118534D01*
X0257541Y0118534D02*
X0256140Y0118534D01*
X0256140Y0117600D02*
X0256140Y0120402D01*
X0257541Y0120402D01*
X0258008Y0119935D01*
X0258008Y0119001D01*
X0257541Y0118534D01*
X0258902Y0117600D02*
X0260770Y0117600D01*
X0259836Y0117600D02*
X0259836Y0120402D01*
X0258902Y0119468D01*
X0282162Y0101239D02*
X0282629Y0101706D01*
X0283096Y0101706D01*
X0283563Y0101239D01*
X0284030Y0101706D01*
X0284497Y0101706D01*
X0284964Y0101239D01*
X0284964Y0100305D01*
X0284497Y0099838D01*
X0284964Y0098944D02*
X0284030Y0098009D01*
X0284030Y0098476D02*
X0284030Y0097075D01*
X0284964Y0097075D02*
X0282162Y0097075D01*
X0282162Y0098476D01*
X0282629Y0098944D01*
X0283563Y0098944D01*
X0284030Y0098476D01*
X0282629Y0099838D02*
X0282162Y0100305D01*
X0282162Y0101239D01*
X0283563Y0101239D02*
X0283563Y0100772D01*
X0302377Y0084435D02*
X0302377Y0082567D01*
X0302844Y0082100D01*
X0303779Y0082100D01*
X0304246Y0082567D01*
X0305140Y0082100D02*
X0307008Y0083968D01*
X0307008Y0084435D01*
X0306541Y0084902D01*
X0305607Y0084902D01*
X0305140Y0084435D01*
X0304246Y0084435D02*
X0303779Y0084902D01*
X0302844Y0084902D01*
X0302377Y0084435D01*
X0305140Y0082100D02*
X0307008Y0082100D01*
X0307902Y0082567D02*
X0308369Y0082100D01*
X0309303Y0082100D01*
X0309770Y0082567D01*
X0309770Y0083034D01*
X0309303Y0083501D01*
X0308836Y0083501D01*
X0309303Y0083501D02*
X0309770Y0083968D01*
X0309770Y0084435D01*
X0309303Y0084902D01*
X0308369Y0084902D01*
X0307902Y0084435D01*
X0290770Y0075902D02*
X0288902Y0075902D01*
X0288902Y0074501D01*
X0289836Y0074968D01*
X0290303Y0074968D01*
X0290770Y0074501D01*
X0290770Y0073567D01*
X0290303Y0073100D01*
X0289369Y0073100D01*
X0288902Y0073567D01*
X0288008Y0073100D02*
X0287074Y0074034D01*
X0287541Y0074034D02*
X0286140Y0074034D01*
X0286140Y0073100D02*
X0286140Y0075902D01*
X0287541Y0075902D01*
X0288008Y0075435D01*
X0288008Y0074501D01*
X0287541Y0074034D01*
X0309377Y0068435D02*
X0309377Y0066567D01*
X0309844Y0066100D01*
X0310779Y0066100D01*
X0311246Y0066567D01*
X0312140Y0066100D02*
X0314008Y0067968D01*
X0314008Y0068435D01*
X0313541Y0068902D01*
X0312607Y0068902D01*
X0312140Y0068435D01*
X0311246Y0068435D02*
X0310779Y0068902D01*
X0309844Y0068902D01*
X0309377Y0068435D01*
X0312140Y0066100D02*
X0314008Y0066100D01*
X0314902Y0066100D02*
X0316770Y0067968D01*
X0316770Y0068435D01*
X0316303Y0068902D01*
X0315369Y0068902D01*
X0314902Y0068435D01*
X0314902Y0066100D02*
X0316770Y0066100D01*
X0338662Y0077600D02*
X0338662Y0079001D01*
X0339129Y0079468D01*
X0340063Y0079468D01*
X0340530Y0079001D01*
X0340530Y0077600D01*
X0340530Y0078534D02*
X0341464Y0079468D01*
X0341464Y0080362D02*
X0341464Y0082231D01*
X0341464Y0083125D02*
X0339596Y0084993D01*
X0339129Y0084993D01*
X0338662Y0084526D01*
X0338662Y0083592D01*
X0339129Y0083125D01*
X0338662Y0081296D02*
X0341464Y0081296D01*
X0341464Y0083125D02*
X0341464Y0084993D01*
X0338662Y0081296D02*
X0339596Y0080362D01*
X0338662Y0077600D02*
X0341464Y0077600D01*
X0333464Y0088813D02*
X0330662Y0088813D01*
X0330662Y0090214D01*
X0331129Y0090681D01*
X0332063Y0090681D01*
X0332530Y0090214D01*
X0332530Y0088813D01*
X0332530Y0089747D02*
X0333464Y0090681D01*
X0333464Y0091575D02*
X0333464Y0093444D01*
X0333464Y0094338D02*
X0333464Y0096206D01*
X0333464Y0095272D02*
X0330662Y0095272D01*
X0331596Y0094338D01*
X0330662Y0092509D02*
X0333464Y0092509D01*
X0331596Y0091575D02*
X0330662Y0092509D01*
X0335877Y0110600D02*
X0335877Y0113402D01*
X0337279Y0113402D01*
X0337746Y0112935D01*
X0337746Y0112001D01*
X0337279Y0111534D01*
X0335877Y0111534D01*
X0336811Y0111534D02*
X0337746Y0110600D01*
X0338640Y0110600D02*
X0340508Y0112468D01*
X0340508Y0112935D01*
X0340041Y0113402D01*
X0339107Y0113402D01*
X0338640Y0112935D01*
X0338640Y0110600D02*
X0340508Y0110600D01*
X0341402Y0111067D02*
X0341869Y0110600D01*
X0342803Y0110600D01*
X0343270Y0111067D01*
X0343270Y0111534D01*
X0342803Y0112001D01*
X0341402Y0112001D01*
X0341402Y0111067D01*
X0341402Y0112001D02*
X0342336Y0112935D01*
X0343270Y0113402D01*
X0343270Y0117600D02*
X0341402Y0117600D01*
X0340508Y0117600D02*
X0338640Y0117600D01*
X0340508Y0119468D01*
X0340508Y0119935D01*
X0340041Y0120402D01*
X0339107Y0120402D01*
X0338640Y0119935D01*
X0337746Y0119935D02*
X0337746Y0119001D01*
X0337279Y0118534D01*
X0335877Y0118534D01*
X0335877Y0117600D02*
X0335877Y0120402D01*
X0337279Y0120402D01*
X0337746Y0119935D01*
X0336811Y0118534D02*
X0337746Y0117600D01*
X0341402Y0119468D02*
X0342336Y0120402D01*
X0342336Y0117600D01*
X0318770Y0132567D02*
X0318303Y0132100D01*
X0317369Y0132100D01*
X0316902Y0132567D01*
X0318770Y0134435D01*
X0318770Y0132567D01*
X0316902Y0132567D02*
X0316902Y0134435D01*
X0317369Y0134902D01*
X0318303Y0134902D01*
X0318770Y0134435D01*
X0316008Y0132100D02*
X0314140Y0132100D01*
X0313246Y0132100D02*
X0312311Y0133034D01*
X0312779Y0133034D02*
X0311377Y0133034D01*
X0311377Y0132100D02*
X0311377Y0134902D01*
X0312779Y0134902D01*
X0313246Y0134435D01*
X0313246Y0133501D01*
X0312779Y0133034D01*
X0314140Y0133968D02*
X0315074Y0134902D01*
X0315074Y0132100D01*
X0338164Y0146100D02*
X0338164Y0148902D01*
X0339566Y0148902D01*
X0340033Y0148435D01*
X0340033Y0147501D01*
X0339566Y0147034D01*
X0338164Y0147034D01*
X0339099Y0147034D02*
X0340033Y0146100D01*
X0340927Y0146100D02*
X0342795Y0147968D01*
X0342795Y0148435D01*
X0342328Y0148902D01*
X0341394Y0148902D01*
X0340927Y0148435D01*
X0340927Y0146100D02*
X0342795Y0146100D01*
X0343689Y0146567D02*
X0345557Y0148435D01*
X0345557Y0146567D01*
X0345090Y0146100D01*
X0344156Y0146100D01*
X0343689Y0146567D01*
X0343689Y0148435D01*
X0344156Y0148902D01*
X0345090Y0148902D01*
X0345557Y0148435D01*
X0381132Y0112402D02*
X0380664Y0111935D01*
X0380664Y0110067D01*
X0381132Y0109600D01*
X0382066Y0109600D01*
X0382533Y0110067D01*
X0383427Y0109600D02*
X0385295Y0111468D01*
X0385295Y0111935D01*
X0384828Y0112402D01*
X0383894Y0112402D01*
X0383427Y0111935D01*
X0382533Y0111935D02*
X0382066Y0112402D01*
X0381132Y0112402D01*
X0383427Y0109600D02*
X0385295Y0109600D01*
X0386189Y0111001D02*
X0388057Y0111001D01*
X0387590Y0109600D02*
X0387590Y0112402D01*
X0386189Y0111001D01*
X0385828Y0102402D02*
X0384894Y0102402D01*
X0384427Y0101935D01*
X0383533Y0101935D02*
X0383066Y0102402D01*
X0382132Y0102402D01*
X0381664Y0101935D01*
X0381664Y0100067D01*
X0382132Y0099600D01*
X0383066Y0099600D01*
X0383533Y0100067D01*
X0384427Y0099600D02*
X0386295Y0101468D01*
X0386295Y0101935D01*
X0385828Y0102402D01*
X0387189Y0101468D02*
X0388123Y0102402D01*
X0388123Y0099600D01*
X0387189Y0099600D02*
X0389057Y0099600D01*
X0386295Y0099600D02*
X0384427Y0099600D01*
X0352803Y0039402D02*
X0353270Y0038935D01*
X0353270Y0038468D01*
X0352803Y0038001D01*
X0351869Y0038001D01*
X0351402Y0038468D01*
X0351402Y0038935D01*
X0351869Y0039402D01*
X0352803Y0039402D01*
X0352803Y0038001D02*
X0353270Y0037534D01*
X0353270Y0037067D01*
X0352803Y0036600D01*
X0351869Y0036600D01*
X0351402Y0037067D01*
X0351402Y0037534D01*
X0351869Y0038001D01*
X0350508Y0038001D02*
X0350041Y0037534D01*
X0348640Y0037534D01*
X0349574Y0037534D02*
X0350508Y0036600D01*
X0350508Y0038001D02*
X0350508Y0038935D01*
X0350041Y0039402D01*
X0348640Y0039402D01*
X0348640Y0036600D01*
X0348664Y0021402D02*
X0349599Y0021402D01*
X0349132Y0021402D02*
X0349132Y0018600D01*
X0349599Y0018600D02*
X0348664Y0018600D01*
X0350506Y0018600D02*
X0350506Y0021402D01*
X0351907Y0021402D01*
X0352374Y0020935D01*
X0352374Y0019067D01*
X0351907Y0018600D01*
X0350506Y0018600D01*
X0353268Y0018600D02*
X0355137Y0018600D01*
X0356031Y0018600D02*
X0356031Y0020468D01*
X0356965Y0021402D01*
X0357899Y0020468D01*
X0357899Y0018600D01*
X0357899Y0020001D02*
X0356031Y0020001D01*
X0355137Y0021402D02*
X0353268Y0021402D01*
X0353268Y0018600D01*
X0353268Y0020001D02*
X0354202Y0020001D01*
X0361555Y0018600D02*
X0363424Y0018600D01*
X0364318Y0019067D02*
X0364785Y0019534D01*
X0366186Y0019534D01*
X0366186Y0020001D02*
X0366186Y0018600D01*
X0364785Y0018600D01*
X0364318Y0019067D01*
X0364785Y0020468D02*
X0365719Y0020468D01*
X0366186Y0020001D01*
X0367080Y0020468D02*
X0368481Y0020468D01*
X0368948Y0020001D01*
X0368948Y0019067D01*
X0368481Y0018600D01*
X0367080Y0018600D01*
X0367080Y0021402D01*
X0370310Y0019067D02*
X0370310Y0018600D01*
X0370777Y0018600D01*
X0370777Y0019067D01*
X0370310Y0019067D01*
X0370777Y0018600D02*
X0369842Y0017666D01*
X0371684Y0015402D02*
X0371684Y0012600D01*
X0371684Y0013534D02*
X0373085Y0012600D01*
X0373986Y0013067D02*
X0374453Y0013534D01*
X0375854Y0013534D01*
X0375854Y0014001D02*
X0375854Y0012600D01*
X0374453Y0012600D01*
X0373986Y0013067D01*
X0374453Y0014468D02*
X0375387Y0014468D01*
X0375854Y0014001D01*
X0376748Y0014468D02*
X0378150Y0014468D01*
X0378617Y0014001D01*
X0378617Y0012600D01*
X0376748Y0012600D02*
X0376748Y0014468D01*
X0373085Y0014468D02*
X0371684Y0013534D01*
X0370790Y0013067D02*
X0370790Y0014001D01*
X0370323Y0014468D01*
X0369389Y0014468D01*
X0368922Y0014001D01*
X0368922Y0013067D01*
X0369389Y0012600D01*
X0370323Y0012600D01*
X0370790Y0013067D01*
X0368028Y0013067D02*
X0367561Y0013534D01*
X0366626Y0013534D01*
X0366159Y0014001D01*
X0366626Y0014468D01*
X0368028Y0014468D01*
X0368028Y0013067D02*
X0367561Y0012600D01*
X0366159Y0012600D01*
X0365265Y0012600D02*
X0365265Y0014468D01*
X0364331Y0015402D01*
X0363397Y0014468D01*
X0363397Y0012600D01*
X0363397Y0014001D02*
X0365265Y0014001D01*
X0359727Y0012600D02*
X0358793Y0012600D01*
X0359260Y0012600D02*
X0359260Y0015402D01*
X0358793Y0015402D01*
X0357899Y0014468D02*
X0357899Y0012600D01*
X0356498Y0012600D01*
X0356031Y0013067D01*
X0356031Y0014468D01*
X0355137Y0014001D02*
X0355137Y0012600D01*
X0355137Y0014001D02*
X0354670Y0014468D01*
X0353735Y0014468D01*
X0353268Y0014001D01*
X0352361Y0014468D02*
X0351427Y0014468D01*
X0351894Y0014935D02*
X0351894Y0013067D01*
X0352361Y0012600D01*
X0353268Y0012600D02*
X0353268Y0015402D01*
X0350533Y0014468D02*
X0350533Y0012600D01*
X0350533Y0014001D02*
X0348664Y0014001D01*
X0348664Y0014468D02*
X0349599Y0015402D01*
X0350533Y0014468D01*
X0348664Y0014468D02*
X0348664Y0012600D01*
X0338964Y0013780D02*
X0338964Y0014714D01*
X0338497Y0015181D01*
X0338964Y0016075D02*
X0338964Y0017944D01*
X0338964Y0018838D02*
X0338497Y0018838D01*
X0336629Y0020706D01*
X0336162Y0020706D01*
X0336162Y0018838D01*
X0336162Y0017009D02*
X0338964Y0017009D01*
X0337096Y0016075D02*
X0336162Y0017009D01*
X0336629Y0015181D02*
X0336162Y0014714D01*
X0336162Y0013780D01*
X0336629Y0013313D01*
X0338497Y0013313D01*
X0338964Y0013780D01*
X0330464Y0013780D02*
X0330464Y0014714D01*
X0329997Y0015181D01*
X0330464Y0016075D02*
X0330464Y0017944D01*
X0330464Y0017009D02*
X0327662Y0017009D01*
X0328596Y0016075D01*
X0328129Y0015181D02*
X0327662Y0014714D01*
X0327662Y0013780D01*
X0328129Y0013313D01*
X0329997Y0013313D01*
X0330464Y0013780D01*
X0329997Y0018838D02*
X0330464Y0019305D01*
X0330464Y0020239D01*
X0329997Y0020706D01*
X0328129Y0020706D01*
X0327662Y0020239D01*
X0327662Y0019305D01*
X0328129Y0018838D01*
X0328596Y0018838D01*
X0329063Y0019305D01*
X0329063Y0020706D01*
X0361555Y0021402D02*
X0361555Y0018600D01*
X0374446Y0019067D02*
X0374913Y0018600D01*
X0375848Y0018600D01*
X0376315Y0019067D01*
X0376315Y0021402D01*
X0377209Y0021402D02*
X0379077Y0021402D01*
X0378143Y0021402D02*
X0378143Y0018600D01*
X0374446Y0019067D02*
X0374446Y0021402D01*
X0382733Y0021402D02*
X0382733Y0018600D01*
X0384135Y0018600D01*
X0384602Y0019067D01*
X0384602Y0020935D01*
X0384135Y0021402D01*
X0382733Y0021402D01*
X0385963Y0020468D02*
X0386897Y0020468D01*
X0387364Y0020001D01*
X0387364Y0018600D01*
X0385963Y0018600D01*
X0385496Y0019067D01*
X0385963Y0019534D01*
X0387364Y0019534D01*
X0388258Y0018600D02*
X0389192Y0018600D01*
X0388725Y0018600D02*
X0388725Y0021402D01*
X0388258Y0021402D01*
X0390100Y0021402D02*
X0390567Y0021402D01*
X0390567Y0018600D01*
X0390100Y0018600D02*
X0391034Y0018600D01*
X0391941Y0019067D02*
X0392408Y0019534D01*
X0393810Y0019534D01*
X0393810Y0020001D02*
X0393810Y0018600D01*
X0392408Y0018600D01*
X0391941Y0019067D01*
X0392408Y0020468D02*
X0393343Y0020468D01*
X0393810Y0020001D01*
X0394704Y0020001D02*
X0395171Y0020468D01*
X0396572Y0020468D01*
X0396105Y0019534D02*
X0395171Y0019534D01*
X0394704Y0020001D01*
X0394704Y0018600D02*
X0396105Y0018600D01*
X0396572Y0019067D01*
X0396105Y0019534D01*
X0398393Y0015869D02*
X0398393Y0015402D01*
X0398393Y0014468D02*
X0398393Y0012600D01*
X0397926Y0012600D02*
X0398861Y0012600D01*
X0397032Y0013067D02*
X0396565Y0013534D01*
X0395631Y0013534D01*
X0395164Y0014001D01*
X0395631Y0014468D01*
X0397032Y0014468D01*
X0397926Y0014468D02*
X0398393Y0014468D01*
X0397032Y0013067D02*
X0396565Y0012600D01*
X0395164Y0012600D01*
X0394270Y0012600D02*
X0392869Y0012600D01*
X0392402Y0013067D01*
X0392869Y0013534D01*
X0394270Y0013534D01*
X0394270Y0014001D02*
X0394270Y0012600D01*
X0394270Y0014001D02*
X0393803Y0014468D01*
X0392869Y0014468D01*
X0391027Y0015402D02*
X0391027Y0012600D01*
X0390560Y0012600D02*
X0391494Y0012600D01*
X0389666Y0012600D02*
X0389666Y0014468D01*
X0390560Y0015402D02*
X0391027Y0015402D01*
X0389666Y0012600D02*
X0388265Y0012600D01*
X0387798Y0013067D01*
X0387798Y0014468D01*
X0386904Y0014001D02*
X0386904Y0012600D01*
X0386904Y0014001D02*
X0386437Y0014468D01*
X0385502Y0014468D01*
X0385035Y0014001D01*
X0385035Y0015402D02*
X0385035Y0012600D01*
X0383207Y0012600D02*
X0383207Y0015402D01*
X0382273Y0015402D02*
X0384141Y0015402D01*
X0246464Y0092600D02*
X0243662Y0092600D01*
X0190295Y0094567D02*
X0189828Y0094100D01*
X0188894Y0094100D01*
X0188427Y0094567D01*
X0187533Y0094567D02*
X0187066Y0094100D01*
X0186132Y0094100D01*
X0185664Y0094567D01*
X0185664Y0096435D01*
X0186132Y0096902D01*
X0187066Y0096902D01*
X0187533Y0096435D01*
X0188427Y0096435D02*
X0188894Y0096902D01*
X0189828Y0096902D01*
X0190295Y0096435D01*
X0190295Y0095968D01*
X0189828Y0095501D01*
X0190295Y0095034D01*
X0190295Y0094567D01*
X0189828Y0095501D02*
X0189361Y0095501D01*
X0189828Y0087402D02*
X0188427Y0086001D01*
X0190295Y0086001D01*
X0189828Y0084600D02*
X0189828Y0087402D01*
X0187533Y0086935D02*
X0187066Y0087402D01*
X0186132Y0087402D01*
X0185664Y0086935D01*
X0185664Y0085067D01*
X0186132Y0084600D01*
X0187066Y0084600D01*
X0187533Y0085067D01*
X0191640Y0152100D02*
X0191640Y0154902D01*
X0193041Y0154902D01*
X0193508Y0154435D01*
X0193508Y0153501D01*
X0193041Y0153034D01*
X0191640Y0153034D01*
X0192574Y0153034D02*
X0193508Y0152100D01*
X0194402Y0152567D02*
X0194869Y0152100D01*
X0195803Y0152100D01*
X0196270Y0152567D01*
X0196270Y0154435D01*
X0195803Y0154902D01*
X0194869Y0154902D01*
X0194402Y0154435D01*
X0194402Y0153968D01*
X0194869Y0153501D01*
X0196270Y0153501D01*
X0130564Y0198413D02*
X0127762Y0198413D01*
X0127762Y0199814D01*
X0128229Y0200281D01*
X0129163Y0200281D01*
X0129630Y0199814D01*
X0129630Y0198413D01*
X0129630Y0199347D02*
X0130564Y0200281D01*
X0130564Y0201175D02*
X0130564Y0203044D01*
X0130564Y0203938D02*
X0130097Y0203938D01*
X0128229Y0205806D01*
X0127762Y0205806D01*
X0127762Y0203938D01*
X0127762Y0202109D02*
X0130564Y0202109D01*
X0128696Y0201175D02*
X0127762Y0202109D01*
D13*
X0207249Y0196565D02*
X0208450Y0196565D01*
X0207849Y0196565D02*
X0207849Y0192962D01*
X0207249Y0192962D02*
X0208450Y0192962D01*
X0209704Y0193563D02*
X0209704Y0195965D01*
X0210305Y0196565D01*
X0211506Y0196565D01*
X0212106Y0195965D01*
X0212106Y0193563D01*
X0211506Y0192962D01*
X0210305Y0192962D01*
X0209704Y0193563D01*
X0213387Y0192962D02*
X0213387Y0196565D01*
X0213387Y0194764D02*
X0215789Y0194764D01*
X0215789Y0196565D02*
X0215789Y0192962D01*
X0221465Y0172803D02*
X0222666Y0172803D01*
X0222066Y0172803D02*
X0222066Y0169801D01*
X0221465Y0169200D01*
X0220865Y0169200D01*
X0220264Y0169801D01*
X0223948Y0170401D02*
X0225749Y0170401D01*
X0226350Y0171002D01*
X0226350Y0172203D01*
X0225749Y0172803D01*
X0223948Y0172803D01*
X0223948Y0169200D01*
X0227631Y0169801D02*
X0228231Y0169200D01*
X0229432Y0169200D01*
X0230033Y0169801D01*
X0230033Y0170401D01*
X0229432Y0171002D01*
X0228832Y0171002D01*
X0229432Y0171002D02*
X0230033Y0171602D01*
X0230033Y0172203D01*
X0229432Y0172803D01*
X0228231Y0172803D01*
X0227631Y0172203D01*
X0225932Y0148803D02*
X0224731Y0148803D01*
X0224131Y0148203D01*
X0222850Y0148203D02*
X0222850Y0147002D01*
X0222249Y0146401D01*
X0220448Y0146401D01*
X0220448Y0145200D02*
X0220448Y0148803D01*
X0222249Y0148803D01*
X0222850Y0148203D01*
X0225932Y0148803D02*
X0226533Y0148203D01*
X0226533Y0147602D01*
X0224131Y0145200D01*
X0226533Y0145200D01*
X0218566Y0145801D02*
X0218566Y0148803D01*
X0219166Y0148803D02*
X0217965Y0148803D01*
X0218566Y0145801D02*
X0217965Y0145200D01*
X0217365Y0145200D01*
X0216764Y0145801D01*
X0310743Y0192500D02*
X0311944Y0192500D01*
X0311343Y0192500D02*
X0311343Y0196103D01*
X0310743Y0196103D02*
X0311944Y0196103D01*
X0313198Y0195503D02*
X0313198Y0193101D01*
X0313799Y0192500D01*
X0315000Y0192500D01*
X0315600Y0193101D01*
X0315600Y0195503D01*
X0315000Y0196103D01*
X0313799Y0196103D01*
X0313198Y0195503D01*
X0316881Y0196103D02*
X0316881Y0192500D01*
X0319283Y0192500D01*
X0104465Y0091369D02*
X0104465Y0088967D01*
X0103864Y0087686D02*
X0102663Y0086485D01*
X0102663Y0087086D02*
X0102663Y0085284D01*
X0103864Y0085284D02*
X0100261Y0085284D01*
X0100261Y0087086D01*
X0100862Y0087686D01*
X0102063Y0087686D01*
X0102663Y0087086D01*
X0103864Y0084003D02*
X0100261Y0084003D01*
X0102663Y0082802D02*
X0103864Y0084003D01*
X0102663Y0082802D02*
X0103864Y0081601D01*
X0100261Y0081601D01*
X0100862Y0080320D02*
X0100261Y0079720D01*
X0100261Y0077918D01*
X0103864Y0077918D01*
X0102663Y0077918D02*
X0102663Y0079720D01*
X0102063Y0080320D01*
X0100862Y0080320D01*
X0100862Y0092651D02*
X0101462Y0092651D01*
X0102063Y0093251D01*
X0102063Y0094452D01*
X0102663Y0095053D01*
X0103264Y0095053D01*
X0103864Y0094452D01*
X0103864Y0093251D01*
X0103264Y0092651D01*
X0100862Y0092651D02*
X0100261Y0093251D01*
X0100261Y0094452D01*
X0100862Y0095053D01*
X0100261Y0096334D02*
X0103864Y0096334D01*
X0103864Y0098736D01*
X0103864Y0100017D02*
X0100261Y0100017D01*
X0100261Y0098736D02*
X0100261Y0096334D01*
X0102063Y0096334D02*
X0102063Y0097535D01*
X0103864Y0100017D02*
X0103864Y0102419D01*
X0179964Y0028003D02*
X0181766Y0028003D01*
X0182366Y0027403D01*
X0182366Y0026202D01*
X0181766Y0025601D01*
X0179964Y0025601D01*
X0179964Y0024400D02*
X0179964Y0028003D01*
X0183648Y0027403D02*
X0183648Y0025001D01*
X0184248Y0024400D01*
X0185449Y0024400D01*
X0186050Y0025001D01*
X0186050Y0027403D01*
X0185449Y0028003D01*
X0184248Y0028003D01*
X0183648Y0027403D01*
X0187331Y0028003D02*
X0187331Y0024400D01*
X0188532Y0025601D01*
X0189733Y0024400D01*
X0189733Y0028003D01*
X0191014Y0028003D02*
X0191014Y0024400D01*
X0193416Y0024400D01*
X0194697Y0024400D02*
X0194697Y0028003D01*
X0196499Y0028003D01*
X0197099Y0027403D01*
X0197099Y0026202D01*
X0196499Y0025601D01*
X0194697Y0025601D01*
X0195898Y0025601D02*
X0197099Y0024400D01*
X0193416Y0028003D02*
X0191014Y0028003D01*
X0191014Y0026202D02*
X0192215Y0026202D01*
X0269964Y0026302D02*
X0269964Y0023900D01*
X0269964Y0025702D02*
X0272366Y0025702D01*
X0272366Y0026302D02*
X0272366Y0023900D01*
X0273648Y0023900D02*
X0275449Y0023900D01*
X0276050Y0024501D01*
X0276050Y0026903D01*
X0275449Y0027503D01*
X0273648Y0027503D01*
X0273648Y0023900D01*
X0272366Y0026302D02*
X0271165Y0027503D01*
X0269964Y0026302D01*
X0281761Y0052352D02*
X0281761Y0053553D01*
X0281761Y0052952D02*
X0284764Y0052952D01*
X0285364Y0052352D01*
X0285364Y0051751D01*
X0284764Y0051151D01*
X0285364Y0054834D02*
X0281761Y0054834D01*
X0281761Y0056635D01*
X0282362Y0057236D01*
X0283563Y0057236D01*
X0284163Y0056635D01*
X0284163Y0054834D01*
X0283563Y0058517D02*
X0283563Y0060318D01*
X0284163Y0060919D01*
X0284764Y0060919D01*
X0285364Y0060318D01*
X0285364Y0059117D01*
X0284764Y0058517D01*
X0283563Y0058517D01*
X0282362Y0059718D01*
X0281761Y0060919D01*
X0306261Y0060919D02*
X0306261Y0058517D01*
X0308063Y0058517D01*
X0307462Y0059718D01*
X0307462Y0060318D01*
X0308063Y0060919D01*
X0309264Y0060919D01*
X0309864Y0060318D01*
X0309864Y0059117D01*
X0309264Y0058517D01*
X0308063Y0057236D02*
X0308663Y0056635D01*
X0308663Y0054834D01*
X0309864Y0054834D02*
X0306261Y0054834D01*
X0306261Y0056635D01*
X0306862Y0057236D01*
X0308063Y0057236D01*
X0306261Y0053553D02*
X0306261Y0052352D01*
X0306261Y0052952D02*
X0309264Y0052952D01*
X0309864Y0052352D01*
X0309864Y0051751D01*
X0309264Y0051151D01*
D14*
X0314811Y0051506D02*
X0314811Y0050005D01*
X0315561Y0049254D01*
X0314811Y0047653D02*
X0318564Y0047653D01*
X0319314Y0046902D01*
X0319314Y0045401D01*
X0318564Y0044650D01*
X0314811Y0044650D01*
X0318564Y0049254D02*
X0319314Y0050005D01*
X0319314Y0051506D01*
X0318564Y0052256D01*
X0317813Y0052256D01*
X0317063Y0051506D01*
X0317063Y0050755D01*
X0317063Y0051506D02*
X0316312Y0052256D01*
X0315561Y0052256D01*
X0314811Y0051506D01*
X0385511Y0084050D02*
X0388513Y0084050D01*
X0385511Y0084050D02*
X0385511Y0084801D01*
X0388513Y0087803D01*
X0388513Y0088554D01*
X0385511Y0088554D01*
X0329318Y0122745D02*
X0324814Y0122745D01*
X0324814Y0124246D02*
X0324814Y0121244D01*
X0327817Y0124246D02*
X0329318Y0122745D01*
X0329318Y0125847D02*
X0325565Y0125847D01*
X0324814Y0126598D01*
X0324814Y0128099D01*
X0325565Y0128850D01*
X0329318Y0128850D01*
X0379314Y0142101D02*
X0380065Y0141350D01*
X0381566Y0141350D01*
X0382317Y0142101D01*
X0382317Y0145854D01*
X0383918Y0145854D02*
X0383918Y0143602D01*
X0385420Y0144353D01*
X0386170Y0144353D01*
X0386921Y0143602D01*
X0386921Y0142101D01*
X0386170Y0141350D01*
X0384669Y0141350D01*
X0383918Y0142101D01*
X0383918Y0145854D02*
X0386921Y0145854D01*
X0379314Y0145854D02*
X0379314Y0142101D01*
X0369818Y0170141D02*
X0365314Y0170141D01*
X0365314Y0171642D02*
X0365314Y0168640D01*
X0368317Y0171642D02*
X0369818Y0170141D01*
X0365314Y0173244D02*
X0365314Y0176246D01*
X0365314Y0174745D02*
X0369818Y0174745D01*
X0368317Y0176246D01*
X0369818Y0177847D02*
X0366065Y0177847D01*
X0365314Y0178598D01*
X0365314Y0180099D01*
X0366065Y0180850D01*
X0369818Y0180850D01*
X0258570Y0139254D02*
X0258570Y0134750D01*
X0259321Y0137002D02*
X0256318Y0137002D01*
X0258570Y0139254D01*
X0254717Y0139254D02*
X0254717Y0135501D01*
X0253966Y0134750D01*
X0252465Y0134750D01*
X0251714Y0135501D01*
X0251714Y0139254D01*
X0206914Y0136999D02*
X0206914Y0133246D01*
X0203912Y0133246D02*
X0203912Y0136999D01*
X0204663Y0137750D01*
X0206164Y0137750D01*
X0206914Y0136999D01*
X0202311Y0137750D02*
X0199308Y0137750D01*
X0200809Y0137750D02*
X0200809Y0133246D01*
X0202311Y0134747D01*
X0197707Y0133997D02*
X0196956Y0133246D01*
X0195455Y0133246D01*
X0194704Y0133997D01*
X0194704Y0134747D01*
X0197707Y0137750D01*
X0194704Y0137750D01*
X0170568Y0162244D02*
X0169817Y0162244D01*
X0169066Y0162994D01*
X0169066Y0164495D01*
X0169817Y0165246D01*
X0170568Y0165246D01*
X0171318Y0164495D01*
X0171318Y0162994D01*
X0170568Y0162244D01*
X0169066Y0162994D02*
X0168316Y0162244D01*
X0167565Y0162244D01*
X0166814Y0162994D01*
X0166814Y0164495D01*
X0167565Y0165246D01*
X0168316Y0165246D01*
X0169066Y0164495D01*
X0167565Y0166847D02*
X0171318Y0166847D01*
X0171318Y0169850D02*
X0167565Y0169850D01*
X0166814Y0169099D01*
X0166814Y0167598D01*
X0167565Y0166847D01*
X0106414Y0167746D02*
X0106414Y0171499D01*
X0105664Y0172250D01*
X0104163Y0172250D01*
X0103412Y0171499D01*
X0103412Y0167746D01*
X0101811Y0169247D02*
X0100309Y0167746D01*
X0100309Y0172250D01*
X0098808Y0172250D02*
X0101811Y0172250D01*
X0097207Y0171499D02*
X0097207Y0168497D01*
X0096456Y0167746D01*
X0094955Y0167746D01*
X0094204Y0168497D01*
X0097207Y0171499D01*
X0096456Y0172250D01*
X0094955Y0172250D01*
X0094204Y0171499D01*
X0094204Y0168497D01*
X0220808Y0096750D02*
X0223811Y0096750D01*
X0220808Y0093747D01*
X0220808Y0092997D01*
X0221559Y0092246D01*
X0223060Y0092246D01*
X0223811Y0092997D01*
X0225412Y0092246D02*
X0225412Y0095999D01*
X0226163Y0096750D01*
X0227664Y0096750D01*
X0228414Y0095999D01*
X0228414Y0092246D01*
X0194821Y0076254D02*
X0194821Y0075503D01*
X0191818Y0072501D01*
X0191818Y0071750D01*
X0190217Y0072501D02*
X0190217Y0076254D01*
X0191818Y0076254D02*
X0194821Y0076254D01*
X0190217Y0072501D02*
X0189466Y0071750D01*
X0187965Y0071750D01*
X0187214Y0072501D01*
X0187214Y0076254D01*
X0131414Y0077246D02*
X0131414Y0080999D01*
X0130664Y0081750D01*
X0129163Y0081750D01*
X0128412Y0080999D01*
X0128412Y0077246D01*
X0126811Y0077997D02*
X0126060Y0077246D01*
X0124559Y0077246D01*
X0123808Y0077997D01*
X0123808Y0080999D01*
X0124559Y0081750D01*
X0126060Y0081750D01*
X0126811Y0080999D01*
X0126060Y0079498D02*
X0123808Y0079498D01*
X0126060Y0079498D02*
X0126811Y0078747D01*
X0126811Y0077997D01*
M02*
