G75*
%MOIN*%
%OFA0B0*%
%FSLAX25Y25*%
%IPPOS*%
%LPD*%
%AMOC8*
5,1,8,0,0,1.08239X$1,22.5*
%
%ADD10C,0.00000*%
%ADD11C,0.00400*%
%ADD12C,0.00300*%
%ADD13C,0.00200*%
%ADD14C,0.00500*%
D10*
X0072064Y0005500D02*
X0072187Y0215482D01*
X0397986Y0215198D01*
X0397986Y0005500D01*
X0072064Y0005500D01*
D11*
X0179964Y0024400D02*
X0179964Y0028003D01*
X0181766Y0028003D01*
X0182366Y0027403D01*
X0182366Y0026202D01*
X0181766Y0025601D01*
X0179964Y0025601D01*
X0183648Y0025001D02*
X0184248Y0024400D01*
X0185449Y0024400D01*
X0186050Y0025001D01*
X0186050Y0027403D01*
X0185449Y0028003D01*
X0184248Y0028003D01*
X0183648Y0027403D01*
X0183648Y0025001D01*
X0187331Y0024400D02*
X0187331Y0028003D01*
X0189733Y0028003D02*
X0189733Y0024400D01*
X0188532Y0025601D01*
X0187331Y0024400D01*
X0191014Y0024400D02*
X0191014Y0028003D01*
X0193416Y0028003D01*
X0194697Y0028003D02*
X0196499Y0028003D01*
X0197099Y0027403D01*
X0197099Y0026202D01*
X0196499Y0025601D01*
X0194697Y0025601D01*
X0194697Y0024400D02*
X0194697Y0028003D01*
X0195898Y0025601D02*
X0197099Y0024400D01*
X0193416Y0024400D02*
X0191014Y0024400D01*
X0191014Y0026202D02*
X0192215Y0026202D01*
X0269964Y0026302D02*
X0269964Y0023900D01*
X0269964Y0025702D02*
X0272366Y0025702D01*
X0272366Y0026302D02*
X0272366Y0023900D01*
X0273648Y0023900D02*
X0275449Y0023900D01*
X0276050Y0024501D01*
X0276050Y0026903D01*
X0275449Y0027503D01*
X0273648Y0027503D01*
X0273648Y0023900D01*
X0272366Y0026302D02*
X0271165Y0027503D01*
X0269964Y0026302D01*
X0284264Y0054651D02*
X0284864Y0055251D01*
X0284864Y0055852D01*
X0284264Y0056452D01*
X0281261Y0056452D01*
X0281261Y0055852D02*
X0281261Y0057053D01*
X0281261Y0058334D02*
X0281261Y0060135D01*
X0281862Y0060736D01*
X0283063Y0060736D01*
X0283663Y0060135D01*
X0283663Y0058334D01*
X0284864Y0058334D02*
X0281261Y0058334D01*
X0283063Y0062017D02*
X0283063Y0063818D01*
X0283663Y0064419D01*
X0284264Y0064419D01*
X0284864Y0063818D01*
X0284864Y0062617D01*
X0284264Y0062017D01*
X0283063Y0062017D01*
X0281862Y0063218D01*
X0281261Y0064419D01*
X0305761Y0064419D02*
X0305761Y0062017D01*
X0307563Y0062017D01*
X0306962Y0063218D01*
X0306962Y0063818D01*
X0307563Y0064419D01*
X0308764Y0064419D01*
X0309364Y0063818D01*
X0309364Y0062617D01*
X0308764Y0062017D01*
X0307563Y0060736D02*
X0306362Y0060736D01*
X0305761Y0060135D01*
X0305761Y0058334D01*
X0309364Y0058334D01*
X0308163Y0058334D02*
X0308163Y0060135D01*
X0307563Y0060736D01*
X0305761Y0057053D02*
X0305761Y0055852D01*
X0305761Y0056452D02*
X0308764Y0056452D01*
X0309364Y0055852D01*
X0309364Y0055251D01*
X0308764Y0054651D01*
X0226533Y0145200D02*
X0224131Y0145200D01*
X0226533Y0147602D01*
X0226533Y0148203D01*
X0225932Y0148803D01*
X0224731Y0148803D01*
X0224131Y0148203D01*
X0222850Y0148203D02*
X0222850Y0147002D01*
X0222249Y0146401D01*
X0220448Y0146401D01*
X0220448Y0145200D02*
X0220448Y0148803D01*
X0222249Y0148803D01*
X0222850Y0148203D01*
X0219166Y0148803D02*
X0217965Y0148803D01*
X0218566Y0148803D02*
X0218566Y0145801D01*
X0217965Y0145200D01*
X0217365Y0145200D01*
X0216764Y0145801D01*
X0220865Y0169200D02*
X0221465Y0169200D01*
X0222066Y0169801D01*
X0222066Y0172803D01*
X0222666Y0172803D02*
X0221465Y0172803D01*
X0223948Y0172803D02*
X0225749Y0172803D01*
X0226350Y0172203D01*
X0226350Y0171002D01*
X0225749Y0170401D01*
X0223948Y0170401D01*
X0223948Y0169200D02*
X0223948Y0172803D01*
X0227631Y0172203D02*
X0228231Y0172803D01*
X0229432Y0172803D01*
X0230033Y0172203D01*
X0230033Y0171602D01*
X0229432Y0171002D01*
X0230033Y0170401D01*
X0230033Y0169801D01*
X0229432Y0169200D01*
X0228231Y0169200D01*
X0227631Y0169801D01*
X0228832Y0171002D02*
X0229432Y0171002D01*
X0220865Y0169200D02*
X0220264Y0169801D01*
X0215789Y0192962D02*
X0215789Y0196565D01*
X0215789Y0194764D02*
X0213387Y0194764D01*
X0212106Y0195965D02*
X0211506Y0196565D01*
X0210305Y0196565D01*
X0209704Y0195965D01*
X0209704Y0193563D01*
X0210305Y0192962D01*
X0211506Y0192962D01*
X0212106Y0193563D01*
X0212106Y0195965D01*
X0213387Y0196565D02*
X0213387Y0192962D01*
X0208450Y0192962D02*
X0207249Y0192962D01*
X0207849Y0192962D02*
X0207849Y0196565D01*
X0207249Y0196565D02*
X0208450Y0196565D01*
X0310743Y0196103D02*
X0311944Y0196103D01*
X0311343Y0196103D02*
X0311343Y0192500D01*
X0310743Y0192500D02*
X0311944Y0192500D01*
X0313198Y0193101D02*
X0313799Y0192500D01*
X0315000Y0192500D01*
X0315600Y0193101D01*
X0315600Y0195503D01*
X0315000Y0196103D01*
X0313799Y0196103D01*
X0313198Y0195503D01*
X0313198Y0193101D01*
X0316881Y0192500D02*
X0316881Y0196103D01*
X0316881Y0192500D02*
X0319283Y0192500D01*
X0365264Y0200967D02*
X0366032Y0200200D01*
X0367566Y0200200D01*
X0368334Y0200967D01*
X0369868Y0200200D02*
X0371403Y0200200D01*
X0370636Y0200200D02*
X0370636Y0204804D01*
X0371403Y0204804D02*
X0369868Y0204804D01*
X0368334Y0204037D02*
X0367566Y0204804D01*
X0366032Y0204804D01*
X0365264Y0204037D01*
X0365264Y0200967D01*
X0372938Y0200200D02*
X0372938Y0204804D01*
X0374472Y0203269D01*
X0376007Y0204804D01*
X0376007Y0200200D01*
X0377542Y0200200D02*
X0379844Y0200200D01*
X0380611Y0200967D01*
X0380611Y0204037D01*
X0379844Y0204804D01*
X0377542Y0204804D01*
X0377542Y0200200D01*
X0386749Y0203269D02*
X0388284Y0200200D01*
X0389819Y0203269D01*
X0391353Y0203269D02*
X0392888Y0204804D01*
X0392888Y0200200D01*
X0391353Y0200200D02*
X0394423Y0200200D01*
X0099965Y0088369D02*
X0099965Y0085967D01*
X0099364Y0084686D02*
X0098163Y0083485D01*
X0098163Y0084086D02*
X0098163Y0082284D01*
X0099364Y0082284D02*
X0095761Y0082284D01*
X0095761Y0084086D01*
X0096362Y0084686D01*
X0097563Y0084686D01*
X0098163Y0084086D01*
X0099364Y0081003D02*
X0095761Y0081003D01*
X0095761Y0078601D02*
X0099364Y0078601D01*
X0098163Y0079802D01*
X0099364Y0081003D01*
X0097563Y0077320D02*
X0098163Y0076720D01*
X0098163Y0074918D01*
X0099364Y0074918D02*
X0095761Y0074918D01*
X0095761Y0076720D01*
X0096362Y0077320D01*
X0097563Y0077320D01*
X0096962Y0089651D02*
X0097563Y0090251D01*
X0097563Y0091452D01*
X0098163Y0092053D01*
X0098764Y0092053D01*
X0099364Y0091452D01*
X0099364Y0090251D01*
X0098764Y0089651D01*
X0096962Y0089651D02*
X0096362Y0089651D01*
X0095761Y0090251D01*
X0095761Y0091452D01*
X0096362Y0092053D01*
X0095761Y0093334D02*
X0099364Y0093334D01*
X0099364Y0095736D01*
X0099364Y0097017D02*
X0099364Y0099419D01*
X0099364Y0097017D02*
X0095761Y0097017D01*
X0095761Y0095736D02*
X0095761Y0093334D01*
X0097563Y0093334D02*
X0097563Y0094535D01*
D12*
X0087914Y0082936D02*
X0087914Y0080467D01*
X0087914Y0081701D02*
X0084211Y0081701D01*
X0085446Y0080467D01*
X0084828Y0079252D02*
X0084211Y0078635D01*
X0084211Y0076784D01*
X0087914Y0076784D01*
X0087914Y0078635D01*
X0087297Y0079252D01*
X0084828Y0079252D01*
X0106507Y0065354D02*
X0109643Y0060650D01*
X0111111Y0060650D02*
X0114247Y0060650D01*
X0112679Y0060650D02*
X0112679Y0065354D01*
X0111111Y0063786D01*
X0109643Y0065354D02*
X0106507Y0060650D01*
X0131165Y0060267D02*
X0131782Y0059650D01*
X0133017Y0059650D01*
X0133634Y0060267D01*
X0134848Y0059650D02*
X0137317Y0059650D01*
X0136083Y0059650D02*
X0136083Y0063353D01*
X0134848Y0062119D01*
X0133634Y0062736D02*
X0133017Y0063353D01*
X0131782Y0063353D01*
X0131165Y0062736D01*
X0131165Y0060267D01*
X0138531Y0060267D02*
X0139148Y0059650D01*
X0140383Y0059650D01*
X0141000Y0060267D01*
X0141000Y0060884D01*
X0140383Y0061502D01*
X0139766Y0061502D01*
X0140383Y0061502D02*
X0141000Y0062119D01*
X0141000Y0062736D01*
X0140383Y0063353D01*
X0139148Y0063353D01*
X0138531Y0062736D01*
X0146714Y0064267D02*
X0146714Y0066736D01*
X0147332Y0067353D01*
X0148566Y0067353D01*
X0149183Y0066736D01*
X0150398Y0065502D02*
X0151632Y0066736D01*
X0152866Y0067353D01*
X0152249Y0065502D02*
X0150398Y0065502D01*
X0150398Y0064267D01*
X0151015Y0063650D01*
X0152249Y0063650D01*
X0152866Y0064267D01*
X0152866Y0064884D01*
X0152249Y0065502D01*
X0149183Y0064267D02*
X0148566Y0063650D01*
X0147332Y0063650D01*
X0146714Y0064267D01*
X0138031Y0071650D02*
X0138031Y0072267D01*
X0140500Y0074736D01*
X0140500Y0075353D01*
X0138031Y0075353D01*
X0136817Y0074736D02*
X0136200Y0075353D01*
X0134965Y0075353D01*
X0134348Y0074736D01*
X0134348Y0072267D01*
X0134965Y0071650D01*
X0136200Y0071650D01*
X0136817Y0072267D01*
X0146714Y0074767D02*
X0146714Y0077236D01*
X0147332Y0077853D01*
X0148566Y0077853D01*
X0149183Y0077236D01*
X0150398Y0077853D02*
X0150398Y0076002D01*
X0151632Y0076619D01*
X0152249Y0076619D01*
X0152866Y0076002D01*
X0152866Y0074767D01*
X0152249Y0074150D01*
X0151015Y0074150D01*
X0150398Y0074767D01*
X0149183Y0074767D02*
X0148566Y0074150D01*
X0147332Y0074150D01*
X0146714Y0074767D01*
X0150398Y0077853D02*
X0152866Y0077853D01*
X0163711Y0084218D02*
X0164328Y0083601D01*
X0166797Y0083601D01*
X0167414Y0084218D01*
X0167414Y0085452D01*
X0166797Y0086069D01*
X0167414Y0087284D02*
X0167414Y0089752D01*
X0167414Y0088518D02*
X0163711Y0088518D01*
X0164946Y0087284D01*
X0164328Y0086069D02*
X0163711Y0085452D01*
X0163711Y0084218D01*
X0165563Y0090967D02*
X0163711Y0092818D01*
X0167414Y0092818D01*
X0165563Y0093436D02*
X0165563Y0090967D01*
X0185714Y0087736D02*
X0185714Y0085267D01*
X0186332Y0084650D01*
X0187566Y0084650D01*
X0188183Y0085267D01*
X0189398Y0086502D02*
X0191866Y0086502D01*
X0191249Y0088353D02*
X0191249Y0084650D01*
X0189398Y0086502D02*
X0191249Y0088353D01*
X0188183Y0087736D02*
X0187566Y0088353D01*
X0186332Y0088353D01*
X0185714Y0087736D01*
X0186332Y0094150D02*
X0187566Y0094150D01*
X0188183Y0094767D01*
X0189398Y0094767D02*
X0190015Y0094150D01*
X0191249Y0094150D01*
X0191866Y0094767D01*
X0191866Y0095384D01*
X0191249Y0096002D01*
X0190632Y0096002D01*
X0191249Y0096002D02*
X0191866Y0096619D01*
X0191866Y0097236D01*
X0191249Y0097853D01*
X0190015Y0097853D01*
X0189398Y0097236D01*
X0188183Y0097236D02*
X0187566Y0097853D01*
X0186332Y0097853D01*
X0185714Y0097236D01*
X0185714Y0094767D01*
X0186332Y0094150D01*
X0187132Y0068853D02*
X0187132Y0065150D01*
X0185898Y0065150D02*
X0188366Y0065150D01*
X0189581Y0065767D02*
X0190198Y0065150D01*
X0191432Y0065150D01*
X0192050Y0065767D01*
X0192050Y0066384D01*
X0191432Y0067002D01*
X0190815Y0067002D01*
X0191432Y0067002D02*
X0192050Y0067619D01*
X0192050Y0068236D01*
X0191432Y0068853D01*
X0190198Y0068853D01*
X0189581Y0068236D01*
X0187132Y0068853D02*
X0185898Y0067619D01*
X0184683Y0068236D02*
X0184683Y0067002D01*
X0184066Y0066384D01*
X0182214Y0066384D01*
X0182214Y0065150D02*
X0182214Y0068853D01*
X0184066Y0068853D01*
X0184683Y0068236D01*
X0183449Y0066384D02*
X0184683Y0065150D01*
X0170414Y0058868D02*
X0166711Y0058868D01*
X0168563Y0057016D01*
X0168563Y0059485D01*
X0170414Y0055802D02*
X0170414Y0053333D01*
X0170414Y0052119D02*
X0169180Y0050884D01*
X0169180Y0051502D02*
X0169180Y0049650D01*
X0170414Y0049650D02*
X0166711Y0049650D01*
X0166711Y0051502D01*
X0167328Y0052119D01*
X0168563Y0052119D01*
X0169180Y0051502D01*
X0167946Y0053333D02*
X0166711Y0054568D01*
X0170414Y0054568D01*
X0230165Y0083150D02*
X0230165Y0086853D01*
X0232017Y0086853D01*
X0232634Y0086236D01*
X0232634Y0085002D01*
X0232017Y0084384D01*
X0230165Y0084384D01*
X0231399Y0084384D02*
X0232634Y0083150D01*
X0233848Y0083150D02*
X0236317Y0083150D01*
X0235083Y0083150D02*
X0235083Y0086853D01*
X0233848Y0085619D01*
X0237531Y0085002D02*
X0237531Y0086853D01*
X0240000Y0086853D01*
X0239383Y0085619D02*
X0240000Y0085002D01*
X0240000Y0083767D01*
X0239383Y0083150D01*
X0238148Y0083150D01*
X0237531Y0083767D01*
X0237531Y0085002D02*
X0238766Y0085619D01*
X0239383Y0085619D01*
X0249165Y0086853D02*
X0249165Y0083150D01*
X0249165Y0084384D02*
X0251017Y0084384D01*
X0251634Y0085002D01*
X0251634Y0086236D01*
X0251017Y0086853D01*
X0249165Y0086853D01*
X0250399Y0084384D02*
X0251634Y0083150D01*
X0252848Y0083150D02*
X0255317Y0083150D01*
X0254083Y0083150D02*
X0254083Y0086853D01*
X0252848Y0085619D01*
X0256531Y0085002D02*
X0256531Y0083767D01*
X0257148Y0083150D01*
X0258383Y0083150D01*
X0259000Y0083767D01*
X0259000Y0084384D01*
X0258383Y0085002D01*
X0256531Y0085002D01*
X0257766Y0086236D01*
X0259000Y0086853D01*
X0283711Y0096784D02*
X0283711Y0098635D01*
X0284328Y0099252D01*
X0285563Y0099252D01*
X0286180Y0098635D01*
X0286180Y0096784D01*
X0286180Y0098018D02*
X0287414Y0099252D01*
X0286797Y0100467D02*
X0287414Y0101084D01*
X0287414Y0102318D01*
X0286797Y0102936D01*
X0286180Y0102936D01*
X0285563Y0102318D01*
X0285563Y0101701D01*
X0285563Y0102318D02*
X0284946Y0102936D01*
X0284328Y0102936D01*
X0283711Y0102318D01*
X0283711Y0101084D01*
X0284328Y0100467D01*
X0283711Y0096784D02*
X0287414Y0096784D01*
X0262366Y0110150D02*
X0259898Y0110150D01*
X0261132Y0110150D02*
X0261132Y0113853D01*
X0259898Y0112619D01*
X0258683Y0113236D02*
X0258066Y0113853D01*
X0256832Y0113853D01*
X0256214Y0113236D01*
X0256214Y0110767D01*
X0256832Y0110150D01*
X0258066Y0110150D01*
X0258683Y0110767D01*
X0250000Y0126150D02*
X0247531Y0126150D01*
X0246317Y0126150D02*
X0245083Y0127384D01*
X0245700Y0127384D02*
X0243848Y0127384D01*
X0243848Y0126150D02*
X0243848Y0129853D01*
X0245700Y0129853D01*
X0246317Y0129236D01*
X0246317Y0128002D01*
X0245700Y0127384D01*
X0247531Y0128619D02*
X0248766Y0129853D01*
X0248766Y0126150D01*
X0284665Y0143267D02*
X0285282Y0142650D01*
X0286517Y0142650D01*
X0287134Y0143267D01*
X0288348Y0142650D02*
X0290817Y0145119D01*
X0290817Y0145736D01*
X0290200Y0146353D01*
X0288965Y0146353D01*
X0288348Y0145736D01*
X0287134Y0145736D02*
X0286517Y0146353D01*
X0285282Y0146353D01*
X0284665Y0145736D01*
X0284665Y0143267D01*
X0288348Y0142650D02*
X0290817Y0142650D01*
X0292031Y0143267D02*
X0292031Y0143884D01*
X0292648Y0144502D01*
X0293883Y0144502D01*
X0294500Y0143884D01*
X0294500Y0143267D01*
X0293883Y0142650D01*
X0292648Y0142650D01*
X0292031Y0143267D01*
X0292648Y0144502D02*
X0292031Y0145119D01*
X0292031Y0145736D01*
X0292648Y0146353D01*
X0293883Y0146353D01*
X0294500Y0145736D01*
X0294500Y0145119D01*
X0293883Y0144502D01*
X0294383Y0156650D02*
X0295000Y0157267D01*
X0295000Y0159736D01*
X0294383Y0160353D01*
X0293148Y0160353D01*
X0292531Y0159736D01*
X0292531Y0159119D01*
X0293148Y0158502D01*
X0295000Y0158502D01*
X0294383Y0156650D02*
X0293148Y0156650D01*
X0292531Y0157267D01*
X0291317Y0156650D02*
X0288848Y0156650D01*
X0291317Y0159119D01*
X0291317Y0159736D01*
X0290700Y0160353D01*
X0289465Y0160353D01*
X0288848Y0159736D01*
X0287634Y0159736D02*
X0287017Y0160353D01*
X0285782Y0160353D01*
X0285165Y0159736D01*
X0285165Y0157267D01*
X0285782Y0156650D01*
X0287017Y0156650D01*
X0287634Y0157267D01*
X0290211Y0165601D02*
X0290211Y0167452D01*
X0290828Y0168069D01*
X0292063Y0168069D01*
X0292680Y0167452D01*
X0292680Y0165601D01*
X0292680Y0166835D02*
X0293914Y0168069D01*
X0293914Y0169284D02*
X0291446Y0171752D01*
X0290828Y0171752D01*
X0290211Y0171135D01*
X0290211Y0169901D01*
X0290828Y0169284D01*
X0293914Y0169284D02*
X0293914Y0171752D01*
X0293297Y0172967D02*
X0293914Y0173584D01*
X0293914Y0174818D01*
X0293297Y0175436D01*
X0292680Y0175436D01*
X0292063Y0174818D01*
X0292063Y0174201D01*
X0292063Y0174818D02*
X0291446Y0175436D01*
X0290828Y0175436D01*
X0290211Y0174818D01*
X0290211Y0173584D01*
X0290828Y0172967D01*
X0284414Y0172967D02*
X0284414Y0175436D01*
X0281946Y0175436D02*
X0284414Y0172967D01*
X0284414Y0171752D02*
X0284414Y0169284D01*
X0281946Y0171752D01*
X0281328Y0171752D01*
X0280711Y0171135D01*
X0280711Y0169901D01*
X0281328Y0169284D01*
X0281328Y0168069D02*
X0282563Y0168069D01*
X0283180Y0167452D01*
X0283180Y0165601D01*
X0283180Y0166835D02*
X0284414Y0168069D01*
X0281328Y0168069D02*
X0280711Y0167452D01*
X0280711Y0165601D01*
X0284414Y0165601D01*
X0290211Y0165601D02*
X0293914Y0165601D01*
X0281328Y0172967D02*
X0280711Y0173584D01*
X0280711Y0174818D01*
X0281328Y0175436D01*
X0281946Y0175436D01*
X0308711Y0178601D02*
X0308711Y0180452D01*
X0309328Y0181069D01*
X0310563Y0181069D01*
X0311180Y0180452D01*
X0311180Y0178601D01*
X0311180Y0179835D02*
X0312414Y0181069D01*
X0312414Y0182284D02*
X0309946Y0184752D01*
X0309328Y0184752D01*
X0308711Y0184135D01*
X0308711Y0182901D01*
X0309328Y0182284D01*
X0312414Y0182284D02*
X0312414Y0184752D01*
X0311797Y0185967D02*
X0312414Y0186584D01*
X0312414Y0187818D01*
X0311797Y0188436D01*
X0310563Y0188436D01*
X0309946Y0187818D01*
X0309946Y0187201D01*
X0310563Y0185967D01*
X0308711Y0185967D01*
X0308711Y0188436D01*
X0327214Y0197150D02*
X0327214Y0200853D01*
X0329066Y0200853D01*
X0329683Y0200236D01*
X0329683Y0199002D01*
X0329066Y0198384D01*
X0327214Y0198384D01*
X0328449Y0198384D02*
X0329683Y0197150D01*
X0330898Y0197150D02*
X0330898Y0197767D01*
X0333366Y0200236D01*
X0333366Y0200853D01*
X0330898Y0200853D01*
X0348714Y0207767D02*
X0348714Y0210236D01*
X0349332Y0210853D01*
X0350566Y0210853D01*
X0351183Y0210236D01*
X0352398Y0210236D02*
X0353015Y0210853D01*
X0354249Y0210853D01*
X0354866Y0210236D01*
X0354866Y0209619D01*
X0352398Y0207150D01*
X0354866Y0207150D01*
X0356081Y0207767D02*
X0358550Y0210236D01*
X0358550Y0207767D01*
X0357932Y0207150D01*
X0356698Y0207150D01*
X0356081Y0207767D01*
X0356081Y0210236D01*
X0356698Y0210853D01*
X0357932Y0210853D01*
X0358550Y0210236D01*
X0351183Y0207767D02*
X0350566Y0207150D01*
X0349332Y0207150D01*
X0348714Y0207767D01*
X0364332Y0192353D02*
X0363714Y0191736D01*
X0363714Y0189267D01*
X0364332Y0188650D01*
X0365566Y0188650D01*
X0366183Y0189267D01*
X0367398Y0188650D02*
X0369866Y0191119D01*
X0369866Y0191736D01*
X0369249Y0192353D01*
X0368015Y0192353D01*
X0367398Y0191736D01*
X0366183Y0191736D02*
X0365566Y0192353D01*
X0364332Y0192353D01*
X0371081Y0192353D02*
X0371081Y0190502D01*
X0372315Y0191119D01*
X0372932Y0191119D01*
X0373550Y0190502D01*
X0373550Y0189267D01*
X0372932Y0188650D01*
X0371698Y0188650D01*
X0371081Y0189267D01*
X0369866Y0188650D02*
X0367398Y0188650D01*
X0371081Y0192353D02*
X0373550Y0192353D01*
X0312414Y0178601D02*
X0308711Y0178601D01*
X0245914Y0178360D02*
X0242211Y0178360D01*
X0242211Y0180212D01*
X0242828Y0180829D01*
X0244063Y0180829D01*
X0244680Y0180212D01*
X0244680Y0178360D01*
X0244680Y0179595D02*
X0245914Y0180829D01*
X0245914Y0182043D02*
X0243445Y0184512D01*
X0242828Y0184512D01*
X0242211Y0183895D01*
X0242211Y0182661D01*
X0242828Y0182043D01*
X0245914Y0182043D02*
X0245914Y0184512D01*
X0244063Y0185727D02*
X0242211Y0187578D01*
X0245914Y0187578D01*
X0244063Y0188195D02*
X0244063Y0185727D01*
X0206914Y0186302D02*
X0206914Y0183833D01*
X0204446Y0186302D01*
X0203828Y0186302D01*
X0203211Y0185685D01*
X0203211Y0184450D01*
X0203828Y0183833D01*
X0203828Y0182619D02*
X0203211Y0182002D01*
X0203211Y0180767D01*
X0203828Y0180150D01*
X0206297Y0180150D01*
X0206914Y0180767D01*
X0206914Y0182002D01*
X0206297Y0182619D01*
X0206297Y0187516D02*
X0206914Y0187516D01*
X0206297Y0187516D02*
X0203828Y0189985D01*
X0203211Y0189985D01*
X0203211Y0187516D01*
X0176914Y0187802D02*
X0176914Y0185333D01*
X0174446Y0187802D01*
X0173828Y0187802D01*
X0173211Y0187185D01*
X0173211Y0185950D01*
X0173828Y0185333D01*
X0173828Y0184119D02*
X0173211Y0183502D01*
X0173211Y0182267D01*
X0173828Y0181650D01*
X0176297Y0181650D01*
X0176914Y0182267D01*
X0176914Y0183502D01*
X0176297Y0184119D01*
X0176297Y0189016D02*
X0175063Y0189016D01*
X0175063Y0190868D01*
X0175680Y0191485D01*
X0176297Y0191485D01*
X0176914Y0190868D01*
X0176914Y0189633D01*
X0176297Y0189016D01*
X0175063Y0189016D02*
X0173828Y0190251D01*
X0173211Y0191485D01*
X0145000Y0169236D02*
X0145000Y0168619D01*
X0144383Y0168002D01*
X0143148Y0168002D01*
X0142531Y0168619D01*
X0142531Y0169236D01*
X0143148Y0169853D01*
X0144383Y0169853D01*
X0145000Y0169236D01*
X0144383Y0168002D02*
X0145000Y0167384D01*
X0145000Y0166767D01*
X0144383Y0166150D01*
X0143148Y0166150D01*
X0142531Y0166767D01*
X0142531Y0167384D01*
X0143148Y0168002D01*
X0141317Y0166150D02*
X0138848Y0166150D01*
X0137634Y0166150D02*
X0136399Y0167384D01*
X0137017Y0167384D02*
X0135165Y0167384D01*
X0135165Y0166150D02*
X0135165Y0169853D01*
X0137017Y0169853D01*
X0137634Y0169236D01*
X0137634Y0168002D01*
X0137017Y0167384D01*
X0138848Y0168619D02*
X0140083Y0169853D01*
X0140083Y0166150D01*
X0132866Y0166002D02*
X0131015Y0166002D01*
X0130398Y0166619D01*
X0130398Y0167236D01*
X0131015Y0167853D01*
X0132249Y0167853D01*
X0132866Y0167236D01*
X0132866Y0164767D01*
X0132249Y0164150D01*
X0131015Y0164150D01*
X0130398Y0164767D01*
X0129183Y0164767D02*
X0128566Y0164150D01*
X0127332Y0164150D01*
X0126714Y0164767D01*
X0126714Y0167236D01*
X0127332Y0167853D01*
X0128566Y0167853D01*
X0129183Y0167236D01*
X0129083Y0155853D02*
X0129083Y0152150D01*
X0130317Y0152150D02*
X0127848Y0152150D01*
X0126634Y0152767D02*
X0126017Y0152150D01*
X0124782Y0152150D01*
X0124165Y0152767D01*
X0124165Y0155236D01*
X0124782Y0155853D01*
X0126017Y0155853D01*
X0126634Y0155236D01*
X0127848Y0154619D02*
X0129083Y0155853D01*
X0131531Y0155236D02*
X0132148Y0155853D01*
X0133383Y0155853D01*
X0134000Y0155236D01*
X0134000Y0154619D01*
X0131531Y0152150D01*
X0134000Y0152150D01*
X0132000Y0142353D02*
X0130766Y0141736D01*
X0129531Y0140502D01*
X0131383Y0140502D01*
X0132000Y0139884D01*
X0132000Y0139267D01*
X0131383Y0138650D01*
X0130148Y0138650D01*
X0129531Y0139267D01*
X0129531Y0140502D01*
X0128317Y0140502D02*
X0127700Y0139884D01*
X0125848Y0139884D01*
X0125848Y0138650D02*
X0125848Y0142353D01*
X0127700Y0142353D01*
X0128317Y0141736D01*
X0128317Y0140502D01*
X0127083Y0139884D02*
X0128317Y0138650D01*
X0146214Y0131736D02*
X0146214Y0129267D01*
X0146832Y0128650D01*
X0148066Y0128650D01*
X0148683Y0129267D01*
X0149898Y0128650D02*
X0152366Y0131119D01*
X0152366Y0131736D01*
X0151749Y0132353D01*
X0150515Y0132353D01*
X0149898Y0131736D01*
X0148683Y0131736D02*
X0148066Y0132353D01*
X0146832Y0132353D01*
X0146214Y0131736D01*
X0149898Y0128650D02*
X0152366Y0128650D01*
X0157214Y0123736D02*
X0157832Y0124353D01*
X0159066Y0124353D01*
X0159683Y0123736D01*
X0160898Y0123119D02*
X0162132Y0124353D01*
X0162132Y0120650D01*
X0160898Y0120650D02*
X0163366Y0120650D01*
X0164581Y0121267D02*
X0165198Y0120650D01*
X0166432Y0120650D01*
X0167050Y0121267D01*
X0167050Y0122502D01*
X0166432Y0123119D01*
X0165815Y0123119D01*
X0164581Y0122502D01*
X0164581Y0124353D01*
X0167050Y0124353D01*
X0159683Y0121267D02*
X0159066Y0120650D01*
X0157832Y0120650D01*
X0157214Y0121267D01*
X0157214Y0123736D01*
X0145050Y0124236D02*
X0145050Y0121767D01*
X0144432Y0121150D01*
X0143198Y0121150D01*
X0142581Y0121767D01*
X0141366Y0121150D02*
X0138898Y0121150D01*
X0137683Y0121150D02*
X0136449Y0122384D01*
X0137066Y0122384D02*
X0135214Y0122384D01*
X0135214Y0121150D02*
X0135214Y0124853D01*
X0137066Y0124853D01*
X0137683Y0124236D01*
X0137683Y0123002D01*
X0137066Y0122384D01*
X0138898Y0123619D02*
X0140132Y0124853D01*
X0140132Y0121150D01*
X0142581Y0123619D02*
X0143198Y0123002D01*
X0145050Y0123002D01*
X0145050Y0124236D02*
X0144432Y0124853D01*
X0143198Y0124853D01*
X0142581Y0124236D01*
X0142581Y0123619D01*
X0119000Y0123502D02*
X0118383Y0122884D01*
X0116531Y0122884D01*
X0116531Y0121650D02*
X0116531Y0125353D01*
X0118383Y0125353D01*
X0119000Y0124736D01*
X0119000Y0123502D01*
X0117766Y0122884D02*
X0119000Y0121650D01*
X0115317Y0121650D02*
X0115317Y0125353D01*
X0112848Y0125353D02*
X0112848Y0121650D01*
X0114083Y0122884D01*
X0115317Y0121650D01*
X0111634Y0123502D02*
X0111634Y0124736D01*
X0111017Y0125353D01*
X0109165Y0125353D01*
X0109165Y0121650D01*
X0109165Y0122884D02*
X0111017Y0122884D01*
X0111634Y0123502D01*
X0107951Y0122267D02*
X0107951Y0124736D01*
X0107333Y0125353D01*
X0105482Y0125353D01*
X0105482Y0121650D01*
X0107333Y0121650D01*
X0107951Y0122267D01*
X0109165Y0110353D02*
X0111017Y0110353D01*
X0111634Y0109736D01*
X0111634Y0108502D01*
X0111017Y0107884D01*
X0109165Y0107884D01*
X0109165Y0106650D02*
X0109165Y0110353D01*
X0107951Y0109119D02*
X0107951Y0106650D01*
X0107951Y0108502D02*
X0105482Y0108502D01*
X0105482Y0109119D02*
X0106716Y0110353D01*
X0107951Y0109119D01*
X0105482Y0109119D02*
X0105482Y0106650D01*
X0112848Y0106650D02*
X0114083Y0107884D01*
X0115317Y0106650D01*
X0115317Y0110353D01*
X0116531Y0110353D02*
X0116531Y0106650D01*
X0116531Y0107884D02*
X0118383Y0107884D01*
X0119000Y0108502D01*
X0119000Y0109736D01*
X0118383Y0110353D01*
X0116531Y0110353D01*
X0117766Y0107884D02*
X0119000Y0106650D01*
X0112848Y0106650D02*
X0112848Y0110353D01*
X0105932Y0150650D02*
X0104698Y0150650D01*
X0104081Y0151267D01*
X0106550Y0153736D01*
X0106550Y0151267D01*
X0105932Y0150650D01*
X0104081Y0151267D02*
X0104081Y0153736D01*
X0104698Y0154353D01*
X0105932Y0154353D01*
X0106550Y0153736D01*
X0102866Y0150650D02*
X0100398Y0150650D01*
X0101632Y0150650D02*
X0101632Y0154353D01*
X0100398Y0153119D01*
X0099183Y0153736D02*
X0098566Y0154353D01*
X0097332Y0154353D01*
X0096714Y0153736D01*
X0096714Y0151267D01*
X0097332Y0150650D01*
X0098566Y0150650D01*
X0099183Y0151267D01*
X0100148Y0158650D02*
X0099531Y0159267D01*
X0099531Y0159884D01*
X0100148Y0160502D01*
X0101383Y0160502D01*
X0102000Y0159884D01*
X0102000Y0159267D01*
X0101383Y0158650D01*
X0100148Y0158650D01*
X0100148Y0160502D02*
X0099531Y0161119D01*
X0099531Y0161736D01*
X0100148Y0162353D01*
X0101383Y0162353D01*
X0102000Y0161736D01*
X0102000Y0161119D01*
X0101383Y0160502D01*
X0098317Y0161736D02*
X0097700Y0162353D01*
X0096465Y0162353D01*
X0095848Y0161736D01*
X0095848Y0159267D01*
X0096465Y0158650D01*
X0097700Y0158650D01*
X0098317Y0159267D01*
X0113832Y0183150D02*
X0115066Y0183150D01*
X0115683Y0183767D01*
X0116898Y0183150D02*
X0119366Y0183150D01*
X0120581Y0183150D02*
X0123050Y0183150D01*
X0121815Y0183150D02*
X0121815Y0186853D01*
X0120581Y0185619D01*
X0118132Y0186853D02*
X0118132Y0183150D01*
X0116898Y0185619D02*
X0118132Y0186853D01*
X0115683Y0186236D02*
X0115066Y0186853D01*
X0113832Y0186853D01*
X0113214Y0186236D01*
X0113214Y0183767D01*
X0113832Y0183150D01*
X0130311Y0195701D02*
X0130311Y0197552D01*
X0130928Y0198169D01*
X0132163Y0198169D01*
X0132780Y0197552D01*
X0132780Y0195701D01*
X0132780Y0196935D02*
X0134014Y0198169D01*
X0134014Y0199384D02*
X0134014Y0201852D01*
X0134014Y0203067D02*
X0133397Y0203067D01*
X0130928Y0205536D01*
X0130311Y0205536D01*
X0130311Y0203067D01*
X0130311Y0200618D02*
X0134014Y0200618D01*
X0131546Y0199384D02*
X0130311Y0200618D01*
X0130311Y0195701D02*
X0134014Y0195701D01*
X0180848Y0161353D02*
X0182700Y0161353D01*
X0183317Y0160736D01*
X0183317Y0159502D01*
X0182700Y0158884D01*
X0180848Y0158884D01*
X0180848Y0157650D02*
X0180848Y0161353D01*
X0184531Y0160736D02*
X0184531Y0160119D01*
X0185148Y0159502D01*
X0187000Y0159502D01*
X0187000Y0160736D02*
X0186383Y0161353D01*
X0185148Y0161353D01*
X0184531Y0160736D01*
X0184531Y0158267D02*
X0185148Y0157650D01*
X0186383Y0157650D01*
X0187000Y0158267D01*
X0187000Y0160736D01*
X0183317Y0157650D02*
X0182083Y0158884D01*
X0285348Y0077353D02*
X0287200Y0077353D01*
X0287817Y0076736D01*
X0287817Y0075502D01*
X0287200Y0074884D01*
X0285348Y0074884D01*
X0285348Y0073650D02*
X0285348Y0077353D01*
X0289031Y0077353D02*
X0289031Y0075502D01*
X0290266Y0076119D01*
X0290883Y0076119D01*
X0291500Y0075502D01*
X0291500Y0074267D01*
X0290883Y0073650D01*
X0289648Y0073650D01*
X0289031Y0074267D01*
X0287817Y0073650D02*
X0286583Y0074884D01*
X0289031Y0077353D02*
X0291500Y0077353D01*
X0314665Y0076736D02*
X0314665Y0074267D01*
X0315282Y0073650D01*
X0316517Y0073650D01*
X0317134Y0074267D01*
X0318348Y0073650D02*
X0320817Y0076119D01*
X0320817Y0076736D01*
X0320200Y0077353D01*
X0318965Y0077353D01*
X0318348Y0076736D01*
X0317134Y0076736D02*
X0316517Y0077353D01*
X0315282Y0077353D01*
X0314665Y0076736D01*
X0318348Y0073650D02*
X0320817Y0073650D01*
X0322031Y0073650D02*
X0324500Y0076119D01*
X0324500Y0076736D01*
X0323883Y0077353D01*
X0322648Y0077353D01*
X0322031Y0076736D01*
X0322031Y0073650D02*
X0324500Y0073650D01*
X0333165Y0095650D02*
X0333165Y0099353D01*
X0335017Y0099353D01*
X0335634Y0098736D01*
X0335634Y0097502D01*
X0335017Y0096884D01*
X0333165Y0096884D01*
X0334399Y0096884D02*
X0335634Y0095650D01*
X0336848Y0095650D02*
X0339317Y0098119D01*
X0339317Y0098736D01*
X0338700Y0099353D01*
X0337465Y0099353D01*
X0336848Y0098736D01*
X0336848Y0095650D02*
X0339317Y0095650D01*
X0340531Y0096267D02*
X0340531Y0097502D01*
X0342383Y0097502D01*
X0343000Y0096884D01*
X0343000Y0096267D01*
X0342383Y0095650D01*
X0341148Y0095650D01*
X0340531Y0096267D01*
X0340531Y0097502D02*
X0341766Y0098736D01*
X0343000Y0099353D01*
X0343000Y0116150D02*
X0340531Y0116150D01*
X0339317Y0116150D02*
X0336848Y0116150D01*
X0339317Y0118619D01*
X0339317Y0119236D01*
X0338700Y0119853D01*
X0337465Y0119853D01*
X0336848Y0119236D01*
X0335634Y0119236D02*
X0335634Y0118002D01*
X0335017Y0117384D01*
X0333165Y0117384D01*
X0333165Y0116150D02*
X0333165Y0119853D01*
X0335017Y0119853D01*
X0335634Y0119236D01*
X0334399Y0117384D02*
X0335634Y0116150D01*
X0340531Y0118619D02*
X0341766Y0119853D01*
X0341766Y0116150D01*
X0380714Y0112736D02*
X0380714Y0110267D01*
X0381332Y0109650D01*
X0382566Y0109650D01*
X0383183Y0110267D01*
X0384398Y0109650D02*
X0386866Y0112119D01*
X0386866Y0112736D01*
X0386249Y0113353D01*
X0385015Y0113353D01*
X0384398Y0112736D01*
X0383183Y0112736D02*
X0382566Y0113353D01*
X0381332Y0113353D01*
X0380714Y0112736D01*
X0384398Y0109650D02*
X0386866Y0109650D01*
X0388081Y0111502D02*
X0390550Y0111502D01*
X0389932Y0113353D02*
X0388081Y0111502D01*
X0389932Y0113353D02*
X0389932Y0109650D01*
X0390315Y0103353D02*
X0390315Y0099650D01*
X0389081Y0099650D02*
X0391550Y0099650D01*
X0389081Y0102119D02*
X0390315Y0103353D01*
X0387866Y0102736D02*
X0387249Y0103353D01*
X0386015Y0103353D01*
X0385398Y0102736D01*
X0384183Y0102736D02*
X0383566Y0103353D01*
X0382332Y0103353D01*
X0381714Y0102736D01*
X0381714Y0100267D01*
X0382332Y0099650D01*
X0383566Y0099650D01*
X0384183Y0100267D01*
X0385398Y0099650D02*
X0387866Y0102119D01*
X0387866Y0102736D01*
X0387866Y0099650D02*
X0385398Y0099650D01*
X0320797Y0032936D02*
X0318328Y0032936D01*
X0317711Y0032318D01*
X0317711Y0031084D01*
X0318328Y0030467D01*
X0318946Y0030467D01*
X0319563Y0031084D01*
X0319563Y0032936D01*
X0320797Y0032936D02*
X0321414Y0032318D01*
X0321414Y0031084D01*
X0320797Y0030467D01*
X0321414Y0029252D02*
X0321414Y0026784D01*
X0321414Y0028018D02*
X0317711Y0028018D01*
X0318946Y0026784D01*
X0318328Y0025569D02*
X0317711Y0024952D01*
X0317711Y0023718D01*
X0318328Y0023101D01*
X0320797Y0023101D01*
X0321414Y0023718D01*
X0321414Y0024952D01*
X0320797Y0025569D01*
X0332714Y0021353D02*
X0333949Y0021353D01*
X0333332Y0021353D02*
X0333332Y0017650D01*
X0333949Y0017650D02*
X0332714Y0017650D01*
X0335170Y0017650D02*
X0337021Y0017650D01*
X0337639Y0018267D01*
X0337639Y0020736D01*
X0337021Y0021353D01*
X0335170Y0021353D01*
X0335170Y0017650D01*
X0334353Y0015353D02*
X0334353Y0011650D01*
X0333132Y0011650D02*
X0332515Y0012267D01*
X0332515Y0014736D01*
X0331898Y0014119D02*
X0333132Y0014119D01*
X0334353Y0013502D02*
X0334970Y0014119D01*
X0336205Y0014119D01*
X0336822Y0013502D01*
X0336822Y0011650D01*
X0338036Y0012267D02*
X0338653Y0011650D01*
X0340505Y0011650D01*
X0340505Y0014119D01*
X0341719Y0015353D02*
X0342336Y0015353D01*
X0342336Y0011650D01*
X0341719Y0011650D02*
X0342954Y0011650D01*
X0338036Y0012267D02*
X0338036Y0014119D01*
X0338853Y0017650D02*
X0341322Y0017650D01*
X0342536Y0017650D02*
X0342536Y0020119D01*
X0343771Y0021353D01*
X0345005Y0020119D01*
X0345005Y0017650D01*
X0345005Y0019502D02*
X0342536Y0019502D01*
X0341322Y0021353D02*
X0338853Y0021353D01*
X0338853Y0017650D01*
X0338853Y0019502D02*
X0340087Y0019502D01*
X0347858Y0014119D02*
X0349092Y0015353D01*
X0350327Y0014119D01*
X0350327Y0011650D01*
X0351541Y0011650D02*
X0353393Y0011650D01*
X0354010Y0012267D01*
X0353393Y0012884D01*
X0352158Y0012884D01*
X0351541Y0013502D01*
X0352158Y0014119D01*
X0354010Y0014119D01*
X0355224Y0013502D02*
X0355224Y0012267D01*
X0355841Y0011650D01*
X0357076Y0011650D01*
X0357693Y0012267D01*
X0357693Y0013502D01*
X0357076Y0014119D01*
X0355841Y0014119D01*
X0355224Y0013502D01*
X0358907Y0012884D02*
X0360759Y0014119D01*
X0362594Y0014119D02*
X0363828Y0014119D01*
X0364445Y0013502D01*
X0364445Y0011650D01*
X0362594Y0011650D01*
X0361977Y0012267D01*
X0362594Y0012884D01*
X0364445Y0012884D01*
X0365660Y0011650D02*
X0365660Y0014119D01*
X0367511Y0014119D01*
X0368129Y0013502D01*
X0368129Y0011650D01*
X0374260Y0011650D02*
X0374260Y0015353D01*
X0373026Y0015353D02*
X0375495Y0015353D01*
X0376709Y0015353D02*
X0376709Y0011650D01*
X0376709Y0013502D02*
X0377326Y0014119D01*
X0378561Y0014119D01*
X0379178Y0013502D01*
X0379178Y0011650D01*
X0380392Y0012267D02*
X0380392Y0014119D01*
X0380392Y0012267D02*
X0381009Y0011650D01*
X0382861Y0011650D01*
X0382861Y0014119D01*
X0384075Y0015353D02*
X0384693Y0015353D01*
X0384693Y0011650D01*
X0385310Y0011650D02*
X0384075Y0011650D01*
X0386531Y0012267D02*
X0387148Y0012884D01*
X0389000Y0012884D01*
X0389000Y0013502D02*
X0389000Y0011650D01*
X0387148Y0011650D01*
X0386531Y0012267D01*
X0387148Y0014119D02*
X0388382Y0014119D01*
X0389000Y0013502D01*
X0390214Y0013502D02*
X0390831Y0014119D01*
X0392683Y0014119D01*
X0393897Y0014119D02*
X0394514Y0014119D01*
X0394514Y0011650D01*
X0393897Y0011650D02*
X0395132Y0011650D01*
X0392683Y0012267D02*
X0392066Y0012884D01*
X0390831Y0012884D01*
X0390214Y0013502D01*
X0390214Y0011650D02*
X0392066Y0011650D01*
X0392683Y0012267D01*
X0394514Y0015353D02*
X0394514Y0015970D01*
X0376926Y0018267D02*
X0376308Y0017650D01*
X0374457Y0017650D01*
X0374457Y0021353D01*
X0376308Y0021353D01*
X0376926Y0020736D01*
X0376926Y0018267D01*
X0373242Y0021353D02*
X0370774Y0021353D01*
X0369559Y0021353D02*
X0369559Y0018267D01*
X0368942Y0017650D01*
X0367708Y0017650D01*
X0367090Y0018267D01*
X0367090Y0021353D01*
X0362186Y0018267D02*
X0361569Y0018267D01*
X0361569Y0017650D01*
X0362186Y0017650D01*
X0362186Y0018267D01*
X0362186Y0017650D02*
X0360952Y0016416D01*
X0359120Y0017650D02*
X0359738Y0018267D01*
X0359738Y0019502D01*
X0359120Y0020119D01*
X0357269Y0020119D01*
X0357269Y0021353D02*
X0357269Y0017650D01*
X0359120Y0017650D01*
X0358907Y0015353D02*
X0358907Y0011650D01*
X0358907Y0012884D02*
X0360759Y0011650D01*
X0356054Y0017650D02*
X0354203Y0017650D01*
X0353586Y0018267D01*
X0354203Y0018884D01*
X0356054Y0018884D01*
X0356054Y0019502D02*
X0356054Y0017650D01*
X0356054Y0019502D02*
X0355437Y0020119D01*
X0354203Y0020119D01*
X0349902Y0021353D02*
X0349902Y0017650D01*
X0352371Y0017650D01*
X0350327Y0013502D02*
X0347858Y0013502D01*
X0347858Y0014119D02*
X0347858Y0011650D01*
X0330683Y0011650D02*
X0330683Y0014119D01*
X0329449Y0015353D01*
X0328214Y0014119D01*
X0328214Y0011650D01*
X0328214Y0013502D02*
X0330683Y0013502D01*
X0372008Y0017650D02*
X0372008Y0021353D01*
D13*
X0356270Y0036067D02*
X0355803Y0035600D01*
X0354869Y0035600D01*
X0354402Y0036067D01*
X0354402Y0036534D01*
X0354869Y0037001D01*
X0355803Y0037001D01*
X0356270Y0036534D01*
X0356270Y0036067D01*
X0355803Y0037001D02*
X0356270Y0037468D01*
X0356270Y0037935D01*
X0355803Y0038402D01*
X0354869Y0038402D01*
X0354402Y0037935D01*
X0354402Y0037468D01*
X0354869Y0037001D01*
X0353508Y0037001D02*
X0353041Y0036534D01*
X0351640Y0036534D01*
X0352574Y0036534D02*
X0353508Y0035600D01*
X0353508Y0037001D02*
X0353508Y0037935D01*
X0353041Y0038402D01*
X0351640Y0038402D01*
X0351640Y0035600D01*
X0344464Y0035444D02*
X0344464Y0033575D01*
X0344464Y0034509D02*
X0341662Y0034509D01*
X0342596Y0033575D01*
X0342129Y0032681D02*
X0341662Y0032214D01*
X0341662Y0031280D01*
X0342129Y0030813D01*
X0343997Y0030813D01*
X0344464Y0031280D01*
X0344464Y0032214D01*
X0343997Y0032681D01*
X0343997Y0036338D02*
X0344464Y0036338D01*
X0343997Y0036338D02*
X0342129Y0038206D01*
X0341662Y0038206D01*
X0341662Y0036338D01*
X0341464Y0077600D02*
X0338662Y0077600D01*
X0338662Y0079001D01*
X0339129Y0079468D01*
X0340063Y0079468D01*
X0340530Y0079001D01*
X0340530Y0077600D01*
X0340530Y0078534D02*
X0341464Y0079468D01*
X0341464Y0080362D02*
X0341464Y0082231D01*
X0341464Y0083125D02*
X0339596Y0084993D01*
X0339129Y0084993D01*
X0338662Y0084526D01*
X0338662Y0083592D01*
X0339129Y0083125D01*
X0338662Y0081296D02*
X0341464Y0081296D01*
X0341464Y0083125D02*
X0341464Y0084993D01*
X0338662Y0081296D02*
X0339596Y0080362D01*
X0333464Y0088813D02*
X0330662Y0088813D01*
X0330662Y0090214D01*
X0331129Y0090681D01*
X0332063Y0090681D01*
X0332530Y0090214D01*
X0332530Y0088813D01*
X0332530Y0089747D02*
X0333464Y0090681D01*
X0333464Y0091575D02*
X0333464Y0093444D01*
X0333464Y0094338D02*
X0333464Y0096206D01*
X0333464Y0095272D02*
X0330662Y0095272D01*
X0331596Y0094338D01*
X0330662Y0092509D02*
X0333464Y0092509D01*
X0331596Y0091575D02*
X0330662Y0092509D01*
X0309770Y0084435D02*
X0309770Y0083968D01*
X0309303Y0083501D01*
X0309770Y0083034D01*
X0309770Y0082567D01*
X0309303Y0082100D01*
X0308369Y0082100D01*
X0307902Y0082567D01*
X0307008Y0082100D02*
X0305140Y0082100D01*
X0307008Y0083968D01*
X0307008Y0084435D01*
X0306541Y0084902D01*
X0305607Y0084902D01*
X0305140Y0084435D01*
X0304246Y0084435D02*
X0303779Y0084902D01*
X0302844Y0084902D01*
X0302377Y0084435D01*
X0302377Y0082567D01*
X0302844Y0082100D01*
X0303779Y0082100D01*
X0304246Y0082567D01*
X0307902Y0084435D02*
X0308369Y0084902D01*
X0309303Y0084902D01*
X0309770Y0084435D01*
X0309303Y0083501D02*
X0308836Y0083501D01*
X0261464Y0098600D02*
X0258662Y0098600D01*
X0258662Y0100001D01*
X0259129Y0100468D01*
X0260063Y0100468D01*
X0260530Y0100001D01*
X0260530Y0098600D01*
X0260530Y0099534D02*
X0261464Y0100468D01*
X0260063Y0101362D02*
X0260063Y0103231D01*
X0261464Y0102764D02*
X0258662Y0102764D01*
X0260063Y0101362D01*
X0244090Y0073402D02*
X0243156Y0073402D01*
X0242689Y0072935D01*
X0242689Y0072468D01*
X0243156Y0072001D01*
X0244090Y0072001D01*
X0244557Y0071534D01*
X0244557Y0071067D01*
X0244090Y0070600D01*
X0243156Y0070600D01*
X0242689Y0071067D01*
X0242689Y0071534D01*
X0243156Y0072001D01*
X0244090Y0072001D02*
X0244557Y0072468D01*
X0244557Y0072935D01*
X0244090Y0073402D01*
X0240861Y0073402D02*
X0239927Y0072468D01*
X0239033Y0072935D02*
X0238566Y0073402D01*
X0237632Y0073402D01*
X0237164Y0072935D01*
X0237164Y0071067D01*
X0237632Y0070600D01*
X0238566Y0070600D01*
X0239033Y0071067D01*
X0239927Y0070600D02*
X0241795Y0070600D01*
X0240861Y0070600D02*
X0240861Y0073402D01*
X0240861Y0058402D02*
X0240861Y0055600D01*
X0239927Y0055600D02*
X0241795Y0055600D01*
X0242689Y0056067D02*
X0243156Y0055600D01*
X0244090Y0055600D01*
X0244557Y0056067D01*
X0244557Y0056534D01*
X0244090Y0057001D01*
X0242689Y0057001D01*
X0242689Y0056067D01*
X0242689Y0057001D02*
X0243623Y0057935D01*
X0244557Y0058402D01*
X0240861Y0058402D02*
X0239927Y0057468D01*
X0239033Y0057935D02*
X0238566Y0058402D01*
X0237632Y0058402D01*
X0237164Y0057935D01*
X0237164Y0056067D01*
X0237632Y0055600D01*
X0238566Y0055600D01*
X0239033Y0056067D01*
X0311377Y0132100D02*
X0311377Y0134902D01*
X0312779Y0134902D01*
X0313246Y0134435D01*
X0313246Y0133501D01*
X0312779Y0133034D01*
X0311377Y0133034D01*
X0312311Y0133034D02*
X0313246Y0132100D01*
X0314140Y0132100D02*
X0316008Y0132100D01*
X0315074Y0132100D02*
X0315074Y0134902D01*
X0314140Y0133968D01*
X0316902Y0134435D02*
X0316902Y0132567D01*
X0318770Y0134435D01*
X0318770Y0132567D01*
X0318303Y0132100D01*
X0317369Y0132100D01*
X0316902Y0132567D01*
X0316902Y0134435D02*
X0317369Y0134902D01*
X0318303Y0134902D01*
X0318770Y0134435D01*
X0338164Y0146100D02*
X0338164Y0148902D01*
X0339566Y0148902D01*
X0340033Y0148435D01*
X0340033Y0147501D01*
X0339566Y0147034D01*
X0338164Y0147034D01*
X0339099Y0147034D02*
X0340033Y0146100D01*
X0340927Y0146100D02*
X0342795Y0147968D01*
X0342795Y0148435D01*
X0342328Y0148902D01*
X0341394Y0148902D01*
X0340927Y0148435D01*
X0340927Y0146100D02*
X0342795Y0146100D01*
X0343689Y0146567D02*
X0345557Y0148435D01*
X0345557Y0146567D01*
X0345090Y0146100D01*
X0344156Y0146100D01*
X0343689Y0146567D01*
X0343689Y0148435D01*
X0344156Y0148902D01*
X0345090Y0148902D01*
X0345557Y0148435D01*
X0246964Y0150600D02*
X0244162Y0150600D01*
X0244162Y0152001D01*
X0244629Y0152468D01*
X0245563Y0152468D01*
X0246030Y0152001D01*
X0246030Y0150600D01*
X0246030Y0151534D02*
X0246964Y0152468D01*
X0246964Y0153362D02*
X0245096Y0155231D01*
X0244629Y0155231D01*
X0244162Y0154764D01*
X0244162Y0153829D01*
X0244629Y0153362D01*
X0246964Y0153362D02*
X0246964Y0155231D01*
D14*
X0251714Y0139254D02*
X0251714Y0135501D01*
X0252465Y0134750D01*
X0253966Y0134750D01*
X0254717Y0135501D01*
X0254717Y0139254D01*
X0256318Y0137002D02*
X0258570Y0139254D01*
X0258570Y0134750D01*
X0259321Y0137002D02*
X0256318Y0137002D01*
X0206914Y0136999D02*
X0206914Y0133246D01*
X0203912Y0133246D02*
X0203912Y0136999D01*
X0204663Y0137750D01*
X0206164Y0137750D01*
X0206914Y0136999D01*
X0202311Y0137750D02*
X0199308Y0137750D01*
X0200809Y0137750D02*
X0200809Y0133246D01*
X0202311Y0134747D01*
X0197707Y0133997D02*
X0196956Y0133246D01*
X0195455Y0133246D01*
X0194704Y0133997D01*
X0194704Y0134747D01*
X0197707Y0137750D01*
X0194704Y0137750D01*
X0170568Y0162244D02*
X0169817Y0162244D01*
X0169066Y0162994D01*
X0169066Y0164495D01*
X0169817Y0165246D01*
X0170568Y0165246D01*
X0171318Y0164495D01*
X0171318Y0162994D01*
X0170568Y0162244D01*
X0169066Y0162994D02*
X0168316Y0162244D01*
X0167565Y0162244D01*
X0166814Y0162994D01*
X0166814Y0164495D01*
X0167565Y0165246D01*
X0168316Y0165246D01*
X0169066Y0164495D01*
X0167565Y0166847D02*
X0171318Y0166847D01*
X0171318Y0169850D02*
X0167565Y0169850D01*
X0166814Y0169099D01*
X0166814Y0167598D01*
X0167565Y0166847D01*
X0106414Y0167746D02*
X0106414Y0171499D01*
X0105664Y0172250D01*
X0104163Y0172250D01*
X0103412Y0171499D01*
X0103412Y0167746D01*
X0101811Y0169247D02*
X0100309Y0167746D01*
X0100309Y0172250D01*
X0098808Y0172250D02*
X0101811Y0172250D01*
X0097207Y0171499D02*
X0097207Y0168497D01*
X0096456Y0167746D01*
X0094955Y0167746D01*
X0094204Y0168497D01*
X0097207Y0171499D01*
X0096456Y0172250D01*
X0094955Y0172250D01*
X0094204Y0171499D01*
X0094204Y0168497D01*
X0220808Y0096750D02*
X0223811Y0096750D01*
X0220808Y0093747D01*
X0220808Y0092997D01*
X0221559Y0092246D01*
X0223060Y0092246D01*
X0223811Y0092997D01*
X0225412Y0092246D02*
X0225412Y0095999D01*
X0226163Y0096750D01*
X0227664Y0096750D01*
X0228414Y0095999D01*
X0228414Y0092246D01*
X0207321Y0084254D02*
X0207321Y0083503D01*
X0204318Y0080501D01*
X0204318Y0079750D01*
X0202717Y0080501D02*
X0202717Y0084254D01*
X0204318Y0084254D02*
X0207321Y0084254D01*
X0199714Y0084254D02*
X0199714Y0080501D01*
X0200465Y0079750D01*
X0201966Y0079750D01*
X0202717Y0080501D01*
X0131414Y0080999D02*
X0131414Y0077246D01*
X0128412Y0077246D02*
X0128412Y0080999D01*
X0129163Y0081750D01*
X0130664Y0081750D01*
X0131414Y0080999D01*
X0126811Y0080999D02*
X0126060Y0081750D01*
X0124559Y0081750D01*
X0123808Y0080999D01*
X0123808Y0077997D01*
X0124559Y0077246D01*
X0126060Y0077246D01*
X0126811Y0077997D01*
X0126811Y0078747D01*
X0126060Y0079498D01*
X0123808Y0079498D01*
X0314811Y0051506D02*
X0314811Y0050005D01*
X0315561Y0049254D01*
X0314811Y0047653D02*
X0318564Y0047653D01*
X0319314Y0046902D01*
X0319314Y0045401D01*
X0318564Y0044650D01*
X0314811Y0044650D01*
X0318564Y0049254D02*
X0319314Y0050005D01*
X0319314Y0051506D01*
X0318564Y0052256D01*
X0317813Y0052256D01*
X0317063Y0051506D01*
X0317063Y0050755D01*
X0317063Y0051506D02*
X0316312Y0052256D01*
X0315561Y0052256D01*
X0314811Y0051506D01*
X0385511Y0084050D02*
X0388513Y0084050D01*
X0385511Y0084050D02*
X0385511Y0084801D01*
X0388513Y0087803D01*
X0388513Y0088554D01*
X0385511Y0088554D01*
X0329318Y0122745D02*
X0324814Y0122745D01*
X0324814Y0124246D02*
X0324814Y0121244D01*
X0327817Y0124246D02*
X0329318Y0122745D01*
X0329318Y0125847D02*
X0325565Y0125847D01*
X0324814Y0126598D01*
X0324814Y0128099D01*
X0325565Y0128850D01*
X0329318Y0128850D01*
X0379314Y0142101D02*
X0380065Y0141350D01*
X0381566Y0141350D01*
X0382317Y0142101D01*
X0382317Y0145854D01*
X0383918Y0145854D02*
X0383918Y0143602D01*
X0385420Y0144353D01*
X0386170Y0144353D01*
X0386921Y0143602D01*
X0386921Y0142101D01*
X0386170Y0141350D01*
X0384669Y0141350D01*
X0383918Y0142101D01*
X0383918Y0145854D02*
X0386921Y0145854D01*
X0379314Y0145854D02*
X0379314Y0142101D01*
X0369818Y0170141D02*
X0365314Y0170141D01*
X0365314Y0171642D02*
X0365314Y0168640D01*
X0368317Y0171642D02*
X0369818Y0170141D01*
X0365314Y0173244D02*
X0365314Y0176246D01*
X0365314Y0174745D02*
X0369818Y0174745D01*
X0368317Y0176246D01*
X0369818Y0177847D02*
X0366065Y0177847D01*
X0365314Y0178598D01*
X0365314Y0180099D01*
X0366065Y0180850D01*
X0369818Y0180850D01*
M02*
