G75*
%MOIN*%
%OFA0B0*%
%FSLAX25Y25*%
%IPPOS*%
%LPD*%
%AMOC8*
5,1,8,0,0,1.08239X$1,22.5*
%
%ADD10C,0.06000*%
%ADD11R,0.05118X0.05906*%
%ADD12R,0.09449X0.09449*%
%ADD13C,0.05600*%
%ADD14OC8,0.19000*%
%ADD15C,0.03000*%
%ADD16C,0.04000*%
%ADD17C,0.02000*%
%ADD18OC8,0.08268*%
%ADD19OC8,0.04000*%
%ADD20C,0.03200*%
%ADD21C,0.01600*%
%ADD22C,0.03962*%
%ADD23C,0.01000*%
%ADD24C,0.01200*%
%ADD25OC8,0.03962*%
%ADD26C,0.02400*%
%ADD27R,0.04000X0.04000*%
D10*
X0182064Y0012500D02*
X0182064Y0018500D01*
X0192064Y0018500D02*
X0192064Y0012500D01*
X0202064Y0012500D02*
X0202064Y0018500D01*
X0212064Y0018500D02*
X0212064Y0012500D01*
X0222064Y0012500D02*
X0222064Y0018500D01*
X0232064Y0018500D02*
X0232064Y0012500D01*
X0242064Y0012500D02*
X0242064Y0018500D01*
X0252064Y0018500D02*
X0252064Y0012500D01*
X0272064Y0012500D02*
X0272064Y0018500D01*
X0282064Y0018500D02*
X0282064Y0012500D01*
X0292064Y0012500D02*
X0292064Y0018500D01*
X0302064Y0018500D02*
X0302064Y0012500D01*
X0312064Y0012500D02*
X0312064Y0018500D01*
X0322064Y0018500D02*
X0322064Y0012500D01*
X0367064Y0082500D02*
X0367064Y0088500D01*
X0377064Y0088500D02*
X0377064Y0082500D01*
X0322064Y0202500D02*
X0322064Y0208500D01*
X0312064Y0208500D02*
X0312064Y0202500D01*
X0302064Y0202500D02*
X0302064Y0208500D01*
X0292064Y0208500D02*
X0292064Y0202500D01*
X0282064Y0202500D02*
X0282064Y0208500D01*
X0272064Y0208500D02*
X0272064Y0202500D01*
X0262064Y0202500D02*
X0262064Y0208500D01*
X0252064Y0208500D02*
X0252064Y0202500D01*
X0236070Y0202462D02*
X0236070Y0208462D01*
X0226070Y0208462D02*
X0226070Y0202462D01*
X0216070Y0202462D02*
X0216070Y0208462D01*
X0206070Y0208462D02*
X0206070Y0202462D01*
X0196070Y0202462D02*
X0196070Y0208462D01*
X0186070Y0208462D02*
X0186070Y0202462D01*
X0176070Y0202462D02*
X0176070Y0208462D01*
X0166070Y0208462D02*
X0166070Y0202462D01*
X0156070Y0202462D02*
X0156070Y0208462D01*
X0146070Y0208462D02*
X0146070Y0202462D01*
D11*
X0183324Y0095500D03*
X0190805Y0095500D03*
X0190805Y0085500D03*
X0183324Y0085500D03*
X0150805Y0075500D03*
X0143324Y0075500D03*
X0143324Y0060500D03*
X0150805Y0060500D03*
D12*
X0087064Y0071839D03*
X0087064Y0089161D03*
D13*
X0109264Y0090500D02*
X0114864Y0090500D01*
X0114864Y0080500D02*
X0109264Y0080500D01*
X0109264Y0100500D02*
X0114864Y0100500D01*
X0217064Y0132700D02*
X0217064Y0138300D01*
X0227064Y0138300D02*
X0227064Y0132700D01*
X0237064Y0132700D02*
X0237064Y0138300D01*
X0237064Y0157700D02*
X0237064Y0163300D01*
X0227064Y0163300D02*
X0227064Y0157700D01*
X0217064Y0157700D02*
X0217064Y0163300D01*
X0269264Y0060500D02*
X0274864Y0060500D01*
X0274864Y0050500D02*
X0269264Y0050500D01*
X0269264Y0040500D02*
X0274864Y0040500D01*
X0294264Y0040500D02*
X0299864Y0040500D01*
X0299864Y0050500D02*
X0294264Y0050500D01*
X0294264Y0060500D02*
X0299864Y0060500D01*
D14*
X0093464Y0042700D03*
X0117064Y0042700D03*
X0105264Y0023000D03*
D15*
X0150805Y0060500D02*
X0150814Y0060850D01*
X0150814Y0075250D01*
X0150805Y0075500D01*
X0152164Y0076150D01*
X0167914Y0076150D01*
X0171289Y0079525D01*
X0170614Y0080200D01*
X0158464Y0136450D02*
X0158014Y0136450D01*
X0158464Y0136450D02*
X0163414Y0141400D01*
X0163414Y0180550D01*
X0229564Y0180550D01*
X0341164Y0183900D02*
X0341164Y0136000D01*
X0343864Y0133300D01*
X0344314Y0131950D01*
X0344314Y0057700D01*
X0348814Y0091900D02*
X0357364Y0100450D01*
D16*
X0357364Y0100450D03*
X0348814Y0091900D03*
X0324064Y0099500D03*
X0306864Y0114000D03*
X0295964Y0118700D03*
X0295664Y0129400D03*
X0319714Y0120200D03*
X0344314Y0131950D03*
X0361864Y0135100D03*
X0364564Y0125200D03*
X0330964Y0146100D03*
X0317764Y0156700D03*
X0308764Y0167500D03*
X0320464Y0173800D03*
X0341164Y0183900D03*
X0354964Y0183900D03*
X0351864Y0148500D03*
X0294564Y0098000D03*
X0287064Y0090500D03*
X0277064Y0085500D03*
X0322064Y0085500D03*
X0366464Y0071300D03*
X0344314Y0057700D03*
X0358264Y0053650D03*
X0377064Y0050500D03*
X0262064Y0145500D03*
X0204764Y0151900D03*
X0206364Y0168800D03*
X0229564Y0180550D03*
X0222064Y0190500D03*
X0163414Y0180550D03*
X0158464Y0170200D03*
X0151264Y0170200D03*
X0137064Y0160500D03*
X0158914Y0154900D03*
X0143264Y0143650D03*
X0158014Y0136450D03*
X0163414Y0141400D03*
X0175364Y0141200D03*
X0177064Y0130500D03*
X0205264Y0094400D03*
X0170614Y0080200D03*
X0080764Y0172400D03*
X0082064Y0205500D03*
D17*
X0076564Y0134100D02*
X0087064Y0134000D01*
X0087064Y0115500D01*
X0092064Y0110500D01*
X0097064Y0110500D01*
X0097064Y0105500D01*
X0092064Y0100500D01*
X0087064Y0100500D01*
X0076864Y0111000D01*
X0077064Y0122100D01*
X0076564Y0134100D01*
X0076593Y0133405D02*
X0087064Y0133405D01*
X0087064Y0131406D02*
X0076677Y0131406D01*
X0076760Y0129408D02*
X0087064Y0129408D01*
X0087064Y0127409D02*
X0076843Y0127409D01*
X0076927Y0125411D02*
X0087064Y0125411D01*
X0087064Y0123412D02*
X0077010Y0123412D01*
X0077052Y0121414D02*
X0087064Y0121414D01*
X0087064Y0119415D02*
X0077016Y0119415D01*
X0076980Y0117417D02*
X0087064Y0117417D01*
X0087146Y0115418D02*
X0076944Y0115418D01*
X0076908Y0113420D02*
X0089145Y0113420D01*
X0091143Y0111421D02*
X0076872Y0111421D01*
X0078397Y0109423D02*
X0097064Y0109423D01*
X0097064Y0107424D02*
X0080338Y0107424D01*
X0082280Y0105426D02*
X0096990Y0105426D01*
X0094991Y0103427D02*
X0084221Y0103427D01*
X0086162Y0101429D02*
X0092993Y0101429D01*
X0294564Y0098000D02*
X0294564Y0088000D01*
X0367064Y0130500D02*
X0372295Y0128389D01*
X0367064Y0145000D02*
X0364564Y0147500D01*
X0364564Y0148000D01*
X0364064Y0148500D01*
X0364064Y0153500D01*
D18*
X0372295Y0128389D03*
X0372064Y0028000D03*
X0387064Y0028500D03*
X0162064Y0020500D03*
X0147064Y0020500D03*
D19*
X0212064Y0042000D03*
X0229464Y0050500D03*
X0211964Y0053300D03*
X0246664Y0042500D03*
X0252964Y0042500D03*
X0257964Y0072800D03*
X0257864Y0078600D03*
X0247164Y0078000D03*
X0241864Y0077800D03*
X0229064Y0073800D03*
X0210864Y0074200D03*
X0203864Y0073600D03*
X0187064Y0109500D03*
X0187064Y0115500D03*
X0187064Y0120500D03*
X0104164Y0138400D03*
X0094464Y0124300D03*
X0081993Y0121594D03*
X0082204Y0115083D03*
X0093807Y0107386D03*
X0089639Y0103035D03*
X0349564Y0117000D03*
X0364064Y0153500D03*
D20*
X0364064Y0148000D01*
X0363064Y0147000D01*
X0363064Y0146500D01*
X0354064Y0137500D01*
X0354064Y0122000D01*
X0349564Y0117500D01*
X0349564Y0117000D01*
X0330964Y0095600D02*
X0322064Y0086700D01*
X0322064Y0085500D01*
X0330964Y0095600D02*
X0330964Y0146100D01*
X0351864Y0148500D02*
X0351864Y0181300D01*
X0354964Y0183900D01*
X0355064Y0184500D01*
X0289564Y0108000D02*
X0262064Y0135500D01*
X0262064Y0145500D01*
X0237064Y0170500D02*
X0212064Y0170500D01*
X0210364Y0168800D01*
X0206364Y0168800D01*
X0209464Y0165700D01*
X0209464Y0156700D01*
X0204764Y0152000D01*
X0204764Y0151900D01*
X0198464Y0151900D01*
X0177064Y0130500D01*
X0177064Y0125500D01*
X0187064Y0125500D01*
X0187064Y0109500D01*
X0183324Y0095500D02*
X0183324Y0085500D01*
X0177349Y0079525D01*
X0171289Y0079525D01*
X0190805Y0085500D02*
X0191905Y0086600D01*
X0191905Y0094400D01*
X0190805Y0095500D01*
X0191905Y0094400D02*
X0205264Y0094400D01*
X0208464Y0094400D01*
X0222214Y0080650D01*
X0229064Y0073800D01*
X0232064Y0072669D02*
X0222064Y0072669D01*
X0222064Y0069470D02*
X0232064Y0069470D01*
X0238464Y0069470D02*
X0262064Y0069470D01*
X0262064Y0072669D02*
X0238464Y0072669D01*
X0238464Y0075867D02*
X0262064Y0075867D01*
X0262064Y0079066D02*
X0238464Y0079066D01*
X0238464Y0079500D02*
X0262064Y0079500D01*
X0262064Y0062977D01*
X0261664Y0062012D01*
X0261664Y0058988D01*
X0262064Y0058023D01*
X0262064Y0052977D01*
X0261664Y0052012D01*
X0261664Y0048988D01*
X0262064Y0048023D01*
X0262064Y0042977D01*
X0261664Y0042012D01*
X0261664Y0040500D01*
X0238464Y0040500D01*
X0238464Y0079500D01*
X0232064Y0079066D02*
X0222064Y0079066D01*
X0222064Y0080500D02*
X0232064Y0080500D01*
X0232064Y0040500D01*
X0222064Y0040500D01*
X0222064Y0080500D01*
X0222064Y0075867D02*
X0232064Y0075867D01*
X0215664Y0075404D02*
X0215664Y0040500D01*
X0192064Y0040500D01*
X0192064Y0075500D01*
X0215664Y0075404D01*
X0215664Y0072669D02*
X0192064Y0072669D01*
X0192064Y0069470D02*
X0215664Y0069470D01*
X0215664Y0066272D02*
X0192064Y0066272D01*
X0192064Y0063073D02*
X0215664Y0063073D01*
X0215664Y0059875D02*
X0192064Y0059875D01*
X0192064Y0056676D02*
X0215664Y0056676D01*
X0215664Y0053478D02*
X0192064Y0053478D01*
X0192064Y0050279D02*
X0215664Y0050279D01*
X0215664Y0047081D02*
X0192064Y0047081D01*
X0192064Y0043882D02*
X0215664Y0043882D01*
X0215664Y0040684D02*
X0192064Y0040684D01*
X0222064Y0040684D02*
X0232064Y0040684D01*
X0232064Y0043882D02*
X0222064Y0043882D01*
X0222064Y0047081D02*
X0232064Y0047081D01*
X0232064Y0050279D02*
X0222064Y0050279D01*
X0222064Y0053478D02*
X0232064Y0053478D01*
X0232064Y0056676D02*
X0222064Y0056676D01*
X0222064Y0059875D02*
X0232064Y0059875D01*
X0232064Y0063073D02*
X0222064Y0063073D01*
X0222064Y0066272D02*
X0232064Y0066272D01*
X0238464Y0066272D02*
X0262064Y0066272D01*
X0262064Y0063073D02*
X0238464Y0063073D01*
X0238464Y0059875D02*
X0261664Y0059875D01*
X0262064Y0056676D02*
X0238464Y0056676D01*
X0238464Y0053478D02*
X0262064Y0053478D01*
X0261664Y0050279D02*
X0238464Y0050279D01*
X0238464Y0047081D02*
X0262064Y0047081D01*
X0262064Y0043882D02*
X0238464Y0043882D01*
X0238464Y0040684D02*
X0261664Y0040684D01*
X0287064Y0090500D02*
X0292064Y0105500D01*
X0289564Y0108000D01*
X0295564Y0114000D01*
X0366464Y0071300D02*
X0377064Y0060700D01*
X0377064Y0050500D01*
X0175364Y0141200D02*
X0175164Y0141400D01*
X0163414Y0141400D01*
X0137064Y0160500D02*
X0127064Y0170500D01*
X0127064Y0190500D01*
X0137064Y0190500D01*
X0153664Y0190500D02*
X0153664Y0177600D01*
X0137064Y0160500D02*
X0127064Y0150500D01*
X0107064Y0150500D01*
X0104164Y0147600D01*
X0104164Y0138400D01*
X0104164Y0134000D01*
X0094464Y0124300D01*
X0082064Y0170500D02*
X0077064Y0170500D01*
X0077064Y0210500D01*
X0082064Y0210500D01*
X0087064Y0205500D01*
X0087064Y0175500D01*
X0082064Y0170500D01*
X0083387Y0171823D02*
X0077064Y0171823D01*
X0077064Y0175021D02*
X0086586Y0175021D01*
X0087064Y0178220D02*
X0077064Y0178220D01*
X0077064Y0181418D02*
X0087064Y0181418D01*
X0087064Y0184617D02*
X0077064Y0184617D01*
X0077064Y0187815D02*
X0087064Y0187815D01*
X0087064Y0191014D02*
X0077064Y0191014D01*
X0077064Y0194212D02*
X0087064Y0194212D01*
X0087064Y0197411D02*
X0077064Y0197411D01*
X0077064Y0200609D02*
X0087064Y0200609D01*
X0087064Y0203808D02*
X0077064Y0203808D01*
X0077064Y0207006D02*
X0085558Y0207006D01*
X0082360Y0210205D02*
X0077064Y0210205D01*
X0222064Y0190500D02*
X0232064Y0190500D01*
X0242064Y0180500D01*
X0242064Y0175500D01*
X0237064Y0170500D01*
D21*
X0275564Y0176000D02*
X0282564Y0169000D01*
X0291064Y0169000D01*
X0299564Y0160500D01*
X0310814Y0160500D01*
X0316189Y0155125D01*
X0317764Y0156700D01*
X0316189Y0155125D02*
X0317314Y0154000D01*
X0317164Y0153650D02*
X0317164Y0126600D01*
X0317164Y0122750D01*
X0312464Y0117100D02*
X0312464Y0131600D01*
X0312564Y0131600D01*
X0312564Y0131500D01*
X0312564Y0131600D02*
X0310664Y0133500D01*
X0306564Y0133500D01*
X0304564Y0135500D01*
X0311064Y0133000D02*
X0312464Y0131600D01*
X0295964Y0129100D02*
X0295664Y0129400D01*
X0295964Y0129100D02*
X0295964Y0118700D01*
X0295564Y0114000D02*
X0306864Y0114000D01*
X0319964Y0105500D02*
X0325964Y0105500D01*
X0326064Y0110500D02*
X0326064Y0191000D01*
X0325564Y0191000D02*
X0322564Y0194000D01*
X0316564Y0194000D01*
X0311564Y0189000D01*
X0292305Y0189000D01*
X0292064Y0189240D02*
X0292064Y0205500D01*
X0282214Y0205300D02*
X0282064Y0205150D01*
X0282064Y0189240D01*
X0275564Y0182740D01*
X0275564Y0176000D01*
X0306664Y0173000D02*
X0319664Y0186000D01*
X0320464Y0173800D02*
X0314164Y0167500D01*
X0308764Y0167500D01*
X0363064Y0147000D02*
X0365064Y0147000D01*
X0367064Y0145000D01*
X0367064Y0130500D01*
X0361864Y0132800D02*
X0359564Y0130500D01*
X0359564Y0109000D01*
X0361564Y0107000D01*
X0361564Y0097500D01*
X0360964Y0096900D02*
X0357564Y0093500D01*
X0357564Y0065500D01*
X0367564Y0055500D01*
X0367564Y0048300D01*
X0367264Y0048000D01*
X0367264Y0047350D01*
X0365014Y0045100D01*
X0311464Y0045100D01*
X0306564Y0050000D01*
X0297564Y0050000D01*
X0301149Y0023100D02*
X0299459Y0022400D01*
X0298165Y0021106D01*
X0297464Y0019415D01*
X0297464Y0011585D01*
X0298165Y0009894D01*
X0299459Y0008600D01*
X0301149Y0007900D01*
X0302979Y0007900D01*
X0304670Y0008600D01*
X0305964Y0009894D01*
X0306664Y0011585D01*
X0306664Y0019415D01*
X0305964Y0021106D01*
X0304670Y0022400D01*
X0302979Y0023100D01*
X0301149Y0023100D01*
X0301110Y0023084D02*
X0293019Y0023084D01*
X0292979Y0023100D02*
X0291149Y0023100D01*
X0289459Y0022400D01*
X0288165Y0021106D01*
X0287464Y0019415D01*
X0287464Y0011585D01*
X0288165Y0009894D01*
X0289459Y0008600D01*
X0291149Y0007900D01*
X0292979Y0007900D01*
X0294670Y0008600D01*
X0295964Y0009894D01*
X0296664Y0011585D01*
X0296664Y0019415D01*
X0295964Y0021106D01*
X0294670Y0022400D01*
X0292979Y0023100D01*
X0291110Y0023084D02*
X0283019Y0023084D01*
X0282979Y0023100D02*
X0281149Y0023100D01*
X0279459Y0022400D01*
X0278165Y0021106D01*
X0277464Y0019415D01*
X0277464Y0011585D01*
X0278165Y0009894D01*
X0279459Y0008600D01*
X0281149Y0007900D01*
X0282979Y0007900D01*
X0284670Y0008600D01*
X0285964Y0009894D01*
X0286664Y0011585D01*
X0286664Y0019415D01*
X0285964Y0021106D01*
X0284670Y0022400D01*
X0282979Y0023100D01*
X0281110Y0023084D02*
X0273019Y0023084D01*
X0272979Y0023100D02*
X0271149Y0023100D01*
X0269459Y0022400D01*
X0268165Y0021106D01*
X0267464Y0019415D01*
X0267464Y0011585D01*
X0268165Y0009894D01*
X0269459Y0008600D01*
X0271149Y0007900D01*
X0272979Y0007900D01*
X0274670Y0008600D01*
X0275964Y0009894D01*
X0276664Y0011585D01*
X0276664Y0019415D01*
X0275964Y0021106D01*
X0274670Y0022400D01*
X0272979Y0023100D01*
X0271110Y0023084D02*
X0253019Y0023084D01*
X0252979Y0023100D02*
X0251149Y0023100D01*
X0249459Y0022400D01*
X0248165Y0021106D01*
X0247464Y0019415D01*
X0247464Y0011585D01*
X0248165Y0009894D01*
X0249459Y0008600D01*
X0251149Y0007900D01*
X0252979Y0007900D01*
X0254670Y0008600D01*
X0255964Y0009894D01*
X0256664Y0011585D01*
X0256664Y0019415D01*
X0255964Y0021106D01*
X0254670Y0022400D01*
X0252979Y0023100D01*
X0251110Y0023084D02*
X0243491Y0023084D01*
X0243188Y0023182D02*
X0242442Y0023300D01*
X0242264Y0023300D01*
X0242264Y0015700D01*
X0241864Y0015700D01*
X0241864Y0015300D01*
X0237264Y0015300D01*
X0237264Y0012122D01*
X0237383Y0011376D01*
X0237616Y0010657D01*
X0237959Y0009984D01*
X0238403Y0009373D01*
X0238937Y0008839D01*
X0239549Y0008395D01*
X0240222Y0008052D01*
X0240940Y0007818D01*
X0241687Y0007700D01*
X0241864Y0007700D01*
X0241864Y0015300D01*
X0242264Y0015300D01*
X0242264Y0007700D01*
X0242442Y0007700D01*
X0243188Y0007818D01*
X0243907Y0008052D01*
X0244580Y0008395D01*
X0245191Y0008839D01*
X0245726Y0009373D01*
X0246170Y0009984D01*
X0246513Y0010657D01*
X0246746Y0011376D01*
X0246864Y0012122D01*
X0246864Y0015300D01*
X0242265Y0015300D01*
X0242265Y0015700D01*
X0246864Y0015700D01*
X0246864Y0018878D01*
X0246746Y0019624D01*
X0246513Y0020343D01*
X0246170Y0021016D01*
X0245726Y0021627D01*
X0245191Y0022161D01*
X0244580Y0022605D01*
X0243907Y0022948D01*
X0243188Y0023182D01*
X0242264Y0023084D02*
X0241864Y0023084D01*
X0241864Y0023300D02*
X0241687Y0023300D01*
X0240940Y0023182D01*
X0240222Y0022948D01*
X0239549Y0022605D01*
X0238937Y0022161D01*
X0238403Y0021627D01*
X0237959Y0021016D01*
X0237616Y0020343D01*
X0237383Y0019624D01*
X0237264Y0018878D01*
X0237264Y0015700D01*
X0241864Y0015700D01*
X0241864Y0023300D01*
X0240638Y0023084D02*
X0233491Y0023084D01*
X0233188Y0023182D02*
X0232442Y0023300D01*
X0232264Y0023300D01*
X0232264Y0015700D01*
X0231864Y0015700D01*
X0231864Y0015300D01*
X0227264Y0015300D01*
X0227264Y0012122D01*
X0227383Y0011376D01*
X0227616Y0010657D01*
X0227959Y0009984D01*
X0228403Y0009373D01*
X0228937Y0008839D01*
X0229549Y0008395D01*
X0230222Y0008052D01*
X0230940Y0007818D01*
X0231687Y0007700D01*
X0231864Y0007700D01*
X0231864Y0015300D01*
X0232264Y0015300D01*
X0232264Y0007700D01*
X0232442Y0007700D01*
X0233188Y0007818D01*
X0233907Y0008052D01*
X0234580Y0008395D01*
X0235191Y0008839D01*
X0235726Y0009373D01*
X0236170Y0009984D01*
X0236513Y0010657D01*
X0236746Y0011376D01*
X0236864Y0012122D01*
X0236864Y0015300D01*
X0232265Y0015300D01*
X0232265Y0015700D01*
X0236864Y0015700D01*
X0236864Y0018878D01*
X0236746Y0019624D01*
X0236513Y0020343D01*
X0236170Y0021016D01*
X0235726Y0021627D01*
X0235191Y0022161D01*
X0234580Y0022605D01*
X0233907Y0022948D01*
X0233188Y0023182D01*
X0232264Y0023084D02*
X0231864Y0023084D01*
X0231864Y0023300D02*
X0231687Y0023300D01*
X0230940Y0023182D01*
X0230222Y0022948D01*
X0229549Y0022605D01*
X0228937Y0022161D01*
X0228403Y0021627D01*
X0227959Y0021016D01*
X0227616Y0020343D01*
X0227383Y0019624D01*
X0227264Y0018878D01*
X0227264Y0015700D01*
X0231864Y0015700D01*
X0231864Y0023300D01*
X0230638Y0023084D02*
X0223019Y0023084D01*
X0222979Y0023100D02*
X0221149Y0023100D01*
X0219459Y0022400D01*
X0218165Y0021106D01*
X0217464Y0019415D01*
X0217464Y0011585D01*
X0218165Y0009894D01*
X0219459Y0008600D01*
X0221149Y0007900D01*
X0222979Y0007900D01*
X0224670Y0008600D01*
X0225964Y0009894D01*
X0226664Y0011585D01*
X0226664Y0019415D01*
X0225964Y0021106D01*
X0224670Y0022400D01*
X0222979Y0023100D01*
X0221110Y0023084D02*
X0213019Y0023084D01*
X0212979Y0023100D02*
X0211149Y0023100D01*
X0209459Y0022400D01*
X0208165Y0021106D01*
X0207464Y0019415D01*
X0207464Y0011585D01*
X0208165Y0009894D01*
X0209459Y0008600D01*
X0211149Y0007900D01*
X0212979Y0007900D01*
X0214670Y0008600D01*
X0215964Y0009894D01*
X0216664Y0011585D01*
X0216664Y0019415D01*
X0215964Y0021106D01*
X0214670Y0022400D01*
X0212979Y0023100D01*
X0211110Y0023084D02*
X0203019Y0023084D01*
X0202979Y0023100D02*
X0201149Y0023100D01*
X0199459Y0022400D01*
X0198165Y0021106D01*
X0197464Y0019415D01*
X0197464Y0011585D01*
X0198165Y0009894D01*
X0199459Y0008600D01*
X0201149Y0007900D01*
X0202979Y0007900D01*
X0204670Y0008600D01*
X0205964Y0009894D01*
X0206664Y0011585D01*
X0206664Y0019415D01*
X0205964Y0021106D01*
X0204670Y0022400D01*
X0202979Y0023100D01*
X0201110Y0023084D02*
X0193019Y0023084D01*
X0192979Y0023100D02*
X0191149Y0023100D01*
X0189459Y0022400D01*
X0188165Y0021106D01*
X0187464Y0019415D01*
X0187464Y0011585D01*
X0188165Y0009894D01*
X0189459Y0008600D01*
X0191149Y0007900D01*
X0192979Y0007900D01*
X0194670Y0008600D01*
X0195964Y0009894D01*
X0196664Y0011585D01*
X0196664Y0019415D01*
X0195964Y0021106D01*
X0194670Y0022400D01*
X0192979Y0023100D01*
X0191110Y0023084D02*
X0183019Y0023084D01*
X0182979Y0023100D02*
X0181149Y0023100D01*
X0179459Y0022400D01*
X0178165Y0021106D01*
X0177464Y0019415D01*
X0177464Y0011585D01*
X0178165Y0009894D01*
X0179459Y0008600D01*
X0181149Y0007900D01*
X0182979Y0007900D01*
X0184670Y0008600D01*
X0185964Y0009894D01*
X0186664Y0011585D01*
X0186664Y0019415D01*
X0185964Y0021106D01*
X0184670Y0022400D01*
X0182979Y0023100D01*
X0181110Y0023084D02*
X0139564Y0023084D01*
X0139564Y0024682D02*
X0396386Y0024682D01*
X0396386Y0023084D02*
X0323019Y0023084D01*
X0322979Y0023100D02*
X0321149Y0023100D01*
X0319459Y0022400D01*
X0318165Y0021106D01*
X0317464Y0019415D01*
X0317464Y0011585D01*
X0318165Y0009894D01*
X0319459Y0008600D01*
X0321149Y0007900D01*
X0322979Y0007900D01*
X0324670Y0008600D01*
X0325964Y0009894D01*
X0326664Y0011585D01*
X0326664Y0019415D01*
X0325964Y0021106D01*
X0324670Y0022400D01*
X0322979Y0023100D01*
X0321110Y0023084D02*
X0313019Y0023084D01*
X0312979Y0023100D02*
X0311149Y0023100D01*
X0309459Y0022400D01*
X0308165Y0021106D01*
X0307464Y0019415D01*
X0307464Y0011585D01*
X0308165Y0009894D01*
X0309459Y0008600D01*
X0311149Y0007900D01*
X0312979Y0007900D01*
X0314670Y0008600D01*
X0315964Y0009894D01*
X0316664Y0011585D01*
X0316664Y0019415D01*
X0315964Y0021106D01*
X0314670Y0022400D01*
X0312979Y0023100D01*
X0311110Y0023084D02*
X0303019Y0023084D01*
X0305585Y0021485D02*
X0308544Y0021485D01*
X0307660Y0019887D02*
X0306469Y0019887D01*
X0306664Y0018288D02*
X0307464Y0018288D01*
X0307464Y0016690D02*
X0306664Y0016690D01*
X0306664Y0015091D02*
X0307464Y0015091D01*
X0307464Y0013493D02*
X0306664Y0013493D01*
X0306664Y0011894D02*
X0307464Y0011894D01*
X0307999Y0010296D02*
X0306130Y0010296D01*
X0304767Y0008697D02*
X0309362Y0008697D01*
X0314767Y0008697D02*
X0319362Y0008697D01*
X0317999Y0010296D02*
X0316130Y0010296D01*
X0316664Y0011894D02*
X0317464Y0011894D01*
X0317464Y0013493D02*
X0316664Y0013493D01*
X0316664Y0015091D02*
X0317464Y0015091D01*
X0317464Y0016690D02*
X0316664Y0016690D01*
X0316664Y0018288D02*
X0317464Y0018288D01*
X0317660Y0019887D02*
X0316469Y0019887D01*
X0315585Y0021485D02*
X0318544Y0021485D01*
X0325585Y0021485D02*
X0396386Y0021485D01*
X0396386Y0019887D02*
X0326469Y0019887D01*
X0326664Y0018288D02*
X0396386Y0018288D01*
X0396386Y0016690D02*
X0326664Y0016690D01*
X0326664Y0015091D02*
X0396386Y0015091D01*
X0396386Y0013493D02*
X0326664Y0013493D01*
X0326664Y0011894D02*
X0396386Y0011894D01*
X0396386Y0010296D02*
X0326130Y0010296D01*
X0324767Y0008697D02*
X0396386Y0008697D01*
X0396386Y0007100D02*
X0172000Y0007100D01*
X0167564Y0014000D01*
X0139564Y0014000D01*
X0139564Y0025500D01*
X0362064Y0025500D01*
X0372064Y0035500D01*
X0396386Y0035500D01*
X0396386Y0007100D01*
X0396386Y0026281D02*
X0362845Y0026281D01*
X0364444Y0027879D02*
X0396386Y0027879D01*
X0396386Y0029478D02*
X0366042Y0029478D01*
X0367641Y0031076D02*
X0396386Y0031076D01*
X0396386Y0032675D02*
X0369239Y0032675D01*
X0370838Y0034273D02*
X0396386Y0034273D01*
X0376714Y0085600D02*
X0364564Y0097750D01*
X0364564Y0125200D01*
X0361864Y0132800D02*
X0361864Y0135100D01*
X0191564Y0170000D02*
X0176064Y0170000D01*
X0171564Y0165500D01*
X0171564Y0154500D01*
X0158914Y0154900D02*
X0158914Y0170200D01*
X0158914Y0202600D01*
X0156214Y0205300D01*
X0146314Y0205300D02*
X0146314Y0175150D01*
X0151264Y0170200D01*
X0154514Y0154900D02*
X0143264Y0143650D01*
X0117064Y0105500D02*
X0102064Y0105500D01*
X0092064Y0095500D01*
X0077064Y0095500D01*
X0077064Y0080500D01*
X0092064Y0080500D01*
X0107170Y0098483D01*
X0117170Y0098483D01*
X0117064Y0105500D01*
X0117078Y0104608D02*
X0101172Y0104608D01*
X0099574Y0103009D02*
X0117102Y0103009D01*
X0117126Y0101411D02*
X0097975Y0101411D01*
X0096377Y0099812D02*
X0117150Y0099812D01*
X0121948Y0094616D02*
X0110848Y0094596D01*
X0110561Y0094182D01*
X0109812Y0094582D01*
X0107764Y0092535D01*
X0107264Y0088300D01*
X0111964Y0086100D01*
X0119664Y0086200D01*
X0137064Y0065500D01*
X0137064Y0060500D01*
X0142064Y0055500D01*
X0146917Y0055500D01*
X0146886Y0055513D01*
X0146211Y0056188D01*
X0145846Y0057070D01*
X0145846Y0063930D01*
X0146211Y0064812D01*
X0146886Y0065487D01*
X0146914Y0065499D01*
X0146914Y0070501D01*
X0146886Y0070513D01*
X0146211Y0071188D01*
X0145846Y0072070D01*
X0145846Y0078930D01*
X0146211Y0079812D01*
X0146886Y0080487D01*
X0146917Y0080500D01*
X0137064Y0080500D01*
X0121948Y0094616D01*
X0123231Y0093418D02*
X0108647Y0093418D01*
X0107680Y0091820D02*
X0124943Y0091820D01*
X0126655Y0090221D02*
X0107491Y0090221D01*
X0107303Y0088623D02*
X0128366Y0088623D01*
X0130078Y0087024D02*
X0109990Y0087024D01*
X0101573Y0091820D02*
X0077064Y0091820D01*
X0077064Y0093418D02*
X0102915Y0093418D01*
X0104258Y0095017D02*
X0077064Y0095017D01*
X0077064Y0090221D02*
X0100230Y0090221D01*
X0098887Y0088623D02*
X0077064Y0088623D01*
X0077064Y0087024D02*
X0097545Y0087024D01*
X0096202Y0085426D02*
X0077064Y0085426D01*
X0077064Y0083827D02*
X0094859Y0083827D01*
X0093516Y0082229D02*
X0077064Y0082229D01*
X0077064Y0080630D02*
X0092174Y0080630D01*
X0097064Y0075500D02*
X0077064Y0075500D01*
X0077064Y0065500D01*
X0092064Y0065500D01*
X0107064Y0050500D01*
X0107064Y0040500D01*
X0117064Y0030500D01*
X0122064Y0030500D01*
X0127064Y0035500D01*
X0127064Y0045500D01*
X0097064Y0075500D01*
X0098328Y0074236D02*
X0077064Y0074236D01*
X0077064Y0072637D02*
X0099927Y0072637D01*
X0101525Y0071039D02*
X0077064Y0071039D01*
X0077064Y0069440D02*
X0103124Y0069440D01*
X0104723Y0067842D02*
X0077064Y0067842D01*
X0077064Y0066243D02*
X0106321Y0066243D01*
X0107920Y0064645D02*
X0092920Y0064645D01*
X0094518Y0063046D02*
X0109518Y0063046D01*
X0111117Y0061448D02*
X0096117Y0061448D01*
X0097715Y0059849D02*
X0112715Y0059849D01*
X0114314Y0058251D02*
X0099314Y0058251D01*
X0100912Y0056652D02*
X0115912Y0056652D01*
X0117511Y0055054D02*
X0102511Y0055054D01*
X0104109Y0053455D02*
X0119109Y0053455D01*
X0120708Y0051857D02*
X0105708Y0051857D01*
X0107064Y0050258D02*
X0122306Y0050258D01*
X0123905Y0048660D02*
X0107064Y0048660D01*
X0107064Y0047061D02*
X0125503Y0047061D01*
X0127064Y0045463D02*
X0107064Y0045463D01*
X0107064Y0043864D02*
X0127064Y0043864D01*
X0127064Y0042266D02*
X0107064Y0042266D01*
X0107064Y0040667D02*
X0127064Y0040667D01*
X0127064Y0039069D02*
X0108496Y0039069D01*
X0110094Y0037470D02*
X0127064Y0037470D01*
X0127064Y0035872D02*
X0111693Y0035872D01*
X0113291Y0034273D02*
X0125838Y0034273D01*
X0124239Y0032675D02*
X0114890Y0032675D01*
X0116488Y0031076D02*
X0122641Y0031076D01*
X0139564Y0021485D02*
X0178544Y0021485D01*
X0177660Y0019887D02*
X0139564Y0019887D01*
X0139564Y0018288D02*
X0177464Y0018288D01*
X0177464Y0016690D02*
X0139564Y0016690D01*
X0139564Y0015091D02*
X0177464Y0015091D01*
X0177464Y0013493D02*
X0167891Y0013493D01*
X0168918Y0011894D02*
X0177464Y0011894D01*
X0177999Y0010296D02*
X0169946Y0010296D01*
X0170973Y0008697D02*
X0179362Y0008697D01*
X0184767Y0008697D02*
X0189362Y0008697D01*
X0187999Y0010296D02*
X0186130Y0010296D01*
X0186664Y0011894D02*
X0187464Y0011894D01*
X0187464Y0013493D02*
X0186664Y0013493D01*
X0186664Y0015091D02*
X0187464Y0015091D01*
X0187464Y0016690D02*
X0186664Y0016690D01*
X0186664Y0018288D02*
X0187464Y0018288D01*
X0187660Y0019887D02*
X0186469Y0019887D01*
X0185585Y0021485D02*
X0188544Y0021485D01*
X0195585Y0021485D02*
X0198544Y0021485D01*
X0197660Y0019887D02*
X0196469Y0019887D01*
X0196664Y0018288D02*
X0197464Y0018288D01*
X0197464Y0016690D02*
X0196664Y0016690D01*
X0196664Y0015091D02*
X0197464Y0015091D01*
X0197464Y0013493D02*
X0196664Y0013493D01*
X0196664Y0011894D02*
X0197464Y0011894D01*
X0197999Y0010296D02*
X0196130Y0010296D01*
X0194767Y0008697D02*
X0199362Y0008697D01*
X0204767Y0008697D02*
X0209362Y0008697D01*
X0207999Y0010296D02*
X0206130Y0010296D01*
X0206664Y0011894D02*
X0207464Y0011894D01*
X0207464Y0013493D02*
X0206664Y0013493D01*
X0206664Y0015091D02*
X0207464Y0015091D01*
X0207464Y0016690D02*
X0206664Y0016690D01*
X0206664Y0018288D02*
X0207464Y0018288D01*
X0207660Y0019887D02*
X0206469Y0019887D01*
X0205585Y0021485D02*
X0208544Y0021485D01*
X0215585Y0021485D02*
X0218544Y0021485D01*
X0217660Y0019887D02*
X0216469Y0019887D01*
X0216664Y0018288D02*
X0217464Y0018288D01*
X0217464Y0016690D02*
X0216664Y0016690D01*
X0216664Y0015091D02*
X0217464Y0015091D01*
X0217464Y0013493D02*
X0216664Y0013493D01*
X0216664Y0011894D02*
X0217464Y0011894D01*
X0217999Y0010296D02*
X0216130Y0010296D01*
X0214767Y0008697D02*
X0219362Y0008697D01*
X0224767Y0008697D02*
X0229133Y0008697D01*
X0227801Y0010296D02*
X0226130Y0010296D01*
X0226664Y0011894D02*
X0227301Y0011894D01*
X0227264Y0013493D02*
X0226664Y0013493D01*
X0226664Y0015091D02*
X0227264Y0015091D01*
X0227264Y0016690D02*
X0226664Y0016690D01*
X0226664Y0018288D02*
X0227264Y0018288D01*
X0227468Y0019887D02*
X0226469Y0019887D01*
X0225585Y0021485D02*
X0228300Y0021485D01*
X0231864Y0021485D02*
X0232264Y0021485D01*
X0232264Y0019887D02*
X0231864Y0019887D01*
X0231864Y0018288D02*
X0232264Y0018288D01*
X0232264Y0016690D02*
X0231864Y0016690D01*
X0231864Y0015091D02*
X0232264Y0015091D01*
X0232264Y0013493D02*
X0231864Y0013493D01*
X0231864Y0011894D02*
X0232264Y0011894D01*
X0232264Y0010296D02*
X0231864Y0010296D01*
X0231864Y0008697D02*
X0232264Y0008697D01*
X0234996Y0008697D02*
X0239133Y0008697D01*
X0237801Y0010296D02*
X0236328Y0010296D01*
X0236828Y0011894D02*
X0237301Y0011894D01*
X0237264Y0013493D02*
X0236864Y0013493D01*
X0236864Y0015091D02*
X0237264Y0015091D01*
X0237264Y0016690D02*
X0236864Y0016690D01*
X0236864Y0018288D02*
X0237264Y0018288D01*
X0237468Y0019887D02*
X0236661Y0019887D01*
X0235829Y0021485D02*
X0238300Y0021485D01*
X0241864Y0021485D02*
X0242264Y0021485D01*
X0242264Y0019887D02*
X0241864Y0019887D01*
X0241864Y0018288D02*
X0242264Y0018288D01*
X0242264Y0016690D02*
X0241864Y0016690D01*
X0241864Y0015091D02*
X0242264Y0015091D01*
X0242264Y0013493D02*
X0241864Y0013493D01*
X0241864Y0011894D02*
X0242264Y0011894D01*
X0242264Y0010296D02*
X0241864Y0010296D01*
X0241864Y0008697D02*
X0242264Y0008697D01*
X0244996Y0008697D02*
X0249362Y0008697D01*
X0247999Y0010296D02*
X0246328Y0010296D01*
X0246828Y0011894D02*
X0247464Y0011894D01*
X0247464Y0013493D02*
X0246864Y0013493D01*
X0246864Y0015091D02*
X0247464Y0015091D01*
X0247464Y0016690D02*
X0246864Y0016690D01*
X0246864Y0018288D02*
X0247464Y0018288D01*
X0247660Y0019887D02*
X0246661Y0019887D01*
X0245829Y0021485D02*
X0248544Y0021485D01*
X0255585Y0021485D02*
X0268544Y0021485D01*
X0267660Y0019887D02*
X0256469Y0019887D01*
X0256664Y0018288D02*
X0267464Y0018288D01*
X0267464Y0016690D02*
X0256664Y0016690D01*
X0256664Y0015091D02*
X0267464Y0015091D01*
X0267464Y0013493D02*
X0256664Y0013493D01*
X0256664Y0011894D02*
X0267464Y0011894D01*
X0267999Y0010296D02*
X0256130Y0010296D01*
X0254767Y0008697D02*
X0269362Y0008697D01*
X0274767Y0008697D02*
X0279362Y0008697D01*
X0277999Y0010296D02*
X0276130Y0010296D01*
X0276664Y0011894D02*
X0277464Y0011894D01*
X0277464Y0013493D02*
X0276664Y0013493D01*
X0276664Y0015091D02*
X0277464Y0015091D01*
X0277464Y0016690D02*
X0276664Y0016690D01*
X0276664Y0018288D02*
X0277464Y0018288D01*
X0277660Y0019887D02*
X0276469Y0019887D01*
X0275585Y0021485D02*
X0278544Y0021485D01*
X0285585Y0021485D02*
X0288544Y0021485D01*
X0287660Y0019887D02*
X0286469Y0019887D01*
X0286664Y0018288D02*
X0287464Y0018288D01*
X0287464Y0016690D02*
X0286664Y0016690D01*
X0286664Y0015091D02*
X0287464Y0015091D01*
X0287464Y0013493D02*
X0286664Y0013493D01*
X0286664Y0011894D02*
X0287464Y0011894D01*
X0287999Y0010296D02*
X0286130Y0010296D01*
X0284767Y0008697D02*
X0289362Y0008697D01*
X0294767Y0008697D02*
X0299362Y0008697D01*
X0297999Y0010296D02*
X0296130Y0010296D01*
X0296664Y0011894D02*
X0297464Y0011894D01*
X0297464Y0013493D02*
X0296664Y0013493D01*
X0296664Y0015091D02*
X0297464Y0015091D01*
X0297464Y0016690D02*
X0296664Y0016690D01*
X0296664Y0018288D02*
X0297464Y0018288D01*
X0297660Y0019887D02*
X0296469Y0019887D01*
X0295585Y0021485D02*
X0298544Y0021485D01*
X0146018Y0056652D02*
X0140912Y0056652D01*
X0139314Y0058251D02*
X0145846Y0058251D01*
X0145846Y0059849D02*
X0137715Y0059849D01*
X0137064Y0061448D02*
X0145846Y0061448D01*
X0145846Y0063046D02*
X0137064Y0063046D01*
X0137064Y0064645D02*
X0146142Y0064645D01*
X0146914Y0066243D02*
X0136440Y0066243D01*
X0135096Y0067842D02*
X0146914Y0067842D01*
X0146914Y0069440D02*
X0133752Y0069440D01*
X0132409Y0071039D02*
X0146360Y0071039D01*
X0145846Y0072637D02*
X0131065Y0072637D01*
X0129721Y0074236D02*
X0145846Y0074236D01*
X0145846Y0075834D02*
X0128377Y0075834D01*
X0127034Y0077433D02*
X0145846Y0077433D01*
X0145888Y0079032D02*
X0125690Y0079032D01*
X0124346Y0080630D02*
X0136925Y0080630D01*
X0135213Y0082229D02*
X0123003Y0082229D01*
X0121659Y0083827D02*
X0133502Y0083827D01*
X0131790Y0085426D02*
X0120315Y0085426D01*
X0105601Y0096615D02*
X0093180Y0096615D01*
X0094778Y0098214D02*
X0106944Y0098214D01*
D22*
X0192064Y0170500D03*
X0312464Y0117100D03*
X0326264Y0105200D03*
D23*
X0325964Y0105500D01*
X0320064Y0105400D02*
X0319964Y0105500D01*
X0319714Y0120200D02*
X0317164Y0122750D01*
X0317164Y0122400D01*
X0319364Y0120200D01*
X0317064Y0126500D02*
X0317164Y0126600D01*
X0317164Y0153650D02*
X0317064Y0153750D01*
X0317314Y0154000D01*
X0306664Y0173000D02*
X0303564Y0173000D01*
X0319664Y0186000D02*
X0320064Y0186000D01*
X0292114Y0205300D02*
X0292064Y0205500D01*
X0282214Y0205300D02*
X0282064Y0205500D01*
X0192064Y0170500D02*
X0191564Y0170000D01*
X0158914Y0170200D02*
X0158464Y0170200D01*
X0158914Y0154900D02*
X0154514Y0154900D01*
X0158914Y0154900D02*
X0158914Y0154450D01*
X0156214Y0205300D02*
X0156070Y0205462D01*
X0146314Y0205300D02*
X0146070Y0205462D01*
X0376714Y0085600D02*
X0377064Y0085500D01*
X0358264Y0053650D02*
X0343414Y0053650D01*
X0297564Y0050000D02*
X0297064Y0050500D01*
D24*
X0360964Y0096900D02*
X0361564Y0097500D01*
X0319964Y0105500D02*
X0316564Y0102100D01*
X0316564Y0098500D01*
X0292305Y0189000D02*
X0292064Y0189240D01*
X0325564Y0191000D02*
X0326064Y0191000D01*
D25*
X0320064Y0186000D03*
X0303564Y0173000D03*
X0304564Y0135500D03*
X0326064Y0110500D03*
X0316564Y0098500D03*
X0171564Y0154500D03*
D26*
X0227064Y0085500D02*
X0222214Y0080650D01*
X0227064Y0085500D02*
X0277064Y0085500D01*
X0292064Y0085500D01*
X0294564Y0088000D01*
X0319364Y0120200D02*
X0319714Y0120200D01*
D27*
X0167064Y0190500D03*
X0153664Y0190500D03*
X0137064Y0190500D03*
X0153664Y0177600D03*
M02*
