G75*
%MOIN*%
%OFA0B0*%
%FSLAX25Y25*%
%IPPOS*%
%LPD*%
%AMOC8*
5,1,8,0,0,1.08239X$1,22.5*
%
%ADD10C,0.00000*%
%ADD11C,0.00400*%
%ADD12C,0.00300*%
%ADD13C,0.00600*%
%ADD14R,0.01181X0.00591*%
%ADD15R,0.01181X0.01181*%
%ADD16C,0.00200*%
%ADD17C,0.00500*%
D10*
X0072064Y0005500D02*
X0072187Y0215482D01*
X0397986Y0215198D01*
X0397986Y0005500D01*
X0072064Y0005500D01*
D11*
X0179964Y0024400D02*
X0179964Y0028003D01*
X0181766Y0028003D01*
X0182366Y0027403D01*
X0182366Y0026202D01*
X0181766Y0025601D01*
X0179964Y0025601D01*
X0183648Y0025001D02*
X0183648Y0027403D01*
X0184248Y0028003D01*
X0185449Y0028003D01*
X0186050Y0027403D01*
X0186050Y0025001D01*
X0185449Y0024400D01*
X0184248Y0024400D01*
X0183648Y0025001D01*
X0187331Y0024400D02*
X0187331Y0028003D01*
X0189733Y0028003D02*
X0189733Y0024400D01*
X0188532Y0025601D01*
X0187331Y0024400D01*
X0191014Y0024400D02*
X0191014Y0028003D01*
X0193416Y0028003D01*
X0194697Y0028003D02*
X0196499Y0028003D01*
X0197099Y0027403D01*
X0197099Y0026202D01*
X0196499Y0025601D01*
X0194697Y0025601D01*
X0194697Y0024400D02*
X0194697Y0028003D01*
X0195898Y0025601D02*
X0197099Y0024400D01*
X0193416Y0024400D02*
X0191014Y0024400D01*
X0191014Y0026202D02*
X0192215Y0026202D01*
X0269964Y0026302D02*
X0269964Y0023900D01*
X0269964Y0025702D02*
X0272366Y0025702D01*
X0272366Y0026302D02*
X0272366Y0023900D01*
X0273648Y0023900D02*
X0275449Y0023900D01*
X0276050Y0024501D01*
X0276050Y0026903D01*
X0275449Y0027503D01*
X0273648Y0027503D01*
X0273648Y0023900D01*
X0272366Y0026302D02*
X0271165Y0027503D01*
X0269964Y0026302D01*
X0284264Y0054651D02*
X0284864Y0055251D01*
X0284864Y0055852D01*
X0284264Y0056452D01*
X0281261Y0056452D01*
X0281261Y0055852D02*
X0281261Y0057053D01*
X0281261Y0058334D02*
X0281261Y0060135D01*
X0281862Y0060736D01*
X0283063Y0060736D01*
X0283663Y0060135D01*
X0283663Y0058334D01*
X0284864Y0058334D02*
X0281261Y0058334D01*
X0283063Y0062017D02*
X0281862Y0063218D01*
X0281261Y0064419D01*
X0283063Y0063818D02*
X0283063Y0062017D01*
X0284264Y0062017D01*
X0284864Y0062617D01*
X0284864Y0063818D01*
X0284264Y0064419D01*
X0283663Y0064419D01*
X0283063Y0063818D01*
X0305761Y0064419D02*
X0305761Y0062017D01*
X0307563Y0062017D01*
X0306962Y0063218D01*
X0306962Y0063818D01*
X0307563Y0064419D01*
X0308764Y0064419D01*
X0309364Y0063818D01*
X0309364Y0062617D01*
X0308764Y0062017D01*
X0307563Y0060736D02*
X0306362Y0060736D01*
X0305761Y0060135D01*
X0305761Y0058334D01*
X0309364Y0058334D01*
X0308163Y0058334D02*
X0308163Y0060135D01*
X0307563Y0060736D01*
X0305761Y0057053D02*
X0305761Y0055852D01*
X0305761Y0056452D02*
X0308764Y0056452D01*
X0309364Y0055852D01*
X0309364Y0055251D01*
X0308764Y0054651D01*
X0226533Y0145200D02*
X0224131Y0145200D01*
X0226533Y0147602D01*
X0226533Y0148203D01*
X0225932Y0148803D01*
X0224731Y0148803D01*
X0224131Y0148203D01*
X0222850Y0148203D02*
X0222850Y0147002D01*
X0222249Y0146401D01*
X0220448Y0146401D01*
X0220448Y0145200D02*
X0220448Y0148803D01*
X0222249Y0148803D01*
X0222850Y0148203D01*
X0219166Y0148803D02*
X0217965Y0148803D01*
X0218566Y0148803D02*
X0218566Y0145801D01*
X0217965Y0145200D01*
X0217365Y0145200D01*
X0216764Y0145801D01*
X0220865Y0169200D02*
X0221465Y0169200D01*
X0222066Y0169801D01*
X0222066Y0172803D01*
X0222666Y0172803D02*
X0221465Y0172803D01*
X0223948Y0172803D02*
X0225749Y0172803D01*
X0226350Y0172203D01*
X0226350Y0171002D01*
X0225749Y0170401D01*
X0223948Y0170401D01*
X0223948Y0169200D02*
X0223948Y0172803D01*
X0227631Y0172203D02*
X0228231Y0172803D01*
X0229432Y0172803D01*
X0230033Y0172203D01*
X0230033Y0171602D01*
X0229432Y0171002D01*
X0230033Y0170401D01*
X0230033Y0169801D01*
X0229432Y0169200D01*
X0228231Y0169200D01*
X0227631Y0169801D01*
X0228832Y0171002D02*
X0229432Y0171002D01*
X0220865Y0169200D02*
X0220264Y0169801D01*
X0215789Y0192962D02*
X0215789Y0196565D01*
X0215789Y0194764D02*
X0213387Y0194764D01*
X0212106Y0193563D02*
X0212106Y0195965D01*
X0211506Y0196565D01*
X0210305Y0196565D01*
X0209704Y0195965D01*
X0209704Y0193563D01*
X0210305Y0192962D01*
X0211506Y0192962D01*
X0212106Y0193563D01*
X0213387Y0192962D02*
X0213387Y0196565D01*
X0208450Y0196565D02*
X0207249Y0196565D01*
X0207849Y0196565D02*
X0207849Y0192962D01*
X0207249Y0192962D02*
X0208450Y0192962D01*
X0310743Y0192500D02*
X0311944Y0192500D01*
X0311343Y0192500D02*
X0311343Y0196103D01*
X0310743Y0196103D02*
X0311944Y0196103D01*
X0313198Y0195503D02*
X0313198Y0193101D01*
X0313799Y0192500D01*
X0315000Y0192500D01*
X0315600Y0193101D01*
X0315600Y0195503D01*
X0315000Y0196103D01*
X0313799Y0196103D01*
X0313198Y0195503D01*
X0316881Y0196103D02*
X0316881Y0192500D01*
X0319283Y0192500D01*
X0365264Y0200967D02*
X0366032Y0200200D01*
X0367566Y0200200D01*
X0368334Y0200967D01*
X0369868Y0200200D02*
X0371403Y0200200D01*
X0370636Y0200200D02*
X0370636Y0204804D01*
X0371403Y0204804D02*
X0369868Y0204804D01*
X0368334Y0204037D02*
X0367566Y0204804D01*
X0366032Y0204804D01*
X0365264Y0204037D01*
X0365264Y0200967D01*
X0372938Y0200200D02*
X0372938Y0204804D01*
X0374472Y0203269D01*
X0376007Y0204804D01*
X0376007Y0200200D01*
X0377542Y0200200D02*
X0379844Y0200200D01*
X0380611Y0200967D01*
X0380611Y0204037D01*
X0379844Y0204804D01*
X0377542Y0204804D01*
X0377542Y0200200D01*
X0386749Y0203269D02*
X0388284Y0200200D01*
X0389819Y0203269D01*
X0391353Y0203269D02*
X0392888Y0204804D01*
X0392888Y0200200D01*
X0391353Y0200200D02*
X0394423Y0200200D01*
X0099364Y0099419D02*
X0099364Y0097017D01*
X0095761Y0097017D01*
X0095761Y0095736D02*
X0095761Y0093334D01*
X0099364Y0093334D01*
X0099364Y0095736D01*
X0097563Y0094535D02*
X0097563Y0093334D01*
X0098163Y0092053D02*
X0098764Y0092053D01*
X0099364Y0091452D01*
X0099364Y0090251D01*
X0098764Y0089651D01*
X0097563Y0090251D02*
X0097563Y0091452D01*
X0098163Y0092053D01*
X0096362Y0092053D02*
X0095761Y0091452D01*
X0095761Y0090251D01*
X0096362Y0089651D01*
X0096962Y0089651D01*
X0097563Y0090251D01*
X0099965Y0088369D02*
X0099965Y0085967D01*
X0099364Y0084686D02*
X0098163Y0083485D01*
X0098163Y0084086D02*
X0098163Y0082284D01*
X0099364Y0082284D02*
X0095761Y0082284D01*
X0095761Y0084086D01*
X0096362Y0084686D01*
X0097563Y0084686D01*
X0098163Y0084086D01*
X0099364Y0081003D02*
X0095761Y0081003D01*
X0095761Y0078601D02*
X0099364Y0078601D01*
X0098163Y0079802D01*
X0099364Y0081003D01*
X0097563Y0077320D02*
X0098163Y0076720D01*
X0098163Y0074918D01*
X0099364Y0074918D02*
X0095761Y0074918D01*
X0095761Y0076720D01*
X0096362Y0077320D01*
X0097563Y0077320D01*
D12*
X0087914Y0076784D02*
X0087914Y0078635D01*
X0087297Y0079252D01*
X0084828Y0079252D01*
X0084211Y0078635D01*
X0084211Y0076784D01*
X0087914Y0076784D01*
X0087914Y0080467D02*
X0087914Y0082936D01*
X0087914Y0081701D02*
X0084211Y0081701D01*
X0085446Y0080467D01*
X0106507Y0065354D02*
X0109643Y0060650D01*
X0111111Y0060650D02*
X0114247Y0060650D01*
X0112679Y0060650D02*
X0112679Y0065354D01*
X0111111Y0063786D01*
X0109643Y0065354D02*
X0106507Y0060650D01*
X0131165Y0060267D02*
X0131782Y0059650D01*
X0133017Y0059650D01*
X0133634Y0060267D01*
X0134848Y0059650D02*
X0137317Y0059650D01*
X0136083Y0059650D02*
X0136083Y0063353D01*
X0134848Y0062119D01*
X0133634Y0062736D02*
X0133017Y0063353D01*
X0131782Y0063353D01*
X0131165Y0062736D01*
X0131165Y0060267D01*
X0138531Y0060267D02*
X0139148Y0059650D01*
X0140383Y0059650D01*
X0141000Y0060267D01*
X0141000Y0060884D01*
X0140383Y0061502D01*
X0139766Y0061502D01*
X0140383Y0061502D02*
X0141000Y0062119D01*
X0141000Y0062736D01*
X0140383Y0063353D01*
X0139148Y0063353D01*
X0138531Y0062736D01*
X0146714Y0064267D02*
X0146714Y0066736D01*
X0147332Y0067353D01*
X0148566Y0067353D01*
X0149183Y0066736D01*
X0150398Y0065502D02*
X0151632Y0066736D01*
X0152866Y0067353D01*
X0152249Y0065502D02*
X0150398Y0065502D01*
X0150398Y0064267D01*
X0151015Y0063650D01*
X0152249Y0063650D01*
X0152866Y0064267D01*
X0152866Y0064884D01*
X0152249Y0065502D01*
X0149183Y0064267D02*
X0148566Y0063650D01*
X0147332Y0063650D01*
X0146714Y0064267D01*
X0138031Y0071650D02*
X0138031Y0072267D01*
X0140500Y0074736D01*
X0140500Y0075353D01*
X0138031Y0075353D01*
X0136817Y0074736D02*
X0136200Y0075353D01*
X0134965Y0075353D01*
X0134348Y0074736D01*
X0134348Y0072267D01*
X0134965Y0071650D01*
X0136200Y0071650D01*
X0136817Y0072267D01*
X0146714Y0074767D02*
X0146714Y0077236D01*
X0147332Y0077853D01*
X0148566Y0077853D01*
X0149183Y0077236D01*
X0150398Y0077853D02*
X0150398Y0076002D01*
X0151632Y0076619D01*
X0152249Y0076619D01*
X0152866Y0076002D01*
X0152866Y0074767D01*
X0152249Y0074150D01*
X0151015Y0074150D01*
X0150398Y0074767D01*
X0149183Y0074767D02*
X0148566Y0074150D01*
X0147332Y0074150D01*
X0146714Y0074767D01*
X0150398Y0077853D02*
X0152866Y0077853D01*
X0149914Y0082230D02*
X0146778Y0085366D01*
X0146778Y0083798D02*
X0149914Y0083798D01*
X0149914Y0085366D02*
X0146778Y0082230D01*
X0148346Y0082230D02*
X0148346Y0085366D01*
X0163711Y0085452D02*
X0163711Y0084218D01*
X0164328Y0083601D01*
X0166797Y0083601D01*
X0167414Y0084218D01*
X0167414Y0085452D01*
X0166797Y0086069D01*
X0167414Y0087284D02*
X0167414Y0089752D01*
X0167414Y0088518D02*
X0163711Y0088518D01*
X0164946Y0087284D01*
X0164328Y0086069D02*
X0163711Y0085452D01*
X0165563Y0090967D02*
X0163711Y0092818D01*
X0167414Y0092818D01*
X0165563Y0093436D02*
X0165563Y0090967D01*
X0185714Y0087736D02*
X0185714Y0085267D01*
X0186332Y0084650D01*
X0187566Y0084650D01*
X0188183Y0085267D01*
X0189398Y0086502D02*
X0191866Y0086502D01*
X0191249Y0088353D02*
X0189398Y0086502D01*
X0188183Y0087736D02*
X0187566Y0088353D01*
X0186332Y0088353D01*
X0185714Y0087736D01*
X0191249Y0088353D02*
X0191249Y0084650D01*
X0191249Y0094150D02*
X0190015Y0094150D01*
X0189398Y0094767D01*
X0188183Y0094767D02*
X0187566Y0094150D01*
X0186332Y0094150D01*
X0185714Y0094767D01*
X0185714Y0097236D01*
X0186332Y0097853D01*
X0187566Y0097853D01*
X0188183Y0097236D01*
X0189398Y0097236D02*
X0190015Y0097853D01*
X0191249Y0097853D01*
X0191866Y0097236D01*
X0191866Y0096619D01*
X0191249Y0096002D01*
X0191866Y0095384D01*
X0191866Y0094767D01*
X0191249Y0094150D01*
X0191249Y0096002D02*
X0190632Y0096002D01*
X0223178Y0096630D02*
X0226314Y0099766D01*
X0224746Y0099766D02*
X0224746Y0096630D01*
X0226314Y0096630D02*
X0223178Y0099766D01*
X0223178Y0098198D02*
X0226314Y0098198D01*
X0230165Y0086853D02*
X0232017Y0086853D01*
X0232634Y0086236D01*
X0232634Y0085002D01*
X0232017Y0084384D01*
X0230165Y0084384D01*
X0230165Y0083150D02*
X0230165Y0086853D01*
X0231399Y0084384D02*
X0232634Y0083150D01*
X0233848Y0083150D02*
X0236317Y0083150D01*
X0235083Y0083150D02*
X0235083Y0086853D01*
X0233848Y0085619D01*
X0237531Y0085002D02*
X0238766Y0085619D01*
X0239383Y0085619D01*
X0240000Y0085002D01*
X0240000Y0083767D01*
X0239383Y0083150D01*
X0238148Y0083150D01*
X0237531Y0083767D01*
X0237531Y0085002D02*
X0237531Y0086853D01*
X0240000Y0086853D01*
X0249165Y0086853D02*
X0249165Y0083150D01*
X0249165Y0084384D02*
X0251017Y0084384D01*
X0251634Y0085002D01*
X0251634Y0086236D01*
X0251017Y0086853D01*
X0249165Y0086853D01*
X0250399Y0084384D02*
X0251634Y0083150D01*
X0252848Y0083150D02*
X0255317Y0083150D01*
X0254083Y0083150D02*
X0254083Y0086853D01*
X0252848Y0085619D01*
X0256531Y0085002D02*
X0256531Y0083767D01*
X0257148Y0083150D01*
X0258383Y0083150D01*
X0259000Y0083767D01*
X0259000Y0084384D01*
X0258383Y0085002D01*
X0256531Y0085002D01*
X0257766Y0086236D01*
X0259000Y0086853D01*
X0283711Y0096784D02*
X0283711Y0098635D01*
X0284328Y0099252D01*
X0285563Y0099252D01*
X0286180Y0098635D01*
X0286180Y0096784D01*
X0286180Y0098018D02*
X0287414Y0099252D01*
X0286797Y0100467D02*
X0287414Y0101084D01*
X0287414Y0102318D01*
X0286797Y0102936D01*
X0286180Y0102936D01*
X0285563Y0102318D01*
X0285563Y0101701D01*
X0285563Y0102318D02*
X0284946Y0102936D01*
X0284328Y0102936D01*
X0283711Y0102318D01*
X0283711Y0101084D01*
X0284328Y0100467D01*
X0283711Y0096784D02*
X0287414Y0096784D01*
X0262366Y0110150D02*
X0259898Y0110150D01*
X0261132Y0110150D02*
X0261132Y0113853D01*
X0259898Y0112619D01*
X0258683Y0113236D02*
X0258066Y0113853D01*
X0256832Y0113853D01*
X0256214Y0113236D01*
X0256214Y0110767D01*
X0256832Y0110150D01*
X0258066Y0110150D01*
X0258683Y0110767D01*
X0250000Y0126150D02*
X0247531Y0126150D01*
X0246317Y0126150D02*
X0245083Y0127384D01*
X0245700Y0127384D02*
X0243848Y0127384D01*
X0243848Y0126150D02*
X0243848Y0129853D01*
X0245700Y0129853D01*
X0246317Y0129236D01*
X0246317Y0128002D01*
X0245700Y0127384D01*
X0247531Y0128619D02*
X0248766Y0129853D01*
X0248766Y0126150D01*
X0264214Y0135634D02*
X0267350Y0138770D01*
X0265782Y0138770D02*
X0265782Y0135634D01*
X0267350Y0135634D02*
X0264214Y0138770D01*
X0264214Y0137202D02*
X0267350Y0137202D01*
X0284665Y0143267D02*
X0285282Y0142650D01*
X0286517Y0142650D01*
X0287134Y0143267D01*
X0288348Y0142650D02*
X0290817Y0145119D01*
X0290817Y0145736D01*
X0290200Y0146353D01*
X0288965Y0146353D01*
X0288348Y0145736D01*
X0287134Y0145736D02*
X0286517Y0146353D01*
X0285282Y0146353D01*
X0284665Y0145736D01*
X0284665Y0143267D01*
X0288348Y0142650D02*
X0290817Y0142650D01*
X0292031Y0143267D02*
X0292031Y0143884D01*
X0292648Y0144502D01*
X0293883Y0144502D01*
X0294500Y0143884D01*
X0294500Y0143267D01*
X0293883Y0142650D01*
X0292648Y0142650D01*
X0292031Y0143267D01*
X0292648Y0144502D02*
X0292031Y0145119D01*
X0292031Y0145736D01*
X0292648Y0146353D01*
X0293883Y0146353D01*
X0294500Y0145736D01*
X0294500Y0145119D01*
X0293883Y0144502D01*
X0294383Y0156650D02*
X0295000Y0157267D01*
X0295000Y0159736D01*
X0294383Y0160353D01*
X0293148Y0160353D01*
X0292531Y0159736D01*
X0292531Y0159119D01*
X0293148Y0158502D01*
X0295000Y0158502D01*
X0294383Y0156650D02*
X0293148Y0156650D01*
X0292531Y0157267D01*
X0291317Y0156650D02*
X0288848Y0156650D01*
X0291317Y0159119D01*
X0291317Y0159736D01*
X0290700Y0160353D01*
X0289465Y0160353D01*
X0288848Y0159736D01*
X0287634Y0159736D02*
X0287017Y0160353D01*
X0285782Y0160353D01*
X0285165Y0159736D01*
X0285165Y0157267D01*
X0285782Y0156650D01*
X0287017Y0156650D01*
X0287634Y0157267D01*
X0290211Y0165601D02*
X0290211Y0167452D01*
X0290828Y0168069D01*
X0292063Y0168069D01*
X0292680Y0167452D01*
X0292680Y0165601D01*
X0292680Y0166835D02*
X0293914Y0168069D01*
X0293914Y0169284D02*
X0291446Y0171752D01*
X0290828Y0171752D01*
X0290211Y0171135D01*
X0290211Y0169901D01*
X0290828Y0169284D01*
X0293914Y0169284D02*
X0293914Y0171752D01*
X0293297Y0172967D02*
X0293914Y0173584D01*
X0293914Y0174818D01*
X0293297Y0175436D01*
X0292680Y0175436D01*
X0292063Y0174818D01*
X0292063Y0174201D01*
X0292063Y0174818D02*
X0291446Y0175436D01*
X0290828Y0175436D01*
X0290211Y0174818D01*
X0290211Y0173584D01*
X0290828Y0172967D01*
X0284414Y0172967D02*
X0284414Y0175436D01*
X0281946Y0175436D02*
X0284414Y0172967D01*
X0284414Y0171752D02*
X0284414Y0169284D01*
X0281946Y0171752D01*
X0281328Y0171752D01*
X0280711Y0171135D01*
X0280711Y0169901D01*
X0281328Y0169284D01*
X0281328Y0168069D02*
X0282563Y0168069D01*
X0283180Y0167452D01*
X0283180Y0165601D01*
X0283180Y0166835D02*
X0284414Y0168069D01*
X0281328Y0168069D02*
X0280711Y0167452D01*
X0280711Y0165601D01*
X0284414Y0165601D01*
X0290211Y0165601D02*
X0293914Y0165601D01*
X0281328Y0172967D02*
X0280711Y0173584D01*
X0280711Y0174818D01*
X0281328Y0175436D01*
X0281946Y0175436D01*
X0308711Y0178601D02*
X0308711Y0180452D01*
X0309328Y0181069D01*
X0310563Y0181069D01*
X0311180Y0180452D01*
X0311180Y0178601D01*
X0311180Y0179835D02*
X0312414Y0181069D01*
X0312414Y0182284D02*
X0309946Y0184752D01*
X0309328Y0184752D01*
X0308711Y0184135D01*
X0308711Y0182901D01*
X0309328Y0182284D01*
X0312414Y0182284D02*
X0312414Y0184752D01*
X0311797Y0185967D02*
X0312414Y0186584D01*
X0312414Y0187818D01*
X0311797Y0188436D01*
X0310563Y0188436D01*
X0309946Y0187818D01*
X0309946Y0187201D01*
X0310563Y0185967D01*
X0308711Y0185967D01*
X0308711Y0188436D01*
X0327214Y0197150D02*
X0327214Y0200853D01*
X0329066Y0200853D01*
X0329683Y0200236D01*
X0329683Y0199002D01*
X0329066Y0198384D01*
X0327214Y0198384D01*
X0328449Y0198384D02*
X0329683Y0197150D01*
X0330898Y0197150D02*
X0330898Y0197767D01*
X0333366Y0200236D01*
X0333366Y0200853D01*
X0330898Y0200853D01*
X0348714Y0207767D02*
X0348714Y0210236D01*
X0349332Y0210853D01*
X0350566Y0210853D01*
X0351183Y0210236D01*
X0352398Y0210236D02*
X0353015Y0210853D01*
X0354249Y0210853D01*
X0354866Y0210236D01*
X0354866Y0209619D01*
X0352398Y0207150D01*
X0354866Y0207150D01*
X0356081Y0207767D02*
X0356698Y0207150D01*
X0357932Y0207150D01*
X0358550Y0207767D01*
X0358550Y0210236D01*
X0356081Y0207767D01*
X0356081Y0210236D01*
X0356698Y0210853D01*
X0357932Y0210853D01*
X0358550Y0210236D01*
X0351183Y0207767D02*
X0350566Y0207150D01*
X0349332Y0207150D01*
X0348714Y0207767D01*
X0364332Y0192353D02*
X0363714Y0191736D01*
X0363714Y0189267D01*
X0364332Y0188650D01*
X0365566Y0188650D01*
X0366183Y0189267D01*
X0367398Y0188650D02*
X0369866Y0191119D01*
X0369866Y0191736D01*
X0369249Y0192353D01*
X0368015Y0192353D01*
X0367398Y0191736D01*
X0366183Y0191736D02*
X0365566Y0192353D01*
X0364332Y0192353D01*
X0367398Y0188650D02*
X0369866Y0188650D01*
X0371081Y0189267D02*
X0371698Y0188650D01*
X0372932Y0188650D01*
X0373550Y0189267D01*
X0373550Y0190502D01*
X0372932Y0191119D01*
X0372315Y0191119D01*
X0371081Y0190502D01*
X0371081Y0192353D01*
X0373550Y0192353D01*
X0312414Y0178601D02*
X0308711Y0178601D01*
X0245914Y0178360D02*
X0242211Y0178360D01*
X0242211Y0180212D01*
X0242828Y0180829D01*
X0244063Y0180829D01*
X0244680Y0180212D01*
X0244680Y0178360D01*
X0244680Y0179595D02*
X0245914Y0180829D01*
X0245914Y0182043D02*
X0243445Y0184512D01*
X0242828Y0184512D01*
X0242211Y0183895D01*
X0242211Y0182661D01*
X0242828Y0182043D01*
X0245914Y0182043D02*
X0245914Y0184512D01*
X0244063Y0185727D02*
X0244063Y0188195D01*
X0245914Y0187578D02*
X0242211Y0187578D01*
X0244063Y0185727D01*
X0206914Y0186302D02*
X0206914Y0183833D01*
X0204446Y0186302D01*
X0203828Y0186302D01*
X0203211Y0185685D01*
X0203211Y0184450D01*
X0203828Y0183833D01*
X0203828Y0182619D02*
X0203211Y0182002D01*
X0203211Y0180767D01*
X0203828Y0180150D01*
X0206297Y0180150D01*
X0206914Y0180767D01*
X0206914Y0182002D01*
X0206297Y0182619D01*
X0206297Y0187516D02*
X0206914Y0187516D01*
X0206297Y0187516D02*
X0203828Y0189985D01*
X0203211Y0189985D01*
X0203211Y0187516D01*
X0176914Y0187802D02*
X0176914Y0185333D01*
X0174446Y0187802D01*
X0173828Y0187802D01*
X0173211Y0187185D01*
X0173211Y0185950D01*
X0173828Y0185333D01*
X0173828Y0184119D02*
X0173211Y0183502D01*
X0173211Y0182267D01*
X0173828Y0181650D01*
X0176297Y0181650D01*
X0176914Y0182267D01*
X0176914Y0183502D01*
X0176297Y0184119D01*
X0176297Y0189016D02*
X0176914Y0189633D01*
X0176914Y0190868D01*
X0176297Y0191485D01*
X0175680Y0191485D01*
X0175063Y0190868D01*
X0175063Y0189016D01*
X0176297Y0189016D01*
X0175063Y0189016D02*
X0173828Y0190251D01*
X0173211Y0191485D01*
X0145000Y0169236D02*
X0145000Y0168619D01*
X0144383Y0168002D01*
X0143148Y0168002D01*
X0142531Y0168619D01*
X0142531Y0169236D01*
X0143148Y0169853D01*
X0144383Y0169853D01*
X0145000Y0169236D01*
X0144383Y0168002D02*
X0145000Y0167384D01*
X0145000Y0166767D01*
X0144383Y0166150D01*
X0143148Y0166150D01*
X0142531Y0166767D01*
X0142531Y0167384D01*
X0143148Y0168002D01*
X0141317Y0166150D02*
X0138848Y0166150D01*
X0137634Y0166150D02*
X0136399Y0167384D01*
X0137017Y0167384D02*
X0135165Y0167384D01*
X0135165Y0166150D02*
X0135165Y0169853D01*
X0137017Y0169853D01*
X0137634Y0169236D01*
X0137634Y0168002D01*
X0137017Y0167384D01*
X0138848Y0168619D02*
X0140083Y0169853D01*
X0140083Y0166150D01*
X0132866Y0166002D02*
X0131015Y0166002D01*
X0130398Y0166619D01*
X0130398Y0167236D01*
X0131015Y0167853D01*
X0132249Y0167853D01*
X0132866Y0167236D01*
X0132866Y0164767D01*
X0132249Y0164150D01*
X0131015Y0164150D01*
X0130398Y0164767D01*
X0129183Y0164767D02*
X0128566Y0164150D01*
X0127332Y0164150D01*
X0126714Y0164767D01*
X0126714Y0167236D01*
X0127332Y0167853D01*
X0128566Y0167853D01*
X0129183Y0167236D01*
X0129083Y0155853D02*
X0129083Y0152150D01*
X0130317Y0152150D02*
X0127848Y0152150D01*
X0126634Y0152767D02*
X0126017Y0152150D01*
X0124782Y0152150D01*
X0124165Y0152767D01*
X0124165Y0155236D01*
X0124782Y0155853D01*
X0126017Y0155853D01*
X0126634Y0155236D01*
X0127848Y0154619D02*
X0129083Y0155853D01*
X0131531Y0155236D02*
X0132148Y0155853D01*
X0133383Y0155853D01*
X0134000Y0155236D01*
X0134000Y0154619D01*
X0131531Y0152150D01*
X0134000Y0152150D01*
X0132000Y0142353D02*
X0130766Y0141736D01*
X0129531Y0140502D01*
X0131383Y0140502D01*
X0132000Y0139884D01*
X0132000Y0139267D01*
X0131383Y0138650D01*
X0130148Y0138650D01*
X0129531Y0139267D01*
X0129531Y0140502D01*
X0128317Y0140502D02*
X0127700Y0139884D01*
X0125848Y0139884D01*
X0125848Y0138650D02*
X0125848Y0142353D01*
X0127700Y0142353D01*
X0128317Y0141736D01*
X0128317Y0140502D01*
X0127083Y0139884D02*
X0128317Y0138650D01*
X0146214Y0131736D02*
X0146214Y0129267D01*
X0146832Y0128650D01*
X0148066Y0128650D01*
X0148683Y0129267D01*
X0149898Y0128650D02*
X0152366Y0131119D01*
X0152366Y0131736D01*
X0151749Y0132353D01*
X0150515Y0132353D01*
X0149898Y0131736D01*
X0148683Y0131736D02*
X0148066Y0132353D01*
X0146832Y0132353D01*
X0146214Y0131736D01*
X0149898Y0128650D02*
X0152366Y0128650D01*
X0157214Y0123736D02*
X0157832Y0124353D01*
X0159066Y0124353D01*
X0159683Y0123736D01*
X0160898Y0123119D02*
X0162132Y0124353D01*
X0162132Y0120650D01*
X0160898Y0120650D02*
X0163366Y0120650D01*
X0164581Y0121267D02*
X0165198Y0120650D01*
X0166432Y0120650D01*
X0167050Y0121267D01*
X0167050Y0122502D01*
X0166432Y0123119D01*
X0165815Y0123119D01*
X0164581Y0122502D01*
X0164581Y0124353D01*
X0167050Y0124353D01*
X0159683Y0121267D02*
X0159066Y0120650D01*
X0157832Y0120650D01*
X0157214Y0121267D01*
X0157214Y0123736D01*
X0145050Y0124236D02*
X0145050Y0121767D01*
X0144432Y0121150D01*
X0143198Y0121150D01*
X0142581Y0121767D01*
X0141366Y0121150D02*
X0138898Y0121150D01*
X0137683Y0121150D02*
X0136449Y0122384D01*
X0137066Y0122384D02*
X0135214Y0122384D01*
X0135214Y0121150D02*
X0135214Y0124853D01*
X0137066Y0124853D01*
X0137683Y0124236D01*
X0137683Y0123002D01*
X0137066Y0122384D01*
X0138898Y0123619D02*
X0140132Y0124853D01*
X0140132Y0121150D01*
X0142581Y0123619D02*
X0143198Y0123002D01*
X0145050Y0123002D01*
X0145050Y0124236D02*
X0144432Y0124853D01*
X0143198Y0124853D01*
X0142581Y0124236D01*
X0142581Y0123619D01*
X0119000Y0123502D02*
X0118383Y0122884D01*
X0116531Y0122884D01*
X0116531Y0121650D02*
X0116531Y0125353D01*
X0118383Y0125353D01*
X0119000Y0124736D01*
X0119000Y0123502D01*
X0117766Y0122884D02*
X0119000Y0121650D01*
X0115317Y0121650D02*
X0115317Y0125353D01*
X0112848Y0125353D02*
X0112848Y0121650D01*
X0114083Y0122884D01*
X0115317Y0121650D01*
X0111634Y0123502D02*
X0111634Y0124736D01*
X0111017Y0125353D01*
X0109165Y0125353D01*
X0109165Y0121650D01*
X0109165Y0122884D02*
X0111017Y0122884D01*
X0111634Y0123502D01*
X0107951Y0124736D02*
X0107333Y0125353D01*
X0105482Y0125353D01*
X0105482Y0121650D01*
X0107333Y0121650D01*
X0107951Y0122267D01*
X0107951Y0124736D01*
X0109165Y0110353D02*
X0111017Y0110353D01*
X0111634Y0109736D01*
X0111634Y0108502D01*
X0111017Y0107884D01*
X0109165Y0107884D01*
X0109165Y0106650D02*
X0109165Y0110353D01*
X0107951Y0109119D02*
X0107951Y0106650D01*
X0107951Y0108502D02*
X0105482Y0108502D01*
X0105482Y0109119D02*
X0106716Y0110353D01*
X0107951Y0109119D01*
X0105482Y0109119D02*
X0105482Y0106650D01*
X0112848Y0106650D02*
X0114083Y0107884D01*
X0115317Y0106650D01*
X0115317Y0110353D01*
X0116531Y0110353D02*
X0118383Y0110353D01*
X0119000Y0109736D01*
X0119000Y0108502D01*
X0118383Y0107884D01*
X0116531Y0107884D01*
X0116531Y0106650D02*
X0116531Y0110353D01*
X0117766Y0107884D02*
X0119000Y0106650D01*
X0112848Y0106650D02*
X0112848Y0110353D01*
X0182214Y0068853D02*
X0184066Y0068853D01*
X0184683Y0068236D01*
X0184683Y0067002D01*
X0184066Y0066384D01*
X0182214Y0066384D01*
X0182214Y0065150D02*
X0182214Y0068853D01*
X0183449Y0066384D02*
X0184683Y0065150D01*
X0185898Y0065150D02*
X0188366Y0065150D01*
X0187132Y0065150D02*
X0187132Y0068853D01*
X0185898Y0067619D01*
X0189581Y0068236D02*
X0190198Y0068853D01*
X0191432Y0068853D01*
X0192050Y0068236D01*
X0192050Y0067619D01*
X0191432Y0067002D01*
X0192050Y0066384D01*
X0192050Y0065767D01*
X0191432Y0065150D01*
X0190198Y0065150D01*
X0189581Y0065767D01*
X0190815Y0067002D02*
X0191432Y0067002D01*
X0199214Y0070634D02*
X0202350Y0073770D01*
X0200782Y0073770D02*
X0200782Y0070634D01*
X0202350Y0070634D02*
X0199214Y0073770D01*
X0199214Y0072202D02*
X0202350Y0072202D01*
X0170414Y0058868D02*
X0166711Y0058868D01*
X0168563Y0057016D01*
X0168563Y0059485D01*
X0170414Y0055802D02*
X0170414Y0053333D01*
X0170414Y0052119D02*
X0169180Y0050884D01*
X0169180Y0051502D02*
X0169180Y0049650D01*
X0170414Y0049650D02*
X0166711Y0049650D01*
X0166711Y0051502D01*
X0167328Y0052119D01*
X0168563Y0052119D01*
X0169180Y0051502D01*
X0167946Y0053333D02*
X0166711Y0054568D01*
X0170414Y0054568D01*
X0285348Y0073650D02*
X0285348Y0077353D01*
X0287200Y0077353D01*
X0287817Y0076736D01*
X0287817Y0075502D01*
X0287200Y0074884D01*
X0285348Y0074884D01*
X0286583Y0074884D02*
X0287817Y0073650D01*
X0289031Y0074267D02*
X0289648Y0073650D01*
X0290883Y0073650D01*
X0291500Y0074267D01*
X0291500Y0075502D01*
X0290883Y0076119D01*
X0290266Y0076119D01*
X0289031Y0075502D01*
X0289031Y0077353D01*
X0291500Y0077353D01*
X0314665Y0076736D02*
X0314665Y0074267D01*
X0315282Y0073650D01*
X0316517Y0073650D01*
X0317134Y0074267D01*
X0318348Y0073650D02*
X0320817Y0076119D01*
X0320817Y0076736D01*
X0320200Y0077353D01*
X0318965Y0077353D01*
X0318348Y0076736D01*
X0317134Y0076736D02*
X0316517Y0077353D01*
X0315282Y0077353D01*
X0314665Y0076736D01*
X0318348Y0073650D02*
X0320817Y0073650D01*
X0322031Y0073650D02*
X0324500Y0076119D01*
X0324500Y0076736D01*
X0323883Y0077353D01*
X0322648Y0077353D01*
X0322031Y0076736D01*
X0322031Y0073650D02*
X0324500Y0073650D01*
X0333165Y0095650D02*
X0333165Y0099353D01*
X0335017Y0099353D01*
X0335634Y0098736D01*
X0335634Y0097502D01*
X0335017Y0096884D01*
X0333165Y0096884D01*
X0334399Y0096884D02*
X0335634Y0095650D01*
X0336848Y0095650D02*
X0339317Y0098119D01*
X0339317Y0098736D01*
X0338700Y0099353D01*
X0337465Y0099353D01*
X0336848Y0098736D01*
X0336848Y0095650D02*
X0339317Y0095650D01*
X0340531Y0096267D02*
X0340531Y0097502D01*
X0342383Y0097502D01*
X0343000Y0096884D01*
X0343000Y0096267D01*
X0342383Y0095650D01*
X0341148Y0095650D01*
X0340531Y0096267D01*
X0340531Y0097502D02*
X0341766Y0098736D01*
X0343000Y0099353D01*
X0343000Y0116150D02*
X0340531Y0116150D01*
X0339317Y0116150D02*
X0336848Y0116150D01*
X0339317Y0118619D01*
X0339317Y0119236D01*
X0338700Y0119853D01*
X0337465Y0119853D01*
X0336848Y0119236D01*
X0335634Y0119236D02*
X0335017Y0119853D01*
X0333165Y0119853D01*
X0333165Y0116150D01*
X0333165Y0117384D02*
X0335017Y0117384D01*
X0335634Y0118002D01*
X0335634Y0119236D01*
X0334399Y0117384D02*
X0335634Y0116150D01*
X0340531Y0118619D02*
X0341766Y0119853D01*
X0341766Y0116150D01*
X0324734Y0126614D02*
X0321598Y0129750D01*
X0321598Y0128182D02*
X0324734Y0128182D01*
X0324734Y0129750D02*
X0321598Y0126614D01*
X0323166Y0126614D02*
X0323166Y0129750D01*
X0376598Y0141614D02*
X0379734Y0144750D01*
X0378166Y0144750D02*
X0378166Y0141614D01*
X0379734Y0141614D02*
X0376598Y0144750D01*
X0376598Y0143182D02*
X0379734Y0143182D01*
X0381332Y0113353D02*
X0380714Y0112736D01*
X0380714Y0110267D01*
X0381332Y0109650D01*
X0382566Y0109650D01*
X0383183Y0110267D01*
X0384398Y0109650D02*
X0386866Y0112119D01*
X0386866Y0112736D01*
X0386249Y0113353D01*
X0385015Y0113353D01*
X0384398Y0112736D01*
X0383183Y0112736D02*
X0382566Y0113353D01*
X0381332Y0113353D01*
X0384398Y0109650D02*
X0386866Y0109650D01*
X0388081Y0111502D02*
X0390550Y0111502D01*
X0389932Y0113353D02*
X0389932Y0109650D01*
X0388081Y0111502D02*
X0389932Y0113353D01*
X0390315Y0103353D02*
X0389081Y0102119D01*
X0387866Y0102119D02*
X0387866Y0102736D01*
X0387249Y0103353D01*
X0386015Y0103353D01*
X0385398Y0102736D01*
X0384183Y0102736D02*
X0383566Y0103353D01*
X0382332Y0103353D01*
X0381714Y0102736D01*
X0381714Y0100267D01*
X0382332Y0099650D01*
X0383566Y0099650D01*
X0384183Y0100267D01*
X0385398Y0099650D02*
X0387866Y0102119D01*
X0387866Y0099650D02*
X0385398Y0099650D01*
X0389081Y0099650D02*
X0391550Y0099650D01*
X0390315Y0099650D02*
X0390315Y0103353D01*
X0388991Y0021853D02*
X0387140Y0021853D01*
X0387140Y0018150D01*
X0388991Y0018150D01*
X0389609Y0018767D01*
X0389609Y0021236D01*
X0388991Y0021853D01*
X0391440Y0020619D02*
X0392675Y0020619D01*
X0393292Y0020002D01*
X0393292Y0018150D01*
X0391440Y0018150D01*
X0390823Y0018767D01*
X0391440Y0019384D01*
X0393292Y0019384D01*
X0394506Y0018150D02*
X0395741Y0018150D01*
X0395123Y0018150D02*
X0395123Y0021853D01*
X0394506Y0021853D01*
X0396962Y0021853D02*
X0397579Y0021853D01*
X0397579Y0018150D01*
X0396962Y0018150D02*
X0398196Y0018150D01*
X0399417Y0018767D02*
X0400034Y0019384D01*
X0401886Y0019384D01*
X0401886Y0020002D02*
X0401886Y0018150D01*
X0400034Y0018150D01*
X0399417Y0018767D01*
X0400034Y0020619D02*
X0401269Y0020619D01*
X0401886Y0020002D01*
X0403100Y0020002D02*
X0403717Y0020619D01*
X0405569Y0020619D01*
X0404952Y0019384D02*
X0403717Y0019384D01*
X0403100Y0020002D01*
X0403100Y0018150D02*
X0404952Y0018150D01*
X0405569Y0018767D01*
X0404952Y0019384D01*
X0406014Y0016470D02*
X0406014Y0015853D01*
X0406014Y0014619D02*
X0405397Y0014619D01*
X0406014Y0014619D02*
X0406014Y0012150D01*
X0405397Y0012150D02*
X0406632Y0012150D01*
X0404183Y0012767D02*
X0403566Y0013384D01*
X0402331Y0013384D01*
X0401714Y0014002D01*
X0402331Y0014619D01*
X0404183Y0014619D01*
X0404183Y0012767D02*
X0403566Y0012150D01*
X0401714Y0012150D01*
X0400500Y0012150D02*
X0398648Y0012150D01*
X0398031Y0012767D01*
X0398648Y0013384D01*
X0400500Y0013384D01*
X0400500Y0014002D02*
X0400500Y0012150D01*
X0400500Y0014002D02*
X0399882Y0014619D01*
X0398648Y0014619D01*
X0396193Y0015853D02*
X0396193Y0012150D01*
X0396810Y0012150D02*
X0395575Y0012150D01*
X0394361Y0012150D02*
X0394361Y0014619D01*
X0395575Y0015853D02*
X0396193Y0015853D01*
X0391892Y0014619D02*
X0391892Y0012767D01*
X0392509Y0012150D01*
X0394361Y0012150D01*
X0390678Y0012150D02*
X0390678Y0014002D01*
X0390061Y0014619D01*
X0388826Y0014619D01*
X0388209Y0014002D01*
X0388209Y0015853D02*
X0388209Y0012150D01*
X0385760Y0012150D02*
X0385760Y0015853D01*
X0384526Y0015853D02*
X0386995Y0015853D01*
X0381008Y0018150D02*
X0381008Y0021853D01*
X0379774Y0021853D02*
X0382242Y0021853D01*
X0378559Y0021853D02*
X0378559Y0018767D01*
X0377942Y0018150D01*
X0376708Y0018150D01*
X0376090Y0018767D01*
X0376090Y0021853D01*
X0371186Y0018767D02*
X0370569Y0018767D01*
X0370569Y0018150D01*
X0371186Y0018150D01*
X0371186Y0018767D01*
X0371186Y0018150D02*
X0369952Y0016916D01*
X0370407Y0015853D02*
X0370407Y0012150D01*
X0370407Y0013384D02*
X0372259Y0012150D01*
X0373477Y0012767D02*
X0374094Y0013384D01*
X0375945Y0013384D01*
X0375945Y0014002D02*
X0375945Y0012150D01*
X0374094Y0012150D01*
X0373477Y0012767D01*
X0374094Y0014619D02*
X0375328Y0014619D01*
X0375945Y0014002D01*
X0377160Y0014619D02*
X0379011Y0014619D01*
X0379629Y0014002D01*
X0379629Y0012150D01*
X0377160Y0012150D02*
X0377160Y0014619D01*
X0372259Y0014619D02*
X0370407Y0013384D01*
X0369193Y0012767D02*
X0369193Y0014002D01*
X0368576Y0014619D01*
X0367341Y0014619D01*
X0366724Y0014002D01*
X0366724Y0012767D01*
X0367341Y0012150D01*
X0368576Y0012150D01*
X0369193Y0012767D01*
X0365510Y0012767D02*
X0364893Y0013384D01*
X0363658Y0013384D01*
X0363041Y0014002D01*
X0363658Y0014619D01*
X0365510Y0014619D01*
X0365510Y0012767D02*
X0364893Y0012150D01*
X0363041Y0012150D01*
X0361827Y0012150D02*
X0361827Y0014619D01*
X0360592Y0015853D01*
X0359358Y0014619D01*
X0359358Y0012150D01*
X0359358Y0014002D02*
X0361827Y0014002D01*
X0361371Y0018150D02*
X0358902Y0018150D01*
X0358902Y0021853D01*
X0363203Y0020619D02*
X0364437Y0020619D01*
X0365054Y0020002D01*
X0365054Y0018150D01*
X0363203Y0018150D01*
X0362586Y0018767D01*
X0363203Y0019384D01*
X0365054Y0019384D01*
X0366269Y0018150D02*
X0368120Y0018150D01*
X0368738Y0018767D01*
X0368738Y0020002D01*
X0368120Y0020619D01*
X0366269Y0020619D01*
X0366269Y0021853D02*
X0366269Y0018150D01*
X0354005Y0018150D02*
X0354005Y0020619D01*
X0352771Y0021853D01*
X0351536Y0020619D01*
X0351536Y0018150D01*
X0350322Y0018150D02*
X0347853Y0018150D01*
X0347853Y0021853D01*
X0350322Y0021853D01*
X0351536Y0020002D02*
X0354005Y0020002D01*
X0349087Y0020002D02*
X0347853Y0020002D01*
X0346639Y0021236D02*
X0346021Y0021853D01*
X0344170Y0021853D01*
X0344170Y0018150D01*
X0346021Y0018150D01*
X0346639Y0018767D01*
X0346639Y0021236D01*
X0342949Y0021853D02*
X0341714Y0021853D01*
X0342332Y0021853D02*
X0342332Y0018150D01*
X0342949Y0018150D02*
X0341714Y0018150D01*
X0340949Y0015853D02*
X0342183Y0014619D01*
X0342183Y0012150D01*
X0342183Y0014002D02*
X0339714Y0014002D01*
X0339714Y0014619D02*
X0340949Y0015853D01*
X0339714Y0014619D02*
X0339714Y0012150D01*
X0344015Y0012767D02*
X0344015Y0015236D01*
X0343398Y0014619D02*
X0344632Y0014619D01*
X0345853Y0014002D02*
X0346470Y0014619D01*
X0347705Y0014619D01*
X0348322Y0014002D01*
X0348322Y0012150D01*
X0349536Y0012767D02*
X0349536Y0014619D01*
X0349536Y0012767D02*
X0350153Y0012150D01*
X0352005Y0012150D01*
X0352005Y0014619D01*
X0353219Y0015853D02*
X0353836Y0015853D01*
X0353836Y0012150D01*
X0353219Y0012150D02*
X0354454Y0012150D01*
X0345853Y0012150D02*
X0345853Y0015853D01*
X0344015Y0012767D02*
X0344632Y0012150D01*
X0200214Y0136430D02*
X0197078Y0139566D01*
X0197078Y0137998D02*
X0200214Y0137998D01*
X0200214Y0139566D02*
X0197078Y0136430D01*
X0198646Y0136430D02*
X0198646Y0139566D01*
X0186383Y0157650D02*
X0187000Y0158267D01*
X0187000Y0160736D01*
X0186383Y0161353D01*
X0185148Y0161353D01*
X0184531Y0160736D01*
X0184531Y0160119D01*
X0185148Y0159502D01*
X0187000Y0159502D01*
X0186383Y0157650D02*
X0185148Y0157650D01*
X0184531Y0158267D01*
X0183317Y0157650D02*
X0182083Y0158884D01*
X0182700Y0158884D02*
X0180848Y0158884D01*
X0180848Y0157650D02*
X0180848Y0161353D01*
X0182700Y0161353D01*
X0183317Y0160736D01*
X0183317Y0159502D01*
X0182700Y0158884D01*
X0166134Y0164414D02*
X0162998Y0167550D01*
X0162998Y0165982D02*
X0166134Y0165982D01*
X0166134Y0167550D02*
X0162998Y0164414D01*
X0164566Y0164414D02*
X0164566Y0167550D01*
X0123050Y0183150D02*
X0120581Y0183150D01*
X0119366Y0183150D02*
X0116898Y0183150D01*
X0118132Y0183150D02*
X0118132Y0186853D01*
X0116898Y0185619D01*
X0115683Y0186236D02*
X0115066Y0186853D01*
X0113832Y0186853D01*
X0113214Y0186236D01*
X0113214Y0183767D01*
X0113832Y0183150D01*
X0115066Y0183150D01*
X0115683Y0183767D01*
X0120581Y0185619D02*
X0121815Y0186853D01*
X0121815Y0183150D01*
X0104914Y0175366D02*
X0101778Y0172230D01*
X0101778Y0173798D02*
X0104914Y0173798D01*
X0104914Y0172230D02*
X0101778Y0175366D01*
X0103346Y0175366D02*
X0103346Y0172230D01*
X0101383Y0162353D02*
X0102000Y0161736D01*
X0102000Y0161119D01*
X0101383Y0160502D01*
X0100148Y0160502D01*
X0099531Y0161119D01*
X0099531Y0161736D01*
X0100148Y0162353D01*
X0101383Y0162353D01*
X0101383Y0160502D02*
X0102000Y0159884D01*
X0102000Y0159267D01*
X0101383Y0158650D01*
X0100148Y0158650D01*
X0099531Y0159267D01*
X0099531Y0159884D01*
X0100148Y0160502D01*
X0098317Y0161736D02*
X0097700Y0162353D01*
X0096465Y0162353D01*
X0095848Y0161736D01*
X0095848Y0159267D01*
X0096465Y0158650D01*
X0097700Y0158650D01*
X0098317Y0159267D01*
X0098566Y0154353D02*
X0097332Y0154353D01*
X0096714Y0153736D01*
X0096714Y0151267D01*
X0097332Y0150650D01*
X0098566Y0150650D01*
X0099183Y0151267D01*
X0100398Y0150650D02*
X0102866Y0150650D01*
X0101632Y0150650D02*
X0101632Y0154353D01*
X0100398Y0153119D01*
X0099183Y0153736D02*
X0098566Y0154353D01*
X0104081Y0153736D02*
X0104081Y0151267D01*
X0106550Y0153736D01*
X0106550Y0151267D01*
X0105932Y0150650D01*
X0104698Y0150650D01*
X0104081Y0151267D01*
X0104081Y0153736D02*
X0104698Y0154353D01*
X0105932Y0154353D01*
X0106550Y0153736D01*
X0130311Y0195701D02*
X0130311Y0197552D01*
X0130928Y0198169D01*
X0132163Y0198169D01*
X0132780Y0197552D01*
X0132780Y0195701D01*
X0132780Y0196935D02*
X0134014Y0198169D01*
X0134014Y0199384D02*
X0134014Y0201852D01*
X0134014Y0203067D02*
X0133397Y0203067D01*
X0130928Y0205536D01*
X0130311Y0205536D01*
X0130311Y0203067D01*
X0130311Y0200618D02*
X0134014Y0200618D01*
X0131546Y0199384D02*
X0130311Y0200618D01*
X0130311Y0195701D02*
X0134014Y0195701D01*
D13*
X0141070Y0202962D02*
X0141070Y0207962D01*
X0143570Y0210462D01*
X0148570Y0210462D01*
X0151070Y0207962D01*
X0153570Y0210462D01*
X0158570Y0210462D01*
X0161070Y0207962D01*
X0163570Y0210462D01*
X0168570Y0210462D01*
X0171070Y0207962D01*
X0173570Y0210462D01*
X0178570Y0210462D01*
X0181070Y0207962D01*
X0183570Y0210462D01*
X0188570Y0210462D01*
X0191070Y0207962D01*
X0193570Y0210462D01*
X0198570Y0210462D01*
X0201070Y0207962D01*
X0203570Y0210462D01*
X0208570Y0210462D01*
X0211070Y0207962D01*
X0213570Y0210462D01*
X0218570Y0210462D01*
X0221070Y0207962D01*
X0223570Y0210462D01*
X0228570Y0210462D01*
X0231070Y0207962D01*
X0233570Y0210462D01*
X0238570Y0210462D01*
X0241070Y0207962D01*
X0241070Y0202962D01*
X0238570Y0200462D01*
X0233570Y0200462D01*
X0231070Y0202962D01*
X0228570Y0200462D01*
X0223570Y0200462D01*
X0221070Y0202962D01*
X0221070Y0207962D01*
X0211070Y0207962D02*
X0211070Y0202962D01*
X0208570Y0200462D01*
X0203570Y0200462D01*
X0201070Y0202962D01*
X0198570Y0200462D01*
X0193570Y0200462D01*
X0191070Y0202962D01*
X0191070Y0207962D01*
X0181070Y0207962D02*
X0181070Y0202962D01*
X0178570Y0200462D01*
X0173570Y0200462D01*
X0171070Y0202962D01*
X0168570Y0200462D01*
X0163570Y0200462D01*
X0161070Y0202962D01*
X0161070Y0207962D01*
X0171070Y0207962D02*
X0171070Y0202962D01*
X0161070Y0202962D02*
X0158570Y0200462D01*
X0153570Y0200462D01*
X0151070Y0202962D01*
X0148570Y0200462D01*
X0143570Y0200462D01*
X0141070Y0202962D01*
X0151070Y0202962D02*
X0151070Y0207962D01*
X0181070Y0202962D02*
X0183570Y0200462D01*
X0188570Y0200462D01*
X0191070Y0202962D01*
X0201070Y0202962D02*
X0201070Y0207962D01*
X0211070Y0202962D02*
X0213570Y0200462D01*
X0218570Y0200462D01*
X0221070Y0202962D01*
X0231070Y0202962D02*
X0231070Y0207962D01*
X0247064Y0208000D02*
X0247064Y0203000D01*
X0249564Y0200500D01*
X0254564Y0200500D01*
X0257064Y0203000D01*
X0257064Y0208000D01*
X0254564Y0210500D01*
X0249564Y0210500D01*
X0247064Y0208000D01*
X0257064Y0208000D02*
X0259564Y0210500D01*
X0264564Y0210500D01*
X0267064Y0208000D01*
X0269564Y0210500D01*
X0274564Y0210500D01*
X0277064Y0208000D01*
X0279564Y0210500D01*
X0284564Y0210500D01*
X0287064Y0208000D01*
X0289564Y0210500D01*
X0294564Y0210500D01*
X0297064Y0208000D01*
X0299564Y0210500D01*
X0304564Y0210500D01*
X0307064Y0208000D01*
X0309564Y0210500D01*
X0314564Y0210500D01*
X0317064Y0208000D01*
X0319564Y0210500D01*
X0324564Y0210500D01*
X0327064Y0208000D01*
X0327064Y0203000D01*
X0324564Y0200500D01*
X0319564Y0200500D01*
X0317064Y0203000D01*
X0314564Y0200500D01*
X0309564Y0200500D01*
X0307064Y0203000D01*
X0307064Y0208000D01*
X0297064Y0208000D02*
X0297064Y0203000D01*
X0294564Y0200500D01*
X0289564Y0200500D01*
X0287064Y0203000D01*
X0284564Y0200500D01*
X0279564Y0200500D01*
X0277064Y0203000D01*
X0277064Y0208000D01*
X0267064Y0208000D02*
X0267064Y0203000D01*
X0264564Y0200500D01*
X0259564Y0200500D01*
X0257064Y0203000D01*
X0267064Y0203000D02*
X0269564Y0200500D01*
X0274564Y0200500D01*
X0277064Y0203000D01*
X0287064Y0203000D02*
X0287064Y0208000D01*
X0297064Y0203000D02*
X0299564Y0200500D01*
X0304564Y0200500D01*
X0307064Y0203000D01*
X0317064Y0203000D02*
X0317064Y0208000D01*
X0322364Y0169800D02*
X0322364Y0161200D01*
X0357064Y0139400D02*
X0357064Y0121600D01*
X0365164Y0115300D02*
X0365164Y0111300D01*
X0377064Y0121600D02*
X0377064Y0129300D01*
X0377064Y0131700D01*
X0377064Y0139400D01*
X0377064Y0131700D02*
X0376995Y0131698D01*
X0376927Y0131692D01*
X0376859Y0131682D01*
X0376792Y0131669D01*
X0376726Y0131651D01*
X0376661Y0131630D01*
X0376597Y0131605D01*
X0376535Y0131577D01*
X0376474Y0131545D01*
X0376415Y0131510D01*
X0376359Y0131471D01*
X0376304Y0131429D01*
X0376253Y0131384D01*
X0376203Y0131336D01*
X0376157Y0131286D01*
X0376114Y0131233D01*
X0376073Y0131177D01*
X0376036Y0131120D01*
X0376003Y0131060D01*
X0375972Y0130998D01*
X0375946Y0130935D01*
X0375923Y0130871D01*
X0375903Y0130805D01*
X0375888Y0130738D01*
X0375876Y0130671D01*
X0375868Y0130603D01*
X0375864Y0130534D01*
X0375864Y0130466D01*
X0375868Y0130397D01*
X0375876Y0130329D01*
X0375888Y0130262D01*
X0375903Y0130195D01*
X0375923Y0130129D01*
X0375946Y0130065D01*
X0375972Y0130002D01*
X0376003Y0129940D01*
X0376036Y0129880D01*
X0376073Y0129823D01*
X0376114Y0129767D01*
X0376157Y0129714D01*
X0376203Y0129664D01*
X0376253Y0129616D01*
X0376304Y0129571D01*
X0376359Y0129529D01*
X0376415Y0129490D01*
X0376474Y0129455D01*
X0376535Y0129423D01*
X0376597Y0129395D01*
X0376661Y0129370D01*
X0376726Y0129349D01*
X0376792Y0129331D01*
X0376859Y0129318D01*
X0376927Y0129308D01*
X0376995Y0129302D01*
X0377064Y0129300D01*
X0322064Y0124400D02*
X0322064Y0116700D01*
X0322064Y0114300D01*
X0322064Y0106600D01*
X0310164Y0100300D02*
X0310164Y0096300D01*
X0302064Y0106600D02*
X0302064Y0124400D01*
X0282464Y0115700D02*
X0271664Y0115700D01*
X0242064Y0131500D02*
X0242064Y0139500D01*
X0241064Y0140500D01*
X0233064Y0140500D01*
X0232064Y0139500D01*
X0231064Y0140500D01*
X0223064Y0140500D01*
X0222064Y0139500D01*
X0221064Y0140500D01*
X0213064Y0140500D01*
X0212064Y0139500D01*
X0212064Y0131500D01*
X0213064Y0130500D01*
X0221064Y0130500D01*
X0222064Y0131500D01*
X0223064Y0130500D01*
X0231064Y0130500D01*
X0232064Y0131500D01*
X0233064Y0130500D01*
X0241064Y0130500D01*
X0242064Y0131500D01*
X0219064Y0120500D02*
X0205064Y0120500D01*
X0196764Y0117100D02*
X0192764Y0117100D01*
X0205064Y0100500D02*
X0210864Y0100500D01*
X0213264Y0100500D01*
X0219064Y0100500D01*
X0213264Y0100500D02*
X0213262Y0100569D01*
X0213256Y0100637D01*
X0213246Y0100705D01*
X0213233Y0100772D01*
X0213215Y0100838D01*
X0213194Y0100903D01*
X0213169Y0100967D01*
X0213141Y0101029D01*
X0213109Y0101090D01*
X0213074Y0101149D01*
X0213035Y0101205D01*
X0212993Y0101260D01*
X0212948Y0101311D01*
X0212900Y0101361D01*
X0212850Y0101407D01*
X0212797Y0101450D01*
X0212741Y0101491D01*
X0212684Y0101528D01*
X0212624Y0101561D01*
X0212562Y0101592D01*
X0212499Y0101618D01*
X0212435Y0101641D01*
X0212369Y0101661D01*
X0212302Y0101676D01*
X0212235Y0101688D01*
X0212167Y0101696D01*
X0212098Y0101700D01*
X0212030Y0101700D01*
X0211961Y0101696D01*
X0211893Y0101688D01*
X0211826Y0101676D01*
X0211759Y0101661D01*
X0211693Y0101641D01*
X0211629Y0101618D01*
X0211566Y0101592D01*
X0211504Y0101561D01*
X0211444Y0101528D01*
X0211387Y0101491D01*
X0211331Y0101450D01*
X0211278Y0101407D01*
X0211228Y0101361D01*
X0211180Y0101311D01*
X0211135Y0101260D01*
X0211093Y0101205D01*
X0211054Y0101149D01*
X0211019Y0101090D01*
X0210987Y0101029D01*
X0210959Y0100967D01*
X0210934Y0100903D01*
X0210913Y0100838D01*
X0210895Y0100772D01*
X0210882Y0100705D01*
X0210872Y0100637D01*
X0210866Y0100569D01*
X0210864Y0100500D01*
X0210864Y0070300D02*
X0206664Y0070300D01*
X0210864Y0070300D02*
X0213264Y0070300D01*
X0217464Y0070300D01*
X0213264Y0070300D02*
X0213262Y0070231D01*
X0213256Y0070163D01*
X0213246Y0070095D01*
X0213233Y0070028D01*
X0213215Y0069962D01*
X0213194Y0069897D01*
X0213169Y0069833D01*
X0213141Y0069771D01*
X0213109Y0069710D01*
X0213074Y0069651D01*
X0213035Y0069595D01*
X0212993Y0069540D01*
X0212948Y0069489D01*
X0212900Y0069439D01*
X0212850Y0069393D01*
X0212797Y0069350D01*
X0212741Y0069309D01*
X0212684Y0069272D01*
X0212624Y0069239D01*
X0212562Y0069208D01*
X0212499Y0069182D01*
X0212435Y0069159D01*
X0212369Y0069139D01*
X0212302Y0069124D01*
X0212235Y0069112D01*
X0212167Y0069104D01*
X0212098Y0069100D01*
X0212030Y0069100D01*
X0211961Y0069104D01*
X0211893Y0069112D01*
X0211826Y0069124D01*
X0211759Y0069139D01*
X0211693Y0069159D01*
X0211629Y0069182D01*
X0211566Y0069208D01*
X0211504Y0069239D01*
X0211444Y0069272D01*
X0211387Y0069309D01*
X0211331Y0069350D01*
X0211278Y0069393D01*
X0211228Y0069439D01*
X0211180Y0069489D01*
X0211135Y0069540D01*
X0211093Y0069595D01*
X0211054Y0069651D01*
X0211019Y0069710D01*
X0210987Y0069771D01*
X0210959Y0069833D01*
X0210934Y0069897D01*
X0210913Y0069962D01*
X0210895Y0070028D01*
X0210882Y0070095D01*
X0210872Y0070163D01*
X0210866Y0070231D01*
X0210864Y0070300D01*
X0206664Y0050700D02*
X0217464Y0050700D01*
X0267064Y0054500D02*
X0267064Y0046500D01*
X0268064Y0045500D01*
X0267064Y0044500D01*
X0267064Y0036500D01*
X0268064Y0035500D01*
X0276064Y0035500D01*
X0277064Y0036500D01*
X0277064Y0044500D01*
X0276064Y0045500D01*
X0277064Y0046500D01*
X0277064Y0054500D01*
X0276064Y0055500D01*
X0277064Y0056500D01*
X0277064Y0064500D01*
X0276064Y0065500D01*
X0268064Y0065500D01*
X0267064Y0064500D01*
X0267064Y0056500D01*
X0268064Y0055500D01*
X0267064Y0054500D01*
X0292064Y0054500D02*
X0292064Y0046500D01*
X0293064Y0045500D01*
X0292064Y0044500D01*
X0292064Y0036500D01*
X0293064Y0035500D01*
X0301064Y0035500D01*
X0302064Y0036500D01*
X0302064Y0044500D01*
X0301064Y0045500D01*
X0302064Y0046500D01*
X0302064Y0054500D01*
X0301064Y0055500D01*
X0302064Y0056500D01*
X0302064Y0064500D01*
X0301064Y0065500D01*
X0293064Y0065500D01*
X0292064Y0064500D01*
X0292064Y0056500D01*
X0293064Y0055500D01*
X0292064Y0054500D01*
X0322364Y0054300D02*
X0322364Y0051200D01*
X0322364Y0054300D02*
X0322364Y0056700D01*
X0322364Y0059800D01*
X0322364Y0056700D02*
X0322433Y0056698D01*
X0322501Y0056692D01*
X0322569Y0056682D01*
X0322636Y0056669D01*
X0322702Y0056651D01*
X0322767Y0056630D01*
X0322831Y0056605D01*
X0322893Y0056577D01*
X0322954Y0056545D01*
X0323013Y0056510D01*
X0323069Y0056471D01*
X0323124Y0056429D01*
X0323175Y0056384D01*
X0323225Y0056336D01*
X0323271Y0056286D01*
X0323314Y0056233D01*
X0323355Y0056177D01*
X0323392Y0056120D01*
X0323425Y0056060D01*
X0323456Y0055998D01*
X0323482Y0055935D01*
X0323505Y0055871D01*
X0323525Y0055805D01*
X0323540Y0055738D01*
X0323552Y0055671D01*
X0323560Y0055603D01*
X0323564Y0055534D01*
X0323564Y0055466D01*
X0323560Y0055397D01*
X0323552Y0055329D01*
X0323540Y0055262D01*
X0323525Y0055195D01*
X0323505Y0055129D01*
X0323482Y0055065D01*
X0323456Y0055002D01*
X0323425Y0054940D01*
X0323392Y0054880D01*
X0323355Y0054823D01*
X0323314Y0054767D01*
X0323271Y0054714D01*
X0323225Y0054664D01*
X0323175Y0054616D01*
X0323124Y0054571D01*
X0323069Y0054529D01*
X0323013Y0054490D01*
X0322954Y0054455D01*
X0322893Y0054423D01*
X0322831Y0054395D01*
X0322767Y0054370D01*
X0322702Y0054349D01*
X0322636Y0054331D01*
X0322569Y0054318D01*
X0322501Y0054308D01*
X0322433Y0054302D01*
X0322364Y0054300D01*
X0361764Y0051200D02*
X0361764Y0059800D01*
X0364564Y0080500D02*
X0362064Y0083000D01*
X0362064Y0088000D01*
X0364564Y0090500D01*
X0369564Y0090500D01*
X0372064Y0088000D01*
X0374564Y0090500D01*
X0379564Y0090500D01*
X0382064Y0088000D01*
X0382064Y0083000D01*
X0379564Y0080500D01*
X0374564Y0080500D01*
X0372064Y0083000D01*
X0369564Y0080500D01*
X0364564Y0080500D01*
X0372064Y0083000D02*
X0372064Y0088000D01*
X0322064Y0114300D02*
X0321995Y0114302D01*
X0321927Y0114308D01*
X0321859Y0114318D01*
X0321792Y0114331D01*
X0321726Y0114349D01*
X0321661Y0114370D01*
X0321597Y0114395D01*
X0321535Y0114423D01*
X0321474Y0114455D01*
X0321415Y0114490D01*
X0321359Y0114529D01*
X0321304Y0114571D01*
X0321253Y0114616D01*
X0321203Y0114664D01*
X0321157Y0114714D01*
X0321114Y0114767D01*
X0321073Y0114823D01*
X0321036Y0114880D01*
X0321003Y0114940D01*
X0320972Y0115002D01*
X0320946Y0115065D01*
X0320923Y0115129D01*
X0320903Y0115195D01*
X0320888Y0115262D01*
X0320876Y0115329D01*
X0320868Y0115397D01*
X0320864Y0115466D01*
X0320864Y0115534D01*
X0320868Y0115603D01*
X0320876Y0115671D01*
X0320888Y0115738D01*
X0320903Y0115805D01*
X0320923Y0115871D01*
X0320946Y0115935D01*
X0320972Y0115998D01*
X0321003Y0116060D01*
X0321036Y0116120D01*
X0321073Y0116177D01*
X0321114Y0116233D01*
X0321157Y0116286D01*
X0321203Y0116336D01*
X0321253Y0116384D01*
X0321304Y0116429D01*
X0321359Y0116471D01*
X0321415Y0116510D01*
X0321474Y0116545D01*
X0321535Y0116577D01*
X0321597Y0116605D01*
X0321661Y0116630D01*
X0321726Y0116651D01*
X0321792Y0116669D01*
X0321859Y0116682D01*
X0321927Y0116692D01*
X0321995Y0116698D01*
X0322064Y0116700D01*
X0282464Y0135300D02*
X0278264Y0135300D01*
X0275864Y0135300D01*
X0271664Y0135300D01*
X0275864Y0135300D02*
X0275866Y0135231D01*
X0275872Y0135163D01*
X0275882Y0135095D01*
X0275895Y0135028D01*
X0275913Y0134962D01*
X0275934Y0134897D01*
X0275959Y0134833D01*
X0275987Y0134771D01*
X0276019Y0134710D01*
X0276054Y0134651D01*
X0276093Y0134595D01*
X0276135Y0134540D01*
X0276180Y0134489D01*
X0276228Y0134439D01*
X0276278Y0134393D01*
X0276331Y0134350D01*
X0276387Y0134309D01*
X0276444Y0134272D01*
X0276504Y0134239D01*
X0276566Y0134208D01*
X0276629Y0134182D01*
X0276693Y0134159D01*
X0276759Y0134139D01*
X0276826Y0134124D01*
X0276893Y0134112D01*
X0276961Y0134104D01*
X0277030Y0134100D01*
X0277098Y0134100D01*
X0277167Y0134104D01*
X0277235Y0134112D01*
X0277302Y0134124D01*
X0277369Y0134139D01*
X0277435Y0134159D01*
X0277499Y0134182D01*
X0277562Y0134208D01*
X0277624Y0134239D01*
X0277684Y0134272D01*
X0277741Y0134309D01*
X0277797Y0134350D01*
X0277850Y0134393D01*
X0277900Y0134439D01*
X0277948Y0134489D01*
X0277993Y0134540D01*
X0278035Y0134595D01*
X0278074Y0134651D01*
X0278109Y0134710D01*
X0278141Y0134771D01*
X0278169Y0134833D01*
X0278194Y0134897D01*
X0278215Y0134962D01*
X0278233Y0135028D01*
X0278246Y0135095D01*
X0278256Y0135163D01*
X0278262Y0135231D01*
X0278264Y0135300D01*
X0242064Y0156500D02*
X0241064Y0155500D01*
X0233064Y0155500D01*
X0232064Y0156500D01*
X0231064Y0155500D01*
X0223064Y0155500D01*
X0222064Y0156500D01*
X0221064Y0155500D01*
X0213064Y0155500D01*
X0212064Y0156500D01*
X0212064Y0164500D01*
X0213064Y0165500D01*
X0221064Y0165500D01*
X0222064Y0164500D01*
X0223064Y0165500D01*
X0231064Y0165500D01*
X0232064Y0164500D01*
X0233064Y0165500D01*
X0241064Y0165500D01*
X0242064Y0164500D01*
X0242064Y0156500D01*
X0194064Y0151400D02*
X0190064Y0151400D01*
X0190064Y0139600D02*
X0190864Y0139600D01*
X0193264Y0139600D01*
X0194064Y0139600D01*
X0193264Y0139600D02*
X0193262Y0139669D01*
X0193256Y0139737D01*
X0193246Y0139805D01*
X0193233Y0139872D01*
X0193215Y0139938D01*
X0193194Y0140003D01*
X0193169Y0140067D01*
X0193141Y0140129D01*
X0193109Y0140190D01*
X0193074Y0140249D01*
X0193035Y0140305D01*
X0192993Y0140360D01*
X0192948Y0140411D01*
X0192900Y0140461D01*
X0192850Y0140507D01*
X0192797Y0140550D01*
X0192741Y0140591D01*
X0192684Y0140628D01*
X0192624Y0140661D01*
X0192562Y0140692D01*
X0192499Y0140718D01*
X0192435Y0140741D01*
X0192369Y0140761D01*
X0192302Y0140776D01*
X0192235Y0140788D01*
X0192167Y0140796D01*
X0192098Y0140800D01*
X0192030Y0140800D01*
X0191961Y0140796D01*
X0191893Y0140788D01*
X0191826Y0140776D01*
X0191759Y0140761D01*
X0191693Y0140741D01*
X0191629Y0140718D01*
X0191566Y0140692D01*
X0191504Y0140661D01*
X0191444Y0140628D01*
X0191387Y0140591D01*
X0191331Y0140550D01*
X0191278Y0140507D01*
X0191228Y0140461D01*
X0191180Y0140411D01*
X0191135Y0140360D01*
X0191093Y0140305D01*
X0191054Y0140249D01*
X0191019Y0140190D01*
X0190987Y0140129D01*
X0190959Y0140067D01*
X0190934Y0140003D01*
X0190913Y0139938D01*
X0190895Y0139872D01*
X0190882Y0139805D01*
X0190872Y0139737D01*
X0190866Y0139669D01*
X0190864Y0139600D01*
X0162964Y0149800D02*
X0162964Y0154300D01*
X0162964Y0156700D01*
X0162964Y0161200D01*
X0162964Y0156700D02*
X0162895Y0156698D01*
X0162827Y0156692D01*
X0162759Y0156682D01*
X0162692Y0156669D01*
X0162626Y0156651D01*
X0162561Y0156630D01*
X0162497Y0156605D01*
X0162435Y0156577D01*
X0162374Y0156545D01*
X0162315Y0156510D01*
X0162259Y0156471D01*
X0162204Y0156429D01*
X0162153Y0156384D01*
X0162103Y0156336D01*
X0162057Y0156286D01*
X0162014Y0156233D01*
X0161973Y0156177D01*
X0161936Y0156120D01*
X0161903Y0156060D01*
X0161872Y0155998D01*
X0161846Y0155935D01*
X0161823Y0155871D01*
X0161803Y0155805D01*
X0161788Y0155738D01*
X0161776Y0155671D01*
X0161768Y0155603D01*
X0161764Y0155534D01*
X0161764Y0155466D01*
X0161768Y0155397D01*
X0161776Y0155329D01*
X0161788Y0155262D01*
X0161803Y0155195D01*
X0161823Y0155129D01*
X0161846Y0155065D01*
X0161872Y0155002D01*
X0161903Y0154940D01*
X0161936Y0154880D01*
X0161973Y0154823D01*
X0162014Y0154767D01*
X0162057Y0154714D01*
X0162103Y0154664D01*
X0162153Y0154616D01*
X0162204Y0154571D01*
X0162259Y0154529D01*
X0162315Y0154490D01*
X0162374Y0154455D01*
X0162435Y0154423D01*
X0162497Y0154395D01*
X0162561Y0154370D01*
X0162626Y0154349D01*
X0162692Y0154331D01*
X0162759Y0154318D01*
X0162827Y0154308D01*
X0162895Y0154302D01*
X0162964Y0154300D01*
X0151164Y0149800D02*
X0151164Y0161200D01*
X0097464Y0175700D02*
X0093264Y0175700D01*
X0090864Y0175700D01*
X0086664Y0175700D01*
X0090864Y0175700D02*
X0090866Y0175769D01*
X0090872Y0175837D01*
X0090882Y0175905D01*
X0090895Y0175972D01*
X0090913Y0176038D01*
X0090934Y0176103D01*
X0090959Y0176167D01*
X0090987Y0176229D01*
X0091019Y0176290D01*
X0091054Y0176349D01*
X0091093Y0176405D01*
X0091135Y0176460D01*
X0091180Y0176511D01*
X0091228Y0176561D01*
X0091278Y0176607D01*
X0091331Y0176650D01*
X0091387Y0176691D01*
X0091444Y0176728D01*
X0091504Y0176761D01*
X0091566Y0176792D01*
X0091629Y0176818D01*
X0091693Y0176841D01*
X0091759Y0176861D01*
X0091826Y0176876D01*
X0091893Y0176888D01*
X0091961Y0176896D01*
X0092030Y0176900D01*
X0092098Y0176900D01*
X0092167Y0176896D01*
X0092235Y0176888D01*
X0092302Y0176876D01*
X0092369Y0176861D01*
X0092435Y0176841D01*
X0092499Y0176818D01*
X0092562Y0176792D01*
X0092624Y0176761D01*
X0092684Y0176728D01*
X0092741Y0176691D01*
X0092797Y0176650D01*
X0092850Y0176607D01*
X0092900Y0176561D01*
X0092948Y0176511D01*
X0092993Y0176460D01*
X0093035Y0176405D01*
X0093074Y0176349D01*
X0093109Y0176290D01*
X0093141Y0176229D01*
X0093169Y0176167D01*
X0093194Y0176103D01*
X0093215Y0176038D01*
X0093233Y0175972D01*
X0093246Y0175905D01*
X0093256Y0175837D01*
X0093262Y0175769D01*
X0093264Y0175700D01*
X0097464Y0195300D02*
X0086664Y0195300D01*
X0108064Y0105500D02*
X0107064Y0104500D01*
X0107064Y0096500D01*
X0108064Y0095500D01*
X0107064Y0094500D01*
X0107064Y0086500D01*
X0108064Y0085500D01*
X0107064Y0084500D01*
X0107064Y0076500D01*
X0108064Y0075500D01*
X0116064Y0075500D01*
X0117064Y0076500D01*
X0117064Y0084500D01*
X0116064Y0085500D01*
X0117064Y0086500D01*
X0117064Y0094500D01*
X0116064Y0095500D01*
X0117064Y0096500D01*
X0117064Y0104500D01*
X0116064Y0105500D01*
X0108064Y0105500D01*
X0131664Y0105300D02*
X0142464Y0105300D01*
X0142464Y0085700D02*
X0138264Y0085700D01*
X0135864Y0085700D01*
X0131664Y0085700D01*
X0135864Y0085700D02*
X0135866Y0085769D01*
X0135872Y0085837D01*
X0135882Y0085905D01*
X0135895Y0085972D01*
X0135913Y0086038D01*
X0135934Y0086103D01*
X0135959Y0086167D01*
X0135987Y0086229D01*
X0136019Y0086290D01*
X0136054Y0086349D01*
X0136093Y0086405D01*
X0136135Y0086460D01*
X0136180Y0086511D01*
X0136228Y0086561D01*
X0136278Y0086607D01*
X0136331Y0086650D01*
X0136387Y0086691D01*
X0136444Y0086728D01*
X0136504Y0086761D01*
X0136566Y0086792D01*
X0136629Y0086818D01*
X0136693Y0086841D01*
X0136759Y0086861D01*
X0136826Y0086876D01*
X0136893Y0086888D01*
X0136961Y0086896D01*
X0137030Y0086900D01*
X0137098Y0086900D01*
X0137167Y0086896D01*
X0137235Y0086888D01*
X0137302Y0086876D01*
X0137369Y0086861D01*
X0137435Y0086841D01*
X0137499Y0086818D01*
X0137562Y0086792D01*
X0137624Y0086761D01*
X0137684Y0086728D01*
X0137741Y0086691D01*
X0137797Y0086650D01*
X0137850Y0086607D01*
X0137900Y0086561D01*
X0137948Y0086511D01*
X0137993Y0086460D01*
X0138035Y0086405D01*
X0138074Y0086349D01*
X0138109Y0086290D01*
X0138141Y0086229D01*
X0138169Y0086167D01*
X0138194Y0086103D01*
X0138215Y0086038D01*
X0138233Y0085972D01*
X0138246Y0085905D01*
X0138256Y0085837D01*
X0138262Y0085769D01*
X0138264Y0085700D01*
X0179564Y0020500D02*
X0177064Y0018000D01*
X0177064Y0013000D01*
X0179564Y0010500D01*
X0184564Y0010500D01*
X0187064Y0013000D01*
X0189564Y0010500D01*
X0194564Y0010500D01*
X0197064Y0013000D01*
X0197064Y0018000D01*
X0194564Y0020500D01*
X0189564Y0020500D01*
X0187064Y0018000D01*
X0187064Y0013000D01*
X0187064Y0018000D02*
X0184564Y0020500D01*
X0179564Y0020500D01*
X0197064Y0018000D02*
X0199564Y0020500D01*
X0204564Y0020500D01*
X0207064Y0018000D01*
X0209564Y0020500D01*
X0214564Y0020500D01*
X0217064Y0018000D01*
X0219564Y0020500D01*
X0224564Y0020500D01*
X0227064Y0018000D01*
X0227064Y0013000D01*
X0224564Y0010500D01*
X0219564Y0010500D01*
X0217064Y0013000D01*
X0214564Y0010500D01*
X0209564Y0010500D01*
X0207064Y0013000D01*
X0204564Y0010500D01*
X0199564Y0010500D01*
X0197064Y0013000D01*
X0207064Y0013000D02*
X0207064Y0018000D01*
X0217064Y0018000D02*
X0217064Y0013000D01*
X0227064Y0013000D02*
X0229564Y0010500D01*
X0234564Y0010500D01*
X0237064Y0013000D01*
X0239564Y0010500D01*
X0244564Y0010500D01*
X0247064Y0013000D01*
X0249564Y0010500D01*
X0254564Y0010500D01*
X0257064Y0013000D01*
X0257064Y0018000D01*
X0254564Y0020500D01*
X0249564Y0020500D01*
X0247064Y0018000D01*
X0247064Y0013000D01*
X0247064Y0018000D02*
X0244564Y0020500D01*
X0239564Y0020500D01*
X0237064Y0018000D01*
X0237064Y0013000D01*
X0237064Y0018000D02*
X0234564Y0020500D01*
X0229564Y0020500D01*
X0227064Y0018000D01*
X0267064Y0018000D02*
X0267064Y0013000D01*
X0269564Y0010500D01*
X0274564Y0010500D01*
X0277064Y0013000D01*
X0279564Y0010500D01*
X0284564Y0010500D01*
X0287064Y0013000D01*
X0287064Y0018000D01*
X0284564Y0020500D01*
X0279564Y0020500D01*
X0277064Y0018000D01*
X0277064Y0013000D01*
X0277064Y0018000D02*
X0274564Y0020500D01*
X0269564Y0020500D01*
X0267064Y0018000D01*
X0287064Y0018000D02*
X0289564Y0020500D01*
X0294564Y0020500D01*
X0297064Y0018000D01*
X0299564Y0020500D01*
X0304564Y0020500D01*
X0307064Y0018000D01*
X0309564Y0020500D01*
X0314564Y0020500D01*
X0317064Y0018000D01*
X0319564Y0020500D01*
X0324564Y0020500D01*
X0327064Y0018000D01*
X0327064Y0013000D01*
X0324564Y0010500D01*
X0319564Y0010500D01*
X0317064Y0013000D01*
X0314564Y0010500D01*
X0309564Y0010500D01*
X0307064Y0013000D01*
X0304564Y0010500D01*
X0299564Y0010500D01*
X0297064Y0013000D01*
X0294564Y0010500D01*
X0289564Y0010500D01*
X0287064Y0013000D01*
X0297064Y0013000D02*
X0297064Y0018000D01*
X0307064Y0018000D02*
X0307064Y0013000D01*
X0317064Y0013000D02*
X0317064Y0018000D01*
X0361764Y0161200D02*
X0361764Y0164300D01*
X0361764Y0166700D01*
X0361764Y0169800D01*
X0361764Y0166700D02*
X0361695Y0166698D01*
X0361627Y0166692D01*
X0361559Y0166682D01*
X0361492Y0166669D01*
X0361426Y0166651D01*
X0361361Y0166630D01*
X0361297Y0166605D01*
X0361235Y0166577D01*
X0361174Y0166545D01*
X0361115Y0166510D01*
X0361059Y0166471D01*
X0361004Y0166429D01*
X0360953Y0166384D01*
X0360903Y0166336D01*
X0360857Y0166286D01*
X0360814Y0166233D01*
X0360773Y0166177D01*
X0360736Y0166120D01*
X0360703Y0166060D01*
X0360672Y0165998D01*
X0360646Y0165935D01*
X0360623Y0165871D01*
X0360603Y0165805D01*
X0360588Y0165738D01*
X0360576Y0165671D01*
X0360568Y0165603D01*
X0360564Y0165534D01*
X0360564Y0165466D01*
X0360568Y0165397D01*
X0360576Y0165329D01*
X0360588Y0165262D01*
X0360603Y0165195D01*
X0360623Y0165129D01*
X0360646Y0165065D01*
X0360672Y0165002D01*
X0360703Y0164940D01*
X0360736Y0164880D01*
X0360773Y0164823D01*
X0360814Y0164767D01*
X0360857Y0164714D01*
X0360903Y0164664D01*
X0360953Y0164616D01*
X0361004Y0164571D01*
X0361059Y0164529D01*
X0361115Y0164490D01*
X0361174Y0164455D01*
X0361235Y0164423D01*
X0361297Y0164395D01*
X0361361Y0164370D01*
X0361426Y0164349D01*
X0361492Y0164331D01*
X0361559Y0164318D01*
X0361627Y0164308D01*
X0361695Y0164302D01*
X0361764Y0164300D01*
D14*
X0111474Y0132862D03*
X0111474Y0128138D03*
X0111474Y0117862D03*
X0111474Y0113138D03*
D15*
X0111474Y0115500D03*
X0111474Y0130500D03*
D16*
X0237164Y0072935D02*
X0237164Y0071067D01*
X0237632Y0070600D01*
X0238566Y0070600D01*
X0239033Y0071067D01*
X0239927Y0070600D02*
X0241795Y0070600D01*
X0240861Y0070600D02*
X0240861Y0073402D01*
X0239927Y0072468D01*
X0239033Y0072935D02*
X0238566Y0073402D01*
X0237632Y0073402D01*
X0237164Y0072935D01*
X0242689Y0072935D02*
X0242689Y0072468D01*
X0243156Y0072001D01*
X0244090Y0072001D01*
X0244557Y0071534D01*
X0244557Y0071067D01*
X0244090Y0070600D01*
X0243156Y0070600D01*
X0242689Y0071067D01*
X0242689Y0071534D01*
X0243156Y0072001D01*
X0244090Y0072001D02*
X0244557Y0072468D01*
X0244557Y0072935D01*
X0244090Y0073402D01*
X0243156Y0073402D01*
X0242689Y0072935D01*
X0240861Y0058402D02*
X0240861Y0055600D01*
X0239927Y0055600D02*
X0241795Y0055600D01*
X0242689Y0056067D02*
X0243156Y0055600D01*
X0244090Y0055600D01*
X0244557Y0056067D01*
X0244557Y0056534D01*
X0244090Y0057001D01*
X0242689Y0057001D01*
X0242689Y0056067D01*
X0242689Y0057001D02*
X0243623Y0057935D01*
X0244557Y0058402D01*
X0240861Y0058402D02*
X0239927Y0057468D01*
X0239033Y0057935D02*
X0238566Y0058402D01*
X0237632Y0058402D01*
X0237164Y0057935D01*
X0237164Y0056067D01*
X0237632Y0055600D01*
X0238566Y0055600D01*
X0239033Y0056067D01*
X0302377Y0082567D02*
X0302844Y0082100D01*
X0303779Y0082100D01*
X0304246Y0082567D01*
X0305140Y0082100D02*
X0307008Y0083968D01*
X0307008Y0084435D01*
X0306541Y0084902D01*
X0305607Y0084902D01*
X0305140Y0084435D01*
X0304246Y0084435D02*
X0303779Y0084902D01*
X0302844Y0084902D01*
X0302377Y0084435D01*
X0302377Y0082567D01*
X0305140Y0082100D02*
X0307008Y0082100D01*
X0307902Y0082567D02*
X0308369Y0082100D01*
X0309303Y0082100D01*
X0309770Y0082567D01*
X0309770Y0083034D01*
X0309303Y0083501D01*
X0308836Y0083501D01*
X0309303Y0083501D02*
X0309770Y0083968D01*
X0309770Y0084435D01*
X0309303Y0084902D01*
X0308369Y0084902D01*
X0307902Y0084435D01*
X0330662Y0088813D02*
X0330662Y0090214D01*
X0331129Y0090681D01*
X0332063Y0090681D01*
X0332530Y0090214D01*
X0332530Y0088813D01*
X0332530Y0089747D02*
X0333464Y0090681D01*
X0333464Y0091575D02*
X0333464Y0093444D01*
X0333464Y0094338D02*
X0333464Y0096206D01*
X0333464Y0095272D02*
X0330662Y0095272D01*
X0331596Y0094338D01*
X0330662Y0092509D02*
X0333464Y0092509D01*
X0331596Y0091575D02*
X0330662Y0092509D01*
X0330662Y0088813D02*
X0333464Y0088813D01*
X0338662Y0084526D02*
X0338662Y0083592D01*
X0339129Y0083125D01*
X0338662Y0084526D02*
X0339129Y0084993D01*
X0339596Y0084993D01*
X0341464Y0083125D01*
X0341464Y0084993D01*
X0341464Y0082231D02*
X0341464Y0080362D01*
X0341464Y0079468D02*
X0340530Y0078534D01*
X0340530Y0079001D02*
X0340530Y0077600D01*
X0341464Y0077600D02*
X0338662Y0077600D01*
X0338662Y0079001D01*
X0339129Y0079468D01*
X0340063Y0079468D01*
X0340530Y0079001D01*
X0339596Y0080362D02*
X0338662Y0081296D01*
X0341464Y0081296D01*
X0348140Y0038402D02*
X0349541Y0038402D01*
X0350008Y0037935D01*
X0350008Y0037001D01*
X0349541Y0036534D01*
X0348140Y0036534D01*
X0349074Y0036534D02*
X0350008Y0035600D01*
X0350902Y0036067D02*
X0350902Y0036534D01*
X0351369Y0037001D01*
X0352303Y0037001D01*
X0352770Y0036534D01*
X0352770Y0036067D01*
X0352303Y0035600D01*
X0351369Y0035600D01*
X0350902Y0036067D01*
X0351369Y0037001D02*
X0350902Y0037468D01*
X0350902Y0037935D01*
X0351369Y0038402D01*
X0352303Y0038402D01*
X0352770Y0037935D01*
X0352770Y0037468D01*
X0352303Y0037001D01*
X0348140Y0035600D02*
X0348140Y0038402D01*
X0336629Y0020706D02*
X0336162Y0020706D01*
X0336162Y0018838D01*
X0336162Y0017009D02*
X0338964Y0017009D01*
X0338964Y0016075D02*
X0338964Y0017944D01*
X0338964Y0018838D02*
X0338497Y0018838D01*
X0336629Y0020706D01*
X0336162Y0017009D02*
X0337096Y0016075D01*
X0336629Y0015181D02*
X0336162Y0014714D01*
X0336162Y0013780D01*
X0336629Y0013313D01*
X0338497Y0013313D01*
X0338964Y0013780D01*
X0338964Y0014714D01*
X0338497Y0015181D01*
X0330464Y0014714D02*
X0329997Y0015181D01*
X0330464Y0014714D02*
X0330464Y0013780D01*
X0329997Y0013313D01*
X0328129Y0013313D01*
X0327662Y0013780D01*
X0327662Y0014714D01*
X0328129Y0015181D01*
X0328596Y0016075D02*
X0327662Y0017009D01*
X0330464Y0017009D01*
X0330464Y0016075D02*
X0330464Y0017944D01*
X0329997Y0018838D02*
X0330464Y0019305D01*
X0330464Y0020239D01*
X0329997Y0020706D01*
X0328129Y0020706D01*
X0327662Y0020239D01*
X0327662Y0019305D01*
X0328129Y0018838D01*
X0328596Y0018838D01*
X0329063Y0019305D01*
X0329063Y0020706D01*
X0261464Y0098600D02*
X0258662Y0098600D01*
X0258662Y0100001D01*
X0259129Y0100468D01*
X0260063Y0100468D01*
X0260530Y0100001D01*
X0260530Y0098600D01*
X0260530Y0099534D02*
X0261464Y0100468D01*
X0260063Y0101362D02*
X0260063Y0103231D01*
X0258662Y0102764D02*
X0260063Y0101362D01*
X0261464Y0102764D02*
X0258662Y0102764D01*
X0311377Y0132100D02*
X0311377Y0134902D01*
X0312779Y0134902D01*
X0313246Y0134435D01*
X0313246Y0133501D01*
X0312779Y0133034D01*
X0311377Y0133034D01*
X0312311Y0133034D02*
X0313246Y0132100D01*
X0314140Y0132100D02*
X0316008Y0132100D01*
X0315074Y0132100D02*
X0315074Y0134902D01*
X0314140Y0133968D01*
X0316902Y0134435D02*
X0316902Y0132567D01*
X0318770Y0134435D01*
X0318770Y0132567D01*
X0318303Y0132100D01*
X0317369Y0132100D01*
X0316902Y0132567D01*
X0316902Y0134435D02*
X0317369Y0134902D01*
X0318303Y0134902D01*
X0318770Y0134435D01*
X0338164Y0146100D02*
X0338164Y0148902D01*
X0339566Y0148902D01*
X0340033Y0148435D01*
X0340033Y0147501D01*
X0339566Y0147034D01*
X0338164Y0147034D01*
X0339099Y0147034D02*
X0340033Y0146100D01*
X0340927Y0146100D02*
X0342795Y0147968D01*
X0342795Y0148435D01*
X0342328Y0148902D01*
X0341394Y0148902D01*
X0340927Y0148435D01*
X0340927Y0146100D02*
X0342795Y0146100D01*
X0343689Y0146567D02*
X0345557Y0148435D01*
X0345557Y0146567D01*
X0345090Y0146100D01*
X0344156Y0146100D01*
X0343689Y0146567D01*
X0343689Y0148435D01*
X0344156Y0148902D01*
X0345090Y0148902D01*
X0345557Y0148435D01*
X0246964Y0150600D02*
X0244162Y0150600D01*
X0244162Y0152001D01*
X0244629Y0152468D01*
X0245563Y0152468D01*
X0246030Y0152001D01*
X0246030Y0150600D01*
X0246030Y0151534D02*
X0246964Y0152468D01*
X0246964Y0153362D02*
X0245096Y0155231D01*
X0244629Y0155231D01*
X0244162Y0154764D01*
X0244162Y0153829D01*
X0244629Y0153362D01*
X0246964Y0153362D02*
X0246964Y0155231D01*
D17*
X0094564Y0023000D02*
X0063964Y0023000D01*
X0063964Y0058400D01*
X0077664Y0058400D01*
X0077664Y0023100D01*
X0115814Y0023000D02*
X0117064Y0023000D01*
X0117064Y0031750D01*
X0117064Y0053000D02*
X0117064Y0058400D01*
X0077664Y0058400D01*
X0101812Y0077726D02*
X0102379Y0077159D01*
X0101812Y0077726D02*
X0101812Y0078860D01*
X0102379Y0079428D01*
X0102946Y0079428D01*
X0103513Y0078860D01*
X0104080Y0079428D01*
X0104647Y0079428D01*
X0105214Y0078860D01*
X0105214Y0077726D01*
X0104647Y0077159D01*
X0103513Y0078293D02*
X0103513Y0078860D01*
X0102379Y0087159D02*
X0101812Y0087726D01*
X0101812Y0088860D01*
X0102379Y0089428D01*
X0102946Y0089428D01*
X0105214Y0087159D01*
X0105214Y0089428D01*
X0105214Y0097159D02*
X0105214Y0099428D01*
X0105214Y0098293D02*
X0101812Y0098293D01*
X0102946Y0097159D01*
X0123808Y0080999D02*
X0123808Y0077997D01*
X0124559Y0077246D01*
X0126060Y0077246D01*
X0126811Y0077997D01*
X0126811Y0078747D01*
X0126060Y0079498D01*
X0123808Y0079498D01*
X0123808Y0080999D02*
X0124559Y0081750D01*
X0126060Y0081750D01*
X0126811Y0080999D01*
X0128412Y0080999D02*
X0128412Y0077246D01*
X0131414Y0077246D02*
X0131414Y0080999D01*
X0130664Y0081750D01*
X0129163Y0081750D01*
X0128412Y0080999D01*
X0199714Y0080501D02*
X0200465Y0079750D01*
X0201966Y0079750D01*
X0202717Y0080501D01*
X0202717Y0084254D01*
X0204318Y0084254D02*
X0207321Y0084254D01*
X0207321Y0083503D01*
X0204318Y0080501D01*
X0204318Y0079750D01*
X0199714Y0080501D02*
X0199714Y0084254D01*
X0220808Y0092997D02*
X0221559Y0092246D01*
X0223060Y0092246D01*
X0223811Y0092997D01*
X0225412Y0092246D02*
X0225412Y0095999D01*
X0226163Y0096750D01*
X0227664Y0096750D01*
X0228414Y0095999D01*
X0228414Y0092246D01*
X0223811Y0096750D02*
X0220808Y0096750D01*
X0223811Y0096750D02*
X0220808Y0093747D01*
X0220808Y0092997D01*
X0219583Y0125250D02*
X0217314Y0125250D01*
X0218449Y0125250D02*
X0218449Y0128653D01*
X0217314Y0127519D01*
X0227314Y0128086D02*
X0227882Y0128653D01*
X0229016Y0128653D01*
X0229583Y0128086D01*
X0229583Y0127519D01*
X0227314Y0125250D01*
X0229583Y0125250D01*
X0237314Y0125817D02*
X0237882Y0125250D01*
X0239016Y0125250D01*
X0239583Y0125817D01*
X0239583Y0126384D01*
X0239016Y0126951D01*
X0238449Y0126951D01*
X0239016Y0126951D02*
X0239583Y0127519D01*
X0239583Y0128086D01*
X0239016Y0128653D01*
X0237882Y0128653D01*
X0237314Y0128086D01*
X0251714Y0135501D02*
X0252465Y0134750D01*
X0253966Y0134750D01*
X0254717Y0135501D01*
X0254717Y0139254D01*
X0256318Y0137002D02*
X0258570Y0139254D01*
X0258570Y0134750D01*
X0259321Y0137002D02*
X0256318Y0137002D01*
X0251714Y0135501D02*
X0251714Y0139254D01*
X0239583Y0150817D02*
X0239016Y0150250D01*
X0237882Y0150250D01*
X0237314Y0150817D01*
X0238449Y0151951D02*
X0239016Y0151951D01*
X0239583Y0151384D01*
X0239583Y0150817D01*
X0239016Y0151951D02*
X0239583Y0152519D01*
X0239583Y0153086D01*
X0239016Y0153653D01*
X0237882Y0153653D01*
X0237314Y0153086D01*
X0229583Y0153086D02*
X0229016Y0153653D01*
X0227882Y0153653D01*
X0227314Y0153086D01*
X0229583Y0153086D02*
X0229583Y0152519D01*
X0227314Y0150250D01*
X0229583Y0150250D01*
X0219583Y0150250D02*
X0217314Y0150250D01*
X0218449Y0150250D02*
X0218449Y0153653D01*
X0217314Y0152519D01*
X0206164Y0137750D02*
X0204663Y0137750D01*
X0203912Y0136999D01*
X0203912Y0133246D01*
X0202311Y0134747D02*
X0200809Y0133246D01*
X0200809Y0137750D01*
X0199308Y0137750D02*
X0202311Y0137750D01*
X0206164Y0137750D02*
X0206914Y0136999D01*
X0206914Y0133246D01*
X0197707Y0133997D02*
X0196956Y0133246D01*
X0195455Y0133246D01*
X0194704Y0133997D01*
X0194704Y0134747D01*
X0197707Y0137750D01*
X0194704Y0137750D01*
X0170568Y0162244D02*
X0169817Y0162244D01*
X0169066Y0162994D01*
X0169066Y0164495D01*
X0169817Y0165246D01*
X0170568Y0165246D01*
X0171318Y0164495D01*
X0171318Y0162994D01*
X0170568Y0162244D01*
X0169066Y0162994D02*
X0168316Y0162244D01*
X0167565Y0162244D01*
X0166814Y0162994D01*
X0166814Y0164495D01*
X0167565Y0165246D01*
X0168316Y0165246D01*
X0169066Y0164495D01*
X0167565Y0166847D02*
X0171318Y0166847D01*
X0171318Y0169850D02*
X0167565Y0169850D01*
X0166814Y0169099D01*
X0166814Y0167598D01*
X0167565Y0166847D01*
X0106414Y0167746D02*
X0106414Y0171499D01*
X0105664Y0172250D01*
X0104163Y0172250D01*
X0103412Y0171499D01*
X0103412Y0167746D01*
X0101811Y0169247D02*
X0100309Y0167746D01*
X0100309Y0172250D01*
X0098808Y0172250D02*
X0101811Y0172250D01*
X0097207Y0171499D02*
X0097207Y0168497D01*
X0096456Y0167746D01*
X0094955Y0167746D01*
X0094204Y0168497D01*
X0097207Y0171499D01*
X0096456Y0172250D01*
X0094955Y0172250D01*
X0094204Y0171499D01*
X0094204Y0168497D01*
X0261812Y0058293D02*
X0265214Y0058293D01*
X0265214Y0057159D02*
X0265214Y0059428D01*
X0262946Y0057159D02*
X0261812Y0058293D01*
X0262379Y0049428D02*
X0261812Y0048860D01*
X0261812Y0047726D01*
X0262379Y0047159D01*
X0262379Y0049428D02*
X0262946Y0049428D01*
X0265214Y0047159D01*
X0265214Y0049428D01*
X0264647Y0039428D02*
X0265214Y0038860D01*
X0265214Y0037726D01*
X0264647Y0037159D01*
X0263513Y0038293D02*
X0263513Y0038860D01*
X0264080Y0039428D01*
X0264647Y0039428D01*
X0263513Y0038860D02*
X0262946Y0039428D01*
X0262379Y0039428D01*
X0261812Y0038860D01*
X0261812Y0037726D01*
X0262379Y0037159D01*
X0286812Y0037726D02*
X0286812Y0038860D01*
X0287379Y0039428D01*
X0287946Y0039428D01*
X0288513Y0038860D01*
X0289080Y0039428D01*
X0289647Y0039428D01*
X0290214Y0038860D01*
X0290214Y0037726D01*
X0289647Y0037159D01*
X0288513Y0038293D02*
X0288513Y0038860D01*
X0287379Y0037159D02*
X0286812Y0037726D01*
X0287379Y0047159D02*
X0286812Y0047726D01*
X0286812Y0048860D01*
X0287379Y0049428D01*
X0287946Y0049428D01*
X0290214Y0047159D01*
X0290214Y0049428D01*
X0290214Y0057159D02*
X0290214Y0059428D01*
X0290214Y0058293D02*
X0286812Y0058293D01*
X0287946Y0057159D01*
X0314811Y0051506D02*
X0314811Y0050005D01*
X0315561Y0049254D01*
X0314811Y0047653D02*
X0318564Y0047653D01*
X0319314Y0046902D01*
X0319314Y0045401D01*
X0318564Y0044650D01*
X0314811Y0044650D01*
X0318564Y0049254D02*
X0319314Y0050005D01*
X0319314Y0051506D01*
X0318564Y0052256D01*
X0317813Y0052256D01*
X0317063Y0051506D01*
X0317063Y0050755D01*
X0317063Y0051506D02*
X0316312Y0052256D01*
X0315561Y0052256D01*
X0314811Y0051506D01*
X0385511Y0084050D02*
X0388513Y0084050D01*
X0385511Y0084050D02*
X0385511Y0084801D01*
X0388513Y0087803D01*
X0388513Y0088554D01*
X0385511Y0088554D01*
X0329318Y0122745D02*
X0324814Y0122745D01*
X0324814Y0124246D02*
X0324814Y0121244D01*
X0327817Y0124246D02*
X0329318Y0122745D01*
X0329318Y0125847D02*
X0325565Y0125847D01*
X0324814Y0126598D01*
X0324814Y0128099D01*
X0325565Y0128850D01*
X0329318Y0128850D01*
X0379314Y0142101D02*
X0380065Y0141350D01*
X0381566Y0141350D01*
X0382317Y0142101D01*
X0382317Y0145854D01*
X0383918Y0145854D02*
X0383918Y0143602D01*
X0385420Y0144353D01*
X0386170Y0144353D01*
X0386921Y0143602D01*
X0386921Y0142101D01*
X0386170Y0141350D01*
X0384669Y0141350D01*
X0383918Y0142101D01*
X0383918Y0145854D02*
X0386921Y0145854D01*
X0379314Y0145854D02*
X0379314Y0142101D01*
X0369818Y0170141D02*
X0365314Y0170141D01*
X0365314Y0171642D02*
X0365314Y0168640D01*
X0368317Y0171642D02*
X0369818Y0170141D01*
X0365314Y0173244D02*
X0365314Y0176246D01*
X0365314Y0174745D02*
X0369818Y0174745D01*
X0368317Y0176246D01*
X0369818Y0177847D02*
X0366065Y0177847D01*
X0365314Y0178598D01*
X0365314Y0180099D01*
X0366065Y0180850D01*
X0369818Y0180850D01*
M02*
